<svg width="1440" height="690" viewBox="0 0 1440 690" fill="none" xmlns="http://www.w3.org/2000/svg">
<g clip-path="url(#clip0_1573_140)">
<g opacity="0.51">
<g opacity="0.77">
<path d="M110.947 377.778C13.3409 336.66 -79.7838 354.625 -124.285 372.41C-129.91 374.658 -136.328 370.641 -136.328 364.583V184.684C-136.328 180.188 -132.683 176.543 -128.187 176.543H1528.84C1533.34 176.543 1536.98 180.188 1536.98 184.684V333.437C1536.98 339.546 1530.49 343.502 1524.95 340.927C1400.44 283.064 1258.05 320.133 1200.88 346.849C1139.46 367.334 974.972 396.014 808.361 346.849C641.75 297.685 562.085 304.139 543.08 313.511C443.849 353.812 218.5 423.087 110.947 377.778Z" fill="white"/>
<path d="M1266.31 377.778C1363.92 336.66 1457.04 354.625 1501.54 372.41C1507.17 374.658 1513.59 370.641 1513.59 364.583V184.684C1513.59 180.188 1509.94 176.543 1505.44 176.543H-151.584C-156.081 176.543 -159.725 180.188 -159.725 184.684V333.437C-159.725 339.546 -153.231 343.502 -147.691 340.927C-23.1774 283.064 119.21 320.133 176.377 346.849C237.796 367.334 402.286 396.014 568.897 346.849C735.508 297.685 815.172 304.139 834.178 313.511C933.409 353.812 1158.76 423.087 1266.31 377.778Z" fill="#E2F9FF"/>
<path d="M1227.89 341.622C1325.49 300.504 1418.62 318.469 1463.12 336.254C1468.75 338.502 1475.16 334.484 1475.16 328.427V148.528C1475.16 144.032 1471.52 140.387 1467.02 140.387H-190.006C-194.502 140.387 -198.147 144.032 -198.147 148.528V297.281C-198.147 303.39 -191.653 307.345 -186.113 304.771C-61.5992 246.908 80.7882 283.976 137.955 310.693C199.374 331.178 363.864 359.857 530.475 310.693C697.086 261.529 776.751 267.982 795.756 277.355C894.987 317.656 1120.34 386.931 1227.89 341.622Z" fill="white"/>
</g>
<path d="M1228.01 305.228C1325.62 264.109 1418.74 282.074 1463.25 299.859C1468.87 302.107 1475.29 298.09 1475.29 292.032V112.133C1475.29 107.637 1471.64 103.992 1467.15 103.992H-189.881C-194.377 103.992 -198.022 107.637 -198.022 112.133V260.886C-198.022 266.996 -191.528 270.951 -185.988 268.376C-61.4742 210.513 80.9132 247.582 138.08 274.299C199.499 294.784 363.989 323.463 530.6 274.299C697.211 225.134 776.876 231.588 795.881 240.96C895.112 281.261 1120.46 350.536 1228.01 305.228Z" fill="white"/>
<path d="M72.6506 305.228C-24.9559 264.109 -118.081 282.074 -162.582 299.859C-168.207 302.107 -174.625 298.09 -174.625 292.032V112.133C-174.625 107.637 -170.98 103.992 -166.484 103.992H1490.55C1495.04 103.992 1498.69 107.637 1498.69 112.133V260.886C1498.69 266.996 1492.19 270.951 1486.65 268.376C1362.14 210.513 1219.75 247.582 1162.58 274.299C1101.16 294.784 936.675 323.463 770.064 274.299C603.453 225.134 523.788 231.588 504.783 240.96C405.552 281.261 180.203 350.536 72.6506 305.228Z" fill="#E2F9FF"/>
<path d="M111.072 269.079C13.4659 227.961 -79.6588 245.926 -124.16 263.711C-129.785 265.959 -136.203 261.941 -136.203 255.884V75.9848C-136.203 71.4886 -132.558 67.8438 -128.062 67.8438H1528.97C1533.46 67.8438 1537.11 71.4886 1537.11 75.9848V224.738C1537.11 230.847 1530.61 234.802 1525.07 232.228C1400.56 174.365 1258.17 211.433 1201.01 238.15C1139.59 258.635 975.097 287.314 808.486 238.15C641.875 188.986 562.21 195.439 543.205 204.812C443.974 245.113 218.625 314.388 111.072 269.079Z" fill="white"/>
<path d="M79.8693 10.4833C-18.5221 40.088 -112.359 26.8113 -156.427 14.0114C-161.838 12.4399 -167.406 16.4163 -167.406 22.0502V146.074C-167.406 150.57 -163.761 154.215 -159.265 154.215H1497.76C1502.26 154.215 1505.91 150.57 1505.91 146.074V44.2842C1505.91 38.6105 1500.24 34.671 1494.86 36.4736C1370.11 78.2731 1227.12 51.7073 1169.8 32.5743C1108.38 17.9428 943.893 -2.54115 777.282 32.5743C610.672 67.6897 531.007 63.0803 512.001 56.3862C412.771 27.6013 187.422 -21.878 79.8693 10.4833Z" fill="white"/>
</g>
<g opacity="0.77">
<path d="M1278.27 320.444C1366.97 359.393 1451.73 344.085 1494.83 327.28C1501.92 324.516 1510.07 329.562 1510.07 337.172V506.939C1510.07 512.532 1505.54 517.066 1499.94 517.066H-48.3962C-53.9894 517.066 -58.5236 512.532 -58.5236 506.939V367.676C-58.5236 360 -50.2719 355.079 -43.312 358.316C72.4609 412.176 203.557 376.476 256.546 350.664C314.121 330.648 468.317 302.627 624.501 350.664C780.685 398.701 855.364 392.396 873.181 383.238C966.201 343.861 1177.45 276.174 1278.27 320.444Z" fill="white"/>
<path d="M195.215 320.444C106.511 359.393 21.7556 344.085 -21.3483 327.28C-28.4384 324.516 -36.5859 329.562 -36.5859 337.172V506.939C-36.5859 512.532 -32.0518 517.066 -26.4587 517.066H1521.88C1527.47 517.066 1532.01 512.532 1532.01 506.939V367.676C1532.01 360 1523.76 355.079 1516.8 358.316C1401.02 412.176 1269.93 376.476 1216.94 350.664C1159.36 330.648 1005.17 302.627 848.983 350.664C692.799 398.701 618.12 392.396 600.304 383.238C507.283 343.861 296.037 276.174 195.215 320.444Z" fill="#E2F9FF"/>
<path d="M231.23 355.768C142.527 394.717 57.7713 379.409 14.6673 362.605C7.5772 359.84 -0.570312 364.886 -0.570312 372.496V542.263C-0.570312 547.857 3.96382 552.391 9.55693 552.391H1557.9C1563.49 552.391 1568.02 547.857 1568.02 542.263V403C1568.02 395.324 1559.77 390.403 1552.81 393.641C1437.04 447.501 1305.94 411.8 1252.95 385.988C1195.38 365.973 1041.18 337.951 884.999 385.988C728.815 434.026 654.136 427.72 636.319 418.563C543.299 379.185 332.053 311.498 231.23 355.768Z" fill="white"/>
</g>
<path d="M231.246 391.338C142.542 430.287 57.7869 414.979 14.6829 398.175C7.59283 395.411 -0.554688 400.456 -0.554688 408.066V577.834C-0.554688 583.427 3.97945 587.961 9.57256 587.961H1557.91C1563.51 587.961 1568.04 583.427 1568.04 577.834V438.57C1568.04 430.894 1559.79 425.973 1552.83 429.211C1437.05 483.071 1305.96 447.37 1252.97 421.559C1195.39 401.543 1041.2 373.521 885.014 421.559C728.83 469.596 654.151 463.29 636.335 454.133C543.315 414.756 332.068 347.069 231.246 391.338Z" fill="white"/>
<path d="M1314.3 391.338C1403 430.287 1487.76 414.979 1530.86 398.175C1537.95 395.411 1546.1 400.456 1546.1 408.066V577.834C1546.1 583.427 1541.57 587.961 1535.97 587.961H-12.365C-17.9581 587.961 -22.4923 583.427 -22.4923 577.834V438.57C-22.4923 430.894 -14.2406 425.973 -7.28076 429.211C108.492 483.071 239.588 447.37 292.577 421.559C350.152 401.543 504.348 373.521 660.532 421.559C816.717 469.596 891.396 463.29 909.212 454.133C1002.23 414.756 1213.48 347.069 1314.3 391.338Z" fill="#E2F9FF"/>
<path d="M1278.29 426.667C1366.99 465.615 1451.74 450.307 1494.85 433.503C1501.94 430.739 1510.09 435.784 1510.09 443.394V613.162C1510.09 618.755 1505.55 623.289 1499.96 623.289H-48.3806C-53.9738 623.289 -58.5079 618.755 -58.5079 613.162V473.899C-58.5079 466.222 -50.2562 461.301 -43.2964 464.539C72.4766 518.399 203.572 482.698 256.561 456.887C314.136 436.871 468.333 408.849 624.517 456.887C780.701 504.924 855.38 498.618 873.196 489.461C966.217 450.084 1177.46 382.397 1278.29 426.667Z" fill="white"/>
<path d="M1307.55 679.331C1397.22 651.209 1482.86 662.689 1525.51 674.841C1532.3 676.777 1539.35 671.802 1539.35 664.736V549.022C1539.35 543.429 1534.82 538.895 1529.22 538.895H-19.115C-24.7081 538.895 -29.2423 543.429 -29.2423 549.022V642.964C-29.2423 650.081 -22.0831 654.99 -15.3381 652.718C100.754 613.62 232.638 639.241 285.827 657.747C343.402 672.043 497.598 692.057 653.782 657.747C809.967 623.436 884.646 627.94 902.462 634.481C995.482 662.606 1206.73 710.951 1307.55 679.331Z" fill="white"/>
</g>
<defs>
<clipPath id="clip0_1573_140">
<rect width="1441" height="690" fill="white" transform="translate(-1)"/>
</clipPath>
</defs>
</svg>
