<svg width="1440" height="1270" viewBox="0 0 1440 1270" fill="none" xmlns="http://www.w3.org/2000/svg">
<g clip-path="url(#clip0_1573_141)">
<path d="M664.448 283.665L-56.4009 254.254L-99.0156 61.9656C-99.0156 61.9656 399.712 0.144768 720.568 0.144531C1041.42 0.144295 1540.15 61.9644 1540.15 61.9644L1497.54 254.253L776.687 283.663L757.481 512.943L720.568 512.944H683.655L664.448 283.665Z" fill="#EDFDFF"/>
<path d="M664.448 302.486L-56.4009 273.076L-99.0156 103.376C-99.0156 103.376 399.712 41.5549 720.568 41.5547C1041.42 41.5545 1540.15 103.375 1540.15 103.375L1497.54 273.075L776.687 302.485L757.481 531.765L720.568 531.766H683.655L664.448 302.486Z" fill="#8B8B8B"/>
<path d="M-61.8577 274.447L-60.8332 278.526L-56.6302 278.698L659.257 307.905L678.049 532.235L678.48 537.392H683.655H720.568L757.481 537.391L762.655 537.391L763.087 532.234L781.879 307.904L1497.77 278.697L1501.97 278.525L1502.99 274.445L1545.61 104.745L1547.16 98.5737L1540.84 97.791L1540.15 103.375C1540.84 97.791 1540.84 97.7908 1540.84 97.7903L1540.82 97.7881L1540.75 97.7796L1540.48 97.7458L1539.4 97.6128C1538.44 97.4956 1537.02 97.3217 1535.15 97.095C1531.41 96.6416 1525.89 95.9769 1518.76 95.1311C1504.48 93.4394 1483.74 91.0231 1457.84 88.1239C1406.04 82.3254 1333.64 74.5942 1251.21 66.8629C1086.39 51.4049 881.272 35.9283 720.568 35.9285C559.864 35.9286 354.751 51.4054 189.93 66.8637C107.494 74.5951 35.0923 82.3264 -16.7021 88.125C-42.5998 91.0243 -63.3468 93.4406 -77.6214 95.1323C-84.7587 95.9781 -90.278 96.6428 -94.0141 97.0962C-95.8822 97.3229 -97.3045 97.4968 -98.2603 97.6141C-98.7382 97.6727 -99.0995 97.7172 -99.3416 97.747L-99.615 97.7808L-99.6841 97.7893L-99.7016 97.7915C-99.7056 97.792 -99.7077 97.7923 -99.0156 103.376L-99.7077 97.7923L-106.022 98.575L-104.472 104.746L-61.8577 274.447Z" stroke="#727272" stroke-opacity="0.56" stroke-width="11.2525"/>
<mask id="path-4-inside-1_1573_141" fill="white">
<path fill-rule="evenodd" clip-rule="evenodd" d="M1482.02 593.908L1210.12 546.136C1203.52 545.309 1186.23 543.531 1169.91 543.034C1153.58 542.538 1107.49 534.555 1086.48 530.626C1082.48 529.799 1071.95 528.145 1061.87 528.145C1051.79 528.145 827.189 529.799 716.15 530.626V530.868C604.911 530.04 381.079 528.391 371.013 528.391C360.93 528.391 350.406 530.045 346.405 530.872C325.397 534.802 279.301 542.784 262.976 543.281C246.65 543.777 229.364 545.555 222.762 546.383L-49.1323 594.154L-73.1406 1130.19H716.733V1129.94H1506.02L1482.02 593.908Z"/>
</mask>
<path fill-rule="evenodd" clip-rule="evenodd" d="M1482.02 593.908L1210.12 546.136C1203.52 545.309 1186.23 543.531 1169.91 543.034C1153.58 542.538 1107.49 534.555 1086.48 530.626C1082.48 529.799 1071.95 528.145 1061.87 528.145C1051.79 528.145 827.189 529.799 716.15 530.626V530.868C604.911 530.04 381.079 528.391 371.013 528.391C360.93 528.391 350.406 530.045 346.405 530.872C325.397 534.802 279.301 542.784 262.976 543.281C246.65 543.777 229.364 545.555 222.762 546.383L-49.1323 594.154L-73.1406 1130.19H716.733V1129.94H1506.02L1482.02 593.908Z" fill="#A6A6A6"/>
<path d="M1210.12 546.136L1213.24 528.404L1212.8 528.327L1212.36 528.272L1210.12 546.136ZM1482.02 593.908L1500 593.102L1499.35 578.675L1485.13 576.176L1482.02 593.908ZM1169.91 543.034L1169.36 561.03L1169.36 561.03L1169.91 543.034ZM1086.48 530.626L1082.83 548.257L1083 548.292L1083.17 548.323L1086.48 530.626ZM716.15 530.626L716.016 512.623L698.146 512.756V530.626H716.15ZM716.15 530.868L716.016 548.872L734.154 549.007V530.868H716.15ZM346.405 530.872L349.715 548.57L349.882 548.538L350.049 548.504L346.405 530.872ZM222.762 546.383L220.524 528.518L220.083 528.574L219.646 528.65L222.762 546.383ZM-49.1323 594.154L-52.2479 576.422L-66.472 578.921L-67.1182 593.349L-49.1323 594.154ZM-73.1406 1130.19L-91.1265 1129.38L-91.969 1148.19H-73.1406V1130.19ZM716.733 1130.19V1148.19H734.737V1130.19H716.733ZM716.733 1129.94V1111.94H698.729V1129.94H716.733ZM1506.02 1129.94V1147.94H1524.85L1524.01 1129.14L1506.02 1129.94ZM1207.01 563.869L1478.9 611.64L1485.13 576.176L1213.24 528.404L1207.01 563.869ZM1169.36 561.03C1184.96 561.504 1201.66 563.221 1207.88 564.001L1212.36 528.272C1205.38 527.398 1187.5 525.557 1170.45 525.039L1169.36 561.03ZM1083.17 548.323C1103.58 552.141 1151.31 560.481 1169.36 561.03L1170.45 525.039C1155.86 524.595 1111.39 516.97 1089.79 512.929L1083.17 548.323ZM1061.87 546.148C1070.39 546.148 1079.64 547.598 1082.83 548.257L1090.12 512.995C1085.31 512 1073.52 510.141 1061.87 510.141V546.148ZM716.284 548.63C827.403 547.802 1051.88 546.148 1061.87 546.148V510.141C1051.7 510.141 826.974 511.796 716.016 512.623L716.284 548.63ZM734.154 530.868V530.626H698.146V530.868H734.154ZM716.284 512.865C605.125 512.037 381.168 510.387 371.013 510.387V546.395C380.99 546.395 604.697 548.042 716.016 548.872L716.284 512.865ZM371.013 510.387C359.364 510.387 347.573 512.246 342.76 513.241L350.049 548.504C353.239 547.844 362.495 546.395 371.013 546.395V510.387ZM343.094 513.175C321.492 517.216 277.026 524.841 262.429 525.285L263.523 561.276C281.577 560.727 329.302 552.388 349.715 548.57L343.094 513.175ZM262.429 525.285C245.379 525.803 227.503 527.644 220.524 528.518L225 564.247C231.225 563.467 247.921 561.751 263.523 561.276L262.429 525.285ZM219.646 528.65L-52.2479 576.422L-46.0168 611.887L225.877 564.115L219.646 528.65ZM-67.1182 593.349L-91.1265 1129.38L-55.1547 1130.99L-31.1464 594.96L-67.1182 593.349ZM-73.1406 1148.19H716.733V1112.18H-73.1406V1148.19ZM734.737 1130.19V1129.94H698.729V1130.19H734.737ZM1506.02 1111.94H716.733V1147.94H1506.02V1111.94ZM1464.03 594.713L1488.04 1130.75L1524.01 1129.14L1500 593.102L1464.03 594.713Z" fill="#9E9E9E" mask="url(#path-4-inside-1_1573_141)"/>
<path d="M218.959 646.84C31.6163 632.92 -40.8387 671.972 -53.6484 693.238V1393.09H720.94H1495.53V693.238C1482.72 671.972 1410.26 632.92 1222.92 646.84L720.94 646.84H218.959Z" fill="#363636"/>
<g filter="url(#filter0_d_1573_141)">
<path d="M82.2952 679.676H1354.7L1504 1178.5H-77.1797L82.2952 679.676Z" fill="#585E61"/>
</g>
<path d="M-245.141 1363.91H494.824L581.647 967.675H-337.883L-245.141 1363.91Z" fill="#585E61"/>
<path d="M1671.02 1363.91H931.059L844.236 967.675H1763.77L1671.02 1363.91Z" fill="#585E61"/>
<g filter="url(#filter1_di_1573_141)">
<path d="M709.479 916.224L-48.375 930.571L-22.3419 643.633H709.479H1441.3L1467.33 930.571L709.479 916.224Z" fill="#94989A"/>
</g>
</g>
<defs>
<filter id="filter0_d_1573_141" x="-81.6807" y="679.676" width="1590.18" height="507.826" filterUnits="userSpaceOnUse" color-interpolation-filters="sRGB">
<feFlood flood-opacity="0" result="BackgroundImageFix"/>
<feColorMatrix in="SourceAlpha" type="matrix" values="0 0 0 0 0 0 0 0 0 0 0 0 0 0 0 0 0 0 127 0" result="hardAlpha"/>
<feOffset dy="4.50099"/>
<feGaussianBlur stdDeviation="2.25049"/>
<feComposite in2="hardAlpha" operator="out"/>
<feColorMatrix type="matrix" values="0 0 0 0 0 0 0 0 0 0 0 0 0 0 0 0 0 0 0.25 0"/>
<feBlend mode="normal" in2="BackgroundImageFix" result="effect1_dropShadow_1573_141"/>
<feBlend mode="normal" in="SourceGraphic" in2="effect1_dropShadow_1573_141" result="shape"/>
</filter>
<filter id="filter1_di_1573_141" x="-52.876" y="643.633" width="1524.71" height="301.566" filterUnits="userSpaceOnUse" color-interpolation-filters="sRGB">
<feFlood flood-opacity="0" result="BackgroundImageFix"/>
<feColorMatrix in="SourceAlpha" type="matrix" values="0 0 0 0 0 0 0 0 0 0 0 0 0 0 0 0 0 0 127 0" result="hardAlpha"/>
<feOffset dy="10.1272"/>
<feGaussianBlur stdDeviation="2.25049"/>
<feComposite in2="hardAlpha" operator="out"/>
<feColorMatrix type="matrix" values="0 0 0 0 0 0 0 0 0 0 0 0 0 0 0 0 0 0 0.25 0"/>
<feBlend mode="normal" in2="BackgroundImageFix" result="effect1_dropShadow_1573_141"/>
<feBlend mode="normal" in="SourceGraphic" in2="effect1_dropShadow_1573_141" result="shape"/>
<feColorMatrix in="SourceAlpha" type="matrix" values="0 0 0 0 0 0 0 0 0 0 0 0 0 0 0 0 0 0 127 0" result="hardAlpha"/>
<feOffset dy="10.1272"/>
<feGaussianBlur stdDeviation="2.25049"/>
<feComposite in2="hardAlpha" operator="arithmetic" k2="-1" k3="1"/>
<feColorMatrix type="matrix" values="0 0 0 0 0 0 0 0 0 0 0 0 0 0 0 0 0 0 0.25 0"/>
<feBlend mode="normal" in2="shape" result="effect2_innerShadow_1573_141"/>
</filter>
<clipPath id="clip0_1573_141">
<rect width="1440" height="1270" fill="white"/>
</clipPath>
</defs>
</svg>
