<svg width="1440" height="1151" viewBox="0 0 1440 1151" fill="none" xmlns="http://www.w3.org/2000/svg">
<g clip-path="url(#clip0_1624_3)">
<g filter="url(#filter0_di_1624_3)">
<path d="M177.503 16.5893C92.971 47.953 12.2357 35.2306 -28.1194 21.6804C-34.4898 19.5414 -41.4141 24.1443 -41.4141 30.8642V164.203C-41.4141 169.338 -37.2516 173.5 -32.1171 173.5H1430.7C1435.84 173.5 1440 169.338 1440 164.203V55.1923C1440 48.4185 1432.96 43.8994 1426.67 46.4021C1317.08 89.9753 1192.64 61.3697 1142.44 40.7059C1088.06 24.7328 942.439 2.37064 794.935 40.7059C647.432 79.0411 582.942 48.0138 566.115 40.7059C478.265 9.28168 272.722 -18.7392 177.503 16.5893Z" fill="#ABE3FF"/>
</g>
<g clip-path="url(#clip1_1624_3)">
<rect width="1440" height="1080.47" transform="translate(0 70.9102)" fill="#ABE3FF"/>
<g opacity="0.77">
<path d="M1219.14 1167.26C1307.85 1128.31 1392.6 1143.62 1435.71 1160.43C1442.8 1163.19 1450.95 1158.15 1450.95 1150.54V980.768C1450.95 975.175 1446.41 970.641 1440.82 970.641H-107.521C-113.114 970.641 -117.649 975.175 -117.649 980.768V1120.03C-117.649 1127.71 -109.397 1132.63 -102.437 1129.39C13.3359 1075.53 144.432 1111.23 197.421 1137.04C254.996 1157.06 409.192 1185.08 565.376 1137.04C721.56 1089.01 796.239 1095.31 814.056 1104.47C907.076 1143.85 1118.32 1211.53 1219.14 1167.26Z" fill="white"/>
<path d="M136.09 1167.26C47.386 1128.31 -37.3694 1143.62 -80.4733 1160.43C-87.5634 1163.19 -95.7109 1158.15 -95.7109 1150.54V980.768C-95.7109 975.175 -91.1768 970.641 -85.5837 970.641H1462.76C1468.35 970.641 1472.88 975.175 1472.88 980.768V1120.03C1472.88 1127.71 1464.63 1132.63 1457.67 1129.39C1341.9 1075.53 1210.8 1111.23 1157.81 1137.04C1100.24 1157.06 946.042 1185.08 789.858 1137.04C633.674 1089.01 558.995 1095.31 541.179 1104.47C448.158 1143.85 236.912 1211.53 136.09 1167.26Z" fill="#E2F9FF"/>
<path d="M172.105 1131.94C83.4016 1092.99 -1.35374 1108.3 -44.4577 1125.1C-51.5478 1127.87 -59.6953 1122.82 -59.6953 1115.21V945.444C-59.6953 939.851 -55.1612 935.316 -49.5681 935.316H1498.77C1504.36 935.316 1508.9 939.851 1508.9 945.444V1084.71C1508.9 1092.38 1500.65 1097.3 1493.69 1094.07C1377.91 1040.21 1246.82 1075.91 1193.83 1101.72C1136.25 1121.73 982.058 1149.76 825.874 1101.72C669.69 1053.68 595.011 1059.99 577.194 1069.14C484.174 1108.52 272.928 1176.21 172.105 1131.94Z" fill="white"/>
</g>
<path d="M172.105 1096.37C83.4016 1057.42 -1.35374 1072.73 -44.4577 1089.54C-51.5478 1092.3 -59.6953 1087.25 -59.6953 1079.64V909.877C-59.6953 904.284 -55.1612 899.75 -49.5681 899.75H1498.77C1504.36 899.75 1508.9 904.284 1508.9 909.877V1049.14C1508.9 1056.82 1500.65 1061.74 1493.69 1058.5C1377.91 1004.64 1246.82 1040.34 1193.83 1066.15C1136.25 1086.17 982.058 1114.19 825.874 1066.15C669.69 1018.12 595.011 1024.42 577.194 1033.58C484.174 1072.96 272.928 1140.64 172.105 1096.37Z" fill="white"/>
<path d="M1255.16 1096.37C1343.86 1057.42 1428.62 1072.73 1471.72 1089.54C1478.81 1092.3 1486.96 1087.25 1486.96 1079.64V909.877C1486.96 904.284 1482.43 899.75 1476.83 899.75H-71.5056C-77.0988 899.75 -81.6329 904.284 -81.6329 909.877V1049.14C-81.6329 1056.82 -73.3812 1061.74 -66.4214 1058.5C49.3516 1004.64 180.447 1040.34 233.436 1066.15C291.011 1086.17 445.208 1114.19 601.392 1066.15C757.576 1018.12 832.255 1024.42 850.071 1033.58C943.092 1072.96 1154.34 1140.64 1255.16 1096.37Z" fill="#E2F9FF"/>
<path d="M1219.14 1061.04C1307.85 1022.1 1392.6 1037.4 1435.71 1054.21C1442.8 1056.97 1450.95 1051.93 1450.95 1044.32V874.549C1450.95 868.956 1446.41 864.422 1440.82 864.422H-107.521C-113.114 864.422 -117.649 868.956 -117.649 874.549V1013.81C-117.649 1021.49 -109.397 1026.41 -102.437 1023.17C13.3359 969.312 144.432 1005.01 197.421 1030.82C254.996 1050.84 409.192 1078.86 565.376 1030.82C721.56 982.787 796.239 989.093 814.056 998.25C907.076 1037.63 1118.32 1105.31 1219.14 1061.04Z" fill="white"/>
<path d="M1248.41 808.38C1338.08 836.502 1423.72 825.022 1466.37 812.87C1473.16 810.934 1480.21 815.909 1480.21 822.975V938.689C1480.21 944.282 1475.68 948.816 1470.08 948.816H-78.2556C-83.8488 948.816 -88.3829 944.282 -88.3829 938.689V844.747C-88.3829 837.63 -81.2238 832.721 -74.4788 834.993C41.613 874.091 173.498 848.47 226.686 829.964C284.261 815.668 438.458 795.654 594.642 829.964C750.826 864.275 825.505 859.771 843.321 853.23C936.342 825.105 1147.59 776.76 1248.41 808.38Z" fill="white"/>
<g opacity="0.41">
<g opacity="0.77">
<path d="M177.754 121.163C89.05 160.111 4.29469 144.803 -38.8093 127.999C-45.8994 125.235 -54.0469 130.28 -54.0469 137.89V307.658C-54.0469 313.251 -49.5127 317.785 -43.9196 317.785H1504.42C1510.01 317.785 1514.55 313.251 1514.55 307.658V168.395C1514.55 160.719 1506.3 155.797 1499.34 159.035C1383.56 212.895 1252.47 177.195 1199.48 151.383C1141.9 131.367 987.706 103.345 831.522 151.383C675.338 199.42 600.659 193.115 582.843 183.957C489.822 144.58 278.576 76.8929 177.754 121.163Z" fill="white"/>
<path d="M1260.81 164.456C1349.51 203.404 1434.27 188.096 1477.37 171.292C1484.46 168.528 1492.61 173.573 1492.61 181.183V350.951C1492.61 356.544 1488.08 361.078 1482.48 361.078H-65.8572C-71.4503 361.078 -75.9845 356.544 -75.9845 350.951V211.688C-75.9845 204.012 -67.7328 199.09 -60.7729 202.328C55 256.188 186.096 220.488 239.085 194.676C296.66 174.66 450.856 146.638 607.04 194.676C763.224 242.713 837.903 236.407 855.72 227.25C948.74 187.873 1159.99 120.186 1260.81 164.456Z" fill="#E2F9FF"/>
<path d="M1224.79 199.78C1313.5 238.729 1398.25 223.421 1441.36 206.616C1448.45 203.852 1456.59 208.898 1456.59 216.507V386.275C1456.59 391.868 1452.06 396.402 1446.47 396.402H-101.873C-107.466 396.402 -112 391.868 -112 386.275V247.012C-112 239.336 -103.748 234.415 -96.7886 237.652C18.9844 291.512 150.08 255.812 203.069 230C260.644 209.984 414.84 181.963 571.025 230C727.209 278.037 801.888 271.732 819.704 262.574C912.725 223.197 1123.97 155.51 1224.79 199.78Z" fill="white"/>
</g>
<path d="M1224.79 235.346C1313.5 274.295 1398.25 258.987 1441.36 242.183C1448.45 239.419 1456.59 244.464 1456.59 252.074V421.842C1456.59 427.435 1452.06 431.969 1446.47 431.969H-101.873C-107.466 431.969 -112 427.435 -112 421.842V282.578C-112 274.902 -103.748 269.981 -96.7886 273.219C18.9844 327.079 150.08 291.378 203.069 265.566C260.644 245.551 414.84 217.529 571.025 265.566C727.209 313.604 801.888 307.298 819.704 298.141C912.725 258.763 1123.97 191.077 1224.79 235.346Z" fill="white"/>
<path d="M141.738 235.346C53.0344 274.295 -31.7209 258.987 -74.8249 242.183C-81.915 239.419 -90.0625 244.464 -90.0625 252.074V421.842C-90.0625 427.435 -85.5284 431.969 -79.9353 431.969H1468.4C1474 431.969 1478.53 427.435 1478.53 421.842V282.578C1478.53 274.902 1470.28 269.981 1463.32 273.219C1347.55 327.079 1216.45 291.378 1163.46 265.566C1105.89 245.551 951.691 217.529 795.507 265.566C639.322 313.604 564.643 307.298 546.827 298.141C453.807 258.763 242.56 191.077 141.738 235.346Z" fill="#E2F9FF"/>
<path d="M177.754 270.674C89.05 309.623 4.29469 294.315 -38.8093 277.511C-45.8994 274.747 -54.0469 279.792 -54.0469 287.402V457.17C-54.0469 462.763 -49.5127 467.297 -43.9196 467.297H1504.42C1510.01 467.297 1514.55 462.763 1514.55 457.17V317.906C1514.55 310.23 1506.3 305.309 1499.34 308.547C1383.56 362.407 1252.47 326.706 1199.48 300.894C1141.9 280.879 987.706 252.857 831.522 300.894C675.338 348.932 600.659 342.626 582.843 333.469C489.822 294.092 278.576 226.405 177.754 270.674Z" fill="white"/>
<path d="M148.488 523.339C58.8182 495.217 -26.8168 506.697 -69.4685 518.849C-76.2639 520.785 -83.3125 515.81 -83.3125 508.744V393.03C-83.3125 387.436 -78.7784 382.902 -73.1853 382.902H1475.15C1480.75 382.902 1485.28 387.436 1485.28 393.03V486.972C1485.28 494.089 1478.12 498.998 1471.38 496.726C1355.29 457.627 1223.4 483.249 1170.21 501.755C1112.64 516.051 958.441 536.065 802.257 501.755C646.072 467.444 571.393 471.948 553.577 478.488C460.557 506.613 249.31 554.959 148.488 523.339Z" fill="white"/>
</g>
<g opacity="0.41">
<g opacity="0.77">
<path d="M177.754 413.862C89.05 452.811 4.29469 437.503 -38.8093 420.698C-45.8994 417.934 -54.0469 422.98 -54.0469 430.589V600.357C-54.0469 605.95 -49.5127 610.484 -43.9196 610.484H1504.42C1510.01 610.484 1514.55 605.95 1514.55 600.357V461.094C1514.55 453.418 1506.3 448.497 1499.34 451.734C1383.56 505.594 1252.47 469.894 1199.48 444.082C1141.9 424.066 987.706 396.045 831.522 444.082C675.338 492.119 600.659 485.814 582.843 476.656C489.822 437.279 278.576 369.592 177.754 413.862Z" fill="white"/>
<path d="M1260.81 413.862C1349.51 452.811 1434.27 437.503 1477.37 420.698C1484.46 417.934 1492.61 422.98 1492.61 430.589V600.357C1492.61 605.95 1488.08 610.484 1482.48 610.484H-65.8572C-71.4503 610.484 -75.9845 605.95 -75.9845 600.357V461.094C-75.9845 453.418 -67.7328 448.497 -60.7729 451.734C55 505.594 186.096 469.894 239.085 444.082C296.66 424.066 450.856 396.045 607.04 444.082C763.224 492.119 837.903 485.814 855.72 476.656C948.74 437.279 1159.99 369.592 1260.81 413.862Z" fill="#E2F9FF"/>
<path d="M1224.79 449.186C1313.5 488.135 1398.25 472.827 1441.36 456.022C1448.45 453.258 1456.59 458.304 1456.59 465.914V635.681C1456.59 641.274 1452.06 645.809 1446.47 645.809H-101.873C-107.466 645.809 -112 641.274 -112 635.681V496.418C-112 488.742 -103.748 483.821 -96.7886 487.059C18.9844 540.919 150.08 505.218 203.069 479.406C260.644 459.391 414.84 431.369 571.025 479.406C727.209 527.444 801.888 521.138 819.704 511.981C912.725 472.603 1123.97 404.916 1224.79 449.186Z" fill="white"/>
</g>
<path d="M1224.79 484.752C1313.5 523.701 1398.25 508.393 1441.36 491.589C1448.45 488.825 1456.59 493.87 1456.59 501.48V671.248C1456.59 676.841 1452.06 681.375 1446.47 681.375H-101.873C-107.466 681.375 -112 676.841 -112 671.248V531.985C-112 524.308 -103.748 519.387 -96.7886 522.625C18.9844 576.485 150.08 540.784 203.069 514.973C260.644 494.957 414.84 466.935 571.025 514.973C727.209 563.01 801.888 556.704 819.704 547.547C912.725 508.17 1123.97 440.483 1224.79 484.752Z" fill="white"/>
<path d="M141.738 484.752C53.0344 523.701 -31.7209 508.393 -74.8249 491.589C-81.915 488.825 -90.0625 493.87 -90.0625 501.48V671.248C-90.0625 676.841 -85.5284 681.375 -79.9353 681.375H1468.4C1474 681.375 1478.53 676.841 1478.53 671.248V531.985C1478.53 524.308 1470.28 519.387 1463.32 522.625C1347.55 576.485 1216.45 540.784 1163.46 514.973C1105.89 494.957 951.691 466.935 795.507 514.973C639.322 563.01 564.643 556.704 546.827 547.547C453.807 508.17 242.56 440.483 141.738 484.752Z" fill="#E2F9FF"/>
<path d="M177.754 520.081C89.05 559.029 4.29469 543.721 -38.8093 526.917C-45.8994 524.153 -54.0469 529.198 -54.0469 536.808V706.576C-54.0469 712.169 -49.5127 716.703 -43.9196 716.703H1504.42C1510.01 716.703 1514.55 712.169 1514.55 706.576V567.313C1514.55 559.637 1506.3 554.715 1499.34 557.953C1383.56 611.813 1252.47 576.113 1199.48 550.301C1141.9 530.285 987.706 502.263 831.522 550.301C675.338 598.338 600.659 592.032 582.843 582.875C489.822 543.498 278.576 475.811 177.754 520.081Z" fill="white"/>
<path d="M148.488 772.745C58.8182 744.623 -26.8168 756.103 -69.4685 768.255C-76.2639 770.191 -83.3125 765.216 -83.3125 758.15V642.436C-83.3125 636.843 -78.7784 632.309 -73.1853 632.309H1475.15C1480.75 632.309 1485.28 636.843 1485.28 642.436V736.378C1485.28 743.495 1478.12 748.404 1471.38 746.132C1355.29 707.034 1223.4 732.655 1170.21 751.161C1112.64 765.457 958.441 785.471 802.257 751.161C646.072 716.85 571.393 721.354 553.577 727.895C460.557 756.02 249.31 804.365 148.488 772.745Z" fill="white"/>
</g>
<g opacity="0.77">
<path d="M1222.14 676.225C1310.85 715.174 1395.6 699.866 1438.71 683.062C1445.8 680.297 1453.95 685.343 1453.95 692.953V862.72C1453.95 868.314 1449.41 872.848 1443.82 872.848H-104.521C-110.114 872.848 -114.649 868.314 -114.649 862.72V723.457C-114.649 715.781 -106.397 710.86 -99.437 714.098C16.3359 767.958 147.432 732.257 200.421 706.445C257.996 686.43 412.192 658.408 568.376 706.445C724.56 754.483 799.239 748.177 817.056 739.02C910.076 699.642 1121.32 631.955 1222.14 676.225Z" fill="white"/>
<path d="M139.09 676.225C50.386 715.174 -34.3694 699.866 -77.4733 683.062C-84.5634 680.297 -92.7109 685.343 -92.7109 692.953V862.72C-92.7109 868.314 -88.1768 872.848 -82.5837 872.848H1465.76C1471.35 872.848 1475.88 868.314 1475.88 862.72V723.457C1475.88 715.781 1467.63 710.86 1460.67 714.098C1344.9 767.958 1213.8 732.257 1160.81 706.445C1103.24 686.43 949.042 658.408 792.858 706.445C636.674 754.483 561.995 748.177 544.179 739.02C451.158 699.642 239.912 631.955 139.09 676.225Z" fill="#E2F9FF"/>
<path d="M175.105 711.549C86.4016 750.498 1.64626 735.19 -41.4577 718.386C-48.5478 715.622 -56.6953 720.667 -56.6953 728.277V898.045C-56.6953 903.638 -52.1612 908.172 -46.5681 908.172H1501.77C1507.36 908.172 1511.9 903.638 1511.9 898.045V758.781C1511.9 751.105 1503.65 746.184 1496.69 749.422C1380.91 803.282 1249.82 767.581 1196.83 741.769C1139.25 721.754 985.058 693.732 828.874 741.769C672.69 789.807 598.011 783.501 580.194 774.344C487.174 734.967 275.928 667.28 175.105 711.549Z" fill="white"/>
</g>
<path d="M175.105 747.116C86.4016 786.064 1.64626 770.757 -41.4577 753.952C-48.5478 751.188 -56.6953 756.234 -56.6953 763.843V933.611C-56.6953 939.204 -52.1612 943.738 -46.5681 943.738H1501.77C1507.36 943.738 1511.9 939.204 1511.9 933.611V794.348C1511.9 786.672 1503.65 781.75 1496.69 784.988C1380.91 838.848 1249.82 803.148 1196.83 777.336C1139.25 757.32 985.058 729.299 828.874 777.336C672.69 825.373 598.011 819.068 580.194 809.91C487.174 770.533 275.928 702.846 175.105 747.116Z" fill="white"/>
<path d="M1258.16 747.116C1346.86 786.064 1431.62 770.757 1474.72 753.952C1481.81 751.188 1489.96 756.234 1489.96 763.843V933.611C1489.96 939.204 1485.43 943.738 1479.83 943.738H-68.5056C-74.0988 943.738 -78.6329 939.204 -78.6329 933.611V794.348C-78.6329 786.672 -70.3812 781.75 -63.4214 784.988C52.3516 838.848 183.447 803.148 236.436 777.336C294.011 757.32 448.208 729.299 604.392 777.336C760.576 825.373 835.255 819.068 853.071 809.91C946.092 770.533 1157.34 702.846 1258.16 747.116Z" fill="#E2F9FF"/>
<path d="M1222.14 782.444C1310.85 821.393 1395.6 806.085 1438.71 789.28C1445.8 786.516 1453.95 791.562 1453.95 799.172V968.939C1453.95 974.532 1449.41 979.066 1443.82 979.066H-104.521C-110.114 979.066 -114.649 974.532 -114.649 968.939V829.676C-114.649 822 -106.397 817.079 -99.437 820.316C16.3359 874.176 147.432 838.476 200.421 812.664C257.996 792.648 412.192 764.627 568.376 812.664C724.56 860.701 799.239 854.396 817.056 845.238C910.076 805.861 1121.32 738.174 1222.14 782.444Z" fill="white"/>
<path d="M1251.41 1035.11C1341.08 1006.99 1426.72 1018.47 1469.37 1030.62C1476.16 1032.55 1483.21 1027.58 1483.21 1020.51V904.799C1483.21 899.206 1478.68 894.672 1473.08 894.672H-75.2556C-80.8488 894.672 -85.3829 899.206 -85.3829 904.799V998.741C-85.3829 1005.86 -78.2238 1010.77 -71.4788 1008.5C44.613 969.397 176.498 995.019 229.686 1013.52C287.261 1027.82 441.458 1047.83 597.642 1013.52C753.826 979.214 828.505 983.717 846.321 990.258C939.342 1018.38 1150.59 1066.73 1251.41 1035.11Z" fill="white"/>
</g>
</g>
<defs>
<filter id="filter0_di_1624_3" x="-78.5905" y="-53.0202" width="1555.77" height="247.697" filterUnits="userSpaceOnUse" color-interpolation-filters="sRGB">
<feFlood flood-opacity="0" result="BackgroundImageFix"/>
<feColorMatrix in="SourceAlpha" type="matrix" values="0 0 0 0 0 0 0 0 0 0 0 0 0 0 0 0 0 0 127 0" result="hardAlpha"/>
<feOffset dy="-16"/>
<feGaussianBlur stdDeviation="18.5882"/>
<feComposite in2="hardAlpha" operator="out"/>
<feColorMatrix type="matrix" values="0 0 0 0 0 0 0 0 0 0 0 0 0 0 0 0 0 0 0.52 0"/>
<feBlend mode="normal" in2="BackgroundImageFix" result="effect1_dropShadow_1624_3"/>
<feBlend mode="normal" in="SourceGraphic" in2="effect1_dropShadow_1624_3" result="shape"/>
<feColorMatrix in="SourceAlpha" type="matrix" values="0 0 0 0 0 0 0 0 0 0 0 0 0 0 0 0 0 0 127 0" result="hardAlpha"/>
<feOffset dy="9.41177"/>
<feGaussianBlur stdDeviation="5.55294"/>
<feComposite in2="hardAlpha" operator="arithmetic" k2="-1" k3="1"/>
<feColorMatrix type="matrix" values="0 0 0 0 0 0 0 0 0 0 0 0 0 0 0 0 0 0 0.21 0"/>
<feBlend mode="normal" in2="shape" result="effect2_innerShadow_1624_3"/>
</filter>
<clipPath id="clip0_1624_3">
<rect width="1440" height="1151" fill="white"/>
</clipPath>
<clipPath id="clip1_1624_3">
<rect width="1440" height="1080.47" fill="white" transform="translate(0 70.9102)"/>
</clipPath>
</defs>
</svg>
