<svg width="762" height="1202" viewBox="0 0 762 1202" fill="none" xmlns="http://www.w3.org/2000/svg">
<g clip-path="url(#clip0_935_6)">
<g clip-path="url(#clip1_935_6)">
<rect width="765" height="1025" transform="translate(-3 177)" fill="#ABE3FF"/>
<g opacity="0.77">
<path d="M1163.56 1261.5C1257.8 1220.11 1347.86 1236.38 1393.65 1254.23C1401.19 1257.17 1409.84 1251.81 1409.84 1243.72V1063.35C1409.84 1057.4 1405.03 1052.59 1399.08 1052.59H-246.027C-251.97 1052.59 -256.787 1057.4 -256.787 1063.35V1211.31C-256.787 1219.47 -248.02 1224.7 -240.625 1221.26C-117.616 1164.03 21.6727 1201.96 77.9736 1229.39C139.147 1250.66 302.981 1280.43 468.927 1229.39C634.872 1178.35 714.219 1185.05 733.148 1194.78C831.983 1236.62 1056.43 1308.53 1163.56 1261.5Z" fill="white"/>
<path d="M12.8118 1261.5C-81.4361 1220.11 -171.489 1236.38 -217.287 1254.23C-224.82 1257.17 -233.477 1251.81 -233.477 1243.72V1063.35C-233.477 1057.4 -228.659 1052.59 -222.716 1052.59H1422.39C1428.34 1052.59 1433.15 1057.4 1433.15 1063.35V1211.31C1433.15 1219.47 1424.39 1224.7 1416.99 1221.26C1293.98 1164.03 1154.69 1201.96 1098.39 1229.39C1037.22 1250.66 873.386 1280.43 707.441 1229.39C541.495 1178.35 462.149 1185.05 443.219 1194.78C344.385 1236.62 119.935 1308.53 12.8118 1261.5Z" fill="#E2F9FF"/>
<path d="M51.0774 1223.97C-43.1705 1182.58 -133.223 1198.85 -179.021 1216.7C-186.554 1219.64 -195.211 1214.28 -195.211 1206.19V1025.81C-195.211 1019.87 -190.394 1015.05 -184.451 1015.05H1460.66C1466.6 1015.05 1471.42 1019.87 1471.42 1025.81V1173.78C1471.42 1181.94 1462.65 1187.17 1455.26 1183.73C1332.25 1126.5 1192.96 1164.43 1136.66 1191.86C1075.49 1213.12 911.652 1242.9 745.706 1191.86C579.761 1140.82 500.414 1147.52 481.484 1157.25C382.65 1199.09 158.201 1271 51.0774 1223.97Z" fill="white"/>
</g>
<path d="M51.0774 1186.18C-43.1705 1144.79 -133.223 1161.06 -179.021 1178.91C-186.554 1181.85 -195.211 1176.49 -195.211 1168.4V988.026C-195.211 982.083 -190.394 977.266 -184.451 977.266H1460.66C1466.6 977.266 1471.42 982.083 1471.42 988.026V1135.99C1471.42 1144.15 1462.65 1149.38 1455.26 1145.94C1332.25 1088.71 1192.96 1126.64 1136.66 1154.07C1075.49 1175.33 911.652 1205.11 745.706 1154.07C579.761 1103.03 500.414 1109.73 481.484 1119.46C382.65 1161.3 158.201 1233.21 51.0774 1186.18Z" fill="white"/>
<path d="M1201.82 1186.18C1296.07 1144.79 1386.12 1161.06 1431.92 1178.91C1439.45 1181.85 1448.11 1176.49 1448.11 1168.4V988.026C1448.11 982.083 1443.29 977.266 1437.35 977.266H-207.761C-213.704 977.266 -218.522 982.083 -218.522 988.026V1135.99C-218.522 1144.15 -209.754 1149.38 -202.359 1145.94C-79.3506 1088.71 59.9384 1126.64 116.239 1154.07C177.413 1175.33 341.246 1205.11 507.192 1154.07C673.138 1103.03 752.484 1109.73 771.414 1119.46C870.248 1161.3 1094.7 1233.21 1201.82 1186.18Z" fill="#E2F9FF"/>
<path d="M1163.56 1148.64C1257.8 1107.26 1347.86 1123.52 1393.65 1141.38C1401.19 1144.32 1409.84 1138.95 1409.84 1130.87V950.491C1409.84 944.548 1405.03 939.731 1399.08 939.731H-246.027C-251.97 939.731 -256.787 944.548 -256.787 950.491V1098.46C-256.787 1106.61 -248.02 1111.84 -240.625 1108.4C-117.616 1051.18 21.6727 1089.11 77.9736 1116.53C139.147 1137.8 302.981 1167.57 468.927 1116.53C634.872 1065.49 714.219 1072.19 733.148 1081.92C831.983 1123.76 1056.43 1195.68 1163.56 1148.64Z" fill="white"/>
<path d="M1194.65 880.188C1289.92 910.068 1380.91 897.871 1426.23 884.959C1433.45 882.902 1440.94 888.188 1440.94 895.696V1018.64C1440.94 1024.58 1436.12 1029.4 1430.18 1029.4H-214.933C-220.876 1029.4 -225.694 1024.58 -225.694 1018.64V918.829C-225.694 911.267 -218.087 906.051 -210.92 908.465C-87.5729 950.007 52.5544 922.784 109.067 903.122C170.241 887.932 334.074 866.667 500.02 903.122C665.966 939.577 745.312 934.792 764.242 927.842C863.076 897.959 1087.53 846.593 1194.65 880.188Z" fill="white"/>
<g opacity="0.41">
<g opacity="0.77">
<path d="M74.8665 192.772C-19.3814 234.155 -109.434 217.891 -155.232 200.036C-162.765 197.099 -171.422 202.46 -171.422 210.545V390.924C-171.422 396.866 -166.604 401.684 -160.662 401.684H1484.45C1490.39 401.684 1495.21 396.866 1495.21 390.924V242.956C1495.21 234.8 1486.44 229.572 1479.05 233.012C1356.04 290.238 1216.75 252.306 1160.45 224.881C1099.27 203.615 935.441 173.841 769.495 224.881C603.55 275.921 524.203 269.221 505.273 259.491C406.439 217.653 181.99 145.736 74.8665 192.772Z" fill="white"/>
<path d="M1225.61 192.772C1319.86 234.155 1409.91 217.891 1455.71 200.036C1463.24 197.099 1471.9 202.46 1471.9 210.545V390.924C1471.9 396.866 1467.08 401.684 1461.14 401.684H-183.972C-189.915 401.684 -194.733 396.866 -194.733 390.924V242.956C-194.733 234.8 -185.965 229.572 -178.57 233.012C-55.5615 290.238 83.7274 252.306 140.028 224.881C201.202 203.615 365.035 173.841 530.981 224.881C696.927 275.921 776.273 269.221 795.203 259.491C894.037 217.653 1118.49 145.736 1225.61 192.772Z" fill="#E2F9FF"/>
<path d="M1187.34 230.304C1281.59 271.687 1371.64 255.422 1417.44 237.567C1424.98 234.63 1433.63 239.991 1433.63 248.077V428.455C1433.63 434.397 1428.82 439.215 1422.87 439.215H-222.238C-228.181 439.215 -232.998 434.397 -232.998 428.455V280.488C-232.998 272.332 -224.231 267.103 -216.836 270.543C-93.8271 327.769 45.4618 289.837 101.763 262.412C162.936 241.146 326.77 211.373 492.716 262.412C658.661 313.452 738.008 306.752 756.938 297.023C855.772 255.184 1080.22 183.267 1187.34 230.304Z" fill="white"/>
</g>
<path d="M1187.34 268.092C1281.59 309.475 1371.64 293.211 1417.44 275.356C1424.98 272.419 1433.63 277.78 1433.63 285.866V466.244C1433.63 472.186 1428.82 477.004 1422.87 477.004H-222.238C-228.181 477.004 -232.998 472.186 -232.998 466.244V318.277C-232.998 310.121 -224.231 304.892 -216.836 308.332C-93.8271 365.558 45.4618 327.626 101.763 300.201C162.936 278.935 326.77 249.162 492.716 300.201C658.661 351.241 738.008 344.541 756.938 334.812C855.772 292.973 1080.22 221.056 1187.34 268.092Z" fill="white"/>
<path d="M36.6009 268.092C-57.647 309.475 -147.7 293.211 -193.498 275.356C-201.031 272.419 -209.688 277.78 -209.688 285.866V466.244C-209.688 472.186 -204.87 477.004 -198.927 477.004H1446.18C1452.13 477.004 1456.94 472.186 1456.94 466.244V318.277C1456.94 310.121 1448.18 304.892 1440.78 308.332C1317.77 365.558 1178.48 327.626 1122.18 300.201C1061.01 278.935 897.176 249.162 731.23 300.201C565.284 351.241 485.938 344.541 467.008 334.812C368.174 292.973 143.724 221.056 36.6009 268.092Z" fill="#E2F9FF"/>
<path d="M74.8665 305.628C-19.3814 347.011 -109.434 330.746 -155.232 312.891C-162.765 309.954 -171.422 315.315 -171.422 323.401V503.779C-171.422 509.722 -166.604 514.539 -160.662 514.539H1484.45C1490.39 514.539 1495.21 509.722 1495.21 503.779V355.812C1495.21 347.656 1486.44 342.427 1479.05 345.867C1356.04 403.093 1216.75 365.162 1160.45 337.736C1099.27 316.47 935.441 286.697 769.495 337.736C603.55 388.776 524.203 382.077 505.273 372.347C406.439 330.508 181.99 258.591 74.8665 305.628Z" fill="white"/>
<path d="M43.7728 574.081C-51.5017 544.202 -142.489 556.399 -187.806 569.31C-195.027 571.367 -202.516 566.081 -202.516 558.574V435.627C-202.516 429.685 -197.698 424.867 -191.756 424.867H1453.36C1459.3 424.867 1464.12 429.685 1464.12 435.627V535.441C1464.12 543.003 1456.51 548.219 1449.34 545.805C1325.99 504.263 1185.87 531.486 1129.35 551.148C1068.18 566.337 904.347 587.603 738.402 551.148C572.456 514.693 493.11 519.478 474.18 526.427C375.345 556.31 150.896 607.677 43.7728 574.081Z" fill="white"/>
</g>
<g opacity="0.41">
<g opacity="0.77">
<path d="M74.8665 457.772C-19.3814 499.155 -109.434 482.891 -155.232 465.036C-162.765 462.099 -171.422 467.46 -171.422 475.545V655.923C-171.422 661.866 -166.604 666.684 -160.662 666.684H1484.45C1490.39 666.684 1495.21 661.866 1495.21 655.923V507.956C1495.21 499.8 1486.44 494.572 1479.05 498.012C1356.04 555.238 1216.75 517.306 1160.45 489.881C1099.27 468.615 935.441 438.841 769.495 489.881C603.55 540.921 524.203 534.221 505.273 524.491C406.439 482.653 181.99 410.736 74.8665 457.772Z" fill="white"/>
<path d="M1225.61 457.772C1319.86 499.155 1409.91 482.891 1455.71 465.036C1463.24 462.099 1471.9 467.46 1471.9 475.545V655.923C1471.9 661.866 1467.08 666.684 1461.14 666.684H-183.972C-189.915 666.684 -194.733 661.866 -194.733 655.923V507.956C-194.733 499.8 -185.965 494.572 -178.57 498.012C-55.5615 555.238 83.7274 517.306 140.028 489.881C201.202 468.615 365.035 438.841 530.981 489.881C696.927 540.921 776.273 534.221 795.203 524.491C894.037 482.653 1118.49 410.736 1225.61 457.772Z" fill="#E2F9FF"/>
<path d="M1187.34 495.303C1281.59 536.686 1371.64 520.422 1417.44 502.567C1424.98 499.63 1433.63 504.991 1433.63 513.077V693.455C1433.63 699.397 1428.82 704.215 1422.87 704.215H-222.238C-228.181 704.215 -232.998 699.397 -232.998 693.455V545.487C-232.998 537.332 -224.231 532.103 -216.836 535.543C-93.8271 592.769 45.4618 554.837 101.763 527.412C162.936 506.146 326.77 476.373 492.716 527.412C658.661 578.452 738.008 571.752 756.938 562.023C855.772 520.184 1080.22 448.267 1187.34 495.303Z" fill="white"/>
</g>
<path d="M1187.34 533.092C1281.59 574.475 1371.64 558.211 1417.44 540.356C1424.98 537.419 1433.63 542.78 1433.63 550.865V731.244C1433.63 737.186 1428.82 742.004 1422.87 742.004H-222.238C-228.181 742.004 -232.998 737.186 -232.998 731.244V583.276C-232.998 575.12 -224.231 569.892 -216.836 573.332C-93.8271 630.558 45.4618 592.626 101.763 565.201C162.936 543.935 326.77 514.162 492.716 565.201C658.661 616.241 738.008 609.541 756.938 599.811C855.772 557.973 1080.22 486.056 1187.34 533.092Z" fill="white"/>
<path d="M36.6009 533.092C-57.647 574.475 -147.7 558.211 -193.498 540.356C-201.031 537.419 -209.688 542.78 -209.688 550.865V731.244C-209.688 737.186 -204.87 742.004 -198.927 742.004H1446.18C1452.13 742.004 1456.94 737.186 1456.94 731.244V583.276C1456.94 575.12 1448.18 569.892 1440.78 573.332C1317.77 630.558 1178.48 592.626 1122.18 565.201C1061.01 543.935 897.176 514.162 731.23 565.201C565.284 616.241 485.938 609.541 467.008 599.811C368.174 557.973 143.724 486.056 36.6009 533.092Z" fill="#E2F9FF"/>
<path d="M74.8665 570.627C-19.3814 612.011 -109.434 595.746 -155.232 577.891C-162.765 574.954 -171.422 580.315 -171.422 588.401V768.779C-171.422 774.721 -166.604 779.539 -160.662 779.539H1484.45C1490.39 779.539 1495.21 774.721 1495.21 768.779V620.812C1495.21 612.656 1486.44 607.427 1479.05 610.867C1356.04 668.093 1216.75 630.161 1160.45 602.736C1099.27 581.47 935.441 551.697 769.495 602.736C603.55 653.776 524.203 647.076 505.273 637.347C406.439 595.508 181.99 523.591 74.8665 570.627Z" fill="white"/>
<path d="M43.7728 839.081C-51.5017 809.202 -142.489 821.398 -187.806 834.31C-195.027 836.367 -202.516 831.081 -202.516 823.574V700.627C-202.516 694.685 -197.698 689.867 -191.756 689.867H1453.36C1459.3 689.867 1464.12 694.685 1464.12 700.627V800.441C1464.12 808.003 1456.51 813.218 1449.34 810.805C1325.99 769.262 1185.87 796.486 1129.35 816.148C1068.18 831.337 904.347 852.602 738.402 816.148C572.456 779.693 493.11 784.478 474.18 791.427C375.345 821.31 150.896 872.677 43.7728 839.081Z" fill="white"/>
</g>
<g opacity="0.71">
<g opacity="0.77">
<path d="M54.8665 559.772C-39.3814 601.155 -129.434 584.891 -175.232 567.036C-182.765 564.099 -191.422 569.46 -191.422 577.545V757.923C-191.422 763.866 -186.604 768.684 -180.662 768.684H1464.45C1470.39 768.684 1475.21 763.866 1475.21 757.923V609.956C1475.21 601.8 1466.44 596.572 1459.05 600.012C1336.04 657.238 1196.75 619.306 1140.45 591.881C1079.27 570.615 915.441 540.841 749.495 591.881C583.55 642.921 504.203 636.221 485.273 626.491C386.439 584.653 161.99 512.736 54.8665 559.772Z" fill="white"/>
<path d="M1205.61 559.772C1299.86 601.155 1389.91 584.891 1435.71 567.036C1443.24 564.099 1451.9 569.46 1451.9 577.545V757.923C1451.9 763.866 1447.08 768.684 1441.14 768.684H-203.972C-209.915 768.684 -214.733 763.866 -214.733 757.923V609.956C-214.733 601.8 -205.965 596.572 -198.57 600.012C-75.5615 657.238 63.7274 619.306 120.028 591.881C181.202 570.615 345.035 540.841 510.981 591.881C676.927 642.921 756.273 636.221 775.203 626.491C874.037 584.653 1098.49 512.736 1205.61 559.772Z" fill="#E2F9FF"/>
<path d="M1167.34 597.303C1261.59 638.686 1351.64 622.422 1397.44 604.567C1404.98 601.63 1413.63 606.991 1413.63 615.077V795.455C1413.63 801.397 1408.82 806.215 1402.87 806.215H-242.238C-248.181 806.215 -252.998 801.397 -252.998 795.455V647.487C-252.998 639.332 -244.231 634.103 -236.836 637.543C-113.827 694.769 25.4618 656.837 81.7627 629.412C142.936 608.146 306.77 578.373 472.716 629.412C638.661 680.452 718.008 673.752 736.938 664.023C835.772 622.184 1060.22 550.267 1167.34 597.303Z" fill="white"/>
</g>
<path d="M1167.34 635.092C1261.59 676.475 1351.64 660.211 1397.44 642.356C1404.98 639.419 1413.63 644.78 1413.63 652.865V833.244C1413.63 839.186 1408.82 844.004 1402.87 844.004H-242.238C-248.181 844.004 -252.998 839.186 -252.998 833.244V685.276C-252.998 677.12 -244.231 671.892 -236.836 675.332C-113.827 732.558 25.4618 694.626 81.7627 667.201C142.936 645.935 306.77 616.162 472.716 667.201C638.661 718.241 718.008 711.541 736.938 701.811C835.772 659.973 1060.22 588.056 1167.34 635.092Z" fill="white"/>
<path d="M16.6009 635.092C-77.647 676.475 -167.7 660.211 -213.498 642.356C-221.031 639.419 -229.688 644.78 -229.688 652.865V833.244C-229.688 839.186 -224.87 844.004 -218.927 844.004H1426.18C1432.13 844.004 1436.94 839.186 1436.94 833.244V685.276C1436.94 677.12 1428.18 671.892 1420.78 675.332C1297.77 732.558 1158.48 694.626 1102.18 667.201C1041.01 645.935 877.176 616.162 711.23 667.201C545.284 718.241 465.938 711.541 447.008 701.811C348.174 659.973 123.724 588.056 16.6009 635.092Z" fill="#E2F9FF"/>
<path d="M54.8665 672.627C-39.3814 714.011 -129.434 697.746 -175.232 679.891C-182.765 676.954 -191.422 682.315 -191.422 690.401V870.779C-191.422 876.721 -186.604 881.539 -180.662 881.539H1464.45C1470.39 881.539 1475.21 876.721 1475.21 870.779V722.812C1475.21 714.656 1466.44 709.427 1459.05 712.867C1336.04 770.093 1196.75 732.161 1140.45 704.736C1079.27 683.47 915.441 653.697 749.495 704.736C583.55 755.776 504.203 749.076 485.273 739.347C386.439 697.508 161.99 625.591 54.8665 672.627Z" fill="white"/>
<path d="M23.7728 941.081C-71.5017 911.202 -162.489 923.398 -207.806 936.31C-215.027 938.367 -222.516 933.081 -222.516 925.574V802.627C-222.516 796.685 -217.698 791.867 -211.756 791.867H1433.36C1439.3 791.867 1444.12 796.685 1444.12 802.627V902.441C1444.12 910.003 1436.51 915.218 1429.34 912.805C1305.99 871.262 1165.87 898.486 1109.35 918.148C1048.18 933.337 884.347 954.602 718.402 918.148C552.456 881.693 473.11 886.478 454.18 893.427C355.345 923.31 130.896 974.677 23.7728 941.081Z" fill="white"/>
</g>
<g opacity="0.77">
<path d="M1167.74 739.772C1261.98 781.155 1352.04 764.891 1397.83 747.036C1405.37 744.099 1414.02 749.46 1414.02 757.545V937.923C1414.02 943.866 1409.21 948.684 1403.26 948.684H-241.847C-247.79 948.684 -252.608 943.866 -252.608 937.923V789.956C-252.608 781.8 -243.84 776.572 -236.445 780.012C-113.437 837.238 25.8524 799.306 82.1533 771.881C143.327 750.615 307.16 720.841 473.106 771.881C639.052 822.921 718.398 816.221 737.328 806.491C836.162 764.653 1060.61 692.736 1167.74 739.772Z" fill="white"/>
<path d="M16.9915 739.772C-77.2564 781.155 -167.309 764.891 -213.107 747.036C-220.64 744.099 -229.297 749.46 -229.297 757.545V937.923C-229.297 943.866 -224.479 948.684 -218.537 948.684H1426.57C1432.52 948.684 1437.33 943.866 1437.33 937.923V789.956C1437.33 781.8 1428.57 776.572 1421.17 780.012C1298.16 837.238 1158.87 799.306 1102.57 771.881C1041.4 750.615 877.566 720.841 711.62 771.881C545.675 822.921 466.328 816.221 447.398 806.491C348.564 764.653 124.115 692.736 16.9915 739.772Z" fill="#E2F9FF"/>
<path d="M55.2571 777.303C-38.9908 818.686 -129.043 802.422 -174.841 784.567C-182.375 781.63 -191.031 786.991 -191.031 795.077V975.455C-191.031 981.397 -186.214 986.215 -180.271 986.215H1464.84C1470.78 986.215 1475.6 981.397 1475.6 975.455V827.487C1475.6 819.332 1466.83 814.103 1459.44 817.543C1336.43 874.769 1197.14 836.837 1140.84 809.412C1079.67 788.146 915.832 758.373 749.886 809.412C583.94 860.452 504.594 853.752 485.664 844.023C386.83 802.184 162.381 730.267 55.2571 777.303Z" fill="white"/>
</g>
<path d="M55.2571 815.092C-38.9908 856.475 -129.043 840.211 -174.841 822.356C-182.375 819.419 -191.031 824.78 -191.031 832.865V1013.24C-191.031 1019.19 -186.214 1024 -180.271 1024H1464.84C1470.78 1024 1475.6 1019.19 1475.6 1013.24V865.276C1475.6 857.12 1466.83 851.892 1459.44 855.332C1336.43 912.558 1197.14 874.626 1140.84 847.201C1079.67 825.935 915.832 796.162 749.886 847.201C583.94 898.241 504.594 891.541 485.664 881.811C386.83 839.973 162.381 768.056 55.2571 815.092Z" fill="white"/>
<path d="M1206 815.092C1300.25 856.475 1390.3 840.211 1436.1 822.356C1443.63 819.419 1452.29 824.78 1452.29 832.865V1013.24C1452.29 1019.19 1447.47 1024 1441.53 1024H-203.582C-209.525 1024 -214.342 1019.19 -214.342 1013.24V865.276C-214.342 857.12 -205.575 851.892 -198.18 855.332C-75.1709 912.558 64.118 874.626 120.419 847.201C181.593 825.935 345.426 796.162 511.372 847.201C677.318 898.241 756.664 891.541 775.594 881.811C874.428 839.973 1098.88 768.056 1206 815.092Z" fill="#E2F9FF"/>
<path d="M1167.74 852.627C1261.98 894.011 1352.04 877.746 1397.83 859.891C1405.37 856.954 1414.02 862.315 1414.02 870.401V1050.78C1414.02 1056.72 1409.21 1061.54 1403.26 1061.54H-241.847C-247.79 1061.54 -252.608 1056.72 -252.608 1050.78V902.812C-252.608 894.656 -243.84 889.427 -236.445 892.867C-113.437 950.093 25.8524 912.161 82.1533 884.736C143.327 863.47 307.16 833.697 473.106 884.736C639.052 935.776 718.398 929.076 737.328 919.347C836.162 877.508 1060.61 805.591 1167.74 852.627Z" fill="white"/>
<path d="M1198.83 1121.08C1294.1 1091.2 1385.09 1103.4 1430.41 1116.31C1437.63 1118.37 1445.12 1113.08 1445.12 1105.57V982.627C1445.12 976.685 1440.3 971.867 1434.36 971.867H-210.754C-216.696 971.867 -221.514 976.685 -221.514 982.627V1082.44C-221.514 1090 -213.907 1095.22 -206.741 1092.8C-83.3932 1051.26 56.7341 1078.49 113.247 1098.15C174.421 1113.34 338.254 1134.6 504.2 1098.15C670.146 1061.69 749.492 1066.48 768.422 1073.43C867.256 1103.31 1091.71 1154.68 1198.83 1121.08Z" fill="white"/>
</g>
<path d="M-546.4 17.1652C-636.216 50.4891 -721.997 36.9716 -764.874 22.5745C-771.643 20.3018 -779 25.1924 -779 32.3322V174.005C-779 179.46 -774.577 183.883 -769.122 183.883H785.122C790.577 183.883 795 179.46 795 174.005V58.1809C795 50.9837 787.528 46.1822 780.84 48.8413C664.398 95.1378 532.185 64.7444 478.845 42.789C421.071 25.8177 266.344 2.05786 109.621 42.789C-47.1013 83.5202 -115.622 50.5537 -133.5 42.789C-226.841 9.40085 -445.231 -20.3714 -546.4 17.1652Z" fill="#ABE3FF"/>
</g>
<defs>
<clipPath id="clip0_935_6">
<rect width="765" height="1202" fill="white" transform="translate(-3)"/>
</clipPath>
<clipPath id="clip1_935_6">
<rect width="765" height="1025" fill="white" transform="translate(-3 177)"/>
</clipPath>
</defs>
</svg>
