<svg width="58" height="50" viewBox="0 0 58 50" fill="none" xmlns="http://www.w3.org/2000/svg">
<path d="M24.2445 26.9017L24.0108 23.3672C24.0091 23.3406 23.9879 23.3196 23.9612 23.3184C21.6476 23.2176 18.7091 23.1203 15.8601 23.0863C12.0538 23.0408 8.6306 23.1134 6.99026 23.3854C5.98111 23.5528 5.40628 24.088 5.0179 25.0219C4.58049 26.0736 4.44256 27.5541 4.5649 29.1884C4.64307 30.2327 5.10685 31.2569 5.8633 32.3616C7.83995 35.2484 10.1293 35.3138 14.1555 35.7532C14.2096 35.7558 14.2249 35.8288 14.1762 35.8526L8.37957 38.5118L8.19295 38.5989C8.18366 38.6032 8.17327 38.6047 8.16313 38.6032C7.37802 38.487 6.67335 38.3519 6.08309 38.1938L5.80052 38.1181C5.79584 38.1169 5.79135 38.115 5.78719 38.1125L5.53615 37.9623C4.54992 37.3722 3.34926 36.2329 2.3674 34.8578C1.37526 33.4684 0.438072 31.6039 0.281263 29.5091C0.135707 27.5647 0.244655 25.3127 1.0516 23.3724C1.90758 21.3141 3.57459 19.5976 6.28749 19.1477C8.36919 18.8025 12.1833 18.7464 15.9115 18.791C19.7135 18.8364 23.6589 18.9919 26.1368 19.1217L26.8238 19.1577C26.8572 19.1594 26.8811 19.1889 26.8721 19.2211C26.5007 20.5551 25.0227 25.0624 24.3441 26.9181C24.3248 26.971 24.2483 26.958 24.2445 26.9017Z" fill="#1AE4FF"/>
<path d="M21.1686 35.4158C19.1805 35.0844 13.9035 37.8593 11.1115 39.5209C10.9351 39.6259 10.9706 39.8906 11.1659 39.9537C16.0787 41.54 23.3232 46.3035 26.4264 48.5603L28.0993 49.7468L28.116 49.7595L28.1334 49.7468L29.8063 48.566C32.9095 46.3092 40.1541 41.5457 45.0668 39.9593C45.2621 39.8963 45.2976 39.6315 45.1212 39.5266C42.3292 37.8649 37.0522 35.0901 35.0641 35.4215C33.1169 35.746 29.4788 26.9566 28.2546 23.1015C28.1526 22.7871 28.0278 22.9667 27.9781 23.0958C26.7539 26.9509 23.1158 35.7403 21.1686 35.4158Z" fill="#1AE4FF"/>
<path d="M32.126 26.8974L32.3597 23.3629C32.3615 23.3362 32.3827 23.3152 32.4093 23.3141C34.7229 23.2132 37.6615 23.116 40.5104 23.082C44.3167 23.0365 47.7399 23.109 49.3803 23.3811C50.3894 23.5484 50.9642 24.0836 51.3526 25.0175C51.79 26.0693 51.928 27.5498 51.8056 29.1841C51.7275 30.2284 51.2637 31.2525 50.5072 32.3573C48.5306 35.2441 46.2413 35.3094 42.215 35.7488C42.161 35.7515 42.1457 35.8245 42.1943 35.8483L47.991 38.5074L48.1776 38.5945C48.1869 38.5988 48.1973 38.6004 48.2074 38.5989C48.9925 38.4826 49.6972 38.3476 50.2874 38.1895L50.57 38.1138C50.5747 38.1125 50.5792 38.1106 50.5833 38.1081L50.8344 37.9579C51.8206 37.3679 53.0213 36.2286 54.0031 34.8535C54.9953 33.464 55.9325 31.5995 56.0893 29.5048C56.2348 27.5603 56.1259 25.3084 55.3189 23.368C54.463 21.3098 52.7959 19.5932 50.083 19.1433C48.0013 18.7981 44.1872 18.7421 40.4591 18.7866C36.657 18.8321 32.7116 18.9876 30.2338 19.1173L29.5467 19.1533C29.5134 19.1551 29.4894 19.1845 29.4984 19.2167C29.8698 20.5507 31.3479 25.0581 32.0264 26.9138C32.0457 26.9667 32.1223 26.9536 32.126 26.8974Z" fill="#1AE4FF"/>
<path d="M2.58457 10.6382L27.8511 7.4143L31.1189 17.3137L55.7411 7.85053" stroke="#1AE4FF" stroke-width="4.29571" stroke-linecap="round"/>
</svg>
