<svg width="1443" height="436" viewBox="0 0 1443 436" fill="none" xmlns="http://www.w3.org/2000/svg">
<g clip-path="url(#clip0_1573_702)">
<path d="M261.994 286.666L441.994 173.266H0.09375V286.666H261.994Z" fill="#2F2F2F"/>
<path d="M1159.87 285.814L991.588 157.355L1442.39 172.414V285.814H1159.87Z" fill="#2F2F2F"/>
<path d="M570.7 285.768L505 174.168H951.4L861.4 285.768H570.7Z" fill="#2F2F2F"/>
<g filter="url(#filter0_ii_1573_702)">
<rect x="-38.6016" y="1.36719" width="1503" height="172.8" fill="#535353"/>
</g>
<rect x="439.766" y="40.3789" width="64.0564" height="398.803" fill="#535353"/>
<rect x="949.125" y="40.3789" width="64.0564" height="398.803" fill="#535353"/>
<g clip-path="url(#clip1_1573_702)" filter="url(#filter1_i_1573_702)">
<rect width="291.6" height="149.4" transform="translate(569.805 285.766)" fill="#96DCFF"/>
<path d="M701.735 379.394C707.614 380.335 721.629 384.756 730.66 394.915C731.404 395.752 732.059 396.6 732.632 397.454C756.055 392.657 803.408 382.978 805.44 382.639C807.472 382.301 808.544 380.429 808.826 379.535H811.366L812.213 381.087C813.228 382.893 812.354 384.003 811.789 384.332L738.561 404.932C739.219 405.45 741.891 406.513 747.309 406.625C752.727 406.738 756.245 413.069 757.326 416.22C761.503 427.282 753.611 433.339 749.143 434.986C747.309 435.409 741.862 436.058 734.751 435.268C727.64 434.478 723.417 429.483 722.194 427.084L720.077 427.649C717.481 428.89 703.287 428.73 696.514 428.495C683.393 427.978 655.766 426.943 650.235 426.943C644.704 426.943 623.945 422.993 614.256 421.017C614.256 422.757 613.297 427.366 609.459 431.882C605.621 436.397 599.488 437.055 596.901 436.82C590.129 436.481 586.648 434.986 585.755 434.28C583.121 432.211 577.741 427.084 577.289 423.134C576.838 419.183 578.512 415.656 579.405 414.386C575.793 412.241 573.856 407.848 573.338 405.92C525.037 398.254 427.164 382.752 422.084 382.075C417.005 381.398 411.973 379.159 410.091 378.124C409.668 377.278 409.188 375.839 410.656 376.854C412.123 377.87 418.51 379.065 421.52 379.535L589 402.816L585.19 397.595L524.237 389.835L587.025 393.927C587.702 392.685 591.634 390.023 593.515 388.847L586.601 326.766H589.423C591.342 326.766 592.48 329.023 592.81 330.152C597.183 344.12 606.242 373.073 607.483 377.137C608.725 381.2 611.481 381.746 612.704 381.511L701.735 379.394Z" fill="white"/>
<path d="M694.958 394.531H729.84L731.904 397.584C732.895 399.05 732.592 399.416 732.317 399.416C721.446 399.484 698.921 399.62 695.784 399.62C692.646 399.62 692.137 399.348 692.275 399.213C692.275 395.793 694.064 394.667 694.958 394.531Z" fill="#838383"/>
<path d="M730.099 435.977L748.159 437.388L758.6 429.204L759.023 417.07L752.533 406.77L740.963 404.936C740.493 404.936 738.508 405.049 734.332 405.5C730.155 405.952 731.181 411.896 732.215 414.812L720.787 421.867L721.633 429.769L730.099 435.977Z" fill="#8BFF90"/>
<path d="M599.022 404.795L614.824 414.107L612.567 430.897L604.242 437.67H589.145L583.219 434.425L576.446 423.419V414.954L572.919 407.617L566.993 406.065L581.808 403.102L599.022 404.795Z" fill="#8BFF90"/>
<path d="M732.634 397.315L734.045 401.548V405.499L741.946 404.934L799.089 389.837L814.469 384.193L812.776 380.384L809.954 377.985L806.144 380.384L764.944 389.414L732.634 397.315Z" fill="#D9D9D9"/>
<path d="M567.976 399.29L639.229 409.873L619.475 416.927L609.881 411.425L597.888 405.922C596.242 405.452 592.724 404.708 591.821 405.499C590.918 406.289 586.741 407.051 584.766 407.333C579.348 407.671 575.548 406.721 574.325 406.204L486.564 393.929L431.395 384.899L408.538 378.832V375.445L421.942 377.844L567.976 399.29Z" fill="#D9D9D9"/>
<ellipse cx="13.5451" cy="14.6739" rx="13.5451" ry="14.6739" transform="matrix(-1 0 0 1 758.742 406.203)" fill="#959799"/>
<ellipse cx="11.1465" cy="11.5698" rx="11.1465" ry="11.5698" transform="matrix(-1 0 0 1 757.328 409.59)" fill="#272727"/>
<path d="M735.884 410.576L734.473 402.252C734.225 400.784 733.345 401.123 733.062 401.828L731.087 406.767C730.946 407.19 730.523 408.065 729.958 408.178C729.394 408.291 728.971 407.848 728.83 407.613C726.572 403.437 724.032 402.299 723.045 402.252H712.886C705.549 402.252 697.318 401.029 694.12 400.417C691.533 399.806 685.457 398.442 681.845 397.878C678.233 397.313 674.978 398.113 673.802 398.583L637.4 409.871L608.899 411.846L615.107 422.005L640.081 428.213L718.953 428.919L722.057 427.226L728.83 425.109C736.279 421.158 736.637 413.774 735.884 410.576Z" fill="#4FCA56"/>
<ellipse cx="14.815" cy="14.6739" rx="14.815" ry="14.6739" transform="matrix(-1 0 0 1 614.25 405.918)" fill="#959799"/>
<ellipse cx="12.1915" cy="11.5698" rx="12.1915" ry="11.5698" transform="matrix(-1 0 0 1 612.703 409.305)" fill="#272727"/>
<path d="M860.785 493.182C863.628 495.199 863.228 497.231 862.673 497.995C861.429 496.895 858.897 496.62 857.787 496.62C857.121 496.543 855.455 496.643 854.122 497.651C852.79 498.66 851.864 498.606 851.568 498.453L850.235 497.078C849.702 496.528 848.607 496.543 848.125 496.62C846.793 496.849 843.905 497.216 843.017 496.849C842.129 496.482 841.388 497.002 841.129 497.307C840.685 495.015 842.943 494.213 844.127 494.098C845.238 493.984 847.526 493.571 847.792 492.838C848.059 492.104 849.162 491.386 849.68 491.119C851.99 487.268 850.494 487.069 849.458 487.451C841.906 491.76 829.727 489.705 824.582 488.139C824.101 490.087 822.961 494.213 822.25 495.13C821.539 496.047 817.882 496.276 816.142 496.276C815.661 496.658 814.543 497.376 813.921 497.193C813.299 497.009 813.662 495.97 813.921 495.474C811.33 495.894 806.059 496.643 805.703 496.276C805.348 495.909 805.851 495.13 806.148 494.786C805.296 495.092 803.238 495.588 801.817 495.13C800.395 494.671 798.115 494.939 797.152 495.13C798.751 492.563 802.779 491.844 804.593 491.806C806.629 491.577 811.056 490.981 812.478 490.431C813.899 489.881 813.81 486.916 813.588 485.503C813.625 484.662 813.099 482.087 810.701 478.512C808.302 474.936 807.406 466.86 807.258 463.269L806.814 449.86C806.851 449.516 805.837 450.479 801.483 457.08C796.042 465.332 800.484 473.01 794.265 472.552C789.29 472.185 787.898 464.988 787.824 461.435C788.12 454.482 789.823 438.788 794.265 431.637C798.707 424.485 803.371 414.675 805.148 410.664L809.368 396.567C810.145 392.097 812.589 382.058 816.142 377.657C819.696 373.256 819.474 370.474 818.919 369.634C816.105 363.789 809.057 351.778 803.371 350.494C797.685 349.211 793.673 349.96 792.377 350.494C792.303 349.501 792.821 346.965 795.487 344.764C798.152 342.564 808.221 343.848 812.922 344.764C815.994 342.549 824.538 339.447 834.133 344.764C843.728 350.082 847.237 366.311 847.792 373.76C850.28 376.327 856.084 390.569 858.675 397.369C861.674 404.59 868.115 420.268 869.892 425.219C871.668 430.17 873.519 446.536 874.222 454.1C876.443 461.856 880.13 476.862 877.109 474.844C874.089 472.827 869.559 455.514 867.671 447.109C868.56 455.636 863.747 472.896 861.23 480.46L858.898 491.921L860.785 493.182Z" fill="#4FCA56"/>
<path fill-rule="evenodd" clip-rule="evenodd" d="M824.542 488.35C821.554 485.846 818.169 485.372 815.429 484.988C814.75 484.893 814.11 484.803 813.526 484.69C813.31 483.464 812.576 481.29 810.713 478.512C808.314 474.936 807.418 466.86 807.27 463.269L806.842 450.34L808.283 405.164V400.233L809.38 396.567C810.158 392.097 812.601 382.058 816.154 377.657C819.708 373.256 819.486 370.474 818.931 369.634C816.117 363.789 809.069 351.778 803.383 350.494C801.289 350.022 799.422 349.825 797.834 349.791C795.11 349.733 793.208 350.157 792.389 350.494C792.315 349.501 792.833 346.965 795.499 344.764C795.587 344.692 795.683 344.623 795.786 344.558C798.822 342.648 808.388 343.878 812.934 344.764C816.006 342.549 824.55 339.447 834.145 344.764C839.035 347.474 842.344 353.018 844.487 358.79C841.798 361.866 836.457 366.746 830.826 369.406C823.452 372.89 827.754 375.595 830.826 376.512C833.454 377.658 839.622 380.775 843.264 384.076C845.737 386.316 846.997 390.788 848.256 395.25C849.315 399.006 850.372 402.755 852.148 405.164C855.228 409.342 863.684 434.405 867.693 447.206C868.064 450.975 867.344 456.41 866.208 461.957C864.763 469.01 862.646 476.242 861.242 480.46L860.939 481.949C860.469 482.161 859.946 482.284 859.367 482.295C855.231 482.377 852.092 485.68 850.523 487.385C850.232 487.258 849.824 487.321 849.47 487.451C849.067 487.681 848.651 487.893 848.224 488.087C847.565 488.388 846.879 488.647 846.172 488.87C846.079 488.899 845.985 488.928 845.891 488.956C845.255 489.147 844.603 489.308 843.939 489.444C843.894 489.453 843.848 489.462 843.803 489.471L843.721 489.487L843.693 489.493C842.51 489.722 841.293 489.869 840.069 489.95C835.366 490.26 830.554 489.588 827.107 488.8C826.155 488.582 825.307 488.356 824.594 488.139C824.578 488.207 824.56 488.277 824.542 488.35ZM867.82 447.714C867.792 447.589 867.763 447.464 867.736 447.342C867.76 447.418 867.783 447.494 867.807 447.569L867.82 447.714ZM797.477 350.531C797.477 350.53 797.477 350.527 797.478 350.523L797.479 350.521C797.477 350.53 797.477 350.533 797.477 350.531Z" fill="white"/>
<path d="M814.348 361.484C811.083 356.379 806.955 351.304 803.37 350.494C801.276 350.022 799.409 349.825 797.821 349.791C795.097 349.733 793.194 350.157 792.376 350.494C792.302 349.501 792.82 346.965 795.485 344.764C795.573 344.692 795.669 344.623 795.773 344.558C798.809 342.648 808.374 343.878 812.92 344.764C815.993 342.549 824.537 339.447 834.131 344.764C834.676 345.066 835.201 345.403 835.707 345.772C837.013 351.944 837.017 361.416 829.022 362.872C822.947 363.979 817.797 362.88 814.348 361.484Z" fill="#4FCA56"/>
<path d="M797.465 350.523C797.463 350.535 797.463 350.535 797.465 350.521L797.465 350.523Z" fill="#4FCA56"/>
<path fill-rule="evenodd" clip-rule="evenodd" d="M812.906 344.765C810.427 348.232 810.466 353.772 811.797 357.791C809.079 354.144 806.066 351.106 803.361 350.496C801.267 350.023 799.4 349.826 797.812 349.792C795.088 349.735 793.185 350.158 792.367 350.496C792.293 349.502 792.811 346.966 795.476 344.766C795.564 344.693 795.66 344.624 795.764 344.559C798.799 342.65 808.358 343.878 812.906 344.765ZM797.456 350.525C797.453 350.537 797.454 350.536 797.456 350.522L797.456 350.525Z" fill="#FF7134"/>
<ellipse cx="2.99841" cy="2.06294" rx="2.99841" ry="2.06294" transform="matrix(-1 0 0 1 828.359 346.828)" fill="white"/>
<ellipse cx="1.44368" cy="1.4899" rx="1.44368" ry="1.4899" transform="matrix(-1 0 0 1 826.359 347.516)" fill="#323232"/>
<path d="M848.532 375.705C845.143 373.447 842.885 378.061 831.591 379.003C822.179 379.003 821.802 373.446 818.414 375.705C815.026 377.963 805.081 381.665 800.532 383.233C798.492 383.39 795.167 387.468 798.179 402.527C798.336 405.351 797.802 411.374 794.414 412.88V453.351L832.061 453.353H869.708V412.882C866.32 411.376 865.787 405.353 865.943 402.529C868.955 387.47 865.63 383.392 863.591 383.235C859.042 381.667 851.92 377.964 848.532 375.705Z" fill="#B3FF50"/>
<path fill-rule="evenodd" clip-rule="evenodd" d="M869.711 433.593H794.417V427.005H805.24V420.416C803.985 417.279 801.663 410.722 802.416 409.593C803.169 408.463 802.417 404.416 801.946 402.534C800.312 394.688 802.107 386.51 803.636 382.131C805.645 381.398 807.985 380.511 810.244 379.594C809.732 381.641 809.022 383.533 808.063 384.652C805.804 387.287 808.377 413.671 809.946 426.534H856.534C857.004 413.358 857.852 386.534 857.475 384.652C857.099 382.769 855.75 381.044 855.122 380.416C855.423 380.416 856.148 380.532 857.223 380.911C857.468 381.005 857.713 381.098 857.955 381.19C858.382 381.364 858.851 381.575 859.358 381.828C861.616 382.958 863.436 385.75 864.063 387.005V396.887C864.063 401.781 862.495 406.142 861.71 407.711L862.181 427.005H869.711V433.593Z" fill="#F9F9F9"/>
<g opacity="0.7">
<g opacity="0.77">
<path d="M937.038 331.694C966.938 318.565 995.507 323.725 1010.04 329.389C1012.43 330.321 1015.17 328.62 1015.17 326.055V268.832C1015.17 266.946 1013.64 265.418 1011.76 265.418H489.858C487.972 265.418 486.444 266.946 486.444 268.832V315.773C486.444 318.361 489.225 320.019 491.571 318.928C530.595 300.773 574.784 312.807 592.645 321.507C612.052 328.254 664.027 337.699 716.672 321.507C769.317 305.315 794.489 307.441 800.495 310.528C831.849 323.8 903.054 346.616 937.038 331.694Z" fill="white"/>
<path d="M571.977 331.694C542.078 318.565 513.509 323.725 498.98 329.389C496.59 330.321 493.844 328.62 493.844 326.055V268.832C493.844 266.946 495.372 265.418 497.257 265.418H1019.16C1021.04 265.418 1022.57 266.946 1022.57 268.832V315.773C1022.57 318.361 1019.79 320.019 1017.44 318.928C978.421 300.773 934.232 312.807 916.371 321.507C896.964 328.254 844.989 337.699 792.344 321.507C739.698 305.315 714.526 307.441 708.521 310.528C677.166 323.8 605.961 346.616 571.977 331.694Z" fill="#E2F9FF"/>
<path d="M584.118 319.788C554.218 306.659 525.65 311.819 511.121 317.483C508.731 318.415 505.984 316.714 505.984 314.149V256.925C505.984 255.04 507.513 253.512 509.398 253.512H1031.3C1033.18 253.512 1034.71 255.04 1034.71 256.925V303.867C1034.71 306.454 1031.93 308.113 1029.58 307.022C990.561 288.867 946.373 300.901 928.512 309.601C909.105 316.348 857.129 325.793 804.484 309.601C751.839 293.409 726.667 295.535 720.662 298.621C689.307 311.894 618.102 334.71 584.118 319.788Z" fill="white"/>
</g>
<path d="M584.118 307.795C554.218 294.667 525.65 299.827 511.121 305.491C508.731 306.423 505.984 304.722 505.984 302.157V244.933C505.984 243.048 507.513 241.52 509.398 241.52H1031.3C1033.18 241.52 1034.71 243.048 1034.71 244.933V291.875C1034.71 294.462 1031.93 296.121 1029.58 295.03C990.561 276.875 946.373 288.909 928.512 297.609C909.105 304.356 857.129 313.801 804.484 297.609C751.839 281.417 726.667 283.542 720.662 286.629C689.307 299.902 618.102 322.717 584.118 307.795Z" fill="white"/>
<path d="M949.179 307.795C979.079 294.667 1007.65 299.827 1022.18 305.491C1024.57 306.423 1027.31 304.722 1027.31 302.157V244.933C1027.31 243.048 1025.78 241.52 1023.9 241.52H501.998C500.113 241.52 498.585 243.048 498.585 244.933V291.875C498.585 294.462 501.366 296.121 503.712 295.03C542.736 276.875 586.924 288.909 604.785 297.609C624.192 304.356 676.167 313.801 728.813 297.609C781.458 281.417 806.63 283.542 812.635 286.629C843.99 299.902 915.195 322.717 949.179 307.795Z" fill="#E2F9FF"/>
<path d="M937.038 295.889C966.938 282.761 995.507 287.92 1010.04 293.585C1012.43 294.516 1015.17 292.816 1015.17 290.251V233.027C1015.17 231.142 1013.64 229.613 1011.76 229.613H489.858C487.972 229.613 486.444 231.142 486.444 233.027V279.969C486.444 282.556 489.225 284.215 491.571 283.123C530.595 264.969 574.784 277.002 592.645 285.703C612.052 292.449 664.027 301.895 716.672 285.703C769.317 269.511 794.489 271.636 800.495 274.723C831.849 287.996 903.054 310.811 937.038 295.889Z" fill="white"/>
</g>
</g>
<g clip-path="url(#clip2_1573_702)" filter="url(#filter2_i_1573_702)">
<rect width="283.294" height="149.647" transform="translate(1159.59 286.297)" fill="#96DCFF"/>
<path d="M1257.27 383.16C1251.39 384.1 1237.37 388.521 1228.34 398.68C1227.6 399.518 1226.94 400.366 1226.37 401.22C1202.95 396.423 1155.59 386.744 1153.56 386.405C1151.53 386.066 1150.46 384.194 1150.17 383.301H1147.63L1146.79 384.853C1145.77 386.659 1146.65 387.769 1147.21 388.098L1220.44 408.698C1219.78 409.215 1217.11 410.278 1211.69 410.391C1206.27 410.504 1202.76 416.834 1201.67 419.986C1197.5 431.047 1205.39 437.105 1209.86 438.751C1211.69 439.175 1217.14 439.824 1224.25 439.033C1231.36 438.243 1235.58 433.249 1236.81 430.85L1238.92 431.414C1241.52 432.656 1255.71 432.496 1262.49 432.261C1275.61 431.743 1303.23 430.709 1308.76 430.709C1314.3 430.709 1335.06 426.758 1344.74 424.783C1344.74 426.523 1345.7 431.132 1349.54 435.647C1353.38 440.162 1359.51 440.821 1362.1 440.585C1368.87 440.247 1372.35 438.751 1373.25 438.046C1375.88 435.976 1381.26 430.85 1381.71 426.899C1382.16 422.949 1380.49 419.421 1379.59 418.151C1383.21 416.007 1385.14 411.614 1385.66 409.686C1433.96 402.019 1531.84 386.518 1536.92 385.841C1542 385.163 1547.03 382.925 1548.91 381.89C1549.33 381.043 1549.81 379.604 1548.34 380.62C1546.88 381.636 1540.49 382.831 1537.48 383.301L1370 406.582L1373.81 401.361L1434.76 393.601L1371.98 397.693C1371.3 396.451 1367.37 393.789 1365.49 392.613L1372.4 330.531H1369.58C1367.66 330.531 1366.52 332.789 1366.19 333.918C1361.82 347.886 1352.76 376.839 1351.52 380.902C1350.27 384.966 1347.52 385.511 1346.3 385.276L1257.27 383.16Z" fill="white"/>
<path d="M1264.04 398.297H1229.16L1227.1 401.35C1226.11 402.815 1226.41 403.182 1226.68 403.182C1237.55 403.25 1260.08 403.385 1263.22 403.385C1266.35 403.385 1266.86 403.114 1266.73 402.978C1266.73 399.559 1264.94 398.433 1264.04 398.297Z" fill="#838383"/>
<path d="M1228.9 439.742L1210.84 441.153L1200.4 432.97L1199.98 420.836L1206.47 410.536L1218.04 408.701C1218.51 408.701 1220.49 408.814 1224.67 409.266C1228.84 409.717 1227.82 415.662 1226.78 418.578L1238.21 425.633L1237.37 433.534L1228.9 439.742Z" fill="#41B4E1"/>
<path d="M1359.98 408.56L1344.18 417.873L1346.43 434.663L1354.76 441.436H1369.86L1375.78 438.19L1382.55 427.185V418.719L1386.08 411.382L1392.01 409.83L1377.19 406.867L1359.98 408.56Z" fill="#41B4E1"/>
<path d="M1226.37 401.081L1224.96 405.314V409.264L1217.05 408.7L1159.91 393.603L1144.53 387.959L1146.22 384.149L1149.05 381.751L1152.86 384.149L1194.06 393.179L1226.37 401.081Z" fill="#D9D9D9"/>
<path d="M1391.02 403.056L1319.77 413.638L1339.52 420.693L1349.12 415.19L1361.11 409.687C1362.76 409.217 1366.28 408.474 1367.18 409.264C1368.08 410.054 1372.26 410.816 1374.23 411.098C1379.65 411.437 1383.45 410.487 1384.68 409.97L1472.44 397.694L1527.6 388.664L1550.46 382.597V379.211L1537.06 381.61L1391.02 403.056Z" fill="#D9D9D9"/>
<ellipse cx="1213.8" cy="424.643" rx="13.5451" ry="14.6739" fill="#959799"/>
<ellipse cx="1212.82" cy="424.925" rx="11.1465" ry="11.5698" fill="#272727"/>
<path d="M1223.12 414.342L1224.53 406.017C1224.78 404.55 1225.66 404.889 1225.94 405.594L1227.91 410.532C1228.05 410.956 1228.48 411.83 1229.04 411.943C1229.61 412.056 1230.03 411.614 1230.17 411.379C1232.43 407.202 1234.97 406.064 1235.96 406.017H1246.11C1253.45 406.017 1261.68 404.794 1264.88 404.183C1267.47 403.572 1273.54 402.208 1277.16 401.643C1280.77 401.079 1284.02 401.878 1285.2 402.349L1321.6 413.636L1350.1 415.612L1343.89 425.771L1318.92 431.979L1240.05 432.684L1236.94 430.991L1230.17 428.875C1222.72 424.924 1222.36 417.54 1223.12 414.342Z" fill="#00B7FF"/>
<ellipse cx="1359.56" cy="424.357" rx="14.815" ry="14.6739" fill="#959799"/>
<ellipse cx="1358.49" cy="424.64" rx="12.1915" ry="11.5698" fill="#272727"/>
<path d="M1420.45 479.592C1423.29 481.609 1422.89 483.641 1422.34 484.405C1421.09 483.305 1418.56 483.03 1417.45 483.03C1416.78 482.953 1415.12 483.053 1413.79 484.061C1412.45 485.07 1411.53 485.016 1411.23 484.864L1409.9 483.488C1409.37 482.938 1408.27 482.953 1407.79 483.03C1406.46 483.259 1403.57 483.626 1402.68 483.259C1401.79 482.892 1401.05 483.412 1400.79 483.717C1400.35 481.425 1402.61 480.623 1403.79 480.508C1404.9 480.394 1407.19 479.981 1407.46 479.248C1407.72 478.514 1408.83 477.796 1409.34 477.529C1411.65 473.678 1410.16 473.479 1409.12 473.861C1401.57 478.17 1389.39 476.115 1384.25 474.549C1383.77 476.497 1382.62 480.623 1381.91 481.54C1381.2 482.457 1377.55 482.686 1375.81 482.686C1375.33 483.068 1374.21 483.786 1373.59 483.603C1372.96 483.42 1373.33 482.38 1373.59 481.884C1370.99 482.304 1365.72 483.053 1365.37 482.686C1365.01 482.319 1365.52 481.54 1365.81 481.196C1364.96 481.502 1362.9 481.998 1361.48 481.54C1360.06 481.082 1357.78 481.349 1356.82 481.54C1358.42 478.973 1362.44 478.255 1364.26 478.216C1366.29 477.987 1370.72 477.391 1372.14 476.841C1373.56 476.291 1373.47 473.326 1373.25 471.913C1373.29 471.072 1372.76 468.498 1370.36 464.922C1367.97 461.346 1367.07 453.27 1366.92 449.679L1366.48 436.27C1366.51 435.926 1365.5 436.889 1361.15 443.49C1355.71 451.742 1360.15 459.421 1353.93 458.962C1348.95 458.595 1347.56 451.398 1347.49 447.845C1347.78 440.892 1349.49 425.199 1353.93 418.047C1358.37 410.896 1363.04 401.085 1364.81 397.074L1369.03 382.977C1369.81 378.507 1372.25 368.468 1375.81 364.067C1379.36 359.666 1379.14 356.885 1378.58 356.044C1375.77 350.199 1368.72 338.188 1363.04 336.905C1357.35 335.621 1353.34 336.37 1352.04 336.905C1351.97 335.911 1352.49 333.375 1355.15 331.175C1357.82 328.974 1367.88 330.258 1372.59 331.175C1375.66 328.959 1384.2 325.857 1393.8 331.175C1403.39 336.492 1406.9 352.721 1407.46 360.17C1409.94 362.738 1415.75 376.98 1418.34 383.78C1421.34 391 1427.78 406.678 1429.56 411.629C1431.33 416.58 1433.18 432.946 1433.89 440.511C1436.11 448.266 1439.79 463.272 1436.77 461.255C1433.75 459.238 1429.22 441.924 1427.34 433.519C1428.22 442.046 1423.41 459.306 1420.89 466.87L1418.56 478.331L1420.45 479.592Z" fill="#19E3FF"/>
<path fill-rule="evenodd" clip-rule="evenodd" d="M1384.21 474.756C1381.22 472.252 1377.83 471.778 1375.09 471.394C1374.41 471.299 1373.77 471.209 1373.19 471.096C1372.97 469.87 1372.24 467.696 1370.38 464.918C1367.98 461.342 1367.08 453.266 1366.93 449.675L1366.51 436.746L1367.95 391.57V386.64L1369.04 382.973C1369.82 378.503 1372.26 368.464 1375.82 364.063C1379.37 359.662 1379.15 356.881 1378.59 356.04C1375.78 350.195 1368.73 338.184 1363.05 336.901C1360.95 336.428 1359.09 336.231 1357.5 336.197C1354.77 336.14 1352.87 336.563 1352.05 336.901C1351.98 335.907 1352.5 333.371 1355.16 331.171C1355.25 331.098 1355.35 331.029 1355.45 330.964C1358.49 329.055 1368.05 330.284 1372.6 331.171C1375.67 328.955 1384.21 325.853 1393.81 331.171C1398.7 333.881 1402.01 339.425 1404.15 345.196C1401.46 348.273 1396.12 353.152 1390.49 355.812C1383.12 359.296 1387.42 362.001 1390.49 362.918C1393.12 364.064 1399.29 367.182 1402.93 370.482C1405.4 372.723 1406.66 377.194 1407.92 381.657C1408.98 385.412 1410.04 389.161 1411.81 391.57C1414.89 395.748 1423.35 420.812 1427.36 433.612C1427.73 437.381 1427.01 442.816 1425.87 448.363C1424.43 455.416 1422.31 462.649 1420.91 466.867L1420.6 468.356C1420.13 468.568 1419.61 468.69 1419.03 468.701C1414.89 468.783 1411.76 472.086 1410.19 473.792C1409.9 473.664 1409.49 473.727 1409.13 473.857C1408.73 474.087 1408.32 474.299 1407.89 474.494C1407.23 474.794 1406.54 475.053 1405.84 475.276C1405.74 475.306 1405.65 475.334 1405.55 475.363C1404.92 475.553 1404.27 475.715 1403.6 475.85C1403.56 475.859 1403.51 475.868 1403.47 475.878L1403.38 475.894L1403.36 475.899C1402.17 476.128 1400.96 476.275 1399.73 476.356C1395.03 476.666 1390.22 475.994 1386.77 475.206C1385.82 474.988 1384.97 474.762 1384.26 474.545C1384.24 474.613 1384.22 474.683 1384.21 474.756ZM1427.48 434.121C1427.46 433.995 1427.43 433.871 1427.4 433.748C1427.42 433.824 1427.45 433.9 1427.47 433.975L1427.48 434.121ZM1357.14 336.937C1357.14 336.936 1357.14 336.934 1357.14 336.93L1357.14 336.927C1357.14 336.936 1357.14 336.94 1357.14 336.937Z" fill="white"/>
<path d="M1374.01 347.894C1370.75 342.789 1366.62 337.714 1363.03 336.905C1360.94 336.432 1359.07 336.235 1357.48 336.201C1354.76 336.144 1352.86 336.567 1352.04 336.905C1351.97 335.911 1352.48 333.375 1355.15 331.175C1355.24 331.102 1355.33 331.033 1355.44 330.968C1358.47 329.059 1368.04 330.288 1372.58 331.175C1375.66 328.959 1384.2 325.857 1393.8 331.175C1394.34 331.476 1394.87 331.813 1395.37 332.182C1396.68 338.354 1396.68 347.826 1388.69 349.282C1382.61 350.389 1377.46 349.291 1374.01 347.894Z" fill="#19E3FF"/>
<path d="M1357.13 336.934C1357.13 336.946 1357.13 336.945 1357.13 336.931L1357.13 336.934Z" fill="#19E3FF"/>
<path fill-rule="evenodd" clip-rule="evenodd" d="M1372.58 331.175C1370.1 334.642 1370.14 340.182 1371.47 344.202C1368.75 340.555 1365.74 337.517 1363.03 336.906C1360.94 336.433 1359.07 336.236 1357.48 336.202C1354.76 336.145 1352.86 336.568 1352.04 336.906C1351.96 335.913 1352.48 333.376 1355.15 331.176C1355.24 331.103 1355.33 331.034 1355.44 330.969C1358.47 329.061 1368.03 330.288 1372.58 331.175ZM1357.13 336.935C1357.13 336.947 1357.13 336.946 1357.13 336.932L1357.13 336.935Z" fill="#FF7134"/>
<ellipse cx="2.99841" cy="2.06294" rx="2.99841" ry="2.06294" transform="matrix(-1 0 0 1 1388.02 333.234)" fill="white"/>
<ellipse cx="1.44368" cy="1.4899" rx="1.44368" ry="1.4899" transform="matrix(-1 0 0 1 1386.02 333.922)" fill="#323232"/>
<path d="M1408.2 362.116C1404.81 359.857 1402.55 364.472 1391.25 365.413C1381.84 365.413 1381.47 359.856 1378.08 362.115C1374.69 364.374 1364.74 368.075 1360.2 369.643C1358.16 369.8 1354.83 373.879 1357.84 388.937C1358 391.761 1357.47 397.785 1354.08 399.29V439.761L1391.73 439.763H1429.37V399.292C1425.98 397.786 1425.45 391.763 1425.61 388.939C1428.62 373.88 1425.29 369.802 1423.25 369.645C1418.71 368.077 1411.58 364.374 1408.2 362.116Z" fill="#303BFF"/>
<path fill-rule="evenodd" clip-rule="evenodd" d="M1429.38 420.003H1354.08V413.415H1364.9V406.827C1363.65 403.689 1361.33 397.132 1362.08 396.003C1362.83 394.874 1362.08 390.827 1361.61 388.944C1359.98 381.098 1361.77 372.92 1363.3 368.541C1365.31 367.808 1367.65 366.921 1369.91 366.004C1369.4 368.052 1368.69 369.944 1367.73 371.062C1365.47 373.697 1368.04 400.081 1369.61 412.944H1416.2C1416.67 399.768 1417.52 372.944 1417.14 371.062C1416.76 369.18 1415.41 367.454 1414.79 366.827C1415.09 366.827 1415.81 366.942 1416.89 367.321C1417.13 367.415 1417.38 367.508 1417.62 367.6C1418.05 367.774 1418.52 367.985 1419.02 368.238C1421.28 369.368 1423.1 372.16 1423.73 373.415V383.297C1423.73 388.191 1422.16 392.552 1421.37 394.121L1421.85 413.415H1429.38V420.003Z" fill="#F9F9F9"/>
<g opacity="0.7">
<g opacity="0.77">
<path d="M1527.16 332.635C1557.06 319.507 1585.62 324.667 1600.15 330.331C1602.54 331.263 1605.29 329.562 1605.29 326.997V269.773C1605.29 267.888 1603.76 266.359 1601.88 266.359H1079.97C1078.09 266.359 1076.56 267.888 1076.56 269.773V316.715C1076.56 319.302 1079.34 320.961 1081.69 319.869C1120.71 301.715 1164.9 313.748 1182.76 322.449C1202.17 329.196 1254.14 338.641 1306.79 322.449C1359.43 306.257 1384.61 308.382 1390.61 311.469C1421.97 324.742 1493.17 347.557 1527.16 332.635Z" fill="white"/>
<path d="M1162.09 332.635C1132.19 319.507 1103.63 324.667 1089.1 330.331C1086.71 331.263 1083.96 329.562 1083.96 326.997V269.773C1083.96 267.888 1085.49 266.359 1087.37 266.359H1609.28C1611.16 266.359 1612.69 267.888 1612.69 269.773V316.715C1612.69 319.302 1609.91 320.961 1607.56 319.869C1568.54 301.715 1524.35 313.748 1506.49 322.449C1487.08 329.196 1435.11 338.641 1382.46 322.449C1329.82 306.257 1304.64 308.382 1298.64 311.469C1267.28 324.742 1196.08 347.557 1162.09 332.635Z" fill="#E2F9FF"/>
<path d="M1174.23 320.729C1144.34 307.6 1115.77 312.76 1101.24 318.425C1098.85 319.356 1096.1 317.656 1096.1 315.091V257.867C1096.1 255.981 1097.63 254.453 1099.52 254.453H1621.42C1623.3 254.453 1624.83 255.981 1624.83 257.867V304.808C1624.83 307.396 1622.05 309.055 1619.7 307.963C1580.68 289.809 1536.49 301.842 1518.63 310.543C1499.22 317.289 1447.25 326.735 1394.6 310.543C1341.96 294.351 1316.78 296.476 1310.78 299.563C1279.42 312.836 1208.22 335.651 1174.23 320.729Z" fill="white"/>
</g>
<path d="M1174.23 308.737C1144.33 295.608 1115.76 300.768 1101.23 306.432C1098.84 307.364 1096.09 305.663 1096.09 303.098V245.875C1096.09 243.989 1097.62 242.461 1099.51 242.461H1621.41C1623.29 242.461 1624.82 243.989 1624.82 245.875V292.816C1624.82 295.404 1622.04 297.062 1619.69 295.971C1580.67 277.816 1536.48 289.85 1518.62 298.55C1499.21 305.297 1447.24 314.742 1394.59 298.55C1341.95 282.358 1316.78 284.484 1310.77 287.571C1279.42 300.843 1208.21 323.659 1174.23 308.737Z" fill="white"/>
<path d="M1539.29 308.737C1569.19 295.608 1597.76 300.768 1612.29 306.432C1614.68 307.364 1617.42 305.663 1617.42 303.098V245.875C1617.42 243.989 1615.89 242.461 1614.01 242.461H1092.11C1090.22 242.461 1088.69 243.989 1088.69 245.875V292.816C1088.69 295.404 1091.48 297.062 1093.82 295.971C1132.85 277.816 1177.03 289.85 1194.89 298.55C1214.3 305.297 1266.28 314.742 1318.92 298.55C1371.57 282.358 1396.74 284.484 1402.74 287.571C1434.1 300.843 1505.3 323.659 1539.29 308.737Z" fill="#E2F9FF"/>
<path d="M1527.15 296.83C1557.05 283.702 1585.62 288.862 1600.15 294.526C1602.53 295.458 1605.28 293.757 1605.28 291.192V233.968C1605.28 232.083 1603.75 230.555 1601.87 230.555H1079.97C1078.08 230.555 1076.55 232.083 1076.55 233.968V280.91C1076.55 283.497 1079.33 285.156 1081.68 284.065C1120.7 265.91 1164.89 277.944 1182.75 286.644C1202.16 293.391 1254.14 302.836 1306.78 286.644C1359.43 270.452 1384.6 272.578 1390.6 275.664C1421.96 288.937 1493.16 311.753 1527.15 296.83Z" fill="white"/>
</g>
</g>
<g clip-path="url(#clip3_1573_702)" filter="url(#filter3_i_1573_702)">
<rect width="262.588" height="149.647" transform="translate(1 286.297)" fill="#96DCFF"/>
<path d="M198.196 383.16C204.075 384.1 218.09 388.521 227.12 398.68C227.865 399.518 228.52 400.366 229.093 401.22C252.516 396.423 299.869 386.744 301.901 386.405C303.933 386.066 305.005 384.194 305.287 383.301H307.827L308.673 384.853C309.689 386.659 308.815 387.769 308.25 388.098L235.022 408.698C235.68 409.215 238.352 410.278 243.77 410.391C249.188 410.504 252.706 416.834 253.787 419.986C257.964 431.047 250.072 437.105 245.604 438.751C243.77 439.175 238.323 439.824 231.212 439.033C224.101 438.243 219.878 433.249 218.655 430.85L216.538 431.414C213.942 432.656 199.748 432.496 192.975 432.261C179.854 431.743 152.227 430.709 146.696 430.709C141.165 430.709 120.405 426.758 110.717 424.783C110.717 426.523 109.757 431.132 105.92 435.647C102.082 440.162 95.949 440.821 93.3622 440.585C86.5896 440.247 83.1093 438.751 82.2157 438.046C79.5819 435.976 74.2015 430.85 73.75 426.899C73.2985 422.949 74.9728 419.421 75.8664 418.151C72.2544 416.007 70.3167 411.614 69.7993 409.686C21.4977 402.019 -76.3752 386.518 -81.4547 385.841C-86.5341 385.163 -91.5665 382.925 -93.4478 381.89C-93.871 381.043 -94.3508 379.604 -92.8834 380.62C-91.416 381.636 -85.0291 382.831 -82.019 383.301L85.4609 406.582L81.6513 401.361L20.6982 393.601L83.4856 397.693C84.1628 396.451 88.0947 393.789 89.9759 392.613L83.0623 330.531H85.8842C87.8031 330.531 88.9412 332.789 89.2705 333.918C93.6444 347.886 102.703 376.839 103.944 380.902C105.186 384.966 107.942 385.511 109.165 385.276L198.196 383.16Z" fill="white"/>
<path d="M191.419 398.297H226.301L228.365 401.35C229.356 402.815 229.053 403.182 228.778 403.182C217.907 403.25 195.382 403.385 192.245 403.385C189.107 403.385 188.598 403.114 188.736 402.978C188.736 399.559 190.525 398.433 191.419 398.297Z" fill="#838383"/>
<path d="M226.56 439.742L244.62 441.153L255.061 432.97L255.484 420.836L248.994 410.536L237.424 408.701C236.954 408.701 234.969 408.814 230.793 409.266C226.616 409.717 227.642 415.662 228.676 418.578L217.248 425.633L218.094 433.534L226.56 439.742Z" fill="#767676"/>
<path d="M95.4825 408.56L111.285 417.873L109.028 434.663L100.703 441.436H85.6058L79.6798 438.19L72.9072 427.185V418.719L69.3798 411.382L63.4538 409.83L78.2688 406.867L95.4825 408.56Z" fill="#767676"/>
<path d="M229.094 401.081L230.505 405.314V409.264L238.407 408.7L295.55 393.603L310.93 387.959L309.237 384.149L306.415 381.751L302.605 384.149L261.405 393.179L229.094 401.081Z" fill="#D9D9D9"/>
<path d="M64.4364 403.056L135.689 413.638L115.936 420.693L106.342 415.19L94.3486 409.687C92.7025 409.217 89.1845 408.474 88.2815 409.264C87.3785 410.054 83.2021 410.816 81.2268 411.098C75.8087 411.437 72.0085 410.487 70.7857 409.97L-16.9755 397.694L-72.1437 388.664L-95.0011 382.597V379.211L-81.597 381.61L64.4364 403.056Z" fill="#D9D9D9"/>
<ellipse cx="13.5451" cy="14.6739" rx="13.5451" ry="14.6739" transform="matrix(-1 0 0 1 255.203 409.969)" fill="#959799"/>
<ellipse cx="11.1465" cy="11.5698" rx="11.1465" ry="11.5698" transform="matrix(-1 0 0 1 253.789 413.355)" fill="#272727"/>
<path d="M232.345 414.342L230.934 406.017C230.686 404.55 229.805 404.889 229.523 405.594L227.548 410.532C227.407 410.956 226.984 411.83 226.419 411.943C225.855 412.056 225.432 411.614 225.29 411.379C223.033 407.202 220.493 406.064 219.506 406.017H209.347C202.01 406.017 193.779 404.794 190.581 404.183C187.994 403.572 181.918 402.208 178.306 401.643C174.694 401.079 171.439 401.878 170.263 402.349L133.861 413.636L105.36 415.612L111.568 425.771L136.542 431.979L215.414 432.684L218.518 430.991L225.29 428.875C232.74 424.924 233.098 417.54 232.345 414.342Z" fill="#383838"/>
<ellipse cx="14.815" cy="14.6739" rx="14.815" ry="14.6739" transform="matrix(-1 0 0 1 110.711 409.684)" fill="#959799"/>
<ellipse cx="12.1915" cy="11.5698" rx="12.1915" ry="11.5698" transform="matrix(-1 0 0 1 109.164 413.07)" fill="#272727"/>
<path d="M5.29278 479.592C2.44984 481.609 2.84963 483.641 3.40489 484.405C4.64863 483.305 7.18069 483.03 8.29125 483.03C8.95756 482.953 10.6233 483.053 11.956 484.061C13.2886 485.07 14.214 485.016 14.5102 484.864L15.8428 483.488C16.3759 482.938 17.4716 482.953 17.9528 483.03C19.2854 483.259 22.1728 483.626 23.0612 483.259C23.9496 482.892 24.69 483.412 24.9491 483.717C25.3933 481.425 23.1352 480.623 21.9507 480.508C20.8402 480.394 18.5525 479.981 18.286 479.248C18.0194 478.514 16.9163 477.796 16.3981 477.529C14.0882 473.678 15.5837 473.479 16.6202 473.861C24.1723 478.17 36.3507 476.115 41.4959 474.549C41.9771 476.497 43.1173 480.623 43.828 481.54C44.5387 482.457 48.196 482.686 49.9359 482.686C50.4171 483.068 51.535 483.786 52.1569 483.603C52.7788 483.42 52.416 482.38 52.1569 481.884C54.7481 482.304 60.0194 483.053 60.3748 482.686C60.7301 482.319 60.2267 481.54 59.9306 481.196C60.782 481.502 62.8401 481.998 64.2616 481.54C65.6831 481.082 67.9634 481.349 68.9258 481.54C67.3267 478.973 63.2992 478.255 61.4853 478.216C59.4493 477.987 55.0221 477.391 53.6006 476.841C52.1791 476.291 52.268 473.326 52.4901 471.913C52.453 471.072 52.9787 468.498 55.3774 464.922C57.7762 461.346 58.672 453.27 58.8201 449.679L59.2643 436.27C59.2272 435.926 60.2415 436.889 64.5948 443.49C70.0363 451.742 65.5942 459.421 71.8132 458.962C76.7883 458.595 78.1802 451.398 78.2542 447.845C77.9581 440.892 76.2553 425.199 71.8132 418.047C67.3711 410.896 62.7069 401.085 60.93 397.074L56.7101 382.977C55.9327 378.507 53.4895 368.468 49.9359 364.067C46.3822 359.666 46.6043 356.885 47.1596 356.044C49.9729 350.199 57.021 338.188 62.7069 336.905C68.3928 335.621 72.4054 336.37 73.7011 336.905C73.7751 335.911 73.2569 333.375 70.5916 331.175C67.9263 328.974 57.8576 330.258 53.1564 331.175C50.0839 328.959 41.5403 325.857 31.9454 331.175C22.3505 336.492 18.8412 352.721 18.286 360.17C15.7984 362.738 9.99405 376.98 7.40283 383.78C4.40418 391 -2.03719 406.678 -3.81345 411.629C-5.58971 416.58 -7.44051 432.946 -8.14387 440.511C-10.3649 448.266 -14.0519 463.272 -11.0312 461.255C-8.01061 459.238 -3.48057 441.924 -1.59313 433.519C-2.48155 442.046 2.33072 459.306 4.84791 466.87L7.18001 478.331L5.29278 479.592Z" fill="#1B1B1B"/>
<path fill-rule="evenodd" clip-rule="evenodd" d="M41.5364 474.756C44.5246 472.252 47.9095 471.778 50.6489 471.394C51.3281 471.299 51.9677 471.209 52.5517 471.096C52.7686 469.87 53.5016 467.696 55.3653 464.918C57.764 461.342 58.6599 453.266 58.8079 449.675L59.2362 436.746L57.7956 391.57V386.64L56.6979 382.973C55.9206 378.503 53.4774 368.464 49.9238 364.063C46.3701 359.662 46.5922 356.881 47.1474 356.04C49.9608 350.195 57.0089 338.184 62.6948 336.901C64.7888 336.428 66.6559 336.231 68.244 336.197C70.9678 336.14 72.8705 336.563 73.6889 336.901C73.763 335.907 73.2447 333.371 70.5795 331.171C70.4916 331.098 70.3956 331.029 70.292 330.964C67.2558 329.055 57.6904 330.284 53.1443 331.171C50.0718 328.955 41.5282 325.853 31.9333 331.171C27.0434 333.881 23.7342 339.425 21.591 345.196C24.2797 348.273 29.6212 353.152 35.2519 355.812C42.6258 359.296 38.3244 362.001 35.2519 362.918C32.6237 364.064 26.4566 367.182 22.8141 370.482C20.3415 372.723 19.0807 377.194 17.8222 381.657C16.7633 385.412 15.706 389.161 13.9299 391.57C10.8498 395.748 2.39413 420.812 -1.61502 433.612C-1.98596 437.381 -1.26594 442.816 -0.12969 448.363C1.31485 455.416 3.43214 462.649 4.83579 466.867L5.1388 468.356C5.60954 468.568 6.13211 468.69 6.7115 468.701C10.8473 468.783 13.9862 472.086 15.5547 473.792C15.8459 473.664 16.2538 473.727 16.6081 473.857C17.011 474.087 17.427 474.299 17.8545 474.494C18.5133 474.794 19.1992 475.053 19.9057 475.276C19.9992 475.306 20.0931 475.334 20.1873 475.363C20.8235 475.553 21.4756 475.715 22.1387 475.85C22.1843 475.859 22.2298 475.868 22.2755 475.878L22.3574 475.894L22.3849 475.899C23.5682 476.128 24.7849 476.275 26.009 476.356C30.7119 476.666 35.5239 475.994 38.9715 475.206C39.9232 474.988 40.771 474.762 41.4838 474.545C41.5005 474.613 41.5181 474.683 41.5364 474.756ZM-1.74219 434.121C-1.71349 433.995 -1.68532 433.871 -1.65767 433.748C-1.68143 433.824 -1.70504 433.9 -1.72847 433.975L-1.74219 434.121ZM68.6013 336.937C68.6011 336.936 68.6007 336.934 68.5999 336.93L68.5994 336.927C68.6008 336.936 68.6016 336.94 68.6013 336.937Z" fill="white"/>
<path d="M51.7301 347.894C54.9955 342.789 59.1227 337.714 62.7081 336.905C64.8022 336.432 66.6693 336.235 68.2573 336.201C70.9812 336.144 72.8839 336.567 73.7023 336.905C73.7763 335.911 73.2581 333.375 70.5929 331.175C70.5049 331.102 70.409 331.033 70.3054 330.968C67.2692 329.059 57.7038 330.288 53.1576 331.175C50.0852 328.959 41.5416 325.857 31.9467 331.175C31.4021 331.476 30.8771 331.813 30.3712 332.182C29.0648 338.354 29.0611 347.826 37.0559 349.282C43.1311 350.389 48.2813 349.291 51.7301 347.894Z" fill="#1B1B1B"/>
<path d="M68.6133 336.934C68.6156 336.946 68.6148 336.945 68.6128 336.931L68.6133 336.934Z" fill="#1B1B1B"/>
<path fill-rule="evenodd" clip-rule="evenodd" d="M53.1641 331.175C55.6434 334.642 55.6048 340.182 54.2729 344.202C56.9916 340.555 60.0046 337.517 62.7094 336.906C64.8034 336.433 66.6706 336.236 68.2586 336.202C70.9824 336.145 72.8851 336.568 73.7036 336.906C73.7776 335.913 73.2594 333.376 70.5941 331.176C70.5062 331.103 70.4102 331.034 70.3066 330.969C67.2716 329.061 57.7123 330.288 53.1641 331.175ZM68.6145 336.935C68.6169 336.947 68.6161 336.946 68.614 336.932L68.6145 336.935Z" fill="#FF7134"/>
<ellipse cx="40.7172" cy="335.297" rx="2.99841" ry="2.06294" fill="white"/>
<ellipse cx="41.1624" cy="335.412" rx="1.44368" ry="1.4899" fill="#323232"/>
<path d="M17.5464 362.116C20.9346 359.857 23.1935 364.472 34.4876 365.413C43.8994 365.413 44.2758 359.856 47.6641 362.115C51.0523 364.374 60.9974 368.075 65.5464 369.643C67.5856 369.8 70.9111 373.879 67.8994 388.937C67.7425 391.761 68.2758 397.785 71.6641 399.29V439.761L34.017 439.763H-3.63006V399.292C-0.241821 397.786 0.291512 391.763 0.134644 388.939C-2.87712 373.88 0.448372 369.802 2.48759 369.645C7.03661 368.077 14.1582 364.374 17.5464 362.116Z" fill="#383838"/>
<path fill-rule="evenodd" clip-rule="evenodd" d="M-3.63281 420.003H71.6613V413.415H60.8382V406.827C62.0931 403.689 64.4147 397.132 63.6618 396.003C62.9088 394.874 63.6615 390.827 64.132 388.944C65.7666 381.098 63.9708 372.92 62.4425 368.541C60.4333 367.808 58.093 366.921 55.8346 366.004C56.3464 368.052 57.0564 369.944 58.0149 371.062C60.2737 373.697 57.7011 400.081 56.1325 412.944H9.54427C9.07368 399.768 8.22662 372.944 8.60309 371.062C8.97956 369.18 10.3286 367.454 10.956 366.827C10.655 366.827 9.93018 366.942 8.85557 367.321C8.60983 367.415 8.36555 367.508 8.12327 367.6C7.69569 367.774 7.22707 367.985 6.72059 368.238C4.46165 369.368 2.64211 372.16 2.01471 373.415V383.297C2.01471 388.191 3.58334 392.552 4.36765 394.121L3.89706 413.415H-3.63281V420.003Z" fill="#F9F9F9"/>
<g opacity="0.7">
<g opacity="0.77">
<path d="M298.921 331.694C328.821 318.565 357.389 323.725 371.919 329.389C374.308 330.321 377.055 328.62 377.055 326.055V268.832C377.055 266.946 375.526 265.418 373.641 265.418H-148.26C-150.145 265.418 -151.673 266.946 -151.673 268.832V315.773C-151.673 318.361 -148.892 320.019 -146.546 318.928C-107.522 300.773 -63.3336 312.807 -45.4725 321.507C-26.0656 328.254 25.9096 337.699 78.5548 321.507C131.2 305.315 156.372 307.441 162.378 310.528C193.732 323.8 264.937 346.616 298.921 331.694Z" fill="white"/>
<path d="M-66.14 331.694C-96.0396 318.565 -124.608 323.725 -139.137 329.389C-141.527 330.321 -144.273 328.62 -144.273 326.055V268.832C-144.273 266.946 -142.745 265.418 -140.86 265.418H381.041C382.926 265.418 384.454 266.946 384.454 268.832V315.773C384.454 318.361 381.673 320.019 379.327 318.928C340.303 300.773 296.115 312.807 278.254 321.507C258.847 328.254 206.872 337.699 154.226 321.507C101.581 305.315 76.4091 307.441 70.4037 310.528C39.0493 323.8 -32.1558 346.616 -66.14 331.694Z" fill="#E2F9FF"/>
<path d="M-53.9994 319.788C-83.899 306.659 -112.468 311.819 -126.997 317.483C-129.387 318.415 -132.133 316.714 -132.133 314.149V256.925C-132.133 255.04 -130.605 253.512 -128.719 253.512H393.182C395.067 253.512 396.595 255.04 396.595 256.925V303.867C396.595 306.454 393.814 308.113 391.468 307.022C352.444 288.867 308.255 300.901 290.394 309.601C270.987 316.348 219.012 325.793 166.367 309.601C113.722 293.409 88.5498 295.535 82.5444 298.621C51.1899 311.894 -20.0152 334.71 -53.9994 319.788Z" fill="white"/>
</g>
<path d="M-53.9994 307.795C-83.899 294.667 -112.468 299.827 -126.997 305.491C-129.387 306.423 -132.133 304.722 -132.133 302.157V244.933C-132.133 243.048 -130.605 241.52 -128.719 241.52H393.182C395.067 241.52 396.595 243.048 396.595 244.933V291.875C396.595 294.462 393.814 296.121 391.468 295.03C352.444 276.875 308.255 288.909 290.394 297.609C270.987 304.356 219.012 313.801 166.367 297.609C113.722 281.417 88.5498 283.542 82.5444 286.629C51.1899 299.902 -20.0152 322.717 -53.9994 307.795Z" fill="white"/>
<path d="M311.062 307.795C340.961 294.667 369.53 299.827 384.059 305.491C386.449 306.423 389.195 304.722 389.195 302.157V244.933C389.195 243.048 387.667 241.52 385.782 241.52H-136.119C-138.004 241.52 -139.533 243.048 -139.533 244.933V291.875C-139.533 294.462 -136.751 296.121 -134.405 295.03C-95.3815 276.875 -51.193 288.909 -33.3319 297.609C-13.925 304.356 38.0502 313.801 90.6954 297.609C143.341 281.417 168.513 283.542 174.518 286.629C205.873 299.902 277.078 322.717 311.062 307.795Z" fill="#E2F9FF"/>
<path d="M298.921 295.889C328.821 282.761 357.389 287.92 371.919 293.585C374.308 294.516 377.055 292.816 377.055 290.251V233.027C377.055 231.142 375.526 229.613 373.641 229.613H-148.26C-150.145 229.613 -151.673 231.142 -151.673 233.027V279.969C-151.673 282.556 -148.892 284.215 -146.546 283.123C-107.522 264.969 -63.3336 277.002 -45.4725 285.703C-26.0656 292.449 25.9096 301.895 78.5548 285.703C131.2 269.511 156.372 271.636 162.378 274.723C193.732 287.996 264.937 310.811 298.921 295.889Z" fill="white"/>
</g>
</g>
<mask id="path-76-inside-1_1573_702" fill="white">
<rect x="575.195" y="15.7656" width="293.4" height="156.234" rx="2.46038"/>
</mask>
<rect x="575.195" y="15.7656" width="293.4" height="156.234" rx="2.46038" fill="#161616" stroke="#262626" stroke-width="18.4528" mask="url(#path-76-inside-1_1573_702)"/>
<rect x="583.188" y="135.094" width="276.177" height="30.1396" fill="#4FCA56"/>
<mask id="path-78-inside-2_1573_702" fill="white">
<rect x="1072" y="15.7656" width="293.4" height="156.234" rx="2.46038"/>
</mask>
<rect x="1072" y="15.7656" width="293.4" height="156.234" rx="2.46038" fill="#161616" stroke="#262626" stroke-width="18.4528" mask="url(#path-78-inside-2_1573_702)"/>
<rect x="1079.98" y="135.094" width="276.177" height="30.1396" fill="#19E3FF"/>
<mask id="path-80-inside-3_1573_702" fill="white">
<rect x="78.3984" y="15.7656" width="293.4" height="156.234" rx="2.46038"/>
</mask>
<rect x="78.3984" y="15.7656" width="293.4" height="156.234" rx="2.46038" fill="#161616" stroke="#262626" stroke-width="18.4528" mask="url(#path-80-inside-3_1573_702)"/>
<rect x="86.3906" y="135.094" width="276.177" height="30.1396" fill="#6C6C6C"/>
<path d="M895.892 101.821L908.102 103.687L907.873 104.257L907.439 104.191C906.453 104.04 906.441 104.382 906.26 105.565L904.796 115.152C904.615 116.335 904.603 116.676 905.589 116.827L906.004 116.89L906.051 117.503L900.252 116.617L900.446 116.142L900.604 116.166C901.649 116.326 901.674 115.502 901.767 114.891L903.446 103.904C903.476 103.707 903.356 103.567 903.159 103.537L900.674 103.157C900.476 103.127 900.32 103.225 900.29 103.422L898.611 114.409C898.518 115.02 898.296 115.814 899.341 115.973L899.499 115.998L899.542 116.509L893.782 115.629L894.011 115.058L894.425 115.121C895.411 115.272 895.502 114.943 895.683 113.759L897.128 104.17C897.309 102.986 897.399 102.657 896.413 102.506L895.999 102.443L895.892 101.821ZM910.781 118.428C908.236 118.039 907.049 115.637 907.426 113.172C907.838 110.469 910.234 107.343 912.423 107.678C914.534 108 915.965 111.711 915.552 114.413C915.176 116.879 913.325 118.816 910.781 118.428ZM910.856 117.935C912.335 118.161 912.804 115.225 913.024 113.785C913.335 111.753 913.729 108.382 912.348 108.171C910.967 107.96 910.336 111.295 910.026 113.327C909.806 114.767 909.377 117.709 910.856 117.935ZM919.062 108.894L922.316 109.391L923.438 115.396L924.73 112.485C925.774 110.141 926.478 110.027 928.076 110.271L929.338 110.464L929.164 110.942L928.849 110.894C928.119 110.782 928.106 111.79 928.05 112.689L927.693 118.589C927.636 119.489 927.614 120.293 928.344 120.405L928.66 120.453L928.742 120.97L924.285 120.289L924.404 119.904L924.503 119.919C925.272 120.036 925.274 118.704 925.306 118.225L925.754 112.52L925.478 112.478L922.357 119.692L921.923 119.626L920.569 112.374C919.897 116.107 919.694 117.044 919.6 117.393C919.254 118.733 918.455 119.6 917.094 119.392C914.905 119.058 915.291 116.533 916.645 116.256C916.789 116.237 916.933 116.219 917.071 116.24C917.821 116.354 918.386 117.147 918.206 117.665C918.142 117.817 918.19 117.904 918.268 117.917C918.446 117.944 918.833 117.66 919.014 117.001C919.16 116.438 919.525 114.314 919.86 112.649C920.256 110.59 920.525 109.622 919.539 109.471L919.065 109.399L919.062 108.894ZM933.164 121.848C930.619 121.459 929.432 119.057 929.809 116.591C930.222 113.889 932.617 110.763 934.806 111.098C936.917 111.42 938.348 115.131 937.935 117.833C937.559 120.299 935.708 122.236 933.164 121.848ZM933.239 121.354C934.719 121.581 935.187 118.645 935.407 117.205C935.718 115.173 936.112 111.802 934.731 111.591C933.35 111.38 932.72 114.715 932.409 116.747C932.189 118.186 931.76 121.128 933.239 121.354ZM939.667 112.042L946.985 113.16C947.148 114.073 946.978 116.51 946.685 117.898L946.192 117.823C946.332 117.562 946.454 116.632 946.419 116.202C946.388 115.875 945.989 115.713 945.642 115.478C945.112 115.114 944.448 114.307 944.602 113.301L943.517 113.135C943.122 113.075 943.042 113.466 943.021 113.604L941.927 120.764C941.855 121.238 941.616 122.533 942.386 122.651L942.741 122.705L942.779 123.115L938.085 122.398L938.259 121.92L938.574 121.968C939.304 122.079 939.425 121.29 939.56 120.403L940.449 114.584C940.585 113.696 940.736 112.71 940.006 112.598L939.69 112.55L939.667 112.042ZM950.818 121.073C950.495 121.205 950.301 121.418 950.262 121.674L950.208 122.029C950.135 122.503 949.897 123.799 950.666 123.916L950.765 123.931L950.803 124.341L946.464 123.678L946.638 123.2L946.953 123.248C947.683 123.359 947.804 122.571 947.939 121.683L948.828 115.864C948.964 114.976 949.115 113.99 948.385 113.879L948.069 113.83L948.046 113.322L952.524 114.006L952.365 114.386L952.167 114.356C951.398 114.238 951.199 115.54 951.127 116.013L950.521 119.978C950.482 120.234 950.644 120.36 950.843 120.249C952.249 119.374 952.464 113.997 956.094 114.552L957.534 114.772L957.36 115.25L957.044 115.202C956.314 115.09 956.164 116.076 956.028 116.964L955.139 122.783C955.003 123.671 954.883 124.46 955.613 124.571L955.928 124.619L955.952 125.127L951.612 124.464L951.771 124.085L951.87 124.1C952.639 124.218 952.798 122.91 952.871 122.436L953.808 116.302C952.73 117.146 952.328 120.436 950.818 121.073ZM965.526 125.238L965.188 127.447C965.038 128.433 964.828 129.411 965.558 129.522L966.13 129.609L966.153 130.118L961.261 129.37L961.435 128.892L961.79 128.946C962.579 129.067 962.73 128.081 962.881 127.094L964.237 118.218C964.372 117.331 964.523 116.344 963.773 116.23L963.399 116.173L963.375 115.664L966.926 116.207L966.748 117.371C966.875 117.067 967.727 116.248 968.455 116.239C971.247 116.201 971.969 120.59 971.604 122.977C971.381 124.437 970.771 125.656 969.802 126.315C969.061 126.807 968.201 127.019 967.432 126.902C966.603 126.775 965.877 126.24 965.526 125.238ZM968.941 122.57C969.538 118.665 969.346 116.879 968.498 116.75C967.729 116.632 966.691 118.008 966.493 118.644L965.709 123.772C965.61 124.423 966.215 126.009 966.91 126.216C966.986 126.248 967.065 126.26 967.144 126.272C967.992 126.402 968.471 125.647 968.941 122.57ZM980.979 127.781L980.997 127.4C981.005 128.007 981.136 128.471 981.668 128.552L981.865 128.582L981.948 129.099L979.68 128.753C978.792 128.617 978.493 128.067 978.51 127.161L978.519 126.839C977.708 128.048 977.026 128.549 975.843 128.368C974.008 128.088 972.08 126.441 972.803 123.16C973.261 121.091 975.226 117.475 977.77 117.864C978.244 117.936 978.567 118.066 978.953 118.711L978.962 118.651C979.016 118.296 979.25 118.09 979.605 118.144L982.445 118.578L982.33 119.065L982.015 119.017C981.285 118.905 981.233 119.907 981.196 120.809L981.004 126.957C981.005 127.078 980.984 127.216 980.986 127.338L980.979 127.781ZM978.884 119.689C978.929 118.868 978.475 118.537 977.956 118.498C977.096 118.447 976.279 119.432 975.308 123.806C974.916 125.583 974.981 127.53 976.066 127.696C977.151 127.862 977.967 127.018 978.501 125.767L978.884 119.689ZM981 127.38L980.997 127.4L981.017 126.737C981.005 126.816 981.016 126.878 981.004 126.957L980.986 127.338C980.983 127.357 981 127.38 981 127.38ZM985.622 125.604C985.494 127.239 985.485 129.276 986.925 129.496C988.128 129.68 989.052 128.388 989.224 127.002L990.321 127.088C990.019 129.061 988.281 130.269 986.328 129.97C983.843 129.591 982.64 127.025 983.008 124.619C983.439 121.798 986.096 118.934 988.247 119.263C989.41 119.44 990.009 120.279 990.092 120.392C991.229 121.939 991.09 124.037 989.614 124.316C989.427 124.348 989.264 124.363 989.086 124.336C988.514 124.249 988.059 123.796 988.188 122.948C988.396 121.587 989.682 122.288 989.567 121.059C989.466 120.135 988.664 119.831 988.25 119.768C986.278 119.466 985.792 123.57 985.622 125.604ZM997.548 131.483L992.853 130.766L993.027 130.288L993.382 130.342C994.171 130.462 994.313 129.535 994.473 128.49L995.521 121.626C995.542 121.487 995.583 121.09 995.09 121.015L994.656 120.948C994.321 123.138 992.556 123.07 992.404 123.531C992.256 123.973 992.08 124.995 992.113 125.303L991.62 125.228C991.696 123.806 992.467 121.139 992.917 120.178L1000.65 121.359C1000.79 122.41 1000.73 125.187 1000.38 126.566L999.885 126.491C1000.01 126.207 1000.15 125.178 1000.14 124.713C1000.13 124.227 998.424 123.765 998.759 121.575L998.364 121.515C997.891 121.443 997.814 121.814 997.793 121.952L996.741 128.836C996.581 129.882 996.44 130.809 997.169 130.92L997.524 130.975L997.548 131.483ZM1009.51 132.139L1009.52 131.758C1009.53 132.365 1009.66 132.829 1010.2 132.911L1010.39 132.941L1010.48 133.458L1008.21 133.112C1007.32 132.976 1007.02 132.426 1007.04 131.52L1007.05 131.198C1006.24 132.407 1005.55 132.908 1004.37 132.727C1002.54 132.447 1000.61 130.8 1001.33 127.519C1001.79 125.449 1003.75 121.834 1006.3 122.222C1006.77 122.295 1007.1 122.425 1007.48 123.069L1007.49 123.01C1007.54 122.655 1007.78 122.449 1008.13 122.503L1010.97 122.937L1010.86 123.424L1010.54 123.376C1009.81 123.264 1009.76 124.265 1009.72 125.168L1009.53 131.315C1009.53 131.437 1009.51 131.575 1009.51 131.696L1009.51 132.139ZM1007.41 124.048C1007.46 123.227 1007 122.895 1006.48 122.856C1005.62 122.806 1004.81 123.791 1003.84 128.164C1003.44 129.941 1003.51 131.889 1004.59 132.055C1005.68 132.221 1006.49 131.376 1007.03 130.126L1007.41 124.048ZM1009.53 131.739L1009.52 131.758L1009.55 131.095C1009.53 131.174 1009.54 131.237 1009.53 131.315L1009.51 131.696C1009.51 131.716 1009.53 131.739 1009.53 131.739ZM1014.15 129.962C1014.02 131.598 1014.01 133.635 1015.45 133.855C1016.66 134.039 1017.58 132.747 1017.75 131.36L1018.85 131.447C1018.55 133.42 1016.81 134.628 1014.86 134.329C1012.37 133.949 1011.17 131.384 1011.54 128.977C1011.97 126.157 1014.62 123.293 1016.77 123.621C1017.94 123.799 1018.54 124.637 1018.62 124.751C1019.76 126.297 1019.62 128.396 1018.14 128.675C1017.96 128.707 1017.79 128.722 1017.61 128.695C1017.04 128.608 1016.59 128.154 1016.72 127.306C1016.92 125.945 1018.21 126.646 1018.09 125.418C1017.99 124.494 1017.19 124.19 1016.78 124.126C1014.81 123.825 1014.32 127.929 1014.15 129.962ZM1023.84 127.124L1023.57 128.919C1023.53 129.155 1023.67 129.337 1024.06 129.398L1024.16 129.413C1024.32 129.437 1024.56 129.473 1024.77 129.404C1025.26 129.237 1025.66 128.451 1025.9 127.417C1026.29 125.68 1027.1 125.219 1028.17 125.382C1029.37 125.566 1029.75 126.371 1029.64 127.081C1029.54 127.732 1029.01 128.297 1028.28 128.186C1027.61 128.083 1027.34 127.477 1027.43 126.924C1027.46 126.707 1027.55 126.519 1027.61 126.387C1027.68 126.196 1027.54 126.053 1027.38 126.029C1027.03 125.975 1026.72 126.776 1026.64 127.046C1026.46 127.685 1026.13 129.31 1025.28 129.745C1025.56 129.748 1025.82 129.767 1026.06 129.804C1028.09 130.114 1027.99 131.572 1027.74 133.229L1027.57 134.294C1027.45 135.264 1027.64 135.576 1028.39 135.69L1028.61 135.724L1028.63 136.232L1026.85 135.961C1025.08 135.689 1025.05 134.797 1025.36 132.907L1025.44 132.414C1025.75 130.362 1025.69 130.11 1024.82 129.978L1023.97 129.848C1023.6 129.791 1023.42 129.925 1023.38 130.161L1022.9 133.298C1022.82 133.85 1022.69 134.921 1023.38 135.027L1023.48 135.042L1023.52 135.451L1019.08 134.773L1019.26 134.295L1019.57 134.343C1020.3 134.455 1020.42 133.666 1020.56 132.778L1021.45 126.959C1021.58 126.072 1021.73 125.085 1021 124.974L1020.69 124.926L1020.66 124.418L1025.24 125.117L1025.08 125.496L1024.88 125.466C1024.12 125.348 1023.92 126.65 1023.84 127.124ZM1038 136.492L1038.01 136.111C1038.02 136.718 1038.15 137.182 1038.69 137.264L1038.88 137.294L1038.97 137.811L1036.7 137.464C1035.81 137.329 1035.51 136.778 1035.53 135.873L1035.54 135.551C1034.73 136.759 1034.04 137.261 1032.86 137.08C1031.03 136.8 1029.1 135.153 1029.82 131.872C1030.28 129.802 1032.24 126.187 1034.79 126.575C1035.26 126.648 1035.58 126.778 1035.97 127.422L1035.98 127.363C1036.03 127.008 1036.27 126.801 1036.62 126.856L1039.46 127.29L1039.35 127.777L1039.03 127.728C1038.3 127.617 1038.25 128.618 1038.21 129.521L1038.02 135.668C1038.02 135.79 1038 135.928 1038 136.049L1038 136.492ZM1035.9 128.401C1035.95 127.58 1035.49 127.248 1034.97 127.209C1034.11 127.159 1033.3 128.144 1032.33 132.517C1031.93 134.294 1032 136.242 1033.08 136.408C1034.17 136.573 1034.98 135.729 1035.52 134.478L1035.9 128.401ZM1038.02 136.092L1038.01 136.111L1038.03 135.448C1038.02 135.527 1038.03 135.589 1038.02 135.668L1038 136.049C1038 136.069 1038.02 136.092 1038.02 136.092ZM1045.95 138.879L1041.26 138.162L1041.43 137.684L1041.79 137.738C1042.58 137.858 1042.72 136.931 1042.88 135.886L1043.93 129.022C1043.95 128.883 1043.99 128.486 1043.5 128.411L1043.06 128.344C1042.73 130.534 1040.96 130.466 1040.81 130.927C1040.66 131.369 1040.49 132.391 1040.52 132.699L1040.03 132.624C1040.1 131.202 1040.87 128.535 1041.32 127.574L1049.06 128.755C1049.2 129.806 1049.14 132.583 1048.79 133.962L1048.29 133.887C1048.42 133.603 1048.55 132.574 1048.54 132.109C1048.54 131.623 1046.83 131.161 1047.17 128.971L1046.77 128.911C1046.3 128.839 1046.22 129.21 1046.2 129.348L1045.15 136.232C1044.99 137.278 1044.85 138.205 1045.58 138.316L1045.93 138.371L1045.95 138.879ZM1053.26 139.49C1054.58 139.692 1055.16 139.317 1055.43 137.541C1055.84 134.898 1054.72 134.546 1053.23 134.379L1052.51 139.074C1052.49 139.251 1052.59 139.388 1053.26 139.49ZM1054.78 140.227L1048.88 139.326L1049.06 138.848L1049.37 138.896C1050.1 139.008 1050.22 138.219 1050.36 137.331L1051.25 131.512C1051.38 130.625 1051.53 129.638 1050.8 129.527L1050.49 129.479L1050.46 128.971L1055.12 129.682L1054.95 130.16L1054.63 130.112C1053.9 130 1053.75 130.986 1053.61 131.874L1053.31 133.886C1055.64 134.1 1058.46 135.44 1058.04 138.182C1057.66 140.648 1055.29 140.306 1054.78 140.227ZM895.611 139.989L896.024 137.287C895.189 137.604 894.265 137.705 893.456 137.581C892.115 137.376 891.09 136.553 891.304 135.153L891.569 133.417C891.724 132.533 891.816 131.537 891.086 131.426L890.771 131.378L890.728 130.866L895.323 131.569L895.184 131.951L894.987 131.921C894.218 131.803 894.039 133.108 893.966 133.582L893.568 136.185C893.496 136.659 893.88 136.919 894.393 136.998C894.945 137.082 895.629 136.964 896.112 136.715L896.531 133.973C896.603 133.5 896.821 132.201 896.052 132.084L895.855 132.053L895.836 131.647L900.432 132.349L900.239 132.824L899.923 132.776C899.193 132.664 899.003 133.645 898.867 134.532L897.978 140.351C897.843 141.239 897.702 142.025 898.413 142.133L898.728 142.181L898.732 142.687L894.195 141.993L894.349 141.512L894.665 141.561C895.375 141.669 895.476 140.877 895.611 139.989ZM906.249 137.235C906.47 135.654 906.524 133.583 905.42 133.414C904.059 133.206 903.224 136.288 903.069 138.364L905.909 138.273C906.03 138.271 906.124 138.184 906.249 137.235ZM906.344 138.723L903.022 138.8C902.939 140.14 902.79 142.964 904.506 143.226C905.729 143.413 906.794 142.122 906.926 140.729L908.023 140.816C907.841 142.666 906.042 144.005 903.971 143.689C901.426 143.3 900.246 140.718 900.458 138.409C900.71 135.702 903.621 132.635 905.574 132.933C907.389 133.21 908.774 135.239 908.635 138.79C908.631 138.951 908.396 139.036 908.241 138.992L907.537 138.844C907.185 138.77 906.709 138.718 906.344 138.723ZM911.976 134.113L915.23 134.61L916.352 140.615L917.644 137.704C918.688 135.36 919.392 135.246 920.99 135.49L922.252 135.683L922.078 136.161L921.763 136.113C921.033 136.001 921.02 137.009 920.964 137.908L920.607 143.809C920.55 144.708 920.529 145.512 921.258 145.624L921.574 145.672L921.656 146.189L917.199 145.508L917.318 145.123L917.417 145.138C918.186 145.255 918.188 143.923 918.22 143.444L918.668 137.739L918.392 137.697L915.271 144.911L914.837 144.845L913.483 137.593C912.811 141.326 912.608 142.263 912.514 142.612C912.168 143.952 911.369 144.819 910.008 144.611C907.819 144.277 908.205 141.752 909.559 141.475C909.703 141.456 909.847 141.438 909.985 141.459C910.735 141.574 911.3 142.366 911.12 142.884C911.056 143.036 911.104 143.124 911.182 143.136C911.36 143.163 911.747 142.879 911.928 142.22C912.074 141.657 912.439 139.533 912.774 137.868C913.17 135.809 913.439 134.841 912.453 134.69L911.979 134.618L911.976 134.113ZM926.078 147.067C923.533 146.678 922.346 144.276 922.723 141.81C923.136 139.108 925.531 135.982 927.72 136.317C929.831 136.639 931.262 140.35 930.849 143.052C930.473 145.518 928.622 147.455 926.078 147.067ZM926.153 146.574C927.633 146.8 928.101 143.864 928.321 142.424C928.632 140.392 929.026 137.021 927.645 136.81C926.264 136.599 925.634 139.934 925.323 141.966C925.103 143.405 924.674 146.348 926.153 146.574ZM935.63 148.022C936.617 148.172 937.409 147.345 938.069 143.025C938.295 141.545 938.511 138.551 937.1 138.274C935.471 137.965 934.994 141.748 934.732 143.464C934.337 146.048 934.21 147.805 935.63 148.022ZM935.555 148.515C932.971 148.12 931.774 145.252 932.082 143.24C932.567 140.065 934.831 137.403 937 137.734C937.612 137.828 938.167 138.155 938.592 138.946C938.697 138.519 938.747 138.062 938.777 137.602C938.873 135.518 938.686 133.571 936.99 133.312C935.905 133.146 935.083 134.696 934.851 135.549L933.698 134.909C934.425 133.586 935.605 132.596 937.381 132.867C940.418 133.331 941.198 138.8 940.891 141.861C940.57 145.022 938.928 149.03 935.555 148.515ZM949.93 149.338L949.948 148.958C949.956 149.564 950.087 150.028 950.62 150.11L950.817 150.14L950.899 150.657L948.631 150.311C947.743 150.175 947.444 149.625 947.461 148.719L947.47 148.397C946.659 149.606 945.977 150.107 944.794 149.926C942.959 149.646 941.031 147.999 941.754 144.718C942.212 142.649 944.177 139.033 946.722 139.422C947.195 139.494 947.518 139.624 947.904 140.268L947.913 140.209C947.968 139.854 948.201 139.648 948.556 139.702L951.397 140.136L951.282 140.623L950.966 140.575C950.236 140.463 950.184 141.465 950.147 142.367L949.955 148.515C949.957 148.636 949.935 148.774 949.937 148.895L949.93 149.338ZM947.836 141.247C947.88 140.426 947.426 140.094 946.907 140.056C946.047 140.005 945.231 140.99 944.26 145.363C943.867 147.14 943.933 149.088 945.018 149.254C946.103 149.42 946.918 148.575 947.452 147.325L947.836 141.247ZM949.951 148.938L949.948 148.958L949.968 148.295C949.956 148.373 949.967 148.436 949.955 148.515L949.937 148.895C949.934 148.915 949.951 148.938 949.951 148.938ZM955.91 145.65L958.179 145.996C958.297 146.014 958.388 145.948 958.406 145.829L958.765 143.482C958.837 143.009 959.036 141.707 958.267 141.589L958.069 141.559L958.031 141.15L962.607 141.849L962.433 142.327L962.118 142.279C961.388 142.167 961.237 143.153 961.101 144.041L960.212 149.86C960.077 150.747 959.956 151.536 960.686 151.648L961.002 151.696L961.025 152.204L956.587 151.526L956.746 151.147L956.844 151.162C957.614 151.279 957.773 149.972 957.845 149.498L958.27 146.717C958.288 146.599 958.222 146.508 958.103 146.49L955.835 146.143C955.716 146.125 955.626 146.192 955.607 146.31L955.183 149.091C955.11 149.565 954.872 150.86 955.641 150.978L955.74 150.993L955.778 151.403L951.34 150.725L951.514 150.247L951.83 150.295C952.559 150.406 952.68 149.617 952.816 148.73L953.705 142.911C953.84 142.023 953.991 141.037 953.261 140.925L952.945 140.877L952.922 140.369L957.498 141.068L957.339 141.448L957.142 141.417C956.373 141.3 956.174 142.602 956.102 143.075L955.743 145.422C955.725 145.541 955.792 145.632 955.91 145.65ZM967.869 147.921C967.723 147.556 967.412 147.347 967.057 147.292C966.583 147.22 966.051 147.401 965.751 147.779L965.103 152.02C965.076 152.198 965.157 152.331 965.67 152.409C966.242 152.497 966.854 152.449 967.186 151.995C967.795 151.18 968.196 148.819 967.869 147.921ZM966.306 144.15L965.923 146.655C965.896 146.832 965.92 146.937 966.039 146.955C966.117 146.967 966.222 146.943 966.353 146.882C966.715 146.756 967.144 146.72 967.578 146.787C968.979 147.001 970.468 148.217 970.122 150.486C969.757 152.872 967.882 153.252 967.034 153.122L961.472 152.273L961.646 151.795L961.961 151.843C962.691 151.954 962.812 151.165 962.947 150.278L963.791 144.755C964.056 143.019 965.342 142.267 967.058 142.529L971.358 143.186C973.252 143.475 974.341 144.671 974.057 146.525L973.171 152.324C973.09 152.857 973.343 153.582 973.875 153.663L974.23 153.717L974.155 154.21L972.202 153.912C971.216 153.761 970.651 152.969 970.859 151.607L971.681 146.223C972.025 143.974 971.125 143.655 970.435 143.549L967.752 143.139C967.219 143.058 966.402 143.519 966.306 144.15Z" fill="#3D3D3D"/>
</g>
<defs>
<filter id="filter0_ii_1573_702" x="-38.6016" y="1.36719" width="1503" height="180.001" filterUnits="userSpaceOnUse" color-interpolation-filters="sRGB">
<feFlood flood-opacity="0" result="BackgroundImageFix"/>
<feBlend mode="normal" in="SourceGraphic" in2="BackgroundImageFix" result="shape"/>
<feColorMatrix in="SourceAlpha" type="matrix" values="0 0 0 0 0 0 0 0 0 0 0 0 0 0 0 0 0 0 127 0" result="hardAlpha"/>
<feOffset dy="7.2"/>
<feGaussianBlur stdDeviation="3.6"/>
<feComposite in2="hardAlpha" operator="arithmetic" k2="-1" k3="1"/>
<feColorMatrix type="matrix" values="0 0 0 0 0 0 0 0 0 0 0 0 0 0 0 0 0 0 0.25 0"/>
<feBlend mode="normal" in2="shape" result="effect1_innerShadow_1573_702"/>
<feColorMatrix in="SourceAlpha" type="matrix" values="0 0 0 0 0 0 0 0 0 0 0 0 0 0 0 0 0 0 127 0" result="hardAlpha"/>
<feOffset dy="35.7647"/>
<feGaussianBlur stdDeviation="3.6"/>
<feComposite in2="hardAlpha" operator="arithmetic" k2="-1" k3="1"/>
<feColorMatrix type="matrix" values="0 0 0 0 0 0 0 0 0 0 0 0 0 0 0 0 0 0 0.25 0"/>
<feBlend mode="normal" in2="effect1_innerShadow_1573_702" result="effect2_innerShadow_1573_702"/>
</filter>
<filter id="filter1_i_1573_702" x="569.805" y="285.766" width="291.602" height="149.398" filterUnits="userSpaceOnUse" color-interpolation-filters="sRGB">
<feFlood flood-opacity="0" result="BackgroundImageFix"/>
<feBlend mode="normal" in="SourceGraphic" in2="BackgroundImageFix" result="shape"/>
<feColorMatrix in="SourceAlpha" type="matrix" values="0 0 0 0 0 0 0 0 0 0 0 0 0 0 0 0 0 0 127 0" result="hardAlpha"/>
<feMorphology radius="8.47059" operator="erode" in="SourceAlpha" result="effect1_innerShadow_1573_702"/>
<feOffset/>
<feGaussianBlur stdDeviation="6.82353"/>
<feComposite in2="hardAlpha" operator="arithmetic" k2="-1" k3="1"/>
<feColorMatrix type="matrix" values="0 0 0 0 0 0 0 0 0 0 0 0 0 0 0 0 0 0 0.45 0"/>
<feBlend mode="normal" in2="shape" result="effect1_innerShadow_1573_702"/>
</filter>
<filter id="filter2_i_1573_702" x="1159.59" y="286.297" width="283.297" height="149.648" filterUnits="userSpaceOnUse" color-interpolation-filters="sRGB">
<feFlood flood-opacity="0" result="BackgroundImageFix"/>
<feBlend mode="normal" in="SourceGraphic" in2="BackgroundImageFix" result="shape"/>
<feColorMatrix in="SourceAlpha" type="matrix" values="0 0 0 0 0 0 0 0 0 0 0 0 0 0 0 0 0 0 127 0" result="hardAlpha"/>
<feMorphology radius="8.47059" operator="erode" in="SourceAlpha" result="effect1_innerShadow_1573_702"/>
<feOffset/>
<feGaussianBlur stdDeviation="6.82353"/>
<feComposite in2="hardAlpha" operator="arithmetic" k2="-1" k3="1"/>
<feColorMatrix type="matrix" values="0 0 0 0 0 0 0 0 0 0 0 0 0 0 0 0 0 0 0.45 0"/>
<feBlend mode="normal" in2="shape" result="effect1_innerShadow_1573_702"/>
</filter>
<filter id="filter3_i_1573_702" x="1" y="286.297" width="262.586" height="149.648" filterUnits="userSpaceOnUse" color-interpolation-filters="sRGB">
<feFlood flood-opacity="0" result="BackgroundImageFix"/>
<feBlend mode="normal" in="SourceGraphic" in2="BackgroundImageFix" result="shape"/>
<feColorMatrix in="SourceAlpha" type="matrix" values="0 0 0 0 0 0 0 0 0 0 0 0 0 0 0 0 0 0 127 0" result="hardAlpha"/>
<feMorphology radius="8.47059" operator="erode" in="SourceAlpha" result="effect1_innerShadow_1573_702"/>
<feOffset/>
<feGaussianBlur stdDeviation="6.82353"/>
<feComposite in2="hardAlpha" operator="arithmetic" k2="-1" k3="1"/>
<feColorMatrix type="matrix" values="0 0 0 0 0 0 0 0 0 0 0 0 0 0 0 0 0 0 0.45 0"/>
<feBlend mode="normal" in2="shape" result="effect1_innerShadow_1573_702"/>
</filter>
<clipPath id="clip0_1573_702">
<rect width="1443" height="436" fill="white"/>
</clipPath>
<clipPath id="clip1_1573_702">
<rect width="291.6" height="149.4" fill="white" transform="translate(569.805 285.766)"/>
</clipPath>
<clipPath id="clip2_1573_702">
<rect width="283.294" height="149.647" fill="white" transform="translate(1159.59 286.297)"/>
</clipPath>
<clipPath id="clip3_1573_702">
<rect width="262.588" height="149.647" fill="white" transform="translate(1 286.297)"/>
</clipPath>
</defs>
</svg>
