<svg width="762" height="463" viewBox="0 0 762 463" fill="none" xmlns="http://www.w3.org/2000/svg">
<g clip-path="url(#clip0_929_522)">
<path d="M146.088 301.296L247.524 181.41H-1.5V301.296H146.088Z" fill="#2F2F2F"/>
<rect x="-0.992188" y="300.344" width="148.096" height="161.751" fill="#060606"/>
<path d="M618.971 301.296L515.719 181.41H769.203V301.296H618.971Z" fill="#2F2F2F"/>
<rect width="150.748" height="161.751" transform="matrix(-1 0 0 1 768.688 300.344)" fill="#060606"/>
<path d="M313.21 300.342L279.688 182.359H507.458L461.537 300.342H313.21Z" fill="#2F2F2F"/>
<rect x="312.75" y="300.34" width="148.786" height="157.945" fill="#060606"/>
<rect x="246.398" y="40.918" width="32.6841" height="421.612" fill="#535353"/>
<rect x="506.297" y="40.918" width="32.6841" height="421.612" fill="#535353"/>
<g filter="url(#filter0_i_929_522)">
<path d="M-37.6484 -0.320312H769.203V182.363H-37.6484V-0.320312Z" fill="#535353"/>
</g>
<g filter="url(#filter1_i_929_522)">
<g clip-path="url(#clip1_929_522)">
<rect width="146" height="158" transform="translate(314 301.383)" fill="#96DCFF"/>
<path d="M380.235 431.385C383.186 431.857 390.222 434.076 394.755 439.176C395.129 439.597 395.457 440.022 395.745 440.451C407.503 438.043 431.275 433.184 432.295 433.014C433.315 432.844 433.854 431.904 433.995 431.456H435.27L435.695 432.235C436.205 433.141 435.766 433.699 435.483 433.864L398.721 444.205C399.052 444.465 400.393 444.998 403.113 445.055C405.833 445.112 407.599 448.29 408.142 449.872C410.239 455.425 406.277 458.466 404.034 459.292C403.113 459.505 400.379 459.83 396.809 459.434C393.239 459.037 391.119 456.53 390.505 455.326L389.443 455.609C388.139 456.232 381.014 456.152 377.614 456.034C371.027 455.774 357.158 455.255 354.381 455.255C351.605 455.255 341.183 453.272 336.319 452.28C336.319 453.153 335.838 455.467 333.911 457.734C331.985 460 328.906 460.331 327.607 460.213C324.207 460.043 322.46 459.292 322.012 458.938C320.689 457.899 317.988 455.326 317.762 453.342C317.535 451.359 318.376 449.588 318.824 448.951C317.011 447.874 316.038 445.669 315.778 444.701C291.531 440.852 242.398 433.071 239.848 432.731C237.298 432.391 234.771 431.267 233.827 430.747C233.615 430.322 233.374 429.6 234.11 430.11C234.847 430.62 238.053 431.219 239.564 431.456L323.641 443.143L321.728 440.522L291.129 436.626L322.649 438.68C322.989 438.057 324.963 436.721 325.907 436.13L322.437 404.965H323.853C324.816 404.965 325.388 406.098 325.553 406.665C327.749 413.677 332.296 428.212 332.92 430.251C333.543 432.291 334.926 432.565 335.54 432.447L380.235 431.385Z" fill="white"/>
<path d="M376.821 438.984H394.332L395.369 440.517C395.866 441.253 395.714 441.437 395.576 441.437C390.119 441.471 378.811 441.539 377.236 441.539C375.661 441.539 375.405 441.403 375.474 441.334C375.474 439.618 376.372 439.052 376.821 438.984Z" fill="#838383"/>
<path d="M394.464 459.789L403.53 460.497L408.772 456.389L408.984 450.297L405.726 445.127L399.918 444.206C399.682 444.206 398.686 444.263 396.589 444.489C394.492 444.716 395.007 447.7 395.527 449.164L389.789 452.706L390.214 456.672L394.464 459.789Z" fill="#8BFF90"/>
<path d="M328.662 444.135L336.595 448.81L335.462 457.239L331.283 460.639H323.704L320.729 459.01L317.329 453.485V449.235L315.558 445.552L312.584 444.773L320.021 443.285L328.662 444.135Z" fill="#8BFF90"/>
<path d="M395.738 440.381L396.447 442.506V444.489L400.413 444.206L429.1 436.627L436.82 433.794L435.97 431.881L434.554 430.677L432.641 431.881L411.959 436.415L395.738 440.381Z" fill="#D9D9D9"/>
<path d="M313.079 441.373L348.848 446.685L338.932 450.227L334.116 447.464L328.095 444.702C327.269 444.466 325.502 444.093 325.049 444.489C324.596 444.886 322.499 445.268 321.508 445.41C318.788 445.58 316.88 445.103 316.266 444.843L272.209 438.681L244.514 434.148L233.04 431.102V429.402L239.769 430.606L313.079 441.373Z" fill="#D9D9D9"/>
<ellipse cx="6.79977" cy="7.36641" rx="6.79977" ry="7.36641" transform="matrix(-1 0 0 1 408.852 444.844)" fill="#959799"/>
<ellipse cx="5.59564" cy="5.80813" rx="5.59564" ry="5.80813" transform="matrix(-1 0 0 1 408.141 446.543)" fill="#272727"/>
<path d="M397.363 447.039L396.655 442.86C396.53 442.123 396.089 442.293 395.947 442.647L394.955 445.126C394.884 445.339 394.672 445.778 394.389 445.835C394.105 445.891 393.893 445.669 393.822 445.551C392.689 443.455 391.414 442.883 390.918 442.86H385.818C382.135 442.86 378.003 442.246 376.398 441.939C375.099 441.632 372.048 440.947 370.235 440.664C368.422 440.381 366.788 440.782 366.198 441.018L347.923 446.684L333.616 447.676L336.732 452.776L349.269 455.892L388.864 456.247L390.422 455.397L393.822 454.334C397.562 452.351 397.741 448.644 397.363 447.039Z" fill="#4FCA56"/>
<ellipse cx="7.43724" cy="7.36641" rx="7.43724" ry="7.36641" transform="matrix(-1 0 0 1 336.312 444.703)" fill="#959799"/>
<ellipse cx="6.12023" cy="5.80813" rx="6.12023" ry="5.80813" transform="matrix(-1 0 0 1 335.539 446.402)" fill="#272727"/>
<path d="M459.622 494.366C462.101 496.125 461.753 497.897 461.269 498.563C460.184 497.604 457.976 497.364 457.008 497.364C456.427 497.297 454.974 497.384 453.812 498.263C452.65 499.142 451.843 499.096 451.585 498.963L450.423 497.763C449.958 497.284 449.002 497.297 448.583 497.364C447.421 497.563 444.903 497.883 444.128 497.563C443.354 497.244 442.708 497.697 442.482 497.963C442.095 495.964 444.064 495.265 445.097 495.165C446.065 495.065 448.06 494.705 448.292 494.066C448.525 493.426 449.487 492.8 449.939 492.567C451.953 489.209 450.649 489.035 449.745 489.368C443.159 493.126 432.54 491.334 428.053 489.968C427.634 491.667 426.639 495.265 426.02 496.064C425.4 496.864 422.211 497.064 420.694 497.064C420.274 497.397 419.299 498.023 418.757 497.863C418.215 497.703 418.531 496.797 418.757 496.364C416.497 496.731 411.901 497.384 411.591 497.064C411.281 496.744 411.72 496.064 411.978 495.765C411.236 496.031 409.441 496.464 408.202 496.064C406.962 495.665 404.974 495.898 404.134 496.064C405.529 493.826 409.041 493.199 410.622 493.166C412.398 492.966 416.258 492.447 417.498 491.967C418.737 491.487 418.66 488.902 418.466 487.67C418.499 486.937 418.04 484.691 415.949 481.573C413.857 478.455 413.076 471.413 412.947 468.282L412.559 456.589C412.592 456.289 411.707 457.128 407.911 462.885C403.166 470.08 407.039 476.776 401.617 476.377C397.278 476.057 396.065 469.781 396 466.683C396.258 460.62 397.743 446.935 401.617 440.699C405.49 434.462 409.557 425.908 411.107 422.41L414.787 410.117C415.464 406.22 417.595 397.465 420.694 393.628C423.792 389.79 423.599 387.365 423.115 386.632C420.661 381.535 414.515 371.062 409.557 369.942C404.599 368.823 401.1 369.476 399.97 369.942C399.906 369.076 400.358 366.864 402.682 364.946C405.006 363.027 413.786 364.146 417.885 364.946C420.564 363.014 428.015 360.309 436.381 364.946C444.748 369.583 447.808 383.734 448.292 390.23C450.461 392.469 455.523 404.888 457.782 410.817C460.397 417.113 466.014 430.785 467.563 435.102C469.112 439.42 470.726 453.691 471.339 460.287C473.276 467.049 476.491 480.134 473.857 478.376C471.223 476.617 467.273 461.519 465.627 454.19C466.402 461.626 462.205 476.677 460.01 483.273L457.977 493.266L459.622 494.366Z" fill="#4FCA56"/>
<path fill-rule="evenodd" clip-rule="evenodd" d="M428.012 490.166C425.403 487.973 422.445 487.558 420.052 487.223C419.467 487.141 418.916 487.064 418.412 486.967C418.225 485.899 417.586 484 415.957 481.571C413.865 478.453 413.084 471.41 412.955 468.279L412.573 456.739L413.82 417.616V413.371L414.795 410.115C415.473 406.217 417.603 397.463 420.702 393.625C423.801 389.788 423.607 387.362 423.123 386.63C420.67 381.533 414.524 371.059 409.566 369.94C407.74 369.528 406.112 369.356 404.727 369.326C402.352 369.276 400.692 369.645 399.979 369.94C399.914 369.074 400.366 366.862 402.69 364.943C402.767 364.88 402.851 364.82 402.941 364.763C405.589 363.098 413.93 364.17 417.894 364.943C420.573 363.011 428.023 360.306 436.39 364.943C440.651 367.305 443.535 372.134 445.404 377.163C443.064 379.845 438.398 384.111 433.478 386.436C427.048 389.474 430.799 391.832 433.478 392.632C435.77 393.631 441.148 396.35 444.324 399.228C446.48 401.182 447.58 405.08 448.677 408.972C449.601 412.246 450.522 415.516 452.071 417.616C454.764 421.268 462.167 443.223 465.652 454.359C465.956 457.642 465.331 462.341 464.349 467.135C463.089 473.285 461.243 479.592 460.019 483.27L459.755 484.565C459.34 484.755 458.878 484.865 458.366 484.875C454.766 484.946 452.033 487.815 450.663 489.305C450.409 489.199 450.059 489.254 449.753 489.366C449.402 489.567 449.039 489.751 448.666 489.921C448.092 490.183 447.494 490.409 446.878 490.603C446.796 490.629 446.714 490.654 446.632 490.679C446.077 490.845 445.509 490.986 444.931 491.104C444.891 491.112 444.851 491.12 444.811 491.128L444.74 491.142L444.716 491.146C443.684 491.346 442.623 491.474 441.556 491.545C437.455 491.815 433.259 491.229 430.252 490.542C429.422 490.352 428.683 490.155 428.062 489.966C428.046 490.03 428.029 490.097 428.012 490.166ZM404.415 369.972C404.415 369.972 404.416 369.97 404.416 369.965L404.417 369.963C404.416 369.97 404.415 369.973 404.415 369.972Z" fill="white"/>
<path d="M419.133 379.525C416.285 375.074 412.686 370.648 409.56 369.942C407.734 369.53 406.106 369.358 404.721 369.329C402.346 369.279 400.687 369.648 399.973 369.942C399.908 369.076 400.36 366.864 402.684 364.946C402.761 364.882 402.845 364.822 402.935 364.766C405.583 363.101 413.924 364.173 417.888 364.946C420.567 363.014 428.017 360.309 436.384 364.946C436.859 365.209 437.317 365.503 437.758 365.824C438.897 371.206 438.9 379.466 431.929 380.736C426.631 381.701 422.14 380.743 419.133 379.525Z" fill="#4FCA56"/>
<path d="M404.411 369.968C404.409 369.978 404.409 369.977 404.411 369.965L404.411 369.968Z" fill="#4FCA56"/>
<path fill-rule="evenodd" clip-rule="evenodd" d="M417.88 364.938C415.707 367.964 415.741 372.807 416.907 376.318C414.533 373.132 411.902 370.476 409.541 369.943C407.715 369.531 406.086 369.359 404.702 369.33C402.326 369.28 400.667 369.649 399.954 369.943C399.889 369.077 400.341 366.865 402.665 364.947C402.742 364.883 402.825 364.823 402.916 364.766C405.563 363.101 413.904 364.174 417.869 364.947C417.872 364.944 417.876 364.941 417.88 364.938ZM404.39 369.976C404.39 369.977 404.39 369.974 404.391 369.968L404.392 369.966C404.391 369.972 404.39 369.975 404.39 369.976Z" fill="#FF7134"/>
<ellipse cx="2.61462" cy="1.79889" rx="2.61462" ry="1.79889" transform="matrix(-1 0 0 1 431.301 366.738)" fill="white"/>
<ellipse cx="1.25889" cy="1.2992" rx="1.25889" ry="1.2992" transform="matrix(-1 0 0 1 429.551 367.342)" fill="#323232"/>
<path d="M448.909 391.927C445.955 389.957 443.985 393.981 434.137 394.802C425.93 394.802 425.601 389.956 422.647 391.926C419.692 393.896 411.02 397.123 407.053 398.491C405.275 398.628 402.375 402.184 405.002 415.315C405.138 417.777 404.673 423.03 401.719 424.343V459.633L434.547 459.635H467.375V424.345C464.421 423.032 463.956 417.779 464.092 415.317C466.719 402.186 463.819 398.629 462.041 398.492C458.074 397.125 451.864 393.896 448.909 391.927Z" fill="#B3FF50"/>
<path fill-rule="evenodd" clip-rule="evenodd" d="M467.374 442.406H401.718V436.661H411.155V430.916C410.061 428.18 408.036 422.462 408.693 421.478C409.349 420.493 408.693 416.964 408.283 415.322C406.857 408.479 408.424 401.347 409.757 397.529C411.509 396.89 413.549 396.117 415.519 395.317C415.072 397.103 414.453 398.753 413.617 399.729C411.647 402.027 413.891 425.034 415.258 436.25H455.883C456.294 424.76 457.032 401.37 456.704 399.729C456.376 398.087 455.199 396.583 454.652 396.036C454.92 396.036 455.573 396.141 456.542 396.488C456.717 396.554 456.89 396.62 457.062 396.685C457.451 396.842 457.88 397.034 458.346 397.267C460.315 398.252 461.902 400.686 462.449 401.781V410.398C462.449 414.666 461.081 418.468 460.397 419.836L460.808 436.661H467.374V442.406Z" fill="#F9F9F9"/>
<path d="M435.775 432.554V455.944H433.724V432.554C433.724 420.736 433.177 416.414 432.903 415.73L436.553 415.862C436.269 416.871 435.775 421.335 435.775 432.554Z" fill="#D9D9D9"/>
<path d="M432.903 415.73C433.177 416.414 433.724 420.736 433.724 432.554V455.944H435.775V432.554C435.775 421.335 436.269 416.871 436.553 415.862M432.903 415.73L436.553 415.862M432.903 415.73C429.367 412.193 424.754 398.923 422.767 392.337M436.553 415.862C436.568 415.808 436.582 415.764 436.596 415.73C439.969 412.357 445.037 399.771 447.251 392.887M447.676 391.519C447.621 391.702 447.563 391.892 447.503 392.088" stroke="#D1D1D1" stroke-width="0.820706"/>
<g opacity="0.7">
<g opacity="0.77">
<path d="M498.366 349.864C513.376 343.273 527.718 345.863 535.011 348.707C536.211 349.174 537.59 348.321 537.59 347.033V318.306C537.59 317.36 536.823 316.593 535.876 316.593H273.878C272.931 316.593 272.164 317.36 272.164 318.306V341.871C272.164 343.17 273.56 344.003 274.738 343.455C294.328 334.341 316.511 340.382 325.478 344.75C335.22 348.137 361.312 352.878 387.74 344.75C414.169 336.621 426.805 337.688 429.82 339.238C445.56 345.901 481.306 357.354 498.366 349.864Z" fill="white"/>
<path d="M315.095 349.864C300.085 343.273 285.743 345.863 278.449 348.707C277.25 349.174 275.871 348.321 275.871 347.033V318.306C275.871 317.36 276.638 316.593 277.585 316.593H539.583C540.53 316.593 541.297 317.36 541.297 318.306V341.871C541.297 343.17 539.9 344.003 538.723 343.455C519.133 334.341 496.95 340.382 487.983 344.75C478.241 348.137 452.149 352.878 425.72 344.75C399.292 336.621 386.656 337.688 383.641 339.238C367.901 345.901 332.155 357.354 315.095 349.864Z" fill="#E2F9FF"/>
<path d="M321.196 343.887C306.186 337.296 291.845 339.887 284.551 342.73C283.351 343.198 281.973 342.344 281.973 341.056V312.33C281.973 311.383 282.74 310.616 283.686 310.616H545.685C546.631 310.616 547.398 311.383 547.398 312.33V335.895C547.398 337.194 546.002 338.026 544.824 337.478C525.234 328.365 503.051 334.406 494.085 338.773C484.342 342.16 458.25 346.902 431.822 338.773C405.394 330.645 392.757 331.712 389.742 333.261C374.002 339.924 338.257 351.378 321.196 343.887Z" fill="white"/>
</g>
<path d="M321.181 337.864C306.171 331.273 291.829 333.863 284.535 336.707C283.336 337.174 281.957 336.321 281.957 335.033V306.306C281.957 305.36 282.724 304.593 283.671 304.593H545.669C546.615 304.593 547.383 305.36 547.383 306.306V329.871C547.383 331.17 545.986 332.003 544.809 331.455C525.218 322.341 503.035 328.382 494.069 332.75C484.327 336.137 458.235 340.878 431.806 332.75C405.378 324.621 392.741 325.688 389.727 327.238C373.986 333.901 338.241 345.354 321.181 337.864Z" fill="white"/>
<path d="M504.452 337.864C519.462 331.273 533.804 333.863 541.097 336.707C542.297 337.174 543.676 336.321 543.676 335.033V306.306C543.676 305.36 542.909 304.593 541.962 304.593H279.964C279.017 304.593 278.25 305.36 278.25 306.306V329.871C278.25 331.17 279.646 332.003 280.824 331.455C300.414 322.341 322.597 328.382 331.564 332.75C341.306 336.137 367.398 340.878 393.826 332.75C420.255 324.621 432.891 325.688 435.906 327.238C451.646 333.901 487.392 345.354 504.452 337.864Z" fill="#E2F9FF"/>
<path d="M498.351 331.887C513.36 325.296 527.702 327.887 534.996 330.73C536.196 331.198 537.574 330.344 537.574 329.056V300.33C537.574 299.383 536.807 298.616 535.861 298.616H273.862C272.916 298.616 272.149 299.383 272.149 300.33V323.895C272.149 325.194 273.545 326.026 274.723 325.478C294.313 316.365 316.496 322.406 325.462 326.773C335.205 330.16 361.297 334.902 387.725 326.773C414.153 318.645 426.79 319.712 429.805 321.261C445.545 327.924 481.29 339.378 498.351 331.887Z" fill="white"/>
<path d="M503.304 289.134C518.477 293.892 532.968 291.95 540.185 289.893C541.335 289.566 542.527 290.408 542.527 291.603V311.184C542.527 312.13 541.76 312.897 540.814 312.897H278.815C277.869 312.897 277.102 312.13 277.102 311.184V295.287C277.102 294.083 278.313 293.252 279.454 293.637C299.099 300.253 321.415 295.917 330.415 292.786C340.158 290.367 366.25 286.98 392.678 292.786C419.106 298.592 431.743 297.83 434.758 296.723C450.498 291.964 486.243 283.783 503.304 289.134Z" fill="white"/>
</g>
</g>
<g clip-path="url(#clip2_929_522)">
<rect width="148" height="162" transform="translate(-1 300.383)" fill="#96DCFF"/>
<path d="M110.617 432.662C113.93 433.193 121.83 435.684 126.919 441.41C127.339 441.882 127.708 442.36 128.031 442.842C141.232 440.138 167.922 434.682 169.067 434.492C170.212 434.301 170.816 433.246 170.976 432.742H172.407L172.884 433.617C173.457 434.635 172.964 435.26 172.646 435.446L131.373 447.056C131.744 447.348 133.249 447.947 136.303 448.011C139.357 448.074 141.34 451.642 141.949 453.418C144.303 459.653 139.855 463.067 137.337 463.995C136.303 464.234 133.233 464.599 129.225 464.154C125.217 463.709 122.837 460.894 122.148 459.542L120.955 459.86C119.492 460.56 111.492 460.469 107.674 460.337C100.279 460.045 84.7079 459.462 81.5905 459.462C78.4732 459.462 66.7725 457.235 61.3119 456.122C61.3119 457.103 60.7711 459.701 58.6081 462.245C56.445 464.79 52.9884 465.161 51.5304 465.029C47.7133 464.838 45.7517 463.995 45.248 463.597C43.7636 462.431 40.7311 459.542 40.4766 457.315C40.2221 455.088 41.1658 453.1 41.6694 452.384C39.6336 451.176 38.5415 448.7 38.2499 447.613C11.0262 443.292 -44.137 434.555 -46.9999 434.173C-49.8627 433.792 -52.6991 432.53 -53.7594 431.947C-53.998 431.47 -54.2684 430.658 -53.4413 431.231C-52.6143 431.804 -49.0145 432.477 -47.318 432.742L47.0771 445.863L44.9299 442.921L10.5755 438.547L45.9637 440.853C46.3455 440.154 48.5615 438.653 49.6218 437.991L45.7252 403H47.3157C48.3972 403 49.0387 404.272 49.2242 404.909C51.6895 412.781 56.7949 429.1 57.4947 431.39C58.1945 433.68 59.7479 433.988 60.4371 433.855L110.617 432.662Z" fill="white"/>
<path d="M106.323 441.508H125.984L127.147 443.229C127.705 444.055 127.535 444.261 127.38 444.261C121.253 444.299 108.557 444.376 106.789 444.376C105.02 444.376 104.734 444.223 104.811 444.146C104.811 442.219 105.819 441.584 106.323 441.508Z" fill="#838383"/>
<path d="M126.127 464.865L136.306 465.66L142.191 461.048L142.43 454.209L138.772 448.404L132.251 447.37C131.986 447.37 130.867 447.433 128.513 447.688C126.159 447.942 126.737 451.293 127.32 452.936L120.879 456.913L121.356 461.366L126.127 464.865Z" fill="#767676"/>
<path d="M52.2494 447.29L61.1561 452.539L59.8837 462.002L55.1918 465.819H46.6827L43.3427 463.99L39.5255 457.787V453.016L37.5374 448.881L34.1974 448.006L42.5475 446.336L52.2494 447.29Z" fill="#767676"/>
<path d="M126.127 464.865L136.306 465.66L142.191 461.048L142.43 454.209L138.772 448.404L132.251 447.37C131.986 447.37 130.867 447.433 128.513 447.688C126.159 447.942 126.737 451.293 127.32 452.936L120.879 456.913L121.356 461.366L126.127 464.865Z" stroke="#96DCFF" stroke-width="0.530466"/>
<path d="M52.2494 447.29L61.1561 452.539L59.8837 462.002L55.1918 465.819H46.6827L43.3427 463.99L39.5255 457.787V453.016L37.5374 448.881L34.1974 448.006L42.5475 446.336L52.2494 447.29Z" stroke="#96DCFF" stroke-width="0.530466"/>
<path d="M127.556 443.076L128.351 445.462V447.689L132.804 447.371L165.012 438.861L173.68 435.68L172.725 433.533L171.135 432.181L168.988 433.533L145.767 438.623L127.556 443.076Z" fill="#D9D9D9"/>
<path d="M34.7511 444.19L74.9108 450.154L63.7774 454.13L58.3698 451.029L51.6103 447.927C50.6825 447.662 48.6997 447.243 48.1907 447.689C47.6818 448.134 45.3279 448.563 44.2145 448.722C41.1608 448.913 39.0189 448.378 38.3297 448.086L-11.1342 441.168L-42.2281 436.078L-55.111 432.659V430.75L-47.5563 432.102L34.7511 444.19Z" fill="#D9D9D9"/>
<path d="M127.556 443.076L128.351 445.462V447.689L132.804 447.371L165.012 438.861L173.68 435.68L172.725 433.533L171.135 432.181L168.988 433.533L145.767 438.623L127.556 443.076Z" stroke="#96DCFF" stroke-width="0.530466"/>
<path d="M34.7511 444.19L74.9108 450.154L63.7774 454.13L58.3698 451.029L51.6103 447.927C50.6825 447.662 48.6997 447.243 48.1907 447.689C47.6818 448.134 45.3279 448.563 44.2145 448.722C41.1608 448.913 39.0189 448.378 38.3297 448.086L-11.1342 441.168L-42.2281 436.078L-55.111 432.659V430.75L-47.5563 432.102L34.7511 444.19Z" stroke="#96DCFF" stroke-width="0.530466"/>
<path d="M127.262 456.356C127.262 460.798 130.581 464.362 134.631 464.362C138.682 464.362 142 460.798 142 456.356C142 451.915 138.682 448.351 134.631 448.351C130.581 448.351 127.262 451.915 127.262 456.356Z" fill="#959799" stroke="#96DCFF" stroke-width="0.530466"/>
<path d="M129.169 456.517C129.169 459.981 131.872 462.773 135.186 462.773C138.5 462.773 141.204 459.981 141.204 456.517C141.204 453.053 138.5 450.261 135.186 450.261C131.872 450.261 129.169 453.053 129.169 456.517Z" fill="#272727" stroke="#96DCFF" stroke-width="0.530466"/>
<path d="M129.386 450.548L128.591 445.856C128.45 445.029 127.954 445.22 127.795 445.617L126.682 448.401C126.602 448.639 126.364 449.132 126.046 449.196C125.728 449.26 125.489 449.01 125.41 448.878C124.137 446.524 122.706 445.882 122.149 445.856H116.423C112.288 445.856 107.649 445.167 105.847 444.822C104.389 444.477 100.964 443.709 98.928 443.391C96.8922 443.073 95.0579 443.523 94.3952 443.788L73.878 450.15L57.8141 451.264L61.3132 456.989L75.3889 460.488L119.843 460.886L121.592 459.932L125.41 458.739C129.608 456.512 129.81 452.35 129.386 450.548Z" fill="#383838"/>
<path d="M44.4011 456.2C44.4011 460.619 48.0184 464.205 52.4859 464.205C56.9534 464.205 60.5707 460.619 60.5707 456.2C60.5707 451.781 56.9534 448.195 52.4859 448.195C48.0184 448.195 44.4011 451.781 44.4011 456.2Z" fill="#959799" stroke="#96DCFF" stroke-width="0.530466"/>
<path d="M46.4834 456.361C46.4834 459.803 49.4278 462.617 53.0896 462.617C56.7513 462.617 59.6957 459.803 59.6957 456.361C59.6957 452.919 56.7513 450.105 53.0896 450.105C49.4278 450.105 46.4834 452.919 46.4834 456.361Z" fill="#272727" stroke="#96DCFF" stroke-width="0.530466"/>
<path d="M110.159 432.709L110.135 432.71L59.9552 433.903L59.9331 433.903L59.9114 433.907C59.3602 434.013 57.9345 433.791 57.2728 431.625C56.5727 429.334 51.4678 413.017 49.0025 405.144C48.9019 404.8 48.6814 404.292 48.3373 403.862C47.9933 403.433 47.4943 403.047 46.8401 403.047H45.2496H44.9532L44.986 403.342L48.8643 438.167C48.3324 438.504 47.5833 439.004 46.9046 439.508C46.5341 439.783 46.181 440.062 45.8945 440.319C45.6767 440.515 45.4818 440.711 45.3502 440.891L10.1172 438.595L10.0665 439.123L44.3075 443.482L46.0186 445.827L-47.7526 432.792C-47.7534 432.792 -47.7541 432.792 -47.7549 432.792C-48.5991 432.66 -49.916 432.427 -51.1232 432.156C-51.7275 432.02 -52.3007 431.875 -52.7718 431.73C-53.253 431.582 -53.5966 431.443 -53.7659 431.325C-53.8773 431.248 -53.9785 431.189 -54.0701 431.148C-54.1583 431.109 -54.2572 431.078 -54.3581 431.082C-54.472 431.086 -54.5836 431.134 -54.6584 431.236C-54.7233 431.326 -54.7384 431.427 -54.7407 431.499C-54.7452 431.645 -54.7013 431.811 -54.6532 431.952C-54.6025 432.1 -54.5358 432.251 -54.4722 432.378L-54.4353 432.452L-54.3628 432.492C-53.2843 433.085 -50.4161 434.361 -47.5105 434.749C-44.6578 435.129 10.2805 443.83 37.5658 448.161C37.7386 448.732 38.0806 449.564 38.6048 450.406C39.1394 451.264 39.8726 452.149 40.8244 452.778C40.2822 453.668 39.4974 455.557 39.7375 457.658C39.8744 458.856 40.7445 460.188 41.7235 461.338C42.7124 462.5 43.855 463.526 44.6086 464.118M110.159 432.709L41.049 452.919C40.5306 453.771 39.7693 455.6 40.001 457.627C40.2555 459.854 43.288 462.743 44.7724 463.91C45.2761 464.307 47.2377 465.15 51.0548 465.341M110.159 432.709L110.183 432.713C113.53 433.249 121.497 435.758 126.642 441.546C127.026 441.979 127.37 442.417 127.675 442.859M110.159 432.709L172.64 433.799M44.6086 464.118L44.7708 463.912L44.6081 464.118C44.6082 464.118 44.6084 464.118 44.6086 464.118ZM44.6086 464.118C44.9019 464.35 45.5583 464.671 46.6005 464.959C47.6511 465.249 49.1134 465.509 51.0362 465.606M51.0362 465.606C51.0344 465.606 51.0326 465.606 51.0308 465.605L51.0548 465.341M51.0362 465.606C51.038 465.606 51.0398 465.606 51.0416 465.606L51.0548 465.341M51.0362 465.606C51.799 465.674 53.0589 465.611 54.4053 465.208C55.7568 464.803 57.2113 464.051 58.3346 462.73C60.3384 460.372 60.9862 457.96 61.0869 456.756M51.0548 465.341C52.5128 465.474 55.9694 465.103 58.1325 462.558C60.1208 460.219 60.7384 457.835 60.8251 456.703C60.9109 456.72 60.9982 456.738 61.0869 456.756M61.0869 456.756C61.0951 456.659 61.0996 456.569 61.1011 456.488C66.6663 457.618 78.0471 459.775 81.1149 459.775C84.2323 459.775 99.8031 460.358 107.199 460.649C111.016 460.782 119.016 460.872 120.479 460.172M61.0869 456.756C63.8267 457.312 67.9536 458.112 71.8089 458.783C75.7974 459.478 79.5281 460.04 81.1149 460.04C84.2255 460.04 99.7886 460.623 107.188 460.914L107.19 460.914C109.101 460.981 112.061 461.037 114.727 460.988C116.059 460.964 117.323 460.914 118.347 460.825C118.858 460.781 119.314 460.726 119.691 460.66C120.049 460.598 120.354 460.521 120.57 460.422M120.57 460.422L120.548 460.428L120.479 460.172M120.57 460.422C120.578 460.419 120.586 460.415 120.594 460.411L120.479 460.172M120.57 460.422L121.538 460.164M120.479 460.172L121.672 459.854M121.672 459.854L121.436 459.975C121.467 460.035 121.501 460.099 121.538 460.164M121.672 459.854C122.361 461.206 124.742 464.021 128.75 464.467C132.758 464.912 135.827 464.546 136.861 464.307C139.38 463.38 143.828 459.965 141.474 453.731M121.672 459.854L121.741 460.11L121.538 460.164M121.538 460.164C122.368 461.627 124.778 464.292 128.721 464.73C132.754 465.178 135.854 464.812 136.921 464.566L136.937 464.562L136.953 464.556C138.254 464.077 140.047 462.96 141.217 461.153C142.396 459.333 142.928 456.834 141.723 453.641M141.723 453.641C141.724 453.642 141.724 453.643 141.725 453.645L141.474 453.731M141.723 453.641C141.723 453.64 141.722 453.638 141.722 453.637L141.474 453.731M141.723 453.641C141.409 452.728 140.747 451.363 139.769 450.213C138.792 449.063 137.468 448.092 135.833 448.058C134.322 448.026 133.202 447.863 132.418 447.674C132.096 447.596 131.835 447.515 131.629 447.438M141.474 453.731C140.864 451.955 138.881 448.387 135.827 448.323C133.332 448.271 131.87 447.862 131.217 447.554L131.629 447.438M131.629 447.438C131.467 447.379 131.339 447.322 131.243 447.272L172.17 435.758C172.488 435.573 172.981 434.947 172.409 433.929M131.629 447.438L172.242 436.014L172.274 436.004L172.304 435.987C172.515 435.864 172.765 435.609 172.877 435.232C172.993 434.845 172.955 434.361 172.641 433.801L172.641 433.802L172.409 433.929M172.409 433.929L172.64 433.799M172.409 433.929L171.931 433.054L172.64 433.799M172.64 433.799L172.164 432.927L172.089 432.789H171.931H170.5H170.306L170.247 432.975C170.178 433.193 170.005 433.549 169.718 433.87C169.433 434.188 169.046 434.459 168.548 434.542C167.401 434.733 140.93 440.144 127.675 442.859M127.675 442.859C127.709 442.908 127.743 442.957 127.776 443.006L127.555 443.154L127.502 442.894C127.56 442.882 127.617 442.871 127.675 442.859Z" stroke="#96DCFF" stroke-width="0.530466"/>
<path d="M-8.18945 500.086C-10.7758 501.921 -10.4121 503.77 -9.90698 504.465C-8.77547 503.464 -6.4719 503.214 -5.46156 503.213C-4.85537 503.144 -3.3399 503.234 -2.12753 504.152C-0.915155 505.069 -0.0732288 505.021 0.196186 504.882L1.40856 503.63C1.89351 503.13 2.89035 503.144 3.32815 503.213C4.54053 503.422 7.16734 503.756 7.97559 503.422C8.78383 503.088 9.45737 503.561 9.69312 503.839C10.0972 501.754 8.04294 501.024 6.96527 500.919C5.95496 500.815 3.87372 500.44 3.63125 499.773C3.38877 499.105 2.38519 498.452 1.91372 498.209C-0.187731 494.705 1.17282 494.525 2.11578 494.872C8.98642 498.792 20.0659 496.923 24.7468 495.498C25.1846 497.27 26.2218 501.024 26.8684 501.858C27.515 502.692 30.8423 502.901 32.4251 502.901C32.8629 503.248 33.88 503.901 34.4457 503.735C35.0115 503.568 34.6815 502.622 34.4457 502.171C36.8031 502.553 41.5987 503.234 41.9221 502.901C42.2454 502.567 41.7873 501.858 41.5179 501.545C42.2925 501.823 44.1649 502.275 45.4581 501.858C46.7513 501.441 48.8258 501.684 49.7014 501.858C48.2466 499.522 44.5825 498.869 42.9324 498.834C41.0801 498.626 37.0523 498.083 35.7592 497.583C34.466 497.083 34.5468 494.385 34.7488 493.1C34.7152 492.335 35.1934 489.992 37.3756 486.739C39.5579 483.486 40.3729 476.139 40.5076 472.872L40.9117 460.673C40.8781 460.36 41.8008 461.236 45.7612 467.242C50.7118 474.749 46.6705 481.735 52.3283 481.317C56.8545 480.984 58.1207 474.436 58.1881 471.204C57.9186 464.878 56.3695 450.601 52.3283 444.095C48.287 437.588 44.0437 428.663 42.4272 425.014L38.588 412.189C37.8808 408.123 35.6581 398.989 32.4251 394.985C29.1921 390.981 29.3942 388.451 29.8993 387.687C32.4588 382.369 38.8709 371.442 44.0437 370.274C49.2165 369.106 52.8671 369.788 54.0458 370.274C54.1131 369.371 53.6417 367.063 51.2169 365.061C48.7922 363.059 39.632 364.227 35.355 365.061C32.5598 363.045 24.7872 360.223 16.0581 365.061C7.32899 369.899 4.1364 384.663 3.63125 391.44C1.36815 393.776 -3.91241 406.733 -6.26981 412.919C-8.99787 419.488 -14.858 433.752 -16.474 438.256C-18.0899 442.76 -19.7737 457.649 -20.4136 464.531C-22.4342 471.586 -25.7885 485.238 -23.0404 483.403C-20.2924 481.568 -16.1711 465.817 -14.454 458.171C-15.2622 465.928 -10.8842 481.631 -8.59418 488.512L-6.47252 498.939L-8.18945 500.086Z" fill="#1B1B1B"/>
<path fill-rule="evenodd" clip-rule="evenodd" d="M24.7793 495.7C27.5014 493.411 30.5873 492.979 33.0839 492.629C33.6947 492.544 34.2702 492.463 34.7965 492.361C34.9929 491.247 35.6592 489.267 37.3571 486.736C39.5393 483.483 40.3543 476.136 40.489 472.869L40.8877 460.835L39.5857 420.008V415.581L38.5694 412.186C37.8622 408.12 35.6395 398.986 32.4065 394.982C29.1735 390.978 29.3756 388.448 29.8808 387.683C32.4402 382.366 38.8523 371.439 44.0251 370.271C45.9302 369.841 47.6288 369.662 49.0736 369.631C51.5516 369.579 53.2826 369.964 54.0272 370.271C54.0946 369.367 53.6231 367.06 51.1983 365.058C51.1184 364.992 51.031 364.929 50.9368 364.87C48.1746 363.133 39.4723 364.251 35.3364 365.058C32.5412 363.042 24.7686 360.22 16.0395 365.058C11.5947 367.521 8.58543 372.558 6.63547 377.804C9.07743 380.602 13.9449 385.053 19.0764 387.477C25.7848 390.647 21.8716 393.108 19.0764 393.942C16.6853 394.984 11.0747 397.82 7.76087 400.823C5.51144 402.862 4.36437 406.929 3.21948 410.989C2.25608 414.406 1.29422 417.816 -0.321619 420.008C-3.13035 423.818 -10.8525 446.718 -14.4894 458.338C-14.8084 461.763 -14.1556 466.669 -13.1302 471.676C-11.816 478.091 -9.88975 484.672 -8.61276 488.509L-8.33866 489.856C-7.90542 490.054 -7.42366 490.169 -6.88864 490.179C-3.13104 490.254 -0.277909 493.251 1.15089 494.804C1.41497 494.695 1.77974 494.752 2.09719 494.869C2.46374 495.078 2.84226 495.271 3.23115 495.448C3.83052 495.721 4.45452 495.957 5.09726 496.16C5.18233 496.187 5.26773 496.213 5.35344 496.238C5.93229 496.412 6.52547 496.559 7.12879 496.682C7.17021 496.69 7.21168 496.699 7.2532 496.707L7.32774 496.721L7.35271 496.726C8.42927 496.935 9.53619 497.069 10.6498 497.142C14.9284 497.424 19.3061 496.813 22.4426 496.096C23.3085 495.898 24.0797 495.692 24.7282 495.495C24.7444 495.56 24.7615 495.629 24.7793 495.7ZM49.3974 370.297C49.3995 370.308 49.3988 370.307 49.3969 370.295L49.3974 370.297Z" fill="white"/>
<path d="M34.0629 380.272C37.0336 375.628 40.7884 371.011 44.0503 370.274C45.9554 369.844 47.654 369.665 49.0987 369.634C51.5768 369.582 53.3078 369.967 54.0524 370.274C54.1197 369.371 53.6483 367.063 51.2235 365.061C51.1435 364.995 51.0562 364.933 50.962 364.873C48.1997 363.136 39.4975 364.255 35.3616 365.061C32.5664 363.045 24.7938 360.223 16.0647 365.061C15.5693 365.336 15.0917 365.642 14.6314 365.978C13.4428 371.593 13.4396 380.21 20.7129 381.535C26.2399 382.542 30.9253 381.542 34.0629 380.272Z" fill="#1B1B1B"/>
<path d="M49.4226 370.301C49.4247 370.311 49.424 370.311 49.4221 370.298L49.4226 370.301Z" fill="#1B1B1B"/>
<path fill-rule="evenodd" clip-rule="evenodd" d="M35.3833 365.064C37.6311 368.208 37.6041 373.223 36.4049 376.877C38.8701 373.578 41.5984 370.835 44.0486 370.282C45.9537 369.852 47.6524 369.672 49.0971 369.642C51.5751 369.589 53.3061 369.974 54.0507 370.282C54.1181 369.378 53.6466 367.07 51.2219 365.069C51.1419 365.003 51.0545 364.94 50.9603 364.881C48.2033 363.147 39.5285 364.258 35.3833 365.064ZM49.4222 370.316C49.4224 370.316 49.422 370.314 49.4209 370.308L49.4205 370.306C49.4214 370.312 49.422 370.315 49.4222 370.316Z" fill="#FF7134"/>
<ellipse cx="24.0433" cy="368.819" rx="2.72784" ry="1.87679" fill="white"/>
<ellipse cx="24.4457" cy="368.923" rx="1.3134" ry="1.35546" fill="#323232"/>
<path d="M2.9631 393.223C6.04559 391.168 8.10058 395.366 18.3755 396.223C26.938 396.223 27.2805 391.167 30.363 393.222C33.4455 395.277 42.4931 398.644 46.6317 400.071C48.4869 400.214 51.5123 403.924 48.7723 417.624C48.6296 420.193 49.1148 425.673 52.1973 427.043V463.862L17.9474 463.863H-16.3024V427.045C-13.22 425.675 -12.7347 420.195 -12.8775 417.626C-15.6174 403.926 -12.592 400.216 -10.7368 400.073C-6.59832 398.646 -0.119385 395.278 2.9631 393.223Z" fill="#383838"/>
<path fill-rule="evenodd" clip-rule="evenodd" d="M-16.2998 445.889H52.1999V439.895H42.3552V433.901C43.4969 431.047 45.609 425.082 44.924 424.054C44.239 423.027 44.9237 419.345 45.3518 417.632C46.8384 410.497 45.2062 403.06 43.8162 399.075C41.9884 398.408 39.8591 397.601 37.8041 396.766C38.2697 398.628 38.9153 400.347 39.7866 401.364C41.8416 403.761 39.5012 427.765 38.0741 439.467H-4.31007C-4.7382 427.479 -5.50882 403.076 -5.16632 401.364C-4.82382 399.651 -3.59653 398.081 -3.0257 397.511C-3.29287 397.511 -3.92685 397.611 -4.86523 397.936C-5.13828 398.04 -5.40944 398.144 -5.67781 398.245C-6.04642 398.398 -6.44759 398.579 -6.87894 398.795C-8.93404 399.822 -10.5894 402.363 -11.1602 403.504V412.495C-11.1602 416.947 -9.7331 420.915 -9.01956 422.342L-9.44769 439.895H-16.2998V445.889Z" fill="#F9F9F9"/>
<path d="M16.6739 435.605V460.008H18.8145V435.605C18.8145 423.275 19.3853 418.766 19.6707 418.052L15.8631 418.19C16.1594 419.243 16.6739 423.9 16.6739 435.605Z" fill="#D9D9D9"/>
<path d="M19.6707 418.052C19.3853 418.766 18.8145 423.275 18.8145 435.605V460.008H16.6739V435.605C16.6739 423.9 16.1594 419.243 15.8631 418.19M19.6707 418.052L15.8631 418.19M19.6707 418.052C23.3603 414.362 28.1721 400.518 30.246 393.647M15.8631 418.19C15.8473 418.134 15.8321 418.088 15.8176 418.052C12.2981 414.533 7.01021 401.399 4.70053 394.217M4.2583 392.793C4.31505 392.983 4.37487 393.18 4.43762 393.383" stroke="#D1D1D1" stroke-width="0.856246"/>
<g opacity="0.7">
<g opacity="0.77">
<path d="M166.925 356.974C183.777 349.575 199.879 352.483 208.068 355.676C209.415 356.201 210.963 355.242 210.963 353.797V321.544C210.963 320.482 210.101 319.62 209.039 319.62H-85.1148C-86.1774 319.62 -87.0388 320.482 -87.0388 321.544V348.001C-87.0388 349.46 -85.4711 350.395 -84.1489 349.779C-62.1543 339.547 -37.2488 346.33 -27.1819 351.233C-16.2438 355.036 13.0505 360.359 42.7224 351.233C72.3943 342.107 86.5818 343.305 89.9665 345.045C107.639 352.526 147.771 365.385 166.925 356.974Z" fill="white"/>
<path d="M-38.8433 356.974C-55.6953 349.575 -71.7971 352.483 -79.986 355.676C-81.333 356.201 -82.8809 355.242 -82.8809 353.797V321.544C-82.8809 320.482 -82.0195 319.62 -80.9569 319.62H213.197C214.259 319.62 215.121 320.482 215.121 321.544V348.001C215.121 349.46 213.553 350.395 212.231 349.779C190.236 339.547 165.331 346.33 155.264 351.233C144.326 355.036 115.032 360.359 85.3597 351.233C55.6878 342.107 41.5003 343.305 38.1155 345.045C20.4435 352.526 -19.6891 365.385 -38.8433 356.974Z" fill="#E2F9FF"/>
<path d="M-31.9917 350.264C-48.8437 342.864 -64.9456 345.772 -73.1345 348.965C-74.4814 349.49 -76.0293 348.531 -76.0293 347.086V314.833C-76.0293 313.771 -75.1679 312.909 -74.1053 312.909H220.048C221.111 312.909 221.972 313.771 221.972 314.833V341.29C221.972 342.749 220.405 343.684 219.082 343.069C197.088 332.836 172.182 339.619 162.115 344.522C151.177 348.325 121.883 353.648 92.2112 344.522C62.5393 335.396 48.3518 336.594 44.9671 338.334C27.295 345.815 -12.8376 358.674 -31.9917 350.264Z" fill="white"/>
</g>
<path d="M-32.0079 343.502C-48.8598 336.102 -64.9617 339.011 -73.1506 342.203C-74.4975 342.728 -76.0454 341.77 -76.0454 340.324V308.071C-76.0454 307.009 -75.184 306.147 -74.1214 306.147H220.032C221.095 306.147 221.956 307.009 221.956 308.071V334.529C221.956 335.987 220.389 336.922 219.066 336.307C197.072 326.074 172.166 332.857 162.099 337.761C151.161 341.563 121.867 346.887 92.1951 337.761C62.5232 328.634 48.3357 329.832 44.951 331.572C27.2789 339.053 -12.8537 351.912 -32.0079 343.502Z" fill="white"/>
<path d="M173.761 343.502C190.613 336.102 206.715 339.011 214.903 342.203C216.25 342.728 217.798 341.77 217.798 340.324V308.071C217.798 307.009 216.937 306.147 215.874 306.147H-78.2794C-79.3419 306.147 -80.2033 307.009 -80.2033 308.071V334.529C-80.2033 335.987 -78.6357 336.922 -77.3134 336.307C-55.3189 326.074 -30.4133 332.857 -20.3465 337.761C-9.40833 341.563 19.8859 346.887 49.5578 337.761C79.2297 328.634 93.4172 329.832 96.802 331.572C114.474 339.053 154.607 351.912 173.761 343.502Z" fill="#E2F9FF"/>
<path d="M166.909 336.791C183.761 329.391 199.863 332.3 208.052 335.492C209.399 336.017 210.947 335.059 210.947 333.613V301.36C210.947 300.298 210.085 299.437 209.023 299.437H-85.1309C-86.1935 299.437 -87.0549 300.298 -87.0549 301.36V327.818C-87.0549 329.276 -85.4872 330.211 -84.165 329.596C-62.1704 319.364 -37.2649 326.146 -27.198 331.05C-16.2599 334.852 13.0343 340.176 42.7062 331.05C72.3781 321.924 86.5656 323.121 89.9504 324.861C107.622 332.342 147.755 345.201 166.909 336.791Z" fill="white"/>
<path d="M172.472 288.788C189.507 294.13 205.776 291.949 213.879 289.641C215.17 289.273 216.509 290.218 216.509 291.56V313.544C216.509 314.606 215.648 315.468 214.585 315.468H-79.5684C-80.631 315.468 -81.4924 314.606 -81.4924 313.544V295.697C-81.4924 294.344 -80.1323 293.412 -78.8509 293.844C-56.7957 301.271 -31.7403 296.404 -21.6355 292.888C-10.6974 290.172 18.5968 286.37 48.2687 292.888C77.9406 299.407 92.1281 298.551 95.5129 297.308C113.185 291.965 153.318 282.781 172.472 288.788Z" fill="white"/>
</g>
</g>
<g clip-path="url(#clip3_929_522)">
<rect width="148" height="162" transform="matrix(-1 0 0 1 766 300.383)" fill="#96DCFF"/>
<path d="M654.859 432.975C651.545 433.505 643.646 435.997 638.556 441.723C638.137 442.195 637.768 442.673 637.445 443.154C624.243 440.45 597.554 434.995 596.409 434.804C595.263 434.613 594.659 433.558 594.5 433.054H593.069L592.591 433.929C592.019 434.947 592.512 435.573 592.83 435.758L634.103 447.369C633.732 447.66 632.226 448.259 629.173 448.323C626.119 448.387 624.136 451.955 623.526 453.731C621.172 459.965 625.62 463.38 628.139 464.307C629.173 464.546 632.242 464.912 636.25 464.467C640.258 464.021 642.639 461.206 643.328 459.854L644.521 460.172C645.984 460.872 653.984 460.782 657.801 460.649C665.197 460.358 680.768 459.775 683.885 459.775C687.002 459.775 698.703 457.548 704.164 456.435C704.164 457.415 704.704 460.013 706.868 462.558C709.031 465.103 712.487 465.474 713.945 465.341C717.762 465.15 719.724 464.307 720.228 463.91C721.712 462.743 724.745 459.854 724.999 457.627C725.253 455.401 724.31 453.413 723.806 452.697C725.842 451.488 726.934 449.012 727.226 447.925C754.449 443.605 809.613 434.868 812.475 434.486C815.338 434.104 818.175 432.842 819.235 432.259C819.474 431.782 819.744 430.971 818.917 431.544C818.09 432.116 814.49 432.789 812.794 433.054L718.399 446.176L720.546 443.234L754.9 438.86L719.512 441.166C719.13 440.466 716.914 438.966 715.854 438.303L719.75 403.312H718.16C717.078 403.312 716.437 404.585 716.251 405.221C713.786 413.094 708.681 429.412 707.981 431.703C707.281 433.993 705.728 434.3 705.038 434.168L654.859 432.975Z" fill="white"/>
<path d="M658.677 441.508H639.016L637.853 443.229C637.295 444.055 637.465 444.261 637.62 444.261C643.747 444.299 656.443 444.376 658.211 444.376C659.98 444.376 660.266 444.223 660.189 444.146C660.189 442.219 659.181 441.584 658.677 441.508Z" fill="#838383"/>
<path d="M638.873 464.865L628.694 465.66L622.809 461.048L622.57 454.209L626.228 448.404L632.749 447.37C633.014 447.37 634.133 447.433 636.487 447.688C638.841 447.942 638.263 451.293 637.68 452.936L644.121 456.913L643.644 461.366L638.873 464.865Z" fill="#767676"/>
<path d="M712.751 447.29L703.844 452.539L705.116 462.002L709.808 465.819H718.317L721.657 463.99L725.474 457.787V453.016L727.463 448.881L730.803 448.006L722.453 446.336L712.751 447.29Z" fill="#767676"/>
<path d="M638.873 464.865L628.694 465.66L622.809 461.048L622.57 454.209L626.228 448.404L632.749 447.37C633.014 447.37 634.133 447.433 636.487 447.688C638.841 447.942 638.263 451.293 637.68 452.936L644.121 456.913L643.644 461.366L638.873 464.865Z" stroke="#96DCFF" stroke-width="0.530466"/>
<path d="M712.751 447.29L703.844 452.539L705.116 462.002L709.808 465.819H718.317L721.657 463.99L725.474 457.787V453.016L727.463 448.881L730.803 448.006L722.453 446.336L712.751 447.29Z" stroke="#96DCFF" stroke-width="0.530466"/>
<path d="M637.444 443.076L636.649 445.462V447.689L632.196 447.371L599.988 438.861L591.32 435.68L592.275 433.533L593.865 432.181L596.012 433.533L619.233 438.623L637.444 443.076Z" fill="#D9D9D9"/>
<path d="M730.249 444.19L690.089 450.154L701.223 454.13L706.63 451.029L713.39 447.927C714.318 447.662 716.3 447.243 716.809 447.689C717.318 448.134 719.672 448.563 720.785 448.722C723.839 448.913 725.981 448.378 726.67 448.086L776.134 441.168L807.228 436.078L820.111 432.659V430.75L812.556 432.102L730.249 444.19Z" fill="#D9D9D9"/>
<path d="M637.444 443.076L636.649 445.462V447.689L632.196 447.371L599.988 438.861L591.32 435.68L592.275 433.533L593.865 432.181L596.012 433.533L619.233 438.623L637.444 443.076Z" stroke="#96DCFF" stroke-width="0.530466"/>
<path d="M730.249 444.19L690.089 450.154L701.223 454.13L706.63 451.029L713.39 447.927C714.318 447.662 716.3 447.243 716.809 447.689C717.318 448.134 719.672 448.563 720.785 448.722C723.839 448.913 725.981 448.378 726.67 448.086L776.134 441.168L807.228 436.078L820.111 432.659V430.75L812.556 432.102L730.249 444.19Z" stroke="#96DCFF" stroke-width="0.530466"/>
<path d="M637.738 456.356C637.738 460.798 634.419 464.362 630.369 464.362C626.318 464.362 623 460.798 623 456.356C623 451.915 626.318 448.351 630.369 448.351C634.419 448.351 637.738 451.915 637.738 456.356Z" fill="#959799" stroke="#96DCFF" stroke-width="0.530466"/>
<path d="M635.831 456.517C635.831 459.981 633.128 462.773 629.814 462.773C626.5 462.773 623.796 459.981 623.796 456.517C623.796 453.053 626.5 450.261 629.814 450.261C633.128 450.261 635.831 453.053 635.831 456.517Z" fill="#272727" stroke="#96DCFF" stroke-width="0.530466"/>
<path d="M635.614 450.548L636.409 445.856C636.55 445.029 637.046 445.22 637.205 445.617L638.318 448.401C638.398 448.639 638.636 449.132 638.954 449.196C639.272 449.26 639.511 449.01 639.59 448.878C640.863 446.524 642.294 445.882 642.851 445.856H648.577C652.712 445.856 657.351 445.167 659.153 444.822C660.611 444.477 664.036 443.709 666.072 443.391C668.108 443.073 669.942 443.523 670.605 443.788L691.122 450.15L707.186 451.264L703.687 456.989L689.611 460.488L645.157 460.886L643.408 459.932L639.59 458.739C635.392 456.512 635.19 452.35 635.614 450.548Z" fill="#0082E5"/>
<path d="M720.599 456.2C720.599 460.619 716.982 464.205 712.514 464.205C708.047 464.205 704.429 460.619 704.429 456.2C704.429 451.781 708.047 448.195 712.514 448.195C716.982 448.195 720.599 451.781 720.599 456.2Z" fill="#959799" stroke="#96DCFF" stroke-width="0.530466"/>
<path d="M718.517 456.361C718.517 459.803 715.572 462.617 711.91 462.617C708.249 462.617 705.304 459.803 705.304 456.361C705.304 452.919 708.249 450.105 711.91 450.105C715.572 450.105 718.517 452.919 718.517 456.361Z" fill="#272727" stroke="#96DCFF" stroke-width="0.530466"/>
<path d="M654.841 432.709L654.865 432.71L705.045 433.903L705.067 433.903L705.089 433.907C705.64 434.013 707.066 433.791 707.727 431.625C708.427 429.334 713.532 413.017 715.997 405.144C716.098 404.8 716.319 404.292 716.663 403.862C717.007 403.433 717.506 403.047 718.16 403.047H719.75H720.047L720.014 403.342L716.136 438.167C716.668 438.504 717.417 439.004 718.095 439.508C718.466 439.783 718.819 440.062 719.105 440.319C719.323 440.515 719.518 440.711 719.65 440.891L754.883 438.595L754.934 439.123L720.693 443.482L718.981 445.827L812.753 432.792C812.753 432.792 812.754 432.792 812.755 432.792C813.599 432.66 814.916 432.427 816.123 432.156C816.728 432.02 817.301 431.875 817.772 431.73C818.253 431.582 818.597 431.443 818.766 431.325C818.877 431.248 818.978 431.189 819.07 431.148C819.158 431.109 819.257 431.078 819.358 431.082C819.472 431.086 819.584 431.134 819.658 431.236C819.723 431.326 819.738 431.427 819.741 431.499C819.745 431.645 819.701 431.811 819.653 431.952C819.602 432.1 819.536 432.251 819.472 432.378L819.435 432.452L819.363 432.492C818.284 433.085 815.416 434.361 812.511 434.749C809.658 435.129 754.72 443.83 727.434 448.161C727.261 448.732 726.919 449.564 726.395 450.406C725.861 451.264 725.127 452.149 724.176 452.778C724.718 453.668 725.503 455.557 725.263 457.658C725.126 458.856 724.256 460.188 723.277 461.338C722.288 462.5 721.145 463.526 720.391 464.118M654.841 432.709L723.951 452.919C724.469 453.771 725.231 455.6 724.999 457.627C724.745 459.854 721.712 462.743 720.228 463.91C719.724 464.307 717.762 465.15 713.945 465.341M654.841 432.709L654.817 432.713C651.47 433.249 643.503 435.758 638.358 441.546C637.974 441.979 637.63 442.417 637.325 442.859M654.841 432.709L592.36 433.799M720.391 464.118L720.229 463.912L720.392 464.118C720.392 464.118 720.392 464.118 720.391 464.118ZM720.391 464.118C720.098 464.35 719.442 464.671 718.399 464.959C717.349 465.249 715.887 465.509 713.964 465.606M713.964 465.606C713.966 465.606 713.967 465.606 713.969 465.605L713.945 465.341M713.964 465.606C713.962 465.606 713.96 465.606 713.958 465.606L713.945 465.341M713.964 465.606C713.201 465.674 711.941 465.611 710.595 465.208C709.243 464.803 707.789 464.051 706.665 462.73C704.662 460.372 704.014 457.96 703.913 456.756M713.945 465.341C712.487 465.474 709.031 465.103 706.868 462.558C704.879 460.219 704.262 457.835 704.175 456.703C704.089 456.72 704.002 456.738 703.913 456.756M703.913 456.756C703.905 456.659 703.9 456.569 703.899 456.488C698.334 457.618 686.953 459.775 683.885 459.775C680.768 459.775 665.197 460.358 657.801 460.649C653.984 460.782 645.984 460.872 644.521 460.172M703.913 456.756C701.173 457.312 697.046 458.112 693.191 458.783C689.203 459.478 685.472 460.04 683.885 460.04C680.775 460.04 665.211 460.623 657.812 460.914L657.81 460.914C655.899 460.981 652.939 461.037 650.273 460.988C648.941 460.964 647.677 460.914 646.653 460.825C646.142 460.781 645.686 460.726 645.309 460.66C644.951 460.598 644.646 460.521 644.43 460.422M644.43 460.422L644.452 460.428L644.521 460.172M644.43 460.422C644.422 460.419 644.414 460.415 644.406 460.411L644.521 460.172M644.43 460.422L643.462 460.164M644.521 460.172L643.328 459.854M643.328 459.854L643.564 459.975C643.533 460.035 643.499 460.099 643.462 460.164M643.328 459.854C642.639 461.206 640.258 464.021 636.25 464.467C632.242 464.912 629.173 464.546 628.139 464.307C625.62 463.38 621.172 459.965 623.526 453.731M643.328 459.854L643.259 460.11L643.462 460.164M643.462 460.164C642.632 461.627 640.222 464.292 636.279 464.73C632.246 465.178 629.146 464.812 628.079 464.566L628.063 464.562L628.047 464.556C626.746 464.077 624.953 462.96 623.783 461.153C622.604 459.333 622.072 456.834 623.277 453.641M623.277 453.641C623.276 453.642 623.276 453.643 623.275 453.645L623.526 453.731M623.277 453.641C623.277 453.64 623.278 453.638 623.278 453.637L623.526 453.731M623.277 453.641C623.591 452.728 624.253 451.363 625.231 450.213C626.208 449.063 627.532 448.092 629.167 448.058C630.678 448.026 631.798 447.863 632.582 447.674C632.904 447.596 633.165 447.515 633.371 447.438M623.526 453.731C624.136 451.955 626.119 448.387 629.173 448.323C631.668 448.271 633.13 447.862 633.783 447.554L633.371 447.438M633.371 447.438C633.533 447.379 633.661 447.322 633.757 447.272L592.83 435.758C592.512 435.573 592.019 434.947 592.591 433.929M633.371 447.438L592.758 436.014L592.726 436.004L592.696 435.987C592.485 435.864 592.235 435.609 592.123 435.232C592.007 434.845 592.045 434.361 592.359 433.801L592.359 433.802L592.591 433.929M592.591 433.929L592.36 433.799M592.591 433.929L593.069 433.054L592.36 433.799M592.36 433.799L592.836 432.927L592.911 432.789H593.069H594.5H594.694L594.753 432.975C594.822 433.193 594.995 433.549 595.282 433.87C595.567 434.188 595.954 434.459 596.452 434.542C597.599 434.733 624.07 440.144 637.325 442.859M637.325 442.859C637.291 442.908 637.257 442.957 637.224 443.006L637.445 443.154L637.498 442.894C637.44 442.882 637.383 442.871 637.325 442.859Z" stroke="#96DCFF" stroke-width="0.530466"/>
<path d="M764.631 504.009C767.235 505.856 766.869 507.718 766.36 508.417C765.221 507.41 762.902 507.158 761.885 507.158C761.275 507.088 759.749 507.179 758.529 508.102C757.308 509.026 756.461 508.977 756.189 508.837L754.969 507.577C754.481 507.074 753.477 507.088 753.036 507.158C751.816 507.368 749.171 507.703 748.358 507.368C747.544 507.032 746.866 507.507 746.629 507.787C746.222 505.688 748.29 504.953 749.375 504.848C750.392 504.743 752.487 504.365 752.731 503.694C752.975 503.022 753.986 502.364 754.46 502.119C756.576 498.592 755.206 498.41 754.257 498.76C747.34 502.707 736.186 500.825 731.474 499.39C731.033 501.174 729.989 504.953 729.338 505.793C728.687 506.633 725.337 506.843 723.744 506.843C723.303 507.193 722.279 507.85 721.709 507.682C721.14 507.514 721.472 506.563 721.709 506.108C719.336 506.493 714.508 507.179 714.183 506.843C713.857 506.507 714.318 505.793 714.59 505.478C713.81 505.758 711.925 506.213 710.623 505.793C709.321 505.373 707.233 505.618 706.351 505.793C707.816 503.442 711.504 502.784 713.166 502.749C715.03 502.539 719.085 501.993 720.387 501.489C721.689 500.986 721.608 498.27 721.404 496.976C721.438 496.206 720.957 493.848 718.76 490.573C716.563 487.298 715.742 479.901 715.607 476.612L715.2 464.331C715.234 464.016 714.305 464.898 710.318 470.944C705.334 478.502 709.402 485.534 703.707 485.114C699.15 484.779 697.875 478.187 697.807 474.933C698.079 468.565 699.638 454.191 703.707 447.641C707.775 441.091 712.047 432.106 713.674 428.432L717.539 415.521C718.251 411.427 720.489 402.232 723.744 398.202C726.998 394.171 726.795 391.624 726.286 390.854C723.71 385.501 717.255 374.5 712.047 373.324C706.839 372.149 703.164 372.834 701.978 373.324C701.91 372.415 702.384 370.091 704.825 368.076C707.267 366.061 716.488 367.237 720.794 368.076C723.608 366.047 731.433 363.206 740.221 368.076C749.009 372.947 752.223 387.81 752.731 394.633C755.01 396.984 760.326 410.028 762.699 416.256C765.445 422.869 771.345 437.229 772.972 441.763C774.598 446.298 776.294 461.287 776.938 468.215C778.972 475.318 782.349 489.062 779.582 487.214C776.816 485.367 772.667 469.51 770.938 461.812C771.752 469.622 767.344 485.43 765.039 492.357L762.903 502.854L764.631 504.009Z" fill="#1965FF"/>
<path fill-rule="evenodd" clip-rule="evenodd" d="M731.433 499.595C728.693 497.293 725.588 496.858 723.076 496.506C722.46 496.42 721.88 496.339 721.349 496.236C721.152 495.115 720.482 493.121 718.771 490.57C716.574 487.295 715.754 479.899 715.618 476.61L715.218 464.545L716.53 423.397V418.926L717.55 415.519C718.262 411.425 720.5 402.23 723.755 398.199C727.009 394.168 726.806 391.621 726.298 390.851C723.721 385.498 717.266 374.497 712.058 373.322C710.14 372.889 708.43 372.708 706.976 372.678C704.481 372.625 702.738 373.012 701.989 373.322C701.921 372.412 702.396 370.089 704.837 368.074C704.917 368.007 705.005 367.944 705.1 367.885C707.881 366.136 716.641 367.262 720.805 368.074C723.619 366.044 731.444 363.203 740.232 368.074C744.708 370.555 747.738 375.628 749.701 380.911C747.242 383.728 742.343 388.207 737.178 390.647C730.424 393.838 734.364 396.316 737.178 397.155C739.585 398.205 745.233 401.06 748.569 404.083C750.834 406.135 751.989 410.23 753.141 414.317C754.111 417.757 755.079 421.191 756.706 423.397C759.533 427.231 767.302 450.27 770.965 461.972C771.288 465.421 770.631 470.364 769.598 475.408C768.275 481.868 766.336 488.492 765.05 492.355L764.773 493.717C764.338 493.915 763.854 494.029 763.317 494.04C759.536 494.115 756.664 497.13 755.225 498.694C754.959 498.582 754.589 498.639 754.268 498.758C753.899 498.968 753.518 499.162 753.126 499.341C752.523 499.615 751.895 499.853 751.248 500.057C751.162 500.084 751.076 500.111 750.99 500.137C750.407 500.311 749.81 500.459 749.203 500.583C749.187 500.586 749.172 500.589 749.157 500.592C749.13 500.598 749.104 500.603 749.077 500.608L749.002 500.623L748.977 500.628C747.893 500.837 746.779 500.972 745.658 501.046C741.35 501.33 736.943 500.715 733.786 499.993C732.914 499.794 732.138 499.586 731.485 499.388C731.468 499.454 731.451 499.523 731.433 499.595ZM771.049 462.251C771.046 462.237 771.043 462.224 771.04 462.21C771.042 462.218 771.045 462.227 771.047 462.235L771.049 462.251ZM706.65 373.348C706.647 373.359 706.648 373.359 706.65 373.346L706.65 373.348Z" fill="white"/>
<path d="M722.102 383.389C719.111 378.714 715.331 374.066 712.047 373.324C710.129 372.891 708.419 372.711 706.965 372.68C704.47 372.627 702.727 373.015 701.978 373.324C701.91 372.415 702.385 370.091 704.826 368.076C704.906 368.01 704.994 367.947 705.089 367.887C707.87 366.138 716.631 367.264 720.794 368.076C723.608 366.047 731.433 363.206 740.221 368.076C740.72 368.353 741.201 368.661 741.664 368.999C742.861 374.652 742.864 383.327 735.542 384.661C729.977 385.674 725.26 384.668 722.102 383.389Z" fill="#1965FF"/>
<path d="M706.639 373.351C706.637 373.362 706.637 373.361 706.639 373.349L706.639 373.351Z" fill="#1965FF"/>
<path fill-rule="evenodd" clip-rule="evenodd" d="M720.771 368.073C718.508 371.241 718.538 376.295 719.749 379.973C717.266 376.648 714.517 373.883 712.048 373.326C710.13 372.893 708.42 372.712 706.966 372.681C704.471 372.629 702.728 373.016 701.979 373.326C701.911 372.416 702.386 370.093 704.827 368.078C704.907 368.011 704.995 367.948 705.09 367.888C707.865 366.143 716.598 367.261 720.771 368.073ZM706.64 373.352C706.638 373.363 706.638 373.362 706.64 373.35L706.64 373.352Z" fill="#FF7134"/>
<ellipse cx="2.74619" cy="1.88941" rx="2.74619" ry="1.88941" transform="matrix(-1 0 0 1 734.938 369.975)" fill="white"/>
<ellipse cx="1.32224" cy="1.36457" rx="1.32224" ry="1.36457" transform="matrix(-1 0 0 1 733.116 370.603)" fill="#323232"/>
<path d="M753.414 396.427C750.311 394.359 748.242 398.585 737.898 399.447C729.278 399.447 728.933 394.358 725.83 396.427C722.727 398.495 713.618 401.885 709.452 403.322C707.584 403.465 704.538 407.201 707.297 420.993C707.44 423.579 706.952 429.096 703.849 430.475V467.541L738.329 467.543H772.809V430.477C769.706 429.098 769.217 423.581 769.361 420.995C772.119 407.203 769.074 403.467 767.206 403.324C763.04 401.887 756.517 398.496 753.414 396.427Z" fill="#0082E5"/>
<path fill-rule="evenodd" clip-rule="evenodd" d="M772.813 449.45H703.853V443.415H713.76V437.381C712.611 434.508 710.485 428.503 711.174 427.468C711.864 426.434 711.175 422.727 710.744 421.003C709.247 413.818 710.891 406.329 712.291 402.318C714.131 401.647 716.274 400.834 718.343 399.994C717.874 401.869 717.224 403.601 716.346 404.625C714.277 407.039 716.634 431.204 718.07 442.984H760.74C761.171 430.916 761.946 406.349 761.602 404.625C761.257 402.901 760.021 401.321 759.447 400.746C759.732 400.746 760.435 400.86 761.48 401.238C761.63 401.296 761.78 401.353 761.928 401.409C762.35 401.577 762.817 401.785 763.326 402.039C765.395 403.074 767.061 405.631 767.636 406.78V415.831C767.636 420.314 766.199 424.308 765.481 425.744L765.912 443.415H772.813V449.45Z" fill="#F9F9F9"/>
<path d="M739.613 439.099V463.666H737.458V439.099C737.458 426.686 736.883 422.146 736.596 421.428L740.429 421.567C740.131 422.626 739.613 427.315 739.613 439.099Z" fill="#D9D9D9"/>
<path d="M736.596 421.428C736.883 422.146 737.458 426.686 737.458 439.099V463.666H739.613V439.099C739.613 427.315 740.131 422.626 740.429 421.567M736.596 421.428L740.429 421.567M736.596 421.428C732.881 417.713 728.037 403.776 725.949 396.858M740.429 421.567C740.445 421.51 740.46 421.464 740.475 421.428C744.018 417.885 749.341 404.662 751.667 397.432M752.112 395.999C752.055 396.19 751.994 396.389 751.931 396.593" stroke="#D1D1D1" stroke-width="0.862005"/>
<g opacity="0.7">
<g opacity="0.77">
<path d="M598.075 356.974C581.223 349.575 565.121 352.483 556.932 355.676C555.585 356.201 554.037 355.242 554.037 353.797V321.544C554.037 320.482 554.899 319.62 555.961 319.62H850.115C851.177 319.62 852.039 320.482 852.039 321.544V348.001C852.039 349.46 850.471 350.395 849.149 349.779C827.154 339.547 802.249 346.33 792.182 351.233C781.244 355.036 751.95 360.359 722.278 351.233C692.606 342.107 678.418 343.305 675.033 345.045C657.361 352.526 617.229 365.385 598.075 356.974Z" fill="white"/>
<path d="M803.843 356.974C820.695 349.575 836.797 352.483 844.986 355.676C846.333 356.201 847.881 355.242 847.881 353.797V321.544C847.881 320.482 847.019 319.62 845.957 319.62H551.803C550.741 319.62 549.879 320.482 549.879 321.544V348.001C549.879 349.46 551.447 350.395 552.769 349.779C574.764 339.547 599.669 346.33 609.736 351.233C620.674 355.036 649.968 360.359 679.64 351.233C709.312 342.107 723.5 343.305 726.884 345.045C744.557 352.526 784.689 365.385 803.843 356.974Z" fill="#E2F9FF"/>
<path d="M796.992 350.264C813.844 342.864 829.946 345.772 838.134 348.965C839.481 349.49 841.029 348.531 841.029 347.086V314.833C841.029 313.771 840.168 312.909 839.105 312.909H544.952C543.889 312.909 543.028 313.771 543.028 314.833V341.29C543.028 342.749 544.595 343.684 545.918 343.069C567.912 332.836 592.818 339.619 602.885 344.522C613.823 348.325 643.117 353.648 672.789 344.522C702.461 335.396 716.648 336.594 720.033 338.334C737.705 345.815 777.838 358.674 796.992 350.264Z" fill="white"/>
</g>
<path d="M797.007 343.502C813.859 336.102 829.961 339.011 838.15 342.203C839.497 342.728 841.045 341.77 841.045 340.324V308.071C841.045 307.009 840.184 306.147 839.121 306.147H544.967C543.905 306.147 543.043 307.009 543.043 308.071V334.529C543.043 335.987 544.611 336.922 545.933 336.307C567.928 326.074 592.833 332.857 602.9 337.761C613.838 341.563 643.132 346.887 672.804 337.761C702.476 328.634 716.664 329.832 720.049 331.572C737.721 339.053 777.853 351.912 797.007 343.502Z" fill="white"/>
<path d="M591.239 343.502C574.387 336.102 558.285 339.011 550.097 342.203C548.75 342.728 547.202 341.77 547.202 340.324V308.071C547.202 307.009 548.063 306.147 549.126 306.147H843.279C844.342 306.147 845.203 307.009 845.203 308.071V334.529C845.203 335.987 843.636 336.922 842.313 336.307C820.319 326.074 795.413 332.857 785.346 337.761C774.408 341.563 745.114 346.887 715.442 337.761C685.77 328.634 671.583 329.832 668.198 331.572C650.526 339.053 610.393 351.912 591.239 343.502Z" fill="#E2F9FF"/>
<path d="M598.091 336.791C581.239 329.391 565.137 332.3 556.948 335.492C555.601 336.017 554.053 335.059 554.053 333.613V301.36C554.053 300.298 554.915 299.437 555.977 299.437H850.131C851.193 299.437 852.055 300.298 852.055 301.36V327.818C852.055 329.276 850.487 330.211 849.165 329.596C827.17 319.364 802.265 326.146 792.198 331.05C781.26 334.852 751.966 340.176 722.294 331.05C692.622 321.924 678.434 323.121 675.05 324.861C657.378 332.342 617.245 345.201 598.091 336.791Z" fill="white"/>
<path d="M592.528 288.788C575.493 294.13 559.224 291.949 551.121 289.641C549.83 289.273 548.491 290.218 548.491 291.56V313.544C548.491 314.606 549.352 315.468 550.415 315.468H844.568C845.631 315.468 846.492 314.606 846.492 313.544V295.697C846.492 294.344 845.132 293.412 843.851 293.844C821.796 301.271 796.74 296.404 786.636 292.888C775.697 290.172 746.403 286.37 716.731 292.888C687.059 299.407 672.872 298.551 669.487 297.308C651.815 291.965 611.682 282.781 592.528 288.788Z" fill="white"/>
</g>
</g>
</g>
<mask id="path-90-inside-1_929_522" fill="white">
<rect x="274.438" y="41.543" width="227.987" height="121.402" rx="1.91184"/>
</mask>
<rect x="274.438" y="41.543" width="227.987" height="121.402" rx="1.91184" fill="#161616" stroke="#262626" stroke-width="14.3388" mask="url(#path-90-inside-1_929_522)"/>
<rect x="280.633" y="134.266" width="214.604" height="23.4201" fill="#4FCA56"/>
<mask id="path-92-inside-2_929_522" fill="white">
<rect x="523.719" y="41.543" width="227.987" height="121.402" rx="1.91184"/>
</mask>
<rect x="523.719" y="41.543" width="227.987" height="121.402" rx="1.91184" fill="#161616" stroke="#262626" stroke-width="14.3388" mask="url(#path-92-inside-2_929_522)"/>
<rect x="529.938" y="134.266" width="214.604" height="23.4201" fill="#19E3FF"/>
<mask id="path-94-inside-3_929_522" fill="white">
<rect x="25.1484" y="41.543" width="227.987" height="121.402" rx="1.91184"/>
</mask>
<rect x="25.1484" y="41.543" width="227.987" height="121.402" rx="1.91184" fill="#161616" stroke="#262626" stroke-width="14.3388" mask="url(#path-94-inside-3_929_522)"/>
<rect x="31.3438" y="134.266" width="214.604" height="23.4201" fill="#6C6C6C"/>
</g>
<defs>
<filter id="filter0_i_929_522" x="-37.6484" y="-0.320312" width="806.851" height="190.333" filterUnits="userSpaceOnUse" color-interpolation-filters="sRGB">
<feFlood flood-opacity="0" result="BackgroundImageFix"/>
<feBlend mode="normal" in="SourceGraphic" in2="BackgroundImageFix" result="shape"/>
<feColorMatrix in="SourceAlpha" type="matrix" values="0 0 0 0 0 0 0 0 0 0 0 0 0 0 0 0 0 0 127 0" result="hardAlpha"/>
<feOffset dy="24"/>
<feGaussianBlur stdDeviation="3.825"/>
<feComposite in2="hardAlpha" operator="arithmetic" k2="-1" k3="1"/>
<feColorMatrix type="matrix" values="0 0 0 0 0 0 0 0 0 0 0 0 0 0 0 0 0 0 0.25 0"/>
<feBlend mode="normal" in2="shape" result="effect1_innerShadow_929_522"/>
</filter>
<filter id="filter1_i_929_522" x="-1" y="300.383" width="767" height="162" filterUnits="userSpaceOnUse" color-interpolation-filters="sRGB">
<feFlood flood-opacity="0" result="BackgroundImageFix"/>
<feBlend mode="normal" in="SourceGraphic" in2="BackgroundImageFix" result="shape"/>
<feColorMatrix in="SourceAlpha" type="matrix" values="0 0 0 0 0 0 0 0 0 0 0 0 0 0 0 0 0 0 127 0" result="hardAlpha"/>
<feMorphology radius="9" operator="erode" in="SourceAlpha" result="effect1_innerShadow_929_522"/>
<feOffset/>
<feGaussianBlur stdDeviation="7.25"/>
<feComposite in2="hardAlpha" operator="arithmetic" k2="-1" k3="1"/>
<feColorMatrix type="matrix" values="0 0 0 0 0 0 0 0 0 0 0 0 0 0 0 0 0 0 0.45 0"/>
<feBlend mode="normal" in2="shape" result="effect1_innerShadow_929_522"/>
</filter>
<clipPath id="clip0_929_522">
<rect width="762" height="463" fill="white"/>
</clipPath>
<clipPath id="clip1_929_522">
<rect width="146" height="158" fill="white" transform="translate(314 301.383)"/>
</clipPath>
<clipPath id="clip2_929_522">
<rect width="148" height="162" fill="white" transform="translate(-1 300.383)"/>
</clipPath>
<clipPath id="clip3_929_522">
<rect width="148" height="162" fill="white" transform="matrix(-1 0 0 1 766 300.383)"/>
</clipPath>
</defs>
</svg>
