<svg width="1443" height="436" viewBox="0 0 1443 436" fill="none" xmlns="http://www.w3.org/2000/svg">
<g clip-path="url(#clip0_1573_702)">
<path d="M261.994 286.666L441.994 173.266H0.09375V286.666H261.994Z" fill="#2F2F2F"/>
<path d="M1159.87 285.814L991.588 157.355L1442.39 172.414V285.814H1159.87Z" fill="#2F2F2F"/>
<path d="M570.7 285.768L505 174.168H951.4L861.4 285.768H570.7Z" fill="#2F2F2F"/>
<g filter="url(#filter0_ii_1573_702)">
<rect x="-38.6016" y="1.36719" width="1503" height="172.8" fill="#535353"/>
</g>
<rect x="439.766" y="40.3789" width="64.0564" height="398.803" fill="#535353"/>
<rect x="949.125" y="40.3789" width="64.0564" height="398.803" fill="#535353"/>
<g clip-path="url(#clip1_1573_702)" filter="url(#filter1_i_1573_702)">
<rect width="291.6" height="149.4" transform="translate(569.805 285.766)" fill="#96DCFF"/>
<path d="M701.735 379.394C707.614 380.335 721.629 384.756 730.66 394.915C731.404 395.752 732.059 396.6 732.632 397.454C756.055 392.657 803.408 382.978 805.44 382.639C807.472 382.301 808.544 380.429 808.826 379.535H811.366L812.213 381.087C813.228 382.893 812.354 384.003 811.789 384.332L738.561 404.932C739.219 405.45 741.891 406.513 747.309 406.625C752.727 406.738 756.245 413.069 757.326 416.22C761.503 427.282 753.611 433.339 749.143 434.986C747.309 435.409 741.862 436.058 734.751 435.268C727.64 434.478 723.417 429.483 722.194 427.084L720.077 427.649C717.481 428.89 703.287 428.73 696.514 428.495C683.393 427.978 655.766 426.943 650.235 426.943C644.704 426.943 623.945 422.993 614.256 421.017C614.256 422.757 613.297 427.366 609.459 431.882C605.621 436.397 599.488 437.055 596.901 436.82C590.129 436.481 586.648 434.986 585.755 434.28C583.121 432.211 577.741 427.084 577.289 423.134C576.838 419.183 578.512 415.656 579.405 414.386C575.793 412.241 573.856 407.848 573.338 405.92C525.037 398.254 427.164 382.752 422.084 382.075C417.005 381.398 411.973 379.159 410.091 378.124C409.668 377.278 409.188 375.839 410.656 376.854C412.123 377.87 418.51 379.065 421.52 379.535L589 402.816L585.19 397.595L524.237 389.835L587.025 393.927C587.702 392.685 591.634 390.023 593.515 388.847L586.601 326.766H589.423C591.342 326.766 592.48 329.023 592.81 330.152C597.183 344.12 606.242 373.073 607.483 377.137C608.725 381.2 611.481 381.746 612.704 381.511L701.735 379.394Z" fill="white"/>
<path d="M694.958 394.531H729.84L731.904 397.584C732.895 399.05 732.592 399.416 732.317 399.416C721.446 399.484 698.921 399.62 695.784 399.62C692.646 399.62 692.137 399.348 692.275 399.213C692.275 395.793 694.064 394.667 694.958 394.531Z" fill="#838383"/>
<path d="M730.099 435.977L748.159 437.388L758.6 429.204L759.023 417.07L752.533 406.77L740.963 404.936C740.493 404.936 738.508 405.049 734.332 405.5C730.155 405.952 731.181 411.896 732.215 414.812L720.787 421.867L721.633 429.769L730.099 435.977Z" fill="#8BFF90"/>
<path d="M599.022 404.795L614.824 414.107L612.567 430.897L604.242 437.67H589.145L583.219 434.425L576.446 423.419V414.954L572.919 407.617L566.993 406.065L581.808 403.102L599.022 404.795Z" fill="#8BFF90"/>
<path d="M732.634 397.315L734.045 401.548V405.499L741.946 404.934L799.089 389.837L814.469 384.193L812.776 380.384L809.954 377.985L806.144 380.384L764.944 389.414L732.634 397.315Z" fill="#D9D9D9"/>
<path d="M567.976 399.29L639.229 409.873L619.475 416.927L609.881 411.425L597.888 405.922C596.242 405.452 592.724 404.708 591.821 405.499C590.918 406.289 586.741 407.051 584.766 407.333C579.348 407.671 575.548 406.721 574.325 406.204L486.564 393.929L431.395 384.899L408.538 378.832V375.445L421.942 377.844L567.976 399.29Z" fill="#D9D9D9"/>
<ellipse cx="13.5451" cy="14.6739" rx="13.5451" ry="14.6739" transform="matrix(-1 0 0 1 758.742 406.203)" fill="#959799"/>
<ellipse cx="11.1465" cy="11.5698" rx="11.1465" ry="11.5698" transform="matrix(-1 0 0 1 757.328 409.59)" fill="#272727"/>
<path d="M735.884 410.576L734.473 402.252C734.225 400.784 733.345 401.123 733.062 401.828L731.087 406.767C730.946 407.19 730.523 408.065 729.958 408.178C729.394 408.291 728.971 407.848 728.83 407.613C726.572 403.437 724.032 402.299 723.045 402.252H712.886C705.549 402.252 697.318 401.029 694.12 400.417C691.533 399.806 685.457 398.442 681.845 397.878C678.233 397.313 674.978 398.113 673.802 398.583L637.4 409.871L608.899 411.846L615.107 422.005L640.081 428.213L718.953 428.919L722.057 427.226L728.83 425.109C736.279 421.158 736.637 413.774 735.884 410.576Z" fill="#4FCA56"/>
<ellipse cx="14.815" cy="14.6739" rx="14.815" ry="14.6739" transform="matrix(-1 0 0 1 614.25 405.918)" fill="#959799"/>
<ellipse cx="12.1915" cy="11.5698" rx="12.1915" ry="11.5698" transform="matrix(-1 0 0 1 612.703 409.305)" fill="#272727"/>
<path d="M860.785 493.182C863.628 495.199 863.228 497.231 862.673 497.995C861.429 496.895 858.897 496.62 857.787 496.62C857.121 496.543 855.455 496.643 854.122 497.651C852.79 498.66 851.864 498.606 851.568 498.453L850.235 497.078C849.702 496.528 848.607 496.543 848.125 496.62C846.793 496.849 843.905 497.216 843.017 496.849C842.129 496.482 841.388 497.002 841.129 497.307C840.685 495.015 842.943 494.213 844.127 494.098C845.238 493.984 847.526 493.571 847.792 492.838C848.059 492.104 849.162 491.386 849.68 491.119C851.99 487.268 850.494 487.069 849.458 487.451C841.906 491.76 829.727 489.705 824.582 488.139C824.101 490.087 822.961 494.213 822.25 495.13C821.539 496.047 817.882 496.276 816.142 496.276C815.661 496.658 814.543 497.376 813.921 497.193C813.299 497.009 813.662 495.97 813.921 495.474C811.33 495.894 806.059 496.643 805.703 496.276C805.348 495.909 805.851 495.13 806.148 494.786C805.296 495.092 803.238 495.588 801.817 495.13C800.395 494.671 798.115 494.939 797.152 495.13C798.751 492.563 802.779 491.844 804.593 491.806C806.629 491.577 811.056 490.981 812.478 490.431C813.899 489.881 813.81 486.916 813.588 485.503C813.625 484.662 813.099 482.087 810.701 478.512C808.302 474.936 807.406 466.86 807.258 463.269L806.814 449.86C806.851 449.516 805.837 450.479 801.483 457.08C796.042 465.332 800.484 473.01 794.265 472.552C789.29 472.185 787.898 464.988 787.824 461.435C788.12 454.482 789.823 438.788 794.265 431.637C798.707 424.485 803.371 414.675 805.148 410.664L809.368 396.567C810.145 392.097 812.589 382.058 816.142 377.657C819.696 373.256 819.474 370.474 818.919 369.634C816.105 363.789 809.057 351.778 803.371 350.494C797.685 349.211 793.673 349.96 792.377 350.494C792.303 349.501 792.821 346.965 795.487 344.764C798.152 342.564 808.221 343.848 812.922 344.764C815.994 342.549 824.538 339.447 834.133 344.764C843.728 350.082 847.237 366.311 847.792 373.76C850.28 376.327 856.084 390.569 858.675 397.369C861.674 404.59 868.115 420.268 869.892 425.219C871.668 430.17 873.519 446.536 874.222 454.1C876.443 461.856 880.13 476.862 877.109 474.844C874.089 472.827 869.559 455.514 867.671 447.109C868.56 455.636 863.747 472.896 861.23 480.46L858.898 491.921L860.785 493.182Z" fill="#4FCA56"/>
<path fill-rule="evenodd" clip-rule="evenodd" d="M824.542 488.35C821.554 485.846 818.169 485.372 815.429 484.988C814.75 484.893 814.11 484.803 813.526 484.69C813.31 483.464 812.577 481.29 810.713 478.512C808.314 474.936 807.418 466.86 807.27 463.269L806.842 450.34L808.283 405.164V400.233L809.38 396.567C810.158 392.097 812.601 382.058 816.154 377.657C819.708 373.256 819.486 370.474 818.931 369.634C816.117 363.789 809.069 351.778 803.383 350.494C801.289 350.022 799.422 349.825 797.834 349.791C795.11 349.733 793.208 350.157 792.389 350.494C792.315 349.501 792.833 346.965 795.499 344.764C795.587 344.692 795.683 344.623 795.786 344.558C798.822 342.648 808.388 343.878 812.934 344.764C816.006 342.549 824.55 339.447 834.145 344.764C839.035 347.474 842.344 353.018 844.487 358.79C841.798 361.866 836.457 366.746 830.826 369.406C823.452 372.89 827.754 375.595 830.826 376.512C833.454 377.658 839.622 380.775 843.264 384.076C845.737 386.316 846.997 390.788 848.256 395.25C849.315 399.006 850.372 402.755 852.148 405.164C855.228 409.342 863.684 434.405 867.693 447.206C868.064 450.975 867.344 456.41 866.208 461.957C864.763 469.01 862.646 476.242 861.242 480.46L860.939 481.949C860.469 482.161 859.946 482.284 859.367 482.295C855.231 482.377 852.092 485.68 850.523 487.385C850.232 487.258 849.824 487.321 849.47 487.451C849.067 487.681 848.651 487.893 848.224 488.087C847.565 488.388 846.879 488.647 846.172 488.87C846.079 488.899 845.985 488.928 845.891 488.956C845.255 489.147 844.603 489.308 843.939 489.444C843.894 489.453 843.848 489.462 843.803 489.471L843.721 489.487L843.693 489.493C842.51 489.722 841.293 489.869 840.069 489.95C835.366 490.26 830.554 489.588 827.107 488.8C826.155 488.582 825.307 488.356 824.594 488.139C824.578 488.207 824.56 488.277 824.542 488.35ZM867.82 447.714C867.792 447.589 867.763 447.464 867.736 447.342C867.76 447.418 867.783 447.494 867.807 447.569L867.82 447.714ZM797.477 350.531C797.477 350.53 797.477 350.527 797.478 350.523L797.479 350.521C797.477 350.53 797.477 350.533 797.477 350.531Z" fill="white"/>
<path d="M814.348 361.484C811.083 356.379 806.955 351.304 803.37 350.494C801.276 350.022 799.409 349.825 797.821 349.791C795.097 349.733 793.194 350.157 792.376 350.494C792.302 349.501 792.82 346.965 795.485 344.764C795.573 344.692 795.669 344.623 795.773 344.558C798.809 342.648 808.374 343.878 812.92 344.764C815.993 342.549 824.537 339.447 834.131 344.764C834.676 345.066 835.201 345.403 835.707 345.772C837.013 351.944 837.017 361.416 829.022 362.872C822.947 363.979 817.797 362.88 814.348 361.484Z" fill="#4FCA56"/>
<path d="M797.465 350.523C797.463 350.535 797.463 350.535 797.465 350.521L797.465 350.523Z" fill="#4FCA56"/>
<path fill-rule="evenodd" clip-rule="evenodd" d="M812.906 344.765C810.427 348.232 810.466 353.772 811.797 357.791C809.079 354.144 806.066 351.106 803.361 350.496C801.267 350.023 799.4 349.826 797.812 349.792C795.088 349.735 793.185 350.158 792.367 350.496C792.293 349.502 792.811 346.966 795.476 344.766C795.564 344.693 795.66 344.624 795.764 344.559C798.799 342.65 808.358 343.878 812.906 344.765ZM797.456 350.525C797.453 350.537 797.454 350.536 797.456 350.522L797.456 350.525Z" fill="#FF7134"/>
<ellipse cx="2.99841" cy="2.06294" rx="2.99841" ry="2.06294" transform="matrix(-1 0 0 1 828.359 346.828)" fill="white"/>
<ellipse cx="1.44368" cy="1.4899" rx="1.44368" ry="1.4899" transform="matrix(-1 0 0 1 826.359 347.516)" fill="#323232"/>
<path d="M848.532 375.705C845.143 373.447 842.885 378.061 831.591 379.003C822.179 379.003 821.802 373.446 818.414 375.705C815.026 377.963 805.081 381.665 800.532 383.233C798.492 383.39 795.167 387.468 798.179 402.527C798.336 405.351 797.802 411.374 794.414 412.88V453.351L832.061 453.353H869.708V412.882C866.32 411.376 865.787 405.353 865.943 402.529C868.955 387.47 865.63 383.392 863.591 383.235C859.042 381.667 851.92 377.964 848.532 375.705Z" fill="#B3FF50"/>
<path fill-rule="evenodd" clip-rule="evenodd" d="M869.711 433.593H794.417V427.005H805.24V420.416C803.985 417.279 801.663 410.722 802.416 409.593C803.169 408.463 802.417 404.416 801.946 402.534C800.312 394.688 802.107 386.51 803.636 382.131C805.645 381.398 807.985 380.511 810.244 379.594C809.732 381.641 809.022 383.533 808.063 384.652C805.804 387.287 808.377 413.671 809.946 426.534H856.534C857.004 413.358 857.852 386.534 857.475 384.652C857.099 382.769 855.75 381.044 855.122 380.416C855.423 380.416 856.148 380.532 857.223 380.911C857.468 381.005 857.713 381.098 857.955 381.19C858.382 381.364 858.851 381.575 859.358 381.828C861.616 382.958 863.436 385.75 864.063 387.005V396.887C864.063 401.781 862.495 406.142 861.71 407.711L862.181 427.005H869.711V433.593Z" fill="#F9F9F9"/>
<g opacity="0.7">
<g opacity="0.77">
<path d="M937.038 331.694C966.938 318.565 995.507 323.725 1010.04 329.389C1012.43 330.321 1015.17 328.62 1015.17 326.055V268.832C1015.17 266.946 1013.64 265.418 1011.76 265.418H489.858C487.972 265.418 486.444 266.946 486.444 268.832V315.773C486.444 318.361 489.225 320.019 491.571 318.928C530.595 300.773 574.784 312.807 592.645 321.507C612.052 328.254 664.027 337.699 716.672 321.507C769.317 305.315 794.489 307.441 800.495 310.528C831.849 323.8 903.054 346.616 937.038 331.694Z" fill="white"/>
<path d="M571.977 331.694C542.078 318.565 513.509 323.725 498.98 329.389C496.59 330.321 493.844 328.62 493.844 326.055V268.832C493.844 266.946 495.372 265.418 497.257 265.418H1019.16C1021.04 265.418 1022.57 266.946 1022.57 268.832V315.773C1022.57 318.361 1019.79 320.019 1017.44 318.928C978.421 300.773 934.232 312.807 916.371 321.507C896.964 328.254 844.989 337.699 792.344 321.507C739.698 305.315 714.526 307.441 708.521 310.528C677.166 323.8 605.961 346.616 571.977 331.694Z" fill="#E2F9FF"/>
<path d="M584.118 319.788C554.218 306.659 525.65 311.819 511.121 317.483C508.731 318.415 505.984 316.714 505.984 314.149V256.925C505.984 255.04 507.513 253.512 509.398 253.512H1031.3C1033.18 253.512 1034.71 255.04 1034.71 256.925V303.867C1034.71 306.454 1031.93 308.113 1029.58 307.022C990.561 288.867 946.373 300.901 928.512 309.601C909.105 316.348 857.129 325.793 804.484 309.601C751.839 293.409 726.667 295.535 720.662 298.621C689.307 311.894 618.102 334.71 584.118 319.788Z" fill="white"/>
</g>
<path d="M584.118 307.795C554.218 294.667 525.65 299.827 511.121 305.491C508.731 306.423 505.984 304.722 505.984 302.157V244.933C505.984 243.048 507.513 241.52 509.398 241.52H1031.3C1033.18 241.52 1034.71 243.048 1034.71 244.933V291.875C1034.71 294.462 1031.93 296.121 1029.58 295.03C990.561 276.875 946.373 288.909 928.512 297.609C909.105 304.356 857.129 313.801 804.484 297.609C751.839 281.417 726.667 283.542 720.662 286.629C689.307 299.902 618.102 322.717 584.118 307.795Z" fill="white"/>
<path d="M949.179 307.795C979.079 294.667 1007.65 299.827 1022.18 305.491C1024.57 306.423 1027.31 304.722 1027.31 302.157V244.933C1027.31 243.048 1025.78 241.52 1023.9 241.52H501.998C500.113 241.52 498.585 243.048 498.585 244.933V291.875C498.585 294.462 501.366 296.121 503.712 295.03C542.736 276.875 586.924 288.909 604.785 297.609C624.192 304.356 676.167 313.801 728.813 297.609C781.458 281.417 806.63 283.542 812.635 286.629C843.99 299.902 915.195 322.717 949.179 307.795Z" fill="#E2F9FF"/>
<path d="M937.038 295.889C966.938 282.761 995.507 287.92 1010.04 293.585C1012.43 294.516 1015.17 292.816 1015.17 290.251V233.027C1015.17 231.142 1013.64 229.613 1011.76 229.613H489.858C487.972 229.613 486.444 231.142 486.444 233.027V279.969C486.444 282.556 489.225 284.215 491.571 283.123C530.595 264.969 574.784 277.002 592.645 285.703C612.052 292.449 664.027 301.895 716.672 285.703C769.317 269.511 794.489 271.636 800.495 274.723C831.849 287.996 903.054 310.811 937.038 295.889Z" fill="white"/>
</g>
</g>
<g clip-path="url(#clip2_1573_702)" filter="url(#filter2_i_1573_702)">
<rect width="283.294" height="149.647" transform="translate(1159.59 286.297)" fill="#96DCFF"/>
<path d="M1257.23 382.688L1257.28 382.689L1346.31 384.806L1346.35 384.807L1346.38 384.814C1347.36 385.002 1349.89 384.607 1351.07 380.765C1352.31 376.7 1361.37 347.75 1365.74 333.782C1365.92 333.172 1366.31 332.268 1366.92 331.507C1367.53 330.745 1368.42 330.061 1369.58 330.061H1372.4H1372.92L1372.87 330.583L1365.99 392.372C1366.93 392.97 1368.26 393.856 1369.46 394.75C1370.12 395.239 1370.75 395.734 1371.25 396.19C1371.64 396.537 1371.99 396.885 1372.22 397.205L1434.73 393.131L1434.82 394.068L1374.07 401.802L1371.03 405.963L1537.41 382.836C1537.41 382.836 1537.41 382.835 1537.41 382.835C1538.91 382.601 1541.25 382.187 1543.39 381.706C1544.46 381.465 1545.48 381.209 1546.31 380.952C1547.17 380.689 1547.78 380.441 1548.08 380.233C1548.27 380.096 1548.45 379.99 1548.62 379.918C1548.77 379.849 1548.95 379.794 1549.13 379.801C1549.33 379.807 1549.53 379.893 1549.66 380.075C1549.77 380.233 1549.8 380.412 1549.81 380.542C1549.81 380.8 1549.74 381.095 1549.65 381.344C1549.56 381.606 1549.44 381.875 1549.33 382.1L1549.26 382.232L1549.14 382.302C1547.22 383.355 1542.13 385.62 1536.98 386.307C1531.92 386.982 1434.44 402.42 1386.03 410.103C1385.72 411.117 1385.12 412.592 1384.19 414.086C1383.24 415.61 1381.94 417.179 1380.25 418.296C1381.21 419.875 1382.6 423.225 1382.18 426.953C1381.94 429.079 1380.39 431.442 1378.65 433.483C1376.9 435.545 1374.87 437.365 1373.54 438.416M1257.23 382.688L1373.25 438.046M1257.23 382.688L1257.19 382.695M1257.23 382.688L1257.19 382.695M1373.54 438.416L1373.25 438.046M1373.54 438.416C1373.54 438.416 1373.54 438.415 1373.54 438.415L1373.25 438.046M1373.54 438.416C1373.02 438.826 1371.85 439.397 1370 439.907C1368.14 440.421 1365.54 440.884 1362.13 441.055M1373.25 438.046C1372.35 438.751 1368.87 440.247 1362.1 440.585M1362.13 441.055C1362.13 441.055 1362.14 441.054 1362.14 441.054L1362.1 440.585M1362.13 441.055C1362.13 441.055 1362.13 441.055 1362.12 441.055L1362.1 440.585M1362.13 441.055L1362.1 440.585M1257.19 382.695C1251.25 383.645 1237.12 388.097 1227.99 398.368C1227.31 399.135 1226.7 399.912 1226.16 400.696C1202.64 395.88 1155.67 386.28 1153.64 385.941C1152.75 385.793 1152.07 385.312 1151.56 384.747C1151.05 384.178 1150.74 383.546 1150.62 383.159L1150.52 382.83H1150.17H1147.63H1147.35L1147.22 383.075L1146.38 384.622C1146.38 384.623 1146.38 384.624 1146.38 384.625C1145.82 385.619 1145.75 386.478 1145.96 387.164C1146.16 387.834 1146.6 388.286 1146.97 388.505L1147.03 388.535L1147.08 388.551L1219.14 408.822C1218.77 408.957 1218.31 409.101 1217.74 409.239C1216.35 409.574 1214.36 409.865 1211.68 409.921C1208.78 409.981 1206.43 411.704 1204.7 413.744C1202.96 415.785 1201.79 418.206 1201.23 419.826C1199.09 425.491 1200.04 429.926 1202.13 433.155C1204.2 436.361 1207.39 438.343 1209.69 439.193L1209.72 439.203M1257.19 382.695L1209.72 439.203M1209.72 439.203L1209.75 439.21L1209.72 439.203ZM1344.27 424.878C1344.43 424.846 1344.59 424.814 1344.74 424.783C1344.74 424.923 1344.75 425.083 1344.76 425.259C1344.61 425.29 1344.46 425.322 1344.3 425.353C1344.28 425.181 1344.28 425.022 1344.27 424.878ZM1238.76 431.858L1238.8 431.869L1238.92 431.414L1238.72 431.839C1238.73 431.845 1238.75 431.852 1238.76 431.858ZM1379.85 418.546C1379.76 418.397 1379.67 418.265 1379.59 418.151C1379.73 418.071 1379.86 417.987 1379.99 417.901L1379.85 418.546ZM1237.23 431.064L1236.81 430.85L1236.68 431.305L1237.04 431.4C1237.11 431.284 1237.17 431.171 1237.23 431.064Z" fill="white" stroke="#96DCFF" stroke-width="0.941176"/>
<path d="M1264.04 398.297H1229.16L1227.1 401.35C1226.11 402.815 1226.41 403.182 1226.68 403.182C1237.55 403.25 1260.08 403.385 1263.22 403.385C1266.35 403.385 1266.86 403.114 1266.73 402.978C1266.73 399.559 1264.94 398.433 1264.04 398.297Z" fill="#838383"/>
<path d="M1228.9 439.742L1210.84 441.153L1200.4 432.97L1199.98 420.836L1206.47 410.536L1218.04 408.701C1218.51 408.701 1220.49 408.814 1224.67 409.266C1228.84 409.717 1227.82 415.662 1226.78 418.578L1238.21 425.633L1237.37 433.534L1228.9 439.742Z" fill="#41B4E1"/>
<path d="M1359.98 408.56L1344.18 417.873L1346.43 434.663L1354.76 441.436H1369.86L1375.78 438.19L1382.55 427.185V418.719L1386.08 411.382L1392.01 409.83L1377.19 406.867L1359.98 408.56Z" fill="#41B4E1"/>
<path d="M1228.9 439.742L1210.84 441.153L1200.4 432.97L1199.98 420.836L1206.47 410.536L1218.04 408.701C1218.51 408.701 1220.49 408.814 1224.67 409.266C1228.84 409.717 1227.82 415.662 1226.78 418.578L1238.21 425.633L1237.37 433.534L1228.9 439.742Z" stroke="#96DCFF" stroke-width="0.941176"/>
<path d="M1359.98 408.56L1344.18 417.873L1346.43 434.663L1354.76 441.436H1369.86L1375.78 438.19L1382.55 427.185V418.719L1386.08 411.382L1392.01 409.83L1377.19 406.867L1359.98 408.56Z" stroke="#96DCFF" stroke-width="0.941176"/>
<path d="M1226.37 401.081L1224.96 405.314V409.264L1217.05 408.7L1159.91 393.603L1144.53 387.959L1146.22 384.149L1149.05 381.751L1152.86 384.149L1194.06 393.179L1226.37 401.081Z" fill="#D9D9D9"/>
<path d="M1391.02 403.056L1319.77 413.638L1339.52 420.693L1349.12 415.19L1361.11 409.687C1362.76 409.217 1366.28 408.474 1367.18 409.264C1368.08 410.054 1372.26 410.816 1374.23 411.098C1379.65 411.437 1383.45 410.487 1384.68 409.97L1472.44 397.694L1527.6 388.664L1550.46 382.597V379.211L1537.06 381.61L1391.02 403.056Z" fill="#D9D9D9"/>
<path d="M1226.37 401.081L1224.96 405.314V409.264L1217.05 408.7L1159.91 393.603L1144.53 387.959L1146.22 384.149L1149.05 381.751L1152.86 384.149L1194.06 393.179L1226.37 401.081Z" stroke="#96DCFF" stroke-width="0.941176"/>
<path d="M1391.02 403.056L1319.77 413.638L1339.52 420.693L1349.12 415.19L1361.11 409.687C1362.76 409.217 1366.28 408.474 1367.18 409.264C1368.08 410.054 1372.26 410.816 1374.23 411.098C1379.65 411.437 1383.45 410.487 1384.68 409.97L1472.44 397.694L1527.6 388.664L1550.46 382.597V379.211L1537.06 381.61L1391.02 403.056Z" stroke="#96DCFF" stroke-width="0.941176"/>
<path d="M1226.88 424.643C1226.88 432.523 1220.99 438.846 1213.8 438.846C1206.62 438.846 1200.73 432.523 1200.73 424.643C1200.73 416.762 1206.62 410.439 1213.8 410.439C1220.99 410.439 1226.88 416.762 1226.88 424.643Z" fill="#959799" stroke="#96DCFF" stroke-width="0.941176"/>
<path d="M1223.49 424.925C1223.49 431.072 1218.7 436.024 1212.82 436.024C1206.94 436.024 1202.14 431.072 1202.14 424.925C1202.14 418.779 1206.94 413.826 1212.82 413.826C1218.7 413.826 1223.49 418.779 1223.49 424.925Z" fill="#272727" stroke="#96DCFF" stroke-width="0.941176"/>
<path d="M1223.12 414.342L1224.53 406.017C1224.78 404.55 1225.66 404.889 1225.94 405.594L1227.91 410.532C1228.05 410.956 1228.48 411.83 1229.04 411.943C1229.61 412.056 1230.03 411.614 1230.17 411.379C1232.43 407.202 1234.97 406.064 1235.96 406.017H1246.11C1253.45 406.017 1261.68 404.794 1264.88 404.183C1267.47 403.572 1273.54 402.208 1277.16 401.643C1280.77 401.079 1284.02 401.878 1285.2 402.349L1321.6 413.636L1350.1 415.612L1343.89 425.771L1318.92 431.979L1240.05 432.684L1236.94 430.991L1230.17 428.875C1222.72 424.924 1222.36 417.54 1223.12 414.342Z" fill="#00B7FF" stroke="#96DCFF" stroke-width="0.941176"/>
<path d="M1373.91 424.357C1373.91 432.198 1367.49 438.561 1359.56 438.561C1351.64 438.561 1345.22 432.198 1345.22 424.357C1345.22 416.517 1351.64 410.154 1359.56 410.154C1367.49 410.154 1373.91 416.517 1373.91 424.357Z" fill="#959799" stroke="#96DCFF" stroke-width="0.941176"/>
<path d="M1370.21 424.64C1370.21 430.747 1364.99 435.739 1358.49 435.739C1351.99 435.739 1346.77 430.747 1346.77 424.64C1346.77 418.533 1351.99 413.541 1358.49 413.541C1364.99 413.541 1370.21 418.533 1370.21 424.64Z" fill="#272727" stroke="#96DCFF" stroke-width="0.941176"/>
<path d="M1257.23 382.688L1257.28 382.689L1346.31 384.806L1346.35 384.807L1346.38 384.814C1347.36 385.002 1349.89 384.607 1351.07 380.765C1352.31 376.7 1361.37 347.75 1365.74 333.782C1365.92 333.172 1366.31 332.268 1366.92 331.507C1367.53 330.745 1368.42 330.061 1369.58 330.061H1372.4H1372.92L1372.87 330.583L1365.99 392.372C1366.93 392.97 1368.26 393.856 1369.46 394.75C1370.12 395.239 1370.75 395.734 1371.25 396.19C1371.64 396.537 1371.99 396.885 1372.22 397.205L1434.73 393.131L1434.82 394.068L1374.07 401.802L1371.03 405.963L1537.41 382.836C1537.41 382.836 1537.41 382.835 1537.41 382.835C1538.91 382.601 1541.25 382.187 1543.39 381.706C1544.46 381.465 1545.48 381.209 1546.31 380.952C1547.17 380.689 1547.78 380.441 1548.08 380.233C1548.27 380.096 1548.45 379.99 1548.62 379.918C1548.77 379.849 1548.95 379.794 1549.13 379.801C1549.33 379.807 1549.53 379.893 1549.66 380.075C1549.77 380.233 1549.8 380.412 1549.81 380.542C1549.81 380.8 1549.74 381.095 1549.65 381.344C1549.56 381.606 1549.44 381.875 1549.33 382.1L1549.26 382.232L1549.14 382.302C1547.22 383.355 1542.13 385.62 1536.98 386.307C1531.92 386.982 1434.44 402.42 1386.03 410.103C1385.72 411.117 1385.12 412.592 1384.19 414.086C1383.24 415.61 1381.94 417.179 1380.25 418.296C1381.21 419.875 1382.6 423.225 1382.18 426.953C1381.94 429.079 1380.39 431.442 1378.65 433.483C1376.9 435.545 1374.87 437.365 1373.54 438.416M1257.23 382.688L1373.25 438.046M1257.23 382.688L1257.19 382.695M1257.23 382.688L1257.19 382.695M1373.54 438.416L1373.25 438.046M1373.54 438.416C1373.54 438.416 1373.54 438.415 1373.54 438.415L1373.25 438.046M1373.54 438.416C1373.02 438.826 1371.85 439.397 1370 439.907C1368.14 440.421 1365.54 440.884 1362.13 441.055M1373.25 438.046C1372.35 438.751 1368.87 440.247 1362.1 440.585M1362.13 441.055C1362.13 441.055 1362.14 441.054 1362.14 441.054L1362.1 440.585M1362.13 441.055C1362.13 441.055 1362.13 441.055 1362.12 441.055L1362.1 440.585M1362.13 441.055L1362.1 440.585M1257.19 382.695C1251.25 383.645 1237.12 388.097 1227.99 398.368C1227.31 399.135 1226.7 399.912 1226.16 400.696C1202.64 395.88 1155.67 386.28 1153.64 385.941C1152.75 385.793 1152.07 385.312 1151.56 384.747C1151.05 384.178 1150.74 383.546 1150.62 383.159L1150.52 382.83H1150.17H1147.63H1147.35L1147.22 383.075L1146.38 384.622C1146.38 384.623 1146.38 384.624 1146.38 384.625C1145.82 385.619 1145.75 386.478 1145.96 387.164C1146.16 387.834 1146.6 388.286 1146.97 388.505L1147.03 388.535L1147.08 388.551L1219.14 408.822C1218.77 408.957 1218.31 409.101 1217.74 409.239C1216.35 409.574 1214.36 409.865 1211.68 409.921C1208.78 409.981 1206.43 411.704 1204.7 413.744C1202.96 415.785 1201.79 418.206 1201.23 419.826C1199.09 425.491 1200.04 429.926 1202.13 433.155C1204.2 436.361 1207.39 438.343 1209.69 439.193L1209.72 439.203M1257.19 382.695L1209.72 439.203M1209.72 439.203L1209.75 439.21L1209.72 439.203ZM1344.27 424.878C1344.43 424.846 1344.59 424.814 1344.74 424.783C1344.74 424.923 1344.75 425.083 1344.76 425.259C1344.61 425.29 1344.46 425.322 1344.3 425.353C1344.28 425.181 1344.28 425.022 1344.27 424.878ZM1238.76 431.858L1238.8 431.869L1238.92 431.414L1238.72 431.839C1238.73 431.845 1238.75 431.852 1238.76 431.858ZM1379.85 418.546C1379.76 418.397 1379.67 418.265 1379.59 418.151C1379.73 418.071 1379.86 417.987 1379.99 417.901L1379.85 418.546ZM1237.23 431.064L1236.81 430.85L1236.68 431.305L1237.04 431.4C1237.11 431.284 1237.17 431.171 1237.23 431.064Z" stroke="#96DCFF" stroke-width="0.941176"/>
<path d="M1420.45 479.592C1423.29 481.609 1422.89 483.641 1422.34 484.405C1421.09 483.305 1418.56 483.03 1417.45 483.03C1416.78 482.953 1415.12 483.053 1413.79 484.061C1412.45 485.07 1411.53 485.016 1411.23 484.864L1409.9 483.488C1409.37 482.938 1408.27 482.953 1407.79 483.03C1406.46 483.259 1403.57 483.626 1402.68 483.259C1401.79 482.892 1401.05 483.412 1400.79 483.717C1400.35 481.425 1402.61 480.623 1403.79 480.508C1404.9 480.394 1407.19 479.981 1407.46 479.248C1407.72 478.514 1408.83 477.796 1409.34 477.529C1411.65 473.678 1410.16 473.479 1409.12 473.861C1401.57 478.17 1389.39 476.115 1384.25 474.549C1383.77 476.497 1382.62 480.623 1381.91 481.54C1381.2 482.457 1377.55 482.686 1375.81 482.686C1375.33 483.068 1374.21 483.786 1373.59 483.603C1372.96 483.42 1373.33 482.38 1373.59 481.884C1370.99 482.304 1365.72 483.053 1365.37 482.686C1365.01 482.319 1365.52 481.54 1365.81 481.196C1364.96 481.502 1362.9 481.998 1361.48 481.54C1360.06 481.082 1357.78 481.349 1356.82 481.54C1358.42 478.973 1362.44 478.255 1364.26 478.216C1366.29 477.987 1370.72 477.391 1372.14 476.841C1373.56 476.291 1373.47 473.326 1373.25 471.913C1373.29 471.072 1372.76 468.498 1370.36 464.922C1367.97 461.346 1367.07 453.27 1366.92 449.679L1366.48 436.27C1366.51 435.926 1365.5 436.889 1361.15 443.49C1355.71 451.742 1360.15 459.421 1353.93 458.962C1348.95 458.595 1347.56 451.398 1347.49 447.845C1347.78 440.892 1349.49 425.199 1353.93 418.047C1358.37 410.896 1363.04 401.085 1364.81 397.074L1369.03 382.977C1369.81 378.507 1372.25 368.468 1375.81 364.067C1379.36 359.666 1379.14 356.885 1378.58 356.044C1375.77 350.199 1368.72 338.188 1363.04 336.905C1357.35 335.621 1353.34 336.37 1352.04 336.905C1351.97 335.911 1352.49 333.375 1355.15 331.175C1357.82 328.974 1367.88 330.258 1372.59 331.175C1375.66 328.959 1384.2 325.857 1393.8 331.175C1403.39 336.492 1406.9 352.721 1407.46 360.17C1409.94 362.738 1415.75 376.98 1418.34 383.78C1421.34 391 1427.78 406.678 1429.56 411.629C1431.33 416.58 1433.18 432.946 1433.89 440.511C1436.11 448.266 1439.79 463.272 1436.77 461.255C1433.75 459.238 1429.22 441.924 1427.34 433.519C1428.22 442.046 1423.41 459.306 1420.89 466.87L1418.56 478.331L1420.45 479.592Z" fill="#19E3FF"/>
<path fill-rule="evenodd" clip-rule="evenodd" d="M1384.21 474.756C1381.22 472.252 1377.83 471.778 1375.09 471.394C1374.41 471.299 1373.77 471.209 1373.19 471.096C1372.97 469.87 1372.24 467.696 1370.38 464.918C1367.98 461.342 1367.08 453.266 1366.93 449.675L1366.51 436.746L1367.95 391.57V386.64L1369.04 382.973C1369.82 378.503 1372.26 368.464 1375.82 364.063C1379.37 359.662 1379.15 356.881 1378.59 356.04C1375.78 350.195 1368.73 338.184 1363.05 336.901C1360.95 336.428 1359.09 336.231 1357.5 336.197C1354.77 336.14 1352.87 336.563 1352.05 336.901C1351.98 335.907 1352.5 333.371 1355.16 331.171C1355.25 331.098 1355.35 331.029 1355.45 330.964C1358.49 329.055 1368.05 330.284 1372.6 331.171C1375.67 328.955 1384.21 325.853 1393.81 331.171C1398.7 333.881 1402.01 339.425 1404.15 345.196C1401.46 348.273 1396.12 353.152 1390.49 355.812C1383.12 359.296 1387.42 362.001 1390.49 362.918C1393.12 364.064 1399.29 367.182 1402.93 370.482C1405.4 372.723 1406.66 377.194 1407.92 381.657C1408.98 385.412 1410.04 389.161 1411.81 391.57C1414.89 395.748 1423.35 420.812 1427.36 433.612C1427.73 437.381 1427.01 442.816 1425.87 448.363C1424.43 455.416 1422.31 462.649 1420.91 466.867L1420.6 468.356C1420.13 468.568 1419.61 468.69 1419.03 468.701C1414.89 468.783 1411.76 472.086 1410.19 473.792C1409.9 473.664 1409.49 473.727 1409.13 473.857C1408.73 474.087 1408.32 474.299 1407.89 474.494C1407.23 474.794 1406.54 475.053 1405.84 475.276C1405.74 475.306 1405.65 475.334 1405.55 475.363C1404.92 475.553 1404.27 475.715 1403.6 475.85C1403.56 475.859 1403.51 475.868 1403.47 475.878L1403.38 475.894L1403.36 475.899C1402.17 476.128 1400.96 476.275 1399.73 476.356C1395.03 476.666 1390.22 475.994 1386.77 475.206C1385.82 474.988 1384.97 474.762 1384.26 474.545C1384.24 474.613 1384.22 474.683 1384.21 474.756ZM1427.48 434.121C1427.46 433.995 1427.43 433.871 1427.4 433.748C1427.42 433.824 1427.45 433.9 1427.47 433.975L1427.48 434.121ZM1357.14 336.937C1357.14 336.936 1357.14 336.934 1357.14 336.93L1357.14 336.927C1357.14 336.936 1357.14 336.94 1357.14 336.937Z" fill="white"/>
<path d="M1374.01 347.894C1370.75 342.789 1366.62 337.714 1363.03 336.905C1360.94 336.432 1359.07 336.235 1357.48 336.201C1354.76 336.144 1352.86 336.567 1352.04 336.905C1351.97 335.911 1352.48 333.375 1355.15 331.175C1355.24 331.102 1355.33 331.033 1355.44 330.968C1358.47 329.059 1368.04 330.288 1372.58 331.175C1375.66 328.959 1384.2 325.857 1393.8 331.175C1394.34 331.476 1394.87 331.813 1395.37 332.182C1396.68 338.354 1396.68 347.826 1388.69 349.282C1382.61 350.389 1377.46 349.291 1374.01 347.894Z" fill="#19E3FF"/>
<path d="M1357.13 336.934C1357.13 336.946 1357.13 336.945 1357.13 336.931L1357.13 336.934Z" fill="#19E3FF"/>
<path fill-rule="evenodd" clip-rule="evenodd" d="M1372.58 331.175C1370.1 334.642 1370.14 340.182 1371.47 344.202C1368.75 340.555 1365.74 337.517 1363.03 336.906C1360.94 336.433 1359.07 336.236 1357.48 336.202C1354.76 336.145 1352.86 336.568 1352.04 336.906C1351.96 335.913 1352.48 333.376 1355.15 331.176C1355.24 331.103 1355.33 331.034 1355.44 330.969C1358.47 329.061 1368.03 330.288 1372.58 331.175ZM1357.13 336.935C1357.13 336.947 1357.13 336.946 1357.13 336.932L1357.13 336.935Z" fill="#FF7134"/>
<ellipse cx="2.99841" cy="2.06294" rx="2.99841" ry="2.06294" transform="matrix(-1 0 0 1 1388.02 333.234)" fill="white"/>
<ellipse cx="1.44368" cy="1.4899" rx="1.44368" ry="1.4899" transform="matrix(-1 0 0 1 1386.02 333.922)" fill="#323232"/>
<path d="M1408.2 362.116C1404.81 359.857 1402.55 364.472 1391.25 365.413C1381.84 365.413 1381.47 359.856 1378.08 362.115C1374.69 364.374 1364.74 368.075 1360.2 369.643C1358.16 369.8 1354.83 373.879 1357.84 388.937C1358 391.761 1357.47 397.785 1354.08 399.29V439.761L1391.73 439.763H1429.37V399.292C1425.98 397.786 1425.45 391.763 1425.61 388.939C1428.62 373.88 1425.29 369.802 1423.25 369.645C1418.71 368.077 1411.58 364.374 1408.2 362.116Z" fill="#303BFF"/>
<path fill-rule="evenodd" clip-rule="evenodd" d="M1429.38 420.003H1354.08V413.415H1364.9V406.827C1363.65 403.689 1361.33 397.132 1362.08 396.003C1362.83 394.874 1362.08 390.827 1361.61 388.944C1359.98 381.098 1361.77 372.92 1363.3 368.541C1365.31 367.808 1367.65 366.921 1369.91 366.004C1369.4 368.052 1368.69 369.944 1367.73 371.062C1365.47 373.697 1368.04 400.081 1369.61 412.944H1416.2C1416.67 399.768 1417.52 372.944 1417.14 371.062C1416.76 369.18 1415.41 367.454 1414.79 366.827C1415.09 366.827 1415.81 366.942 1416.89 367.321C1417.13 367.415 1417.38 367.508 1417.62 367.6C1418.05 367.774 1418.52 367.985 1419.02 368.238C1421.28 369.368 1423.1 372.16 1423.73 373.415V383.297C1423.73 388.191 1422.16 392.552 1421.37 394.121L1421.85 413.415H1429.38V420.003Z" fill="#F9F9F9"/>
<g opacity="0.7">
<g opacity="0.77">
<path d="M1527.16 332.635C1557.06 319.507 1585.62 324.667 1600.15 330.331C1602.54 331.263 1605.29 329.562 1605.29 326.997V269.773C1605.29 267.888 1603.76 266.359 1601.88 266.359H1079.97C1078.09 266.359 1076.56 267.888 1076.56 269.773V316.715C1076.56 319.302 1079.34 320.961 1081.69 319.869C1120.71 301.715 1164.9 313.748 1182.76 322.449C1202.17 329.196 1254.14 338.641 1306.79 322.449C1359.43 306.257 1384.61 308.382 1390.61 311.469C1421.97 324.742 1493.17 347.557 1527.16 332.635Z" fill="white"/>
<path d="M1162.09 332.635C1132.19 319.507 1103.63 324.667 1089.1 330.331C1086.71 331.263 1083.96 329.562 1083.96 326.997V269.773C1083.96 267.888 1085.49 266.359 1087.37 266.359H1609.28C1611.16 266.359 1612.69 267.888 1612.69 269.773V316.715C1612.69 319.302 1609.91 320.961 1607.56 319.869C1568.54 301.715 1524.35 313.748 1506.49 322.449C1487.08 329.196 1435.11 338.641 1382.46 322.449C1329.82 306.257 1304.64 308.382 1298.64 311.469C1267.28 324.742 1196.08 347.557 1162.09 332.635Z" fill="#E2F9FF"/>
<path d="M1174.23 320.729C1144.34 307.6 1115.77 312.76 1101.24 318.425C1098.85 319.356 1096.1 317.656 1096.1 315.091V257.867C1096.1 255.981 1097.63 254.453 1099.52 254.453H1621.42C1623.3 254.453 1624.83 255.981 1624.83 257.867V304.808C1624.83 307.396 1622.05 309.055 1619.7 307.963C1580.68 289.809 1536.49 301.842 1518.63 310.543C1499.22 317.289 1447.25 326.735 1394.6 310.543C1341.96 294.351 1316.78 296.476 1310.78 299.563C1279.42 312.836 1208.22 335.651 1174.23 320.729Z" fill="white"/>
</g>
<path d="M1174.23 308.737C1144.33 295.608 1115.76 300.768 1101.23 306.432C1098.84 307.364 1096.09 305.663 1096.09 303.098V245.875C1096.09 243.989 1097.62 242.461 1099.51 242.461H1621.41C1623.29 242.461 1624.82 243.989 1624.82 245.875V292.816C1624.82 295.404 1622.04 297.062 1619.69 295.971C1580.67 277.816 1536.48 289.85 1518.62 298.55C1499.21 305.297 1447.24 314.742 1394.59 298.55C1341.95 282.358 1316.78 284.484 1310.77 287.571C1279.42 300.843 1208.21 323.659 1174.23 308.737Z" fill="white"/>
<path d="M1539.29 308.737C1569.19 295.608 1597.76 300.768 1612.29 306.432C1614.68 307.364 1617.42 305.663 1617.42 303.098V245.875C1617.42 243.989 1615.89 242.461 1614.01 242.461H1092.11C1090.22 242.461 1088.69 243.989 1088.69 245.875V292.816C1088.69 295.404 1091.48 297.062 1093.82 295.971C1132.85 277.816 1177.03 289.85 1194.89 298.55C1214.3 305.297 1266.28 314.742 1318.92 298.55C1371.57 282.358 1396.74 284.484 1402.74 287.571C1434.1 300.843 1505.3 323.659 1539.29 308.737Z" fill="#E2F9FF"/>
<path d="M1527.15 296.83C1557.05 283.702 1585.62 288.862 1600.15 294.526C1602.53 295.458 1605.28 293.757 1605.28 291.192V233.968C1605.28 232.083 1603.75 230.555 1601.87 230.555H1079.97C1078.08 230.555 1076.55 232.083 1076.55 233.968V280.91C1076.55 283.497 1079.33 285.156 1081.68 284.065C1120.7 265.91 1164.89 277.944 1182.75 286.644C1202.16 293.391 1254.14 302.836 1306.78 286.644C1359.43 270.452 1384.6 272.578 1390.6 275.664C1421.96 288.937 1493.16 311.753 1527.15 296.83Z" fill="white"/>
</g>
</g>
<g clip-path="url(#clip3_1573_702)" filter="url(#filter3_i_1573_702)">
<rect width="262.588" height="149.647" transform="translate(1 286.297)" fill="#96DCFF"/>
<path d="M198.228 382.688L198.185 382.689L109.154 384.806L109.115 384.807L109.076 384.814C108.098 385.002 105.568 384.607 104.394 380.765C103.152 376.7 94.0951 347.75 89.721 333.782C89.5425 333.172 89.1513 332.268 88.5406 331.507C87.9303 330.745 87.045 330.061 85.8842 330.061H83.0623H82.5364L82.5946 330.583L89.4756 392.372C88.5319 392.97 87.2029 393.856 85.9986 394.75C85.3413 395.239 84.7149 395.734 84.2066 396.19C83.8201 396.537 83.4744 396.885 83.2408 397.205L20.7288 393.131L20.6388 394.068L81.3907 401.802L84.4267 405.963L-81.9464 382.836C-81.9476 382.836 -81.9489 382.835 -81.9502 382.835C-83.4481 382.601 -85.7846 382.187 -87.9265 381.706C-88.9989 381.465 -90.0158 381.209 -90.8517 380.952C-91.7054 380.689 -92.3151 380.441 -92.6155 380.233C-92.8131 380.096 -92.9926 379.99 -93.1552 379.918C-93.3116 379.849 -93.4872 379.794 -93.6662 379.801C-93.8682 379.807 -94.0663 379.893 -94.1989 380.075C-94.314 380.233 -94.3409 380.412 -94.3449 380.542C-94.353 380.8 -94.2751 381.095 -94.1897 381.344C-94.0997 381.606 -93.9814 381.875 -93.8687 382.1L-93.8031 382.232L-93.6745 382.302C-91.761 383.355 -86.672 385.62 -81.5169 386.307C-76.4555 386.982 21.0185 402.42 69.4294 410.103C69.736 411.117 70.3427 412.592 71.2729 414.086C72.2213 415.61 73.5222 417.179 75.211 418.296C74.2489 419.875 72.8564 423.225 73.2825 426.953C73.5254 429.079 75.0691 431.442 76.8061 433.483C78.5606 435.545 80.5879 437.365 81.925 438.416M198.228 382.688L82.2157 438.046M198.228 382.688L198.27 382.695M198.228 382.688L198.27 382.695M81.925 438.416L82.2157 438.046M81.925 438.416C81.9247 438.416 81.9244 438.415 81.9241 438.415L82.2157 438.046M81.925 438.416C82.4454 438.826 83.6101 439.397 85.4592 439.907C87.3231 440.421 89.9178 440.884 93.3293 441.055M82.2157 438.046C83.1093 438.751 86.5896 440.247 93.3622 440.585M93.3293 441.055C93.3261 441.055 93.3228 441.054 93.3196 441.054L93.3622 440.585M93.3293 441.055C93.3324 441.055 93.3356 441.055 93.3387 441.055L93.3622 440.585M93.3293 441.055L93.3622 440.585M198.27 382.695C204.209 383.645 218.343 388.097 227.472 398.368C228.154 399.135 228.764 399.912 229.305 400.696C252.822 395.88 299.789 386.28 301.823 385.941C302.708 385.793 303.393 385.312 303.9 384.747C304.409 384.178 304.716 383.546 304.838 383.159L304.942 382.83H305.287H307.827H308.106L308.24 383.075L309.084 384.622C309.084 384.623 309.085 384.624 309.085 384.625C309.643 385.619 309.71 386.478 309.505 387.164C309.306 387.834 308.862 388.286 308.487 388.505L308.435 388.535L308.378 388.551L236.32 408.822C236.686 408.957 237.15 409.101 237.721 409.239C239.111 409.574 241.099 409.865 243.779 409.921C246.68 409.981 249.029 411.704 250.763 413.744C252.498 415.785 253.673 418.206 254.23 419.826C256.367 425.491 255.424 429.926 253.332 433.155C251.256 436.361 248.074 438.343 245.767 439.193L245.739 439.203M198.27 382.695L245.739 439.203M245.739 439.203L245.71 439.21L245.739 439.203ZM111.187 424.878C111.027 424.846 110.871 424.814 110.717 424.783C110.717 424.923 110.711 425.083 110.697 425.259C110.849 425.29 111.004 425.322 111.162 425.353C111.176 425.181 111.184 425.022 111.187 424.878ZM216.7 431.858L216.66 431.869L216.538 431.414L216.741 431.839C216.728 431.845 216.714 431.852 216.7 431.858ZM75.6094 418.546C75.6999 418.397 75.7863 418.265 75.8664 418.151C75.731 418.071 75.598 417.987 75.4673 417.901L75.6094 418.546ZM218.235 431.064L218.655 430.85L218.776 431.305L218.417 431.4C218.351 431.284 218.29 431.171 218.235 431.064Z" fill="white" stroke="#96DCFF" stroke-width="0.941176"/>
<path d="M191.419 398.297H226.301L228.365 401.35C229.356 402.815 229.053 403.182 228.778 403.182C217.907 403.25 195.382 403.385 192.245 403.385C189.107 403.385 188.598 403.114 188.736 402.978C188.736 399.559 190.525 398.433 191.419 398.297Z" fill="#838383"/>
<path d="M226.56 439.742L244.62 441.153L255.061 432.97L255.484 420.836L248.994 410.536L237.424 408.701C236.954 408.701 234.969 408.814 230.793 409.266C226.616 409.717 227.642 415.662 228.676 418.578L217.248 425.633L218.094 433.534L226.56 439.742Z" fill="#767676"/>
<path d="M95.4825 408.56L111.285 417.873L109.028 434.663L100.703 441.436H85.6058L79.6798 438.19L72.9072 427.185V418.719L69.3798 411.382L63.4538 409.83L78.2688 406.867L95.4825 408.56Z" fill="#767676"/>
<path d="M226.56 439.742L244.62 441.153L255.061 432.97L255.484 420.836L248.994 410.536L237.424 408.701C236.954 408.701 234.969 408.814 230.793 409.266C226.616 409.717 227.642 415.662 228.676 418.578L217.248 425.633L218.094 433.534L226.56 439.742Z" stroke="#96DCFF" stroke-width="0.941176"/>
<path d="M95.4825 408.56L111.285 417.873L109.028 434.663L100.703 441.436H85.6058L79.6798 438.19L72.9072 427.185V418.719L69.3798 411.382L63.4538 409.83L78.2688 406.867L95.4825 408.56Z" stroke="#96DCFF" stroke-width="0.941176"/>
<path d="M229.094 401.081L230.505 405.314V409.264L238.407 408.7L295.55 393.603L310.93 387.959L309.237 384.149L306.415 381.751L302.605 384.149L261.405 393.179L229.094 401.081Z" fill="#D9D9D9"/>
<path d="M64.4364 403.056L135.689 413.638L115.936 420.693L106.342 415.19L94.3486 409.687C92.7025 409.217 89.1845 408.474 88.2815 409.264C87.3785 410.054 83.2021 410.816 81.2268 411.098C75.8087 411.437 72.0085 410.487 70.7857 409.97L-16.9755 397.694L-72.1437 388.664L-95.0011 382.597V379.211L-81.597 381.61L64.4364 403.056Z" fill="#D9D9D9"/>
<path d="M229.094 401.081L230.505 405.314V409.264L238.407 408.7L295.55 393.603L310.93 387.959L309.237 384.149L306.415 381.751L302.605 384.149L261.405 393.179L229.094 401.081Z" stroke="#96DCFF" stroke-width="0.941176"/>
<path d="M64.4364 403.056L135.689 413.638L115.936 420.693L106.342 415.19L94.3486 409.687C92.7025 409.217 89.1845 408.474 88.2815 409.264C87.3785 410.054 83.2021 410.816 81.2268 411.098C75.8087 411.437 72.0085 410.487 70.7857 409.97L-16.9755 397.694L-72.1437 388.664L-95.0011 382.597V379.211L-81.597 381.61L64.4364 403.056Z" stroke="#96DCFF" stroke-width="0.941176"/>
<path d="M228.583 424.643C228.583 432.523 234.472 438.846 241.658 438.846C248.844 438.846 254.733 432.523 254.733 424.643C254.733 416.762 248.844 410.439 241.658 410.439C234.472 410.439 228.583 416.762 228.583 424.643Z" fill="#959799" stroke="#96DCFF" stroke-width="0.941176"/>
<path d="M231.967 424.925C231.967 431.072 236.763 436.024 242.643 436.024C248.522 436.024 253.318 431.072 253.318 424.925C253.318 418.779 248.522 413.826 242.643 413.826C236.763 413.826 231.967 418.779 231.967 424.925Z" fill="#272727" stroke="#96DCFF" stroke-width="0.941176"/>
<path d="M232.345 414.342L230.934 406.017C230.686 404.55 229.805 404.889 229.523 405.594L227.548 410.532C227.407 410.956 226.984 411.83 226.419 411.943C225.855 412.056 225.432 411.614 225.29 411.379C223.033 407.202 220.493 406.064 219.506 406.017H209.347C202.01 406.017 193.779 404.794 190.581 404.183C187.994 403.572 181.918 402.208 178.306 401.643C174.694 401.079 171.439 401.878 170.263 402.349L133.861 413.636L105.36 415.612L111.568 425.771L136.542 431.979L215.414 432.684L218.518 430.991L225.29 428.875C232.74 424.924 233.098 417.54 232.345 414.342Z" fill="#383838" stroke="#96DCFF" stroke-width="0.941176"/>
<path d="M81.5515 424.357C81.5515 432.198 87.9695 438.561 95.8959 438.561C103.822 438.561 110.24 432.198 110.24 424.357C110.24 416.517 103.822 410.154 95.8959 410.154C87.9695 410.154 81.5515 416.517 81.5515 424.357Z" fill="#959799" stroke="#96DCFF" stroke-width="0.941176"/>
<path d="M85.2516 424.64C85.2516 430.747 90.4758 435.739 96.9726 435.739C103.469 435.739 108.693 430.747 108.693 424.64C108.693 418.533 103.469 413.541 96.9726 413.541C90.4758 413.541 85.2516 418.533 85.2516 424.64Z" fill="#272727" stroke="#96DCFF" stroke-width="0.941176"/>
<path d="M198.228 382.688L198.185 382.689L109.154 384.806L109.115 384.807L109.076 384.814C108.098 385.002 105.568 384.607 104.394 380.765C103.152 376.7 94.0951 347.75 89.721 333.782C89.5425 333.172 89.1513 332.268 88.5406 331.507C87.9303 330.745 87.045 330.061 85.8842 330.061H83.0623H82.5364L82.5946 330.583L89.4756 392.372C88.5319 392.97 87.2029 393.856 85.9986 394.75C85.3413 395.239 84.7149 395.734 84.2066 396.19C83.8201 396.537 83.4744 396.885 83.2408 397.205L20.7288 393.131L20.6388 394.068L81.3907 401.802L84.4267 405.963L-81.9464 382.836C-81.9476 382.836 -81.9489 382.835 -81.9502 382.835C-83.4481 382.601 -85.7846 382.187 -87.9265 381.706C-88.9989 381.465 -90.0158 381.209 -90.8517 380.952C-91.7054 380.689 -92.3151 380.441 -92.6155 380.233C-92.8131 380.096 -92.9926 379.99 -93.1552 379.918C-93.3116 379.849 -93.4872 379.794 -93.6662 379.801C-93.8682 379.807 -94.0663 379.893 -94.1989 380.075C-94.314 380.233 -94.3409 380.412 -94.3449 380.542C-94.353 380.8 -94.2751 381.095 -94.1897 381.344C-94.0997 381.606 -93.9814 381.875 -93.8687 382.1L-93.8031 382.232L-93.6745 382.302C-91.761 383.355 -86.672 385.62 -81.5169 386.307C-76.4555 386.982 21.0185 402.42 69.4294 410.103C69.736 411.117 70.3427 412.592 71.2729 414.086C72.2213 415.61 73.5222 417.179 75.211 418.296C74.2489 419.875 72.8564 423.225 73.2825 426.953C73.5254 429.079 75.0691 431.442 76.8061 433.483C78.5606 435.545 80.5879 437.365 81.925 438.416M198.228 382.688L82.2157 438.046M198.228 382.688L198.27 382.695M198.228 382.688L198.27 382.695M81.925 438.416L82.2157 438.046M81.925 438.416C81.9247 438.416 81.9244 438.415 81.9241 438.415L82.2157 438.046M81.925 438.416C82.4454 438.826 83.6101 439.397 85.4592 439.907C87.3231 440.421 89.9178 440.884 93.3293 441.055M82.2157 438.046C83.1093 438.751 86.5896 440.247 93.3622 440.585M93.3293 441.055C93.3261 441.055 93.3228 441.054 93.3196 441.054L93.3622 440.585M93.3293 441.055C93.3324 441.055 93.3356 441.055 93.3387 441.055L93.3622 440.585M93.3293 441.055L93.3622 440.585M198.27 382.695C204.209 383.645 218.343 388.097 227.472 398.368C228.154 399.135 228.764 399.912 229.305 400.696C252.822 395.88 299.789 386.28 301.823 385.941C302.708 385.793 303.393 385.312 303.9 384.747C304.409 384.178 304.716 383.546 304.838 383.159L304.942 382.83H305.287H307.827H308.106L308.24 383.075L309.084 384.622C309.084 384.623 309.085 384.624 309.085 384.625C309.643 385.619 309.71 386.478 309.505 387.164C309.306 387.834 308.862 388.286 308.487 388.505L308.435 388.535L308.378 388.551L236.32 408.822C236.686 408.957 237.15 409.101 237.721 409.239C239.111 409.574 241.099 409.865 243.779 409.921C246.68 409.981 249.029 411.704 250.763 413.744C252.498 415.785 253.673 418.206 254.23 419.826C256.367 425.491 255.424 429.926 253.332 433.155C251.256 436.361 248.074 438.343 245.767 439.193L245.739 439.203M198.27 382.695L245.739 439.203M245.739 439.203L245.71 439.21L245.739 439.203ZM111.187 424.878C111.027 424.846 110.871 424.814 110.717 424.783C110.717 424.923 110.711 425.083 110.697 425.259C110.849 425.29 111.004 425.322 111.162 425.353C111.176 425.181 111.184 425.022 111.187 424.878ZM216.7 431.858L216.66 431.869L216.538 431.414L216.741 431.839C216.728 431.845 216.714 431.852 216.7 431.858ZM75.6094 418.546C75.6999 418.397 75.7863 418.265 75.8664 418.151C75.731 418.071 75.598 417.987 75.4673 417.901L75.6094 418.546ZM218.235 431.064L218.655 430.85L218.776 431.305L218.417 431.4C218.351 431.284 218.29 431.171 218.235 431.064Z" stroke="#96DCFF" stroke-width="0.941176"/>
<path d="M5.29278 479.592C2.44984 481.609 2.84963 483.641 3.40489 484.405C4.64863 483.305 7.18069 483.03 8.29125 483.03C8.95756 482.953 10.6233 483.053 11.956 484.061C13.2886 485.07 14.214 485.016 14.5102 484.864L15.8428 483.488C16.3759 482.938 17.4716 482.953 17.9528 483.03C19.2854 483.259 22.1728 483.626 23.0612 483.259C23.9496 482.892 24.69 483.412 24.9491 483.717C25.3933 481.425 23.1352 480.623 21.9507 480.508C20.8402 480.394 18.5525 479.981 18.286 479.248C18.0194 478.514 16.9163 477.796 16.3981 477.529C14.0882 473.678 15.5837 473.479 16.6202 473.861C24.1723 478.17 36.3507 476.115 41.4959 474.549C41.9771 476.497 43.1173 480.623 43.828 481.54C44.5387 482.457 48.196 482.686 49.9359 482.686C50.4171 483.068 51.535 483.786 52.1569 483.603C52.7788 483.42 52.416 482.38 52.1569 481.884C54.7481 482.304 60.0194 483.053 60.3748 482.686C60.7301 482.319 60.2267 481.54 59.9306 481.196C60.782 481.502 62.8401 481.998 64.2616 481.54C65.6831 481.082 67.9634 481.349 68.9258 481.54C67.3267 478.973 63.2992 478.255 61.4853 478.216C59.4493 477.987 55.0221 477.391 53.6006 476.841C52.1791 476.291 52.268 473.326 52.4901 471.913C52.453 471.072 52.9787 468.498 55.3774 464.922C57.7762 461.346 58.672 453.27 58.8201 449.679L59.2643 436.27C59.2272 435.926 60.2415 436.889 64.5948 443.49C70.0363 451.742 65.5942 459.421 71.8132 458.962C76.7883 458.595 78.1802 451.398 78.2542 447.845C77.9581 440.892 76.2553 425.199 71.8132 418.047C67.3711 410.896 62.7069 401.085 60.93 397.074L56.7101 382.977C55.9327 378.507 53.4895 368.468 49.9359 364.067C46.3822 359.666 46.6043 356.885 47.1596 356.044C49.9729 350.199 57.021 338.188 62.7069 336.905C68.3928 335.621 72.4054 336.37 73.7011 336.905C73.7751 335.911 73.2569 333.375 70.5916 331.175C67.9263 328.974 57.8576 330.258 53.1564 331.175C50.0839 328.959 41.5403 325.857 31.9454 331.175C22.3505 336.492 18.8412 352.721 18.286 360.17C15.7984 362.738 9.99405 376.98 7.40283 383.78C4.40418 391 -2.03719 406.678 -3.81345 411.629C-5.58971 416.58 -7.44051 432.946 -8.14387 440.511C-10.3649 448.266 -14.0519 463.272 -11.0312 461.255C-8.01061 459.238 -3.48057 441.924 -1.59313 433.519C-2.48155 442.046 2.33072 459.306 4.84791 466.87L7.18001 478.331L5.29278 479.592Z" fill="#1B1B1B"/>
<path fill-rule="evenodd" clip-rule="evenodd" d="M41.5364 474.756C44.5246 472.252 47.9095 471.778 50.6489 471.394C51.3281 471.299 51.9677 471.209 52.5517 471.096C52.7686 469.87 53.5016 467.696 55.3653 464.918C57.764 461.342 58.6599 453.266 58.8079 449.675L59.2362 436.746L57.7956 391.57V386.64L56.6979 382.973C55.9206 378.503 53.4774 368.464 49.9238 364.063C46.3701 359.662 46.5922 356.881 47.1474 356.04C49.9608 350.195 57.0089 338.184 62.6948 336.901C64.7888 336.428 66.6559 336.231 68.244 336.197C70.9678 336.14 72.8705 336.563 73.6889 336.901C73.763 335.907 73.2447 333.371 70.5795 331.171C70.4916 331.098 70.3956 331.029 70.292 330.964C67.2558 329.055 57.6904 330.284 53.1443 331.171C50.0718 328.955 41.5282 325.853 31.9333 331.171C27.0434 333.881 23.7342 339.425 21.591 345.196C24.2797 348.273 29.6212 353.152 35.2519 355.812C42.6258 359.296 38.3244 362.001 35.2519 362.918C32.6237 364.064 26.4566 367.182 22.8141 370.482C20.3415 372.723 19.0807 377.194 17.8222 381.657C16.7633 385.412 15.706 389.161 13.9299 391.57C10.8498 395.748 2.39413 420.812 -1.61502 433.612C-1.98596 437.381 -1.26594 442.816 -0.12969 448.363C1.31485 455.416 3.43214 462.649 4.83579 466.867L5.1388 468.356C5.60954 468.568 6.13211 468.69 6.7115 468.701C10.8473 468.783 13.9862 472.086 15.5547 473.792C15.8459 473.664 16.2538 473.727 16.6081 473.857C17.011 474.087 17.427 474.299 17.8545 474.494C18.5133 474.794 19.1992 475.053 19.9057 475.276C19.9992 475.306 20.0931 475.334 20.1873 475.363C20.8235 475.553 21.4756 475.715 22.1387 475.85C22.1843 475.859 22.2298 475.868 22.2755 475.878L22.3574 475.894L22.3849 475.899C23.5682 476.128 24.7849 476.275 26.009 476.356C30.7119 476.666 35.5239 475.994 38.9715 475.206C39.9232 474.988 40.771 474.762 41.4838 474.545C41.5005 474.613 41.5181 474.683 41.5364 474.756ZM-1.74219 434.121C-1.71349 433.995 -1.68532 433.871 -1.65767 433.748C-1.68143 433.824 -1.70504 433.9 -1.72847 433.975L-1.74219 434.121ZM68.6013 336.937C68.6011 336.936 68.6007 336.934 68.5999 336.93L68.5994 336.927C68.6008 336.936 68.6016 336.94 68.6013 336.937Z" fill="white"/>
<path d="M51.7301 347.894C54.9955 342.789 59.1227 337.714 62.7081 336.905C64.8022 336.432 66.6693 336.235 68.2573 336.201C70.9812 336.144 72.8839 336.567 73.7023 336.905C73.7763 335.911 73.2581 333.375 70.5929 331.175C70.5049 331.102 70.409 331.033 70.3054 330.968C67.2692 329.059 57.7038 330.288 53.1576 331.175C50.0852 328.959 41.5416 325.857 31.9467 331.175C31.4021 331.476 30.8771 331.813 30.3712 332.182C29.0648 338.354 29.0611 347.826 37.0559 349.282C43.1311 350.389 48.2813 349.291 51.7301 347.894Z" fill="#1B1B1B"/>
<path d="M68.6133 336.934C68.6156 336.946 68.6148 336.945 68.6128 336.931L68.6133 336.934Z" fill="#1B1B1B"/>
<path fill-rule="evenodd" clip-rule="evenodd" d="M53.1641 331.175C55.6434 334.642 55.6048 340.182 54.2729 344.202C56.9916 340.555 60.0046 337.517 62.7094 336.906C64.8034 336.433 66.6706 336.236 68.2586 336.202C70.9824 336.145 72.8851 336.568 73.7036 336.906C73.7776 335.913 73.2594 333.376 70.5941 331.176C70.5062 331.103 70.4102 331.034 70.3066 330.969C67.2716 329.061 57.7123 330.288 53.1641 331.175ZM68.6145 336.935C68.6169 336.947 68.6161 336.946 68.614 336.932L68.6145 336.935Z" fill="#FF7134"/>
<ellipse cx="40.7172" cy="335.297" rx="2.99841" ry="2.06294" fill="white"/>
<ellipse cx="41.1624" cy="335.412" rx="1.44368" ry="1.4899" fill="#323232"/>
<path d="M17.5464 362.116C20.9346 359.857 23.1935 364.472 34.4876 365.413C43.8994 365.413 44.2758 359.856 47.6641 362.115C51.0523 364.374 60.9974 368.075 65.5464 369.643C67.5856 369.8 70.9111 373.879 67.8994 388.937C67.7425 391.761 68.2758 397.785 71.6641 399.29V439.761L34.017 439.763H-3.63006V399.292C-0.241821 397.786 0.291512 391.763 0.134644 388.939C-2.87712 373.88 0.448372 369.802 2.48759 369.645C7.03661 368.077 14.1582 364.374 17.5464 362.116Z" fill="#383838"/>
<path fill-rule="evenodd" clip-rule="evenodd" d="M-3.63281 420.003H71.6613V413.415H60.8382V406.827C62.0931 403.689 64.4147 397.132 63.6618 396.003C62.9088 394.874 63.6615 390.827 64.132 388.944C65.7666 381.098 63.9708 372.92 62.4425 368.541C60.4333 367.808 58.093 366.921 55.8346 366.004C56.3464 368.052 57.0564 369.944 58.0149 371.062C60.2737 373.697 57.7011 400.081 56.1325 412.944H9.54427C9.07368 399.768 8.22662 372.944 8.60309 371.062C8.97956 369.18 10.3286 367.454 10.956 366.827C10.655 366.827 9.93018 366.942 8.85557 367.321C8.60983 367.415 8.36555 367.508 8.12327 367.6C7.69569 367.774 7.22707 367.985 6.72059 368.238C4.46165 369.368 2.64211 372.16 2.01471 373.415V383.297C2.01471 388.191 3.58334 392.552 4.36765 394.121L3.89706 413.415H-3.63281V420.003Z" fill="#F9F9F9"/>
<g opacity="0.7">
<g opacity="0.77">
<path d="M298.921 331.694C328.821 318.565 357.389 323.725 371.919 329.389C374.308 330.321 377.055 328.62 377.055 326.055V268.832C377.055 266.946 375.526 265.418 373.641 265.418H-148.26C-150.145 265.418 -151.673 266.946 -151.673 268.832V315.773C-151.673 318.361 -148.892 320.019 -146.546 318.928C-107.522 300.773 -63.3336 312.807 -45.4725 321.507C-26.0656 328.254 25.9096 337.699 78.5548 321.507C131.2 305.315 156.372 307.441 162.378 310.528C193.732 323.8 264.937 346.616 298.921 331.694Z" fill="white"/>
<path d="M-66.14 331.694C-96.0396 318.565 -124.608 323.725 -139.137 329.389C-141.527 330.321 -144.273 328.62 -144.273 326.055V268.832C-144.273 266.946 -142.745 265.418 -140.86 265.418H381.041C382.926 265.418 384.454 266.946 384.454 268.832V315.773C384.454 318.361 381.673 320.019 379.327 318.928C340.303 300.773 296.115 312.807 278.254 321.507C258.847 328.254 206.872 337.699 154.226 321.507C101.581 305.315 76.4091 307.441 70.4037 310.528C39.0493 323.8 -32.1558 346.616 -66.14 331.694Z" fill="#E2F9FF"/>
<path d="M-53.9994 319.788C-83.899 306.659 -112.468 311.819 -126.997 317.483C-129.387 318.415 -132.133 316.714 -132.133 314.149V256.925C-132.133 255.04 -130.605 253.512 -128.719 253.512H393.182C395.067 253.512 396.595 255.04 396.595 256.925V303.867C396.595 306.454 393.814 308.113 391.468 307.022C352.444 288.867 308.255 300.901 290.394 309.601C270.987 316.348 219.012 325.793 166.367 309.601C113.722 293.409 88.5498 295.535 82.5444 298.621C51.1899 311.894 -20.0152 334.71 -53.9994 319.788Z" fill="white"/>
</g>
<path d="M-53.9994 307.795C-83.899 294.667 -112.468 299.827 -126.997 305.491C-129.387 306.423 -132.133 304.722 -132.133 302.157V244.933C-132.133 243.048 -130.605 241.52 -128.719 241.52H393.182C395.067 241.52 396.595 243.048 396.595 244.933V291.875C396.595 294.462 393.814 296.121 391.468 295.03C352.444 276.875 308.255 288.909 290.394 297.609C270.987 304.356 219.012 313.801 166.367 297.609C113.722 281.417 88.5498 283.542 82.5444 286.629C51.1899 299.902 -20.0152 322.717 -53.9994 307.795Z" fill="white"/>
<path d="M311.062 307.795C340.961 294.667 369.53 299.827 384.059 305.491C386.449 306.423 389.195 304.722 389.195 302.157V244.933C389.195 243.048 387.667 241.52 385.782 241.52H-136.119C-138.004 241.52 -139.533 243.048 -139.533 244.933V291.875C-139.533 294.462 -136.751 296.121 -134.405 295.03C-95.3815 276.875 -51.193 288.909 -33.3319 297.609C-13.925 304.356 38.0502 313.801 90.6954 297.609C143.341 281.417 168.513 283.542 174.518 286.629C205.873 299.902 277.078 322.717 311.062 307.795Z" fill="#E2F9FF"/>
<path d="M298.921 295.889C328.821 282.761 357.389 287.92 371.919 293.585C374.308 294.516 377.055 292.816 377.055 290.251V233.027C377.055 231.142 375.526 229.613 373.641 229.613H-148.26C-150.145 229.613 -151.673 231.142 -151.673 233.027V279.969C-151.673 282.556 -148.892 284.215 -146.546 283.123C-107.522 264.969 -63.3336 277.002 -45.4725 285.703C-26.0656 292.449 25.9096 301.895 78.5548 285.703C131.2 269.511 156.372 271.636 162.378 274.723C193.732 287.996 264.937 310.811 298.921 295.889Z" fill="white"/>
</g>
</g>
<mask id="path-78-inside-1_1573_702" fill="white">
<rect x="575.195" y="15.7656" width="293.4" height="156.234" rx="2.46038"/>
</mask>
<rect x="575.195" y="15.7656" width="293.4" height="156.234" rx="2.46038" fill="#161616" stroke="#262626" stroke-width="18.4528" mask="url(#path-78-inside-1_1573_702)"/>
<rect x="583.188" y="135.094" width="276.177" height="30.1396" fill="#4FCA56"/>
<mask id="path-80-inside-2_1573_702" fill="white">
<rect x="1072" y="15.7656" width="293.4" height="156.234" rx="2.46038"/>
</mask>
<rect x="1072" y="15.7656" width="293.4" height="156.234" rx="2.46038" fill="#161616" stroke="#262626" stroke-width="18.4528" mask="url(#path-80-inside-2_1573_702)"/>
<rect x="1079.98" y="135.094" width="276.177" height="30.1396" fill="#19E3FF"/>
<mask id="path-82-inside-3_1573_702" fill="white">
<rect x="78.3984" y="15.7656" width="293.4" height="156.234" rx="2.46038"/>
</mask>
<rect x="78.3984" y="15.7656" width="293.4" height="156.234" rx="2.46038" fill="#161616" stroke="#262626" stroke-width="18.4528" mask="url(#path-82-inside-3_1573_702)"/>
<rect x="86.3906" y="135.094" width="276.177" height="30.1396" fill="#6C6C6C"/>
</g>
<defs>
<filter id="filter0_ii_1573_702" x="-38.6016" y="1.36719" width="1503" height="180.001" filterUnits="userSpaceOnUse" color-interpolation-filters="sRGB">
<feFlood flood-opacity="0" result="BackgroundImageFix"/>
<feBlend mode="normal" in="SourceGraphic" in2="BackgroundImageFix" result="shape"/>
<feColorMatrix in="SourceAlpha" type="matrix" values="0 0 0 0 0 0 0 0 0 0 0 0 0 0 0 0 0 0 127 0" result="hardAlpha"/>
<feOffset dy="7.2"/>
<feGaussianBlur stdDeviation="3.6"/>
<feComposite in2="hardAlpha" operator="arithmetic" k2="-1" k3="1"/>
<feColorMatrix type="matrix" values="0 0 0 0 0 0 0 0 0 0 0 0 0 0 0 0 0 0 0.25 0"/>
<feBlend mode="normal" in2="shape" result="effect1_innerShadow_1573_702"/>
<feColorMatrix in="SourceAlpha" type="matrix" values="0 0 0 0 0 0 0 0 0 0 0 0 0 0 0 0 0 0 127 0" result="hardAlpha"/>
<feOffset dy="35.7647"/>
<feGaussianBlur stdDeviation="3.6"/>
<feComposite in2="hardAlpha" operator="arithmetic" k2="-1" k3="1"/>
<feColorMatrix type="matrix" values="0 0 0 0 0 0 0 0 0 0 0 0 0 0 0 0 0 0 0.25 0"/>
<feBlend mode="normal" in2="effect1_innerShadow_1573_702" result="effect2_innerShadow_1573_702"/>
</filter>
<filter id="filter1_i_1573_702" x="569.805" y="285.766" width="291.602" height="149.398" filterUnits="userSpaceOnUse" color-interpolation-filters="sRGB">
<feFlood flood-opacity="0" result="BackgroundImageFix"/>
<feBlend mode="normal" in="SourceGraphic" in2="BackgroundImageFix" result="shape"/>
<feColorMatrix in="SourceAlpha" type="matrix" values="0 0 0 0 0 0 0 0 0 0 0 0 0 0 0 0 0 0 127 0" result="hardAlpha"/>
<feMorphology radius="8.47059" operator="erode" in="SourceAlpha" result="effect1_innerShadow_1573_702"/>
<feOffset/>
<feGaussianBlur stdDeviation="6.82353"/>
<feComposite in2="hardAlpha" operator="arithmetic" k2="-1" k3="1"/>
<feColorMatrix type="matrix" values="0 0 0 0 0 0 0 0 0 0 0 0 0 0 0 0 0 0 0.45 0"/>
<feBlend mode="normal" in2="shape" result="effect1_innerShadow_1573_702"/>
</filter>
<filter id="filter2_i_1573_702" x="1159.59" y="286.297" width="283.297" height="149.648" filterUnits="userSpaceOnUse" color-interpolation-filters="sRGB">
<feFlood flood-opacity="0" result="BackgroundImageFix"/>
<feBlend mode="normal" in="SourceGraphic" in2="BackgroundImageFix" result="shape"/>
<feColorMatrix in="SourceAlpha" type="matrix" values="0 0 0 0 0 0 0 0 0 0 0 0 0 0 0 0 0 0 127 0" result="hardAlpha"/>
<feMorphology radius="8.47059" operator="erode" in="SourceAlpha" result="effect1_innerShadow_1573_702"/>
<feOffset/>
<feGaussianBlur stdDeviation="6.82353"/>
<feComposite in2="hardAlpha" operator="arithmetic" k2="-1" k3="1"/>
<feColorMatrix type="matrix" values="0 0 0 0 0 0 0 0 0 0 0 0 0 0 0 0 0 0 0.45 0"/>
<feBlend mode="normal" in2="shape" result="effect1_innerShadow_1573_702"/>
</filter>
<filter id="filter3_i_1573_702" x="1" y="286.297" width="262.586" height="149.648" filterUnits="userSpaceOnUse" color-interpolation-filters="sRGB">
<feFlood flood-opacity="0" result="BackgroundImageFix"/>
<feBlend mode="normal" in="SourceGraphic" in2="BackgroundImageFix" result="shape"/>
<feColorMatrix in="SourceAlpha" type="matrix" values="0 0 0 0 0 0 0 0 0 0 0 0 0 0 0 0 0 0 127 0" result="hardAlpha"/>
<feMorphology radius="8.47059" operator="erode" in="SourceAlpha" result="effect1_innerShadow_1573_702"/>
<feOffset/>
<feGaussianBlur stdDeviation="6.82353"/>
<feComposite in2="hardAlpha" operator="arithmetic" k2="-1" k3="1"/>
<feColorMatrix type="matrix" values="0 0 0 0 0 0 0 0 0 0 0 0 0 0 0 0 0 0 0.45 0"/>
<feBlend mode="normal" in2="shape" result="effect1_innerShadow_1573_702"/>
</filter>
<clipPath id="clip0_1573_702">
<rect width="1443" height="436" fill="white"/>
</clipPath>
<clipPath id="clip1_1573_702">
<rect width="291.6" height="149.4" fill="white" transform="translate(569.805 285.766)"/>
</clipPath>
<clipPath id="clip2_1573_702">
<rect width="283.294" height="149.647" fill="white" transform="translate(1159.59 286.297)"/>
</clipPath>
<clipPath id="clip3_1573_702">
<rect width="262.588" height="149.647" fill="white" transform="translate(1 286.297)"/>
</clipPath>
</defs>
</svg>
