<svg width="1441" height="436" viewBox="0 0 1441 436" fill="none" xmlns="http://www.w3.org/2000/svg">
<g clip-path="url(#clip0_1573_701)">
<path d="M261.597 286.686L441.362 173.434H0.0390625V286.686H261.597Z" fill="#2F2F2F"/>
<path d="M1158.3 285.834L990.239 157.543L1440.45 172.582V285.834H1158.3Z" fill="#2F2F2F"/>
<path d="M569.895 285.79L504.281 174.336H950.098L860.216 285.79H569.895Z" fill="#2F2F2F"/>
<g filter="url(#filter0_ii_1573_701)">
<rect x="-38.6094" y="1.76172" width="1501.04" height="172.574" fill="#535353"/>
</g>
<rect x="439.133" y="40.7188" width="63.9728" height="398.282" fill="#535353"/>
<rect x="947.828" y="40.7188" width="63.9728" height="398.282" fill="#535353"/>
<g clip-path="url(#clip1_1573_701)" filter="url(#filter1_i_1573_701)">
<rect width="291.219" height="149.205" transform="translate(569 285.789)" fill="#96DCFF"/>
<path d="M700.755 379.294C706.626 380.234 720.623 384.649 729.642 394.794C730.385 395.631 731.039 396.478 731.611 397.331C755.004 392.54 802.295 382.873 804.324 382.535C806.353 382.197 807.424 380.328 807.706 379.435H810.243L811.088 380.985C812.103 382.789 811.229 383.897 810.665 384.226L737.533 404.799C738.19 405.316 740.858 406.377 746.269 406.49C751.68 406.603 755.193 412.925 756.274 416.072C760.445 427.119 752.563 433.169 748.101 434.813C746.269 435.236 740.83 435.884 733.728 435.095C726.626 434.306 722.408 429.318 721.187 426.922L719.073 427.486C716.48 428.726 702.305 428.566 695.541 428.331C682.436 427.815 654.846 426.781 649.322 426.781C643.799 426.781 623.066 422.836 613.39 420.863C613.39 422.601 612.432 427.204 608.599 431.713C604.766 436.222 598.641 436.88 596.058 436.645C589.294 436.307 585.818 434.813 584.926 434.109C582.296 432.042 576.922 426.922 576.471 422.977C576.02 419.031 577.693 415.508 578.585 414.24C574.978 412.098 573.043 407.711 572.526 405.785C524.287 398.129 426.542 382.648 421.469 381.971C416.397 381.295 411.371 379.059 409.492 378.026C409.069 377.181 408.59 375.743 410.056 376.758C411.521 377.772 417.9 378.965 420.906 379.435L588.167 402.685L584.362 397.472L523.489 389.722L586.194 393.808C586.871 392.568 590.797 389.909 592.676 388.735L585.771 326.734H588.59C590.506 326.734 591.643 328.989 591.972 330.116C596.34 344.066 605.386 372.981 606.626 377.04C607.866 381.098 610.619 381.643 611.84 381.408L700.755 379.294Z" fill="white"/>
<path d="M693.992 394.41H728.828L730.889 397.459C731.879 398.923 731.576 399.289 731.301 399.289C720.445 399.357 697.949 399.492 694.816 399.492C691.683 399.492 691.174 399.221 691.312 399.085C691.312 395.67 693.098 394.546 693.992 394.41Z" fill="#838383"/>
<path d="M729.082 435.801L747.119 437.21L757.546 429.037L757.969 416.919L751.487 406.632L739.932 404.801C739.462 404.801 737.48 404.913 733.309 405.364C729.138 405.815 730.162 411.752 731.196 414.664L719.782 421.71L720.627 429.601L729.082 435.801Z" fill="#8BFF90"/>
<path d="M598.176 404.66L613.958 413.96L611.703 430.728L603.389 437.492H588.312L582.394 434.251L575.63 423.26V414.805L572.107 407.478L566.189 405.928L580.985 402.969L598.176 404.66Z" fill="#8BFF90"/>
<path d="M731.615 397.193L733.024 401.42V405.366L740.916 404.802L797.984 389.724L813.344 384.088L811.653 380.283L808.835 377.888L805.03 380.283L763.884 389.302L731.615 397.193Z" fill="#D9D9D9"/>
<path d="M567.172 399.166L638.332 409.734L618.605 416.779L609.023 411.284L597.045 405.788C595.401 405.319 591.888 404.576 590.986 405.366C590.084 406.155 585.913 406.916 583.941 407.197C578.53 407.536 574.735 406.587 573.513 406.07L485.867 393.811L430.77 384.793L407.943 378.733V375.352L421.329 377.747L567.172 399.166Z" fill="#D9D9D9"/>
<ellipse cx="13.5275" cy="14.6547" rx="13.5275" ry="14.6547" transform="matrix(-1 0 0 1 757.688 406.07)" fill="#959799"/>
<ellipse cx="11.132" cy="11.5547" rx="11.132" ry="11.5547" transform="matrix(-1 0 0 1 756.273 409.453)" fill="#272727"/>
<path d="M734.861 410.434L733.452 402.121C733.204 400.655 732.325 400.993 732.043 401.698L730.07 406.63C729.929 407.053 729.507 407.926 728.943 408.039C728.379 408.152 727.957 407.71 727.816 407.475C725.561 403.304 723.025 402.168 722.038 402.121H711.893C704.565 402.121 696.346 400.899 693.152 400.289C690.568 399.678 684.5 398.316 680.892 397.752C677.285 397.189 674.035 397.987 672.86 398.457L636.505 409.73L608.041 411.703L614.241 421.848L639.183 428.048L717.952 428.753L721.052 427.062L727.816 424.948C735.256 421.003 735.613 413.628 734.861 410.434Z" fill="#4FCA56"/>
<ellipse cx="14.7957" cy="14.6547" rx="14.7957" ry="14.6547" transform="matrix(-1 0 0 1 613.383 405.785)" fill="#959799"/>
<ellipse cx="12.1756" cy="11.5547" rx="12.1756" ry="11.5547" transform="matrix(-1 0 0 1 611.836 409.168)" fill="#272727"/>
<path d="M859.605 492.933C862.444 494.948 862.045 496.978 861.49 497.741C860.248 496.642 857.72 496.367 856.61 496.367C855.945 496.291 854.281 496.39 852.951 497.397C851.62 498.404 850.695 498.351 850.4 498.198L849.069 496.825C848.536 496.275 847.442 496.291 846.962 496.367C845.631 496.596 842.747 496.962 841.86 496.596C840.973 496.23 840.233 496.748 839.974 497.054C839.531 494.764 841.786 493.963 842.969 493.849C844.078 493.734 846.363 493.322 846.629 492.59C846.895 491.857 847.997 491.14 848.514 490.873C850.821 487.027 849.328 486.829 848.292 487.21C840.75 491.514 828.588 489.461 823.449 487.897C822.969 489.843 821.83 493.963 821.12 494.879C820.41 495.795 816.758 496.023 815.02 496.023C814.54 496.405 813.423 497.122 812.802 496.939C812.181 496.756 812.543 495.718 812.802 495.222C810.214 495.642 804.95 496.39 804.595 496.023C804.24 495.657 804.743 494.879 805.039 494.536C804.188 494.841 802.133 495.337 800.713 494.879C799.294 494.421 797.016 494.688 796.055 494.879C797.652 492.315 801.674 491.598 803.486 491.56C805.519 491.331 809.941 490.736 811.36 490.186C812.78 489.637 812.691 486.676 812.469 485.264C812.506 484.425 811.981 481.854 809.586 478.282C807.19 474.711 806.296 466.646 806.148 463.059L805.704 449.668C805.741 449.324 804.728 450.286 800.38 456.879C794.946 465.12 799.382 472.788 793.171 472.331C788.203 471.964 786.813 464.776 786.739 461.228C787.035 454.284 788.735 438.611 793.171 431.469C797.608 424.327 802.266 414.529 804.04 410.523L808.255 396.445C809.031 391.981 811.471 381.954 815.02 377.559C818.569 373.164 818.347 370.386 817.793 369.547C814.983 363.71 807.944 351.714 802.266 350.432C796.587 349.15 792.58 349.898 791.286 350.432C791.212 349.44 791.73 346.907 794.391 344.71C797.053 342.512 807.109 343.794 811.804 344.71C814.872 342.497 823.405 339.399 832.987 344.71C842.57 350.021 846.074 366.228 846.629 373.668C849.113 376.232 854.91 390.455 857.498 397.246C860.492 404.457 866.925 420.115 868.699 425.06C870.473 430.004 872.322 446.349 873.024 453.903C875.242 461.648 878.924 476.635 875.908 474.62C872.891 472.606 868.367 455.315 866.482 446.921C867.369 455.437 862.563 472.674 860.049 480.229L857.72 491.674L859.605 492.933Z" fill="#4FCA56"/>
<path fill-rule="evenodd" clip-rule="evenodd" d="M823.403 488.108C820.419 485.607 817.038 485.133 814.302 484.75C813.624 484.655 812.985 484.566 812.402 484.452C812.185 483.228 811.453 481.057 809.592 478.282C807.196 474.711 806.302 466.646 806.154 463.059L805.726 450.147L807.165 405.03V400.106L808.261 396.445C809.038 391.981 811.477 381.954 815.027 377.559C818.576 373.164 818.354 370.386 817.799 369.547C814.99 363.71 807.951 351.714 802.272 350.432C800.181 349.96 798.316 349.763 796.73 349.73C794.01 349.672 792.11 350.095 791.292 350.432C791.218 349.44 791.736 346.907 794.398 344.71C794.486 344.637 794.581 344.569 794.685 344.504C797.717 342.597 807.27 343.824 811.81 344.71C814.879 342.497 823.411 339.399 832.993 344.71C837.877 347.416 841.182 352.953 843.322 358.717C840.637 361.789 835.303 366.662 829.679 369.319C822.315 372.799 826.611 375.5 829.679 376.416C832.304 377.56 838.463 380.674 842.101 383.97C844.57 386.208 845.829 390.673 847.086 395.13C848.144 398.88 849.2 402.624 850.973 405.03C854.049 409.203 862.494 434.234 866.498 447.017C866.868 450.781 866.149 456.21 865.015 461.75C863.572 468.793 861.457 476.016 860.056 480.229L859.753 481.716C859.283 481.927 858.761 482.049 858.182 482.061C854.052 482.143 850.917 485.442 849.351 487.145C849.06 487.017 848.652 487.08 848.299 487.21C847.896 487.44 847.481 487.651 847.054 487.846C846.396 488.145 845.711 488.405 845.005 488.627C844.912 488.657 844.818 488.685 844.724 488.714C844.089 488.904 843.438 489.065 842.775 489.2C842.73 489.21 842.684 489.219 842.639 489.228L842.557 489.244L842.529 489.249C841.348 489.478 840.133 489.625 838.91 489.705C834.213 490.015 829.408 489.344 825.964 488.557C825.014 488.34 824.167 488.114 823.455 487.897C823.439 487.965 823.421 488.035 823.403 488.108ZM866.625 447.525C866.596 447.4 866.568 447.276 866.541 447.154C866.564 447.229 866.588 447.305 866.611 447.38L866.625 447.525ZM796.375 350.461C796.372 350.473 796.373 350.472 796.375 350.459L796.375 350.461Z" fill="white"/>
<path d="M813.228 361.407C809.967 356.309 805.845 351.241 802.265 350.432C800.173 349.96 798.309 349.763 796.723 349.73C794.002 349.672 792.102 350.095 791.285 350.432C791.211 349.44 791.728 346.907 794.39 344.71C794.478 344.637 794.574 344.569 794.677 344.504C797.71 342.597 807.262 343.824 811.803 344.71C814.871 342.497 823.404 339.399 832.986 344.71C833.53 345.011 834.054 345.348 834.559 345.716C835.864 351.88 835.868 361.34 827.883 362.794C821.816 363.899 816.673 362.802 813.228 361.407Z" fill="#4FCA56"/>
<path d="M796.367 350.461C796.365 350.473 796.366 350.472 796.368 350.459L796.367 350.461Z" fill="#4FCA56"/>
<path fill-rule="evenodd" clip-rule="evenodd" d="M811.789 344.712C809.313 348.175 809.352 353.708 810.682 357.722C807.966 354.08 804.957 351.046 802.256 350.436C800.165 349.964 798.3 349.767 796.714 349.733C793.994 349.676 792.094 350.098 791.276 350.436C791.202 349.444 791.72 346.911 794.382 344.713C794.47 344.641 794.565 344.572 794.669 344.507C797.7 342.601 807.247 343.827 811.789 344.712ZM796.359 350.465C796.356 350.477 796.357 350.476 796.359 350.462L796.359 350.465Z" fill="#FF7134"/>
<ellipse cx="2.9945" cy="2.06025" rx="2.9945" ry="2.06025" transform="matrix(-1 0 0 1 827.227 346.77)" fill="white"/>
<ellipse cx="1.4418" cy="1.48796" rx="1.4418" ry="1.48796" transform="matrix(-1 0 0 1 825.227 347.457)" fill="#323232"/>
<path d="M847.375 375.607C843.991 373.351 841.735 377.96 830.456 378.9C821.057 378.9 820.681 373.35 817.297 375.606C813.913 377.862 803.981 381.559 799.438 383.125C797.401 383.282 794.08 387.355 797.088 402.394C797.245 405.214 796.712 411.229 793.328 412.733V453.151L830.926 453.153H868.524V412.735C865.14 411.231 864.607 405.216 864.764 402.396C867.772 387.357 864.451 383.283 862.414 383.127C857.871 381.56 850.759 377.863 847.375 375.607Z" fill="#B3FF50"/>
<path fill-rule="evenodd" clip-rule="evenodd" d="M868.523 433.421H793.328V426.841H804.137V420.262C802.883 417.128 800.565 410.58 801.317 409.452C802.069 408.324 801.317 404.282 800.847 402.403C799.215 394.567 801.008 386.4 802.534 382.026C804.541 381.294 806.878 380.409 809.134 379.492C808.623 381.537 807.913 383.427 806.956 384.544C804.7 387.175 807.27 413.525 808.836 426.371H855.364C855.834 413.212 856.679 386.423 856.304 384.544C855.928 382.664 854.58 380.94 853.954 380.314C854.254 380.314 854.978 380.429 856.051 380.808C856.297 380.902 856.541 380.995 856.783 381.086C857.21 381.26 857.678 381.471 858.184 381.724C860.44 382.852 862.257 385.64 862.883 386.893V396.763C862.883 401.651 861.317 406.006 860.533 407.572L861.003 426.841H868.523V433.421Z" fill="#F9F9F9"/>
<g opacity="0.7">
<g opacity="0.77">
<path d="M935.758 331.654C965.618 318.543 994.149 323.696 1008.66 329.353C1011.05 330.283 1013.79 328.585 1013.79 326.023V268.874C1013.79 266.991 1012.26 265.465 1010.38 265.465H489.161C487.278 265.465 485.751 266.991 485.751 268.874V315.754C485.751 318.338 488.529 319.995 490.872 318.905C529.845 300.774 573.976 312.792 591.814 321.481C611.195 328.219 663.102 337.652 715.679 321.481C768.255 305.31 793.395 307.433 799.392 310.516C830.706 323.771 901.818 346.557 935.758 331.654Z" fill="white"/>
<path d="M571.172 331.654C541.312 318.543 512.78 323.696 498.27 329.353C495.883 330.283 493.141 328.585 493.141 326.023V268.874C493.141 266.991 494.667 265.465 496.55 265.465H1017.77C1019.65 265.465 1021.18 266.991 1021.18 268.874V315.754C1021.18 318.338 1018.4 319.995 1016.06 318.905C977.085 300.774 932.954 312.792 915.116 321.481C895.735 328.219 843.827 337.652 791.251 321.481C738.674 305.31 713.535 307.433 707.538 310.516C676.224 323.771 605.112 346.557 571.172 331.654Z" fill="#E2F9FF"/>
<path d="M583.297 319.764C553.437 306.652 524.905 311.805 510.395 317.462C508.008 318.393 505.266 316.694 505.266 314.132V256.983C505.266 255.101 506.792 253.574 508.675 253.574H1029.89C1031.78 253.574 1033.3 255.101 1033.3 256.983V303.864C1033.3 306.448 1030.53 308.104 1028.18 307.014C989.21 288.883 945.079 300.901 927.241 309.59C907.86 316.328 855.952 325.761 803.376 309.59C750.799 293.42 725.66 295.542 719.663 298.625C688.349 311.881 617.237 334.666 583.297 319.764Z" fill="white"/>
</g>
<path d="M583.305 307.787C553.444 294.676 524.913 299.829 510.403 305.486C508.016 306.416 505.273 304.718 505.273 302.156V245.007C505.273 243.124 506.8 241.598 508.683 241.598H1029.9C1031.78 241.598 1033.31 243.124 1033.31 245.007V291.887C1033.31 294.471 1030.53 296.128 1028.19 295.038C989.218 276.907 945.087 288.925 927.249 297.614C907.867 304.352 855.96 313.785 803.384 297.614C750.807 281.443 725.668 283.566 719.67 286.648C688.357 299.904 617.245 322.69 583.305 307.787Z" fill="white"/>
<path d="M947.89 307.787C977.751 294.676 1006.28 299.829 1020.79 305.486C1023.18 306.416 1025.92 304.718 1025.92 302.156V245.007C1025.92 243.124 1024.4 241.598 1022.51 241.598H501.293C499.411 241.598 497.884 243.124 497.884 245.007V291.887C497.884 294.471 500.662 296.128 503.005 295.038C541.978 276.907 586.109 288.925 603.946 297.614C623.328 304.352 675.235 313.785 727.812 297.614C780.388 281.443 805.527 283.566 811.525 286.648C842.839 299.904 913.951 322.69 947.89 307.787Z" fill="#E2F9FF"/>
<path d="M935.765 295.896C965.626 282.785 994.157 287.938 1008.67 293.595C1011.05 294.525 1013.8 292.827 1013.8 290.265V233.116C1013.8 231.233 1012.27 229.707 1010.39 229.707H489.168C487.286 229.707 485.759 231.233 485.759 233.116V279.997C485.759 282.581 488.537 284.237 490.88 283.147C529.853 265.016 573.984 277.034 591.821 285.723C611.203 292.461 663.11 301.894 715.687 285.723C768.263 269.552 793.402 271.675 799.4 274.758C830.714 288.013 901.826 310.799 935.765 295.896Z" fill="white"/>
</g>
</g>
<g clip-path="url(#clip2_1573_701)" filter="url(#filter2_i_1573_701)">
<rect width="282.924" height="149.452" transform="translate(1158.02 286.316)" fill="#96DCFF"/>
<path d="M1255.54 382.581L1255.58 382.582L1344.5 384.696L1344.54 384.697L1344.58 384.704C1345.55 384.892 1348.08 384.497 1349.25 380.66C1350.49 376.6 1359.54 347.688 1363.91 333.738C1364.09 333.128 1364.48 332.227 1365.09 331.466C1365.69 330.706 1366.58 330.022 1367.74 330.022H1370.56H1371.08L1371.02 330.544L1364.15 392.252C1365.09 392.85 1366.42 393.734 1367.62 394.627C1368.28 395.115 1368.91 395.61 1369.41 396.065C1369.8 396.412 1370.15 396.759 1370.38 397.079L1432.81 393.01L1432.9 393.946L1372.23 401.67L1369.19 405.825L1535.35 382.729C1535.35 382.728 1535.35 382.728 1535.35 382.728C1536.85 382.494 1539.18 382.081 1541.32 381.6C1542.39 381.359 1543.41 381.104 1544.24 380.847C1545.1 380.584 1545.71 380.337 1546.01 380.129C1546.2 379.993 1546.38 379.887 1546.54 379.815C1546.7 379.745 1546.88 379.691 1547.05 379.697C1547.26 379.704 1547.45 379.79 1547.59 379.972C1547.7 380.13 1547.73 380.308 1547.73 380.437C1547.74 380.695 1547.66 380.99 1547.58 381.239C1547.49 381.501 1547.37 381.769 1547.26 381.994L1547.19 382.125L1547.06 382.196C1545.15 383.247 1540.07 385.509 1534.92 386.195C1529.87 386.869 1432.52 402.287 1384.17 409.96C1383.87 410.973 1383.26 412.446 1382.33 413.938C1381.38 415.459 1380.08 417.027 1378.4 418.142C1379.36 419.719 1380.75 423.065 1380.32 426.788C1380.08 428.911 1378.54 431.271 1376.8 433.309C1375.05 435.369 1373.03 437.187 1371.69 438.236M1255.54 382.581L1371.4 437.866M1255.54 382.581L1255.5 382.588M1255.54 382.581L1255.5 382.588M1371.69 438.236L1371.4 437.866M1371.69 438.236C1371.69 438.236 1371.69 438.235 1371.69 438.235L1371.4 437.866M1371.69 438.236C1371.17 438.646 1370.01 439.216 1368.16 439.725C1366.3 440.239 1363.71 440.701 1360.3 440.872M1371.4 437.866C1370.51 438.571 1367.03 440.065 1360.27 440.403M1360.3 440.872C1360.31 440.871 1360.31 440.871 1360.31 440.871L1360.27 440.403M1360.3 440.872C1360.3 440.872 1360.3 440.872 1360.29 440.872L1360.27 440.403M1360.3 440.872L1360.27 440.403M1255.5 382.588C1249.57 383.537 1235.45 387.983 1226.34 398.24C1225.65 399.006 1225.05 399.783 1224.5 400.565C1201.02 395.755 1154.11 386.168 1152.08 385.829C1151.2 385.682 1150.51 385.201 1150.01 384.637C1149.5 384.069 1149.19 383.438 1149.07 383.051L1148.97 382.723M1255.5 382.588L1148.97 382.723M1148.97 382.723H1148.62M1148.97 382.723H1148.62M1148.62 382.723H1146.09H1145.81M1148.62 382.723H1145.81M1145.81 382.723L1145.67 382.968M1145.81 382.723L1145.67 382.968M1145.67 382.968L1144.83 384.512C1144.83 384.513 1144.83 384.514 1144.83 384.515C1144.27 385.508 1144.21 386.366 1144.41 387.051C1144.61 387.72 1145.05 388.171 1145.43 388.39L1145.48 388.42M1145.67 382.968L1145.48 388.42M1145.48 388.42L1145.54 388.436M1145.48 388.42L1145.54 388.436M1145.54 388.436L1217.5 408.68C1217.13 408.815 1216.67 408.959 1216.1 409.097C1214.71 409.432 1212.73 409.722 1210.05 409.778C1207.15 409.838 1204.81 411.559 1203.07 413.597C1201.34 415.635 1200.17 418.053 1199.61 419.67C1197.48 425.328 1198.42 429.757 1200.51 432.982C1202.58 436.184 1205.76 438.163 1208.06 439.012L1208.09 439.022M1145.54 388.436L1208.09 439.022M1208.09 439.022L1208.12 439.029M1208.09 439.022L1208.12 439.029M1208.12 439.029C1210.01 439.465 1215.5 440.114 1222.65 439.32M1208.12 439.029L1222.65 439.32M1222.65 439.32C1229.64 438.544 1233.91 433.822 1235.38 431.23L1222.65 439.32ZM1342.47 424.716C1342.63 424.684 1342.78 424.652 1342.94 424.621C1342.94 424.761 1342.94 424.92 1342.96 425.096C1342.81 425.127 1342.65 425.159 1342.49 425.191C1342.48 425.018 1342.47 424.859 1342.47 424.716ZM1237.09 431.687L1237.13 431.698L1237.25 431.244L1237.05 431.668C1237.07 431.674 1237.08 431.681 1237.09 431.687ZM1378 418.392C1377.91 418.243 1377.82 418.112 1377.74 417.998C1377.88 417.918 1378.01 417.834 1378.14 417.748L1378 418.392Z" fill="white" stroke="#96DCFF" stroke-width="0.939948"/>
<path d="M1262.34 398.168H1227.5L1225.44 401.217C1224.45 402.681 1224.75 403.047 1225.03 403.047C1235.88 403.114 1258.38 403.25 1261.51 403.25C1264.65 403.25 1265.15 402.979 1265.02 402.843C1265.02 399.428 1263.23 398.303 1262.34 398.168Z" fill="#838383"/>
<path d="M1227.25 439.559L1209.21 440.968L1198.78 432.795L1198.36 420.677L1204.84 410.39L1216.4 408.558C1216.87 408.558 1218.85 408.671 1223.02 409.122C1227.19 409.573 1226.17 415.51 1225.13 418.422L1236.55 425.468L1235.7 433.359L1227.25 439.559Z" fill="#41B4E1"/>
<path d="M1358.15 408.417L1342.37 417.718L1344.62 434.486L1352.94 441.25H1368.02L1373.93 438.009L1380.7 427.018V418.563L1384.22 411.236L1390.14 409.686L1375.34 406.727L1358.15 408.417Z" fill="#41B4E1"/>
<path d="M1227.25 439.559L1209.21 440.968L1198.78 432.795L1198.36 420.677L1204.84 410.39L1216.4 408.558C1216.87 408.558 1218.85 408.671 1223.02 409.122C1227.19 409.573 1226.17 415.51 1225.13 418.422L1236.55 425.468L1235.7 433.359L1227.25 439.559Z" stroke="#96DCFF" stroke-width="0.939948"/>
<path d="M1358.15 408.417L1342.37 417.718L1344.62 434.486L1352.94 441.25H1368.02L1373.93 438.009L1380.7 427.018V418.563L1384.22 411.236L1390.14 409.686L1375.34 406.727L1358.15 408.417Z" stroke="#96DCFF" stroke-width="0.939948"/>
<path d="M1224.71 400.951L1223.3 405.178V409.123L1215.41 408.56L1158.34 393.482L1142.98 387.846L1144.68 384.041L1147.49 381.646L1151.3 384.041L1192.44 393.06L1224.71 400.951Z" fill="#D9D9D9"/>
<path d="M1389.16 402.923L1318 413.492L1337.72 420.537L1347.31 415.042L1359.28 409.546C1360.93 409.076 1364.44 408.334 1365.34 409.123C1366.24 409.913 1370.41 410.673 1372.39 410.955C1377.8 411.293 1381.59 410.345 1382.81 409.828L1470.46 397.569L1525.56 388.55L1548.39 382.491V379.109L1535 381.505L1389.16 402.923Z" fill="#D9D9D9"/>
<path d="M1224.71 400.951L1223.3 405.178V409.123L1215.41 408.56L1158.34 393.482L1142.98 387.846L1144.68 384.041L1147.49 381.646L1151.3 384.041L1192.44 393.06L1224.71 400.951Z" stroke="#96DCFF" stroke-width="0.939948"/>
<path d="M1389.16 402.923L1318 413.492L1337.72 420.537L1347.31 415.042L1359.28 409.546C1360.93 409.076 1364.44 408.334 1365.34 409.123C1366.24 409.913 1370.41 410.673 1372.39 410.955C1377.8 411.293 1381.59 410.345 1382.81 409.828L1470.46 397.569L1525.56 388.55L1548.39 382.491V379.109L1535 381.505L1389.16 402.923Z" stroke="#96DCFF" stroke-width="0.939948"/>
<path d="M1225.23 424.479C1225.23 432.349 1219.34 438.664 1212.17 438.664C1204.99 438.664 1199.11 432.349 1199.11 424.479C1199.11 416.609 1204.99 410.294 1212.17 410.294C1219.34 410.294 1225.23 416.609 1225.23 424.479Z" fill="#959799" stroke="#96DCFF" stroke-width="0.939948"/>
<path d="M1221.85 424.762C1221.85 430.9 1217.06 435.846 1211.19 435.846C1205.31 435.846 1200.52 430.9 1200.52 424.762C1200.52 418.623 1205.31 413.677 1211.19 413.677C1217.06 413.677 1221.85 418.623 1221.85 424.762Z" fill="#272727" stroke="#96DCFF" stroke-width="0.939948"/>
<path d="M1221.47 414.192L1222.88 405.879C1223.12 404.413 1224 404.751 1224.29 405.456L1226.26 410.388C1226.4 410.81 1226.82 411.684 1227.39 411.797C1227.95 411.909 1228.37 411.468 1228.51 411.233C1230.77 407.062 1233.3 405.925 1234.29 405.879H1244.44C1251.76 405.879 1259.98 404.657 1263.18 404.047C1265.76 403.436 1271.83 402.074 1275.44 401.51C1279.04 400.947 1282.29 401.745 1283.47 402.215L1319.82 413.488L1348.29 415.46L1342.09 425.606L1317.15 431.806L1238.38 432.511L1235.28 430.82L1228.51 428.706C1221.07 424.761 1220.72 417.386 1221.47 414.192Z" fill="#00B7FF" stroke="#96DCFF" stroke-width="0.939948"/>
<path d="M1372.06 424.198C1372.06 432.028 1365.65 438.382 1357.73 438.382C1349.82 438.382 1343.41 432.028 1343.41 424.198C1343.41 416.368 1349.82 410.013 1357.73 410.013C1365.65 410.013 1372.06 416.368 1372.06 424.198Z" fill="#959799" stroke="#96DCFF" stroke-width="0.939948"/>
<path d="M1368.37 424.48C1368.37 430.58 1363.15 435.565 1356.66 435.565C1350.17 435.565 1344.95 430.58 1344.95 424.48C1344.95 418.381 1350.17 413.396 1356.66 413.396C1363.15 413.396 1368.37 418.381 1368.37 424.48Z" fill="#272727" stroke="#96DCFF" stroke-width="0.939948"/>
<path d="M1255.54 382.581L1255.58 382.582L1344.5 384.696L1344.54 384.697L1344.58 384.704C1345.55 384.892 1348.08 384.497 1349.25 380.66C1350.49 376.6 1359.54 347.688 1363.91 333.738C1364.09 333.128 1364.48 332.227 1365.09 331.466C1365.69 330.706 1366.58 330.022 1367.74 330.022H1370.56H1371.08L1371.02 330.544L1364.15 392.252C1365.09 392.85 1366.42 393.734 1367.62 394.627C1368.28 395.115 1368.91 395.61 1369.41 396.065C1369.8 396.412 1370.15 396.759 1370.38 397.079L1432.81 393.01L1432.9 393.946L1372.23 401.67L1369.19 405.825L1535.35 382.729C1535.35 382.728 1535.35 382.728 1535.35 382.728C1536.85 382.494 1539.18 382.081 1541.32 381.6C1542.39 381.359 1543.41 381.104 1544.24 380.847C1545.1 380.584 1545.71 380.337 1546.01 380.129C1546.2 379.993 1546.38 379.887 1546.54 379.815C1546.7 379.745 1546.88 379.691 1547.05 379.697C1547.26 379.704 1547.45 379.79 1547.59 379.972C1547.7 380.13 1547.73 380.308 1547.73 380.437C1547.74 380.695 1547.66 380.99 1547.58 381.239C1547.49 381.501 1547.37 381.769 1547.26 381.994L1547.19 382.125L1547.06 382.196C1545.15 383.247 1540.07 385.509 1534.92 386.195C1529.87 386.869 1432.52 402.287 1384.17 409.96C1383.87 410.973 1383.26 412.446 1382.33 413.938C1381.38 415.459 1380.08 417.027 1378.4 418.142C1379.36 419.719 1380.75 423.065 1380.32 426.788C1380.08 428.911 1378.54 431.271 1376.8 433.309C1375.05 435.369 1373.03 437.187 1371.69 438.236M1255.54 382.581L1371.4 437.866M1255.54 382.581L1255.5 382.588M1255.54 382.581L1255.5 382.588M1371.69 438.236L1371.4 437.866M1371.69 438.236C1371.69 438.236 1371.69 438.235 1371.69 438.235L1371.4 437.866M1371.69 438.236C1371.17 438.646 1370.01 439.216 1368.16 439.725C1366.3 440.239 1363.71 440.701 1360.3 440.872M1371.4 437.866C1370.51 438.571 1367.03 440.065 1360.27 440.403M1360.3 440.872C1360.31 440.871 1360.31 440.871 1360.31 440.871L1360.27 440.403M1360.3 440.872C1360.3 440.872 1360.3 440.872 1360.29 440.872L1360.27 440.403M1360.3 440.872L1360.27 440.403M1255.5 382.588C1249.57 383.537 1235.45 387.983 1226.34 398.24C1225.65 399.006 1225.05 399.783 1224.5 400.565C1201.02 395.755 1154.11 386.168 1152.08 385.829C1151.2 385.682 1150.51 385.201 1150.01 384.637C1149.5 384.069 1149.19 383.438 1149.07 383.051L1148.97 382.723M1255.5 382.588L1148.97 382.723M1148.97 382.723H1148.62M1148.97 382.723H1148.62M1148.62 382.723H1146.09H1145.81M1148.62 382.723H1145.81M1145.81 382.723L1145.67 382.968M1145.81 382.723L1145.67 382.968M1145.67 382.968L1144.83 384.512C1144.83 384.513 1144.83 384.514 1144.83 384.515C1144.27 385.508 1144.21 386.366 1144.41 387.051C1144.61 387.72 1145.05 388.171 1145.43 388.39L1145.48 388.42M1145.67 382.968L1145.48 388.42M1145.48 388.42L1145.54 388.436M1145.48 388.42L1145.54 388.436M1145.54 388.436L1217.5 408.68C1217.13 408.815 1216.67 408.959 1216.1 409.097C1214.71 409.432 1212.73 409.722 1210.05 409.778C1207.15 409.838 1204.81 411.559 1203.07 413.597C1201.34 415.635 1200.17 418.053 1199.61 419.67C1197.48 425.328 1198.42 429.757 1200.51 432.982C1202.58 436.184 1205.76 438.163 1208.06 439.012L1208.09 439.022M1145.54 388.436L1208.09 439.022M1208.09 439.022L1208.12 439.029M1208.09 439.022L1208.12 439.029M1208.12 439.029C1210.01 439.465 1215.5 440.114 1222.65 439.32M1208.12 439.029L1222.65 439.32M1222.65 439.32C1229.64 438.544 1233.91 433.822 1235.38 431.23L1222.65 439.32ZM1342.47 424.716C1342.63 424.684 1342.78 424.652 1342.94 424.621C1342.94 424.761 1342.94 424.92 1342.96 425.096C1342.81 425.127 1342.65 425.159 1342.49 425.191C1342.48 425.018 1342.47 424.859 1342.47 424.716ZM1237.09 431.687L1237.13 431.698L1237.25 431.244L1237.05 431.668C1237.07 431.674 1237.08 431.681 1237.09 431.687ZM1378 418.392C1377.91 418.243 1377.82 418.112 1377.74 417.998C1377.88 417.918 1378.01 417.834 1378.14 417.748L1378 418.392Z" stroke="#96DCFF" stroke-width="0.939948"/>
<path d="M1418.54 479.359C1421.38 481.374 1420.98 483.403 1420.43 484.166C1419.19 483.068 1416.66 482.793 1415.55 482.793C1414.88 482.716 1413.22 482.816 1411.89 483.823C1410.56 484.83 1409.63 484.777 1409.34 484.624L1408.01 483.25C1407.47 482.701 1406.38 482.716 1405.9 482.793C1404.57 483.022 1401.68 483.388 1400.8 483.022C1399.91 482.655 1399.17 483.174 1398.91 483.479C1398.47 481.19 1400.72 480.389 1401.91 480.275C1403.02 480.16 1405.3 479.748 1405.57 479.016C1405.83 478.283 1406.93 477.566 1407.45 477.299C1409.76 473.453 1408.27 473.254 1407.23 473.636C1399.69 477.94 1387.53 475.887 1382.39 474.323C1381.91 476.269 1380.77 480.389 1380.06 481.305C1379.35 482.22 1375.7 482.449 1373.96 482.449C1373.48 482.831 1372.36 483.548 1371.74 483.365C1371.12 483.182 1371.48 482.144 1371.74 481.648C1369.15 482.068 1363.89 482.816 1363.53 482.449C1363.18 482.083 1363.68 481.305 1363.98 480.961C1363.13 481.267 1361.07 481.763 1359.65 481.305C1358.23 480.847 1355.95 481.114 1354.99 481.305C1356.59 478.741 1360.61 478.024 1362.42 477.985C1364.46 477.756 1368.88 477.161 1370.3 476.612C1371.72 476.062 1371.63 473.102 1371.41 471.69C1371.44 470.851 1370.92 468.279 1368.52 464.708C1366.13 461.137 1365.23 453.072 1365.09 449.485L1364.64 436.094C1364.68 435.75 1363.67 436.712 1359.32 443.304C1353.88 451.545 1358.32 459.214 1352.11 458.756C1347.14 458.39 1345.75 451.202 1345.68 447.654C1345.97 440.71 1347.67 425.037 1352.11 417.895C1356.55 410.753 1361.2 400.955 1362.98 396.949L1367.19 382.87C1367.97 378.407 1370.41 368.38 1373.96 363.985C1377.51 359.59 1377.28 356.812 1376.73 355.973C1373.92 350.135 1366.88 338.14 1361.2 336.858C1355.52 335.576 1351.52 336.324 1350.22 336.858C1350.15 335.866 1350.67 333.333 1353.33 331.136C1355.99 328.938 1366.05 330.22 1370.74 331.136C1373.81 328.923 1382.34 325.825 1391.92 331.136C1401.51 336.446 1405.01 352.654 1405.57 360.094C1408.05 362.657 1413.85 376.881 1416.44 383.672C1419.43 390.883 1425.86 406.541 1427.64 411.485C1429.41 416.43 1431.26 432.775 1431.96 440.329C1434.18 448.074 1437.86 463.06 1434.85 461.046C1431.83 459.031 1427.3 441.741 1425.42 433.347C1426.31 441.863 1421.5 459.1 1418.99 466.654L1416.66 478.1L1418.54 479.359Z" fill="#19E3FF"/>
<path fill-rule="evenodd" clip-rule="evenodd" d="M1382.34 474.534C1379.36 472.033 1375.98 471.559 1373.24 471.176C1372.56 471.081 1371.92 470.992 1371.34 470.878C1371.12 469.654 1370.39 467.483 1368.53 464.708C1366.13 461.137 1365.24 453.072 1365.09 449.485L1364.66 436.573L1366.1 391.456V386.532L1367.2 382.87C1367.98 378.407 1370.41 368.38 1373.96 363.985C1377.51 359.59 1377.29 356.812 1376.74 355.973C1373.93 350.135 1366.89 338.14 1361.21 336.858C1359.12 336.386 1357.25 336.189 1355.67 336.156C1352.95 336.098 1351.05 336.521 1350.23 336.858C1350.16 335.866 1350.67 333.333 1353.34 331.136C1353.42 331.063 1353.52 330.994 1353.62 330.929C1356.65 329.022 1366.21 330.25 1370.75 331.136C1373.82 328.923 1382.35 325.825 1391.93 331.136C1396.81 333.842 1400.12 339.379 1402.26 345.143C1399.57 348.215 1394.24 353.088 1388.62 355.745C1381.25 359.225 1385.55 361.926 1388.62 362.842C1391.24 363.986 1397.4 367.099 1401.04 370.396C1403.51 372.633 1404.77 377.099 1406.02 381.556C1407.08 385.306 1408.14 389.05 1409.91 391.456C1412.99 395.628 1421.43 420.66 1425.44 433.443C1425.81 437.207 1425.09 442.635 1423.95 448.175C1422.51 455.218 1420.39 462.442 1418.99 466.654L1418.69 468.141C1418.22 468.353 1417.7 468.475 1417.12 468.487C1412.99 468.569 1409.85 471.867 1408.29 473.57C1408 473.443 1407.59 473.506 1407.24 473.636C1406.83 473.866 1406.42 474.077 1405.99 474.272C1405.33 474.571 1404.65 474.83 1403.94 475.053C1403.85 475.082 1403.76 475.111 1403.66 475.139C1403.03 475.33 1402.38 475.491 1401.71 475.626C1401.69 475.63 1401.68 475.634 1401.66 475.637C1401.63 475.643 1401.6 475.648 1401.58 475.654L1401.49 475.67L1401.47 475.675C1400.29 475.904 1399.07 476.051 1397.85 476.131C1393.15 476.441 1388.35 475.77 1384.9 474.983C1383.95 474.766 1383.1 474.539 1382.39 474.323C1382.38 474.39 1382.36 474.461 1382.34 474.534ZM1425.56 433.951C1425.53 433.825 1425.51 433.702 1425.48 433.579C1425.5 433.655 1425.53 433.731 1425.55 433.806L1425.56 433.951ZM1355.31 336.887C1355.31 336.899 1355.31 336.898 1355.31 336.885L1355.31 336.887Z" fill="white"/>
<path d="M1372.17 347.833C1368.9 342.735 1364.78 337.667 1361.2 336.858C1359.11 336.386 1357.25 336.189 1355.66 336.156C1352.94 336.098 1351.04 336.521 1350.22 336.858C1350.15 335.866 1350.67 333.333 1353.33 331.136C1353.42 331.063 1353.51 330.994 1353.61 330.929C1356.65 329.022 1366.2 330.25 1370.74 331.136C1373.81 328.923 1382.34 325.825 1391.92 331.136C1392.47 331.437 1392.99 331.773 1393.5 332.142C1394.8 338.305 1394.81 347.766 1386.82 349.22C1380.75 350.325 1375.61 349.228 1372.17 347.833Z" fill="#19E3FF"/>
<path d="M1355.3 336.887C1355.3 336.899 1355.3 336.898 1355.31 336.885L1355.3 336.887Z" fill="#19E3FF"/>
<path fill-rule="evenodd" clip-rule="evenodd" d="M1370.74 331.138C1368.27 334.601 1368.3 340.134 1369.63 344.148C1366.92 340.506 1363.91 337.471 1361.21 336.862C1359.12 336.39 1357.25 336.193 1355.67 336.159C1352.95 336.102 1351.05 336.524 1350.23 336.862C1350.16 335.87 1350.67 333.336 1353.33 331.139C1353.42 331.067 1353.52 330.998 1353.62 330.933C1356.65 329.027 1366.2 330.253 1370.74 331.138ZM1355.31 336.891C1355.31 336.903 1355.31 336.902 1355.31 336.888L1355.31 336.891Z" fill="#FF7134"/>
<ellipse cx="2.9945" cy="2.06025" rx="2.9945" ry="2.06025" transform="matrix(-1 0 0 1 1386.15 333.191)" fill="white"/>
<ellipse cx="1.4418" cy="1.48796" rx="1.4418" ry="1.48796" transform="matrix(-1 0 0 1 1384.15 333.879)" fill="#323232"/>
<path d="M1406.3 362.037C1402.91 359.781 1400.66 364.39 1389.38 365.33C1379.98 365.33 1379.6 359.78 1376.22 362.036C1372.83 364.292 1362.9 367.988 1358.36 369.555C1356.32 369.711 1353 373.784 1356.01 388.823C1356.17 391.643 1355.63 397.659 1352.25 399.163V439.581L1389.85 439.582H1427.45V399.165C1424.06 397.661 1423.53 391.645 1423.69 388.825C1426.69 373.786 1423.37 369.713 1421.34 369.556C1416.79 367.99 1409.68 364.293 1406.3 362.037Z" fill="#303BFF"/>
<path fill-rule="evenodd" clip-rule="evenodd" d="M1427.45 419.847H1352.25V413.267H1363.06V406.687C1361.81 403.554 1359.49 397.006 1360.24 395.878C1360.99 394.75 1360.24 390.708 1359.77 388.828C1358.14 380.992 1359.93 372.826 1361.46 368.452C1363.46 367.72 1365.8 366.834 1368.06 365.918C1367.54 367.963 1366.84 369.853 1365.88 370.969C1363.62 373.601 1366.19 399.951 1367.76 412.797H1414.29C1414.76 399.638 1415.6 372.849 1415.23 370.969C1414.85 369.089 1413.5 367.366 1412.88 366.74C1413.18 366.74 1413.9 366.855 1414.97 367.233C1415.22 367.327 1415.46 367.42 1415.7 367.512C1416.13 367.686 1416.6 367.897 1417.11 368.149C1419.36 369.277 1421.18 372.066 1421.81 373.319V383.189C1421.81 388.076 1420.24 392.431 1419.46 393.998L1419.93 413.267H1427.45V419.847Z" fill="#F9F9F9"/>
<g opacity="0.7">
<g opacity="0.77">
<path d="M1525.1 332.596C1554.96 319.484 1583.49 324.637 1598 330.294C1600.39 331.225 1603.13 329.526 1603.13 326.964V269.815C1603.13 267.933 1601.61 266.406 1599.72 266.406H1078.5C1076.62 266.406 1075.1 267.933 1075.1 269.815V316.696C1075.1 319.28 1077.87 320.936 1080.22 319.846C1119.19 301.715 1163.32 313.733 1181.16 322.423C1200.54 329.16 1252.45 338.593 1305.02 322.423C1357.6 306.252 1382.74 308.374 1388.74 311.457C1420.05 324.713 1491.16 347.498 1525.1 332.596Z" fill="white"/>
<path d="M1160.52 332.596C1130.66 319.484 1102.12 324.637 1087.61 330.294C1085.23 331.225 1082.48 329.526 1082.48 326.964V269.815C1082.48 267.933 1084.01 266.406 1085.89 266.406H1607.11C1609 266.406 1610.52 267.933 1610.52 269.815V316.696C1610.52 319.28 1607.74 320.936 1605.4 319.846C1566.43 301.715 1522.3 313.733 1504.46 322.423C1485.08 329.16 1433.17 338.593 1380.59 322.423C1328.02 306.252 1302.88 308.374 1296.88 311.457C1265.57 324.713 1194.46 347.498 1160.52 332.596Z" fill="#E2F9FF"/>
<path d="M1172.64 320.705C1142.78 307.594 1114.25 312.747 1099.74 318.404C1097.35 319.334 1094.61 317.636 1094.61 315.074V257.925C1094.61 256.042 1096.14 254.516 1098.02 254.516H1619.24C1621.12 254.516 1622.65 256.042 1622.65 257.925V304.805C1622.65 307.389 1619.87 309.046 1617.53 307.956C1578.55 289.825 1534.42 301.843 1516.58 310.532C1497.2 317.27 1445.3 326.703 1392.72 310.532C1340.14 294.361 1315 296.484 1309.01 299.566C1277.69 312.822 1206.58 335.607 1172.64 320.705Z" fill="white"/>
</g>
<path d="M1172.63 308.732C1142.77 295.621 1114.24 300.774 1099.73 306.431C1097.34 307.361 1094.6 305.663 1094.6 303.101V245.952C1094.6 244.069 1096.13 242.543 1098.01 242.543H1619.23C1621.11 242.543 1622.64 244.069 1622.64 245.952V292.832C1622.64 295.417 1619.86 297.073 1617.52 295.983C1578.55 277.852 1534.41 289.87 1516.58 298.559C1497.2 305.297 1445.29 314.73 1392.71 298.559C1340.14 282.388 1315 284.511 1309 287.594C1277.68 300.849 1206.57 323.635 1172.63 308.732Z" fill="white"/>
<path d="M1537.22 308.732C1567.08 295.621 1595.61 300.774 1610.12 306.431C1612.51 307.361 1615.25 305.663 1615.25 303.101V245.952C1615.25 244.069 1613.72 242.543 1611.84 242.543H1090.62C1088.74 242.543 1087.21 244.069 1087.21 245.952V292.832C1087.21 295.417 1089.99 297.073 1092.33 295.983C1131.31 277.852 1175.44 289.87 1193.27 298.559C1212.66 305.297 1264.56 314.73 1317.14 298.559C1369.72 282.388 1394.86 284.511 1400.85 287.594C1432.17 300.849 1503.28 323.635 1537.22 308.732Z" fill="#E2F9FF"/>
<path d="M1525.09 296.842C1554.95 283.73 1583.49 288.883 1598 294.54C1600.38 295.471 1603.12 293.772 1603.12 291.211V234.061C1603.12 232.179 1601.6 230.652 1599.72 230.652H1078.5C1076.61 230.652 1075.09 232.179 1075.09 234.061V280.942C1075.09 283.526 1077.87 285.182 1080.21 284.093C1119.18 265.962 1163.31 277.98 1181.15 286.669C1200.53 293.406 1252.44 302.839 1305.01 286.669C1357.59 270.498 1382.73 272.62 1388.73 275.703C1420.04 288.959 1491.15 311.744 1525.09 296.842Z" fill="white"/>
</g>
</g>
<g clip-path="url(#clip3_1573_701)" filter="url(#filter3_i_1573_701)">
<rect width="262.245" height="149.452" transform="translate(0.9375 286.316)" fill="#96DCFF"/>
<path d="M197.904 382.581L197.861 382.582L108.946 384.696L108.907 384.697L108.868 384.704C107.892 384.892 105.365 384.497 104.193 380.66C102.952 376.6 93.9068 347.688 89.5385 333.738C89.3602 333.128 88.9695 332.227 88.3598 331.466C87.7503 330.706 86.8662 330.022 85.7069 330.022H82.8887H82.3634L82.4216 330.544L89.2936 392.252C88.3511 392.85 87.0239 393.734 85.8212 394.627C85.1647 395.115 84.5391 395.61 84.0315 396.065C83.6455 396.412 83.3002 396.759 83.0669 397.079L20.6366 393.01L20.5467 393.946L81.2193 401.67L84.2513 405.825L-81.9046 382.729C-81.9059 382.728 -81.9073 382.728 -81.9086 382.728C-83.4045 382.494 -85.7379 382.081 -87.877 381.6C-88.9479 381.359 -89.9635 381.104 -90.7982 380.847C-91.6509 380.584 -92.2598 380.337 -92.5598 380.129C-92.7571 379.993 -92.9364 379.887 -93.0988 379.815C-93.255 379.745 -93.4303 379.691 -93.6091 379.697C-93.8108 379.704 -94.0087 379.79 -94.1411 379.972C-94.2561 380.13 -94.2829 380.308 -94.287 380.437C-94.295 380.695 -94.2172 380.99 -94.1319 381.239C-94.0421 381.501 -93.9239 381.769 -93.8113 381.994L-93.7458 382.125L-93.6175 382.196C-91.7064 383.247 -86.624 385.509 -81.4756 386.195C-76.4209 386.869 20.9258 402.287 69.2736 409.96C69.5798 410.973 70.1857 412.446 71.1146 413.938C72.0618 415.459 73.3611 417.027 75.0476 418.142C74.0868 419.719 72.6961 423.065 73.1216 426.788C73.3643 428.911 74.9059 431.271 76.6406 433.309C78.3929 435.369 80.4176 437.187 81.7528 438.236M197.904 382.581L82.0432 437.866M197.904 382.581L197.946 382.588M197.904 382.581L197.946 382.588M81.7528 438.236L82.0432 437.866M81.7528 438.236C81.7525 438.236 81.7523 438.235 81.752 438.235L82.0432 437.866M81.7528 438.236C82.2726 438.646 83.4357 439.216 85.2825 439.725C87.144 440.239 89.7352 440.701 93.1424 440.872M82.0432 437.866C82.9356 438.571 86.4114 440.065 93.1752 440.403M93.1424 440.872C93.1391 440.871 93.1358 440.871 93.1326 440.871L93.1752 440.403M93.1424 440.872C93.1454 440.872 93.1486 440.872 93.1517 440.872L93.1752 440.403M93.1424 440.872L93.1752 440.403M197.946 382.588C203.877 383.537 217.993 387.983 227.11 398.24C227.791 399.006 228.4 399.783 228.941 400.565C252.427 395.755 299.333 386.168 301.364 385.829C302.247 385.682 302.932 385.201 303.438 384.637C303.947 384.069 304.253 383.438 304.375 383.051L304.479 382.723M197.946 382.588L304.479 382.723M304.479 382.723H304.823M304.479 382.723H304.823M304.823 382.723H307.36H307.639M304.823 382.723H307.639M307.639 382.723L307.772 382.968M307.639 382.723L307.772 382.968M307.772 382.968L308.615 384.512C308.615 384.513 308.616 384.514 308.616 384.515C309.174 385.508 309.24 386.366 309.036 387.051C308.837 387.72 308.394 388.171 308.019 388.39L307.968 388.42M307.772 382.968L307.968 388.42M307.968 388.42L307.91 388.436M307.968 388.42L307.91 388.436M307.91 388.436L235.947 408.68C236.312 408.815 236.775 408.959 237.346 409.097C238.733 409.432 240.719 409.722 243.396 409.778C246.293 409.838 248.639 411.559 250.371 413.597C252.103 415.635 253.277 418.053 253.833 419.67C255.967 425.328 255.025 429.757 252.936 432.982C250.863 436.184 247.685 438.163 245.381 439.012L245.353 439.022M307.91 388.436L245.353 439.022M245.353 439.022L245.324 439.029M245.353 439.022L245.324 439.029M245.324 439.029C243.434 439.465 237.941 440.114 230.793 439.32M245.324 439.029L230.793 439.32M230.793 439.32C223.808 438.544 219.536 433.822 218.067 431.23L230.793 439.32ZM110.976 424.716C110.817 424.684 110.661 424.652 110.507 424.621C110.507 424.761 110.501 424.92 110.487 425.096C110.639 425.127 110.794 425.159 110.951 425.191C110.966 425.018 110.974 424.859 110.976 424.716ZM216.352 431.687L216.312 431.698L216.19 431.244L216.393 431.668C216.38 431.674 216.366 431.681 216.352 431.687ZM75.4455 418.392C75.5359 418.243 75.6222 418.112 75.7022 417.998C75.567 417.918 75.4341 417.834 75.3036 417.748L75.4455 418.392Z" fill="white" stroke="#96DCFF" stroke-width="0.939948"/>
<path d="M191.109 398.168H225.945L228.006 401.217C228.996 402.681 228.693 403.047 228.419 403.047C217.562 403.114 195.066 403.25 191.933 403.25C188.8 403.25 188.292 402.979 188.429 402.843C188.429 399.428 190.215 398.303 191.109 398.168Z" fill="#838383"/>
<path d="M226.199 439.559L244.236 440.968L254.663 432.795L255.086 420.677L248.604 410.39L237.049 408.558C236.58 408.558 234.597 408.671 230.427 409.122C226.256 409.573 227.28 415.51 228.313 418.422L216.899 425.468L217.745 433.359L226.199 439.559Z" fill="#767676"/>
<path d="M95.2929 408.417L111.075 417.718L108.82 434.486L100.507 441.25H85.4291L79.5108 438.009L72.7471 427.018V418.563L69.2243 411.236L63.3061 409.686L78.1017 406.727L95.2929 408.417Z" fill="#767676"/>
<path d="M226.199 439.559L244.236 440.968L254.663 432.795L255.086 420.677L248.604 410.39L237.049 408.558C236.58 408.558 234.597 408.671 230.427 409.122C226.256 409.573 227.28 415.51 228.313 418.422L216.899 425.468L217.745 433.359L226.199 439.559Z" stroke="#96DCFF" stroke-width="0.939948"/>
<path d="M95.2929 408.417L111.075 417.718L108.82 434.486L100.507 441.25H85.4291L79.5108 438.009L72.7471 427.018V418.563L69.2243 411.236L63.3061 409.686L78.1017 406.727L95.2929 408.417Z" stroke="#96DCFF" stroke-width="0.939948"/>
<path d="M228.733 400.951L230.142 405.178V409.123L238.033 408.56L295.102 393.482L310.461 387.846L308.77 384.041L305.952 381.646L302.147 384.041L261.001 393.06L228.733 400.951Z" fill="#D9D9D9"/>
<path d="M64.2895 402.923L135.45 413.492L115.722 420.537L106.14 415.042L94.1626 409.546C92.5186 409.076 89.0053 408.334 88.1034 409.123C87.2016 409.913 83.0306 410.673 81.0579 410.955C75.6469 411.293 71.8517 410.345 70.6305 409.828L-17.0161 397.569L-72.1123 388.55L-94.9399 382.491V379.109L-81.5534 381.505L64.2895 402.923Z" fill="#D9D9D9"/>
<path d="M228.733 400.951L230.142 405.178V409.123L238.033 408.56L295.102 393.482L310.461 387.846L308.77 384.041L305.952 381.646L302.147 384.041L261.001 393.06L228.733 400.951Z" stroke="#96DCFF" stroke-width="0.939948"/>
<path d="M64.2895 402.923L135.45 413.492L115.722 420.537L106.14 415.042L94.1626 409.546C92.5186 409.076 89.0053 408.334 88.1034 409.123C87.2016 409.913 83.0306 410.673 81.0579 410.955C75.6469 411.293 71.8517 410.345 70.6305 409.828L-17.0161 397.569L-72.1123 388.55L-94.9399 382.491V379.109L-81.5534 381.505L64.2895 402.923Z" stroke="#96DCFF" stroke-width="0.939948"/>
<path d="M228.22 424.479C228.22 432.349 234.101 438.664 241.277 438.664C248.454 438.664 254.335 432.349 254.335 424.479C254.335 416.609 248.454 410.294 241.277 410.294C234.101 410.294 228.22 416.609 228.22 424.479Z" fill="#959799" stroke="#96DCFF" stroke-width="0.939948"/>
<path d="M231.597 424.762C231.597 430.9 236.387 435.846 242.259 435.846C248.131 435.846 252.921 430.9 252.921 424.762C252.921 418.623 248.131 413.677 242.259 413.677C236.387 413.677 231.597 418.623 231.597 424.762Z" fill="#272727" stroke="#96DCFF" stroke-width="0.939948"/>
<path d="M231.978 414.192L230.569 405.879C230.321 404.413 229.442 404.751 229.16 405.456L227.187 410.388C227.046 410.81 226.624 411.684 226.06 411.797C225.496 411.909 225.074 411.468 224.933 411.233C222.678 407.062 220.142 405.925 219.155 405.879H209.01C201.683 405.879 193.463 404.657 190.269 404.047C187.685 403.436 181.617 402.074 178.009 401.51C174.402 400.947 171.152 401.745 169.978 402.215L133.623 413.488L105.159 415.46L111.359 425.606L136.3 431.806L215.069 432.511L218.169 430.82L224.933 428.706C232.373 424.761 232.73 417.386 231.978 414.192Z" fill="#383838" stroke="#96DCFF" stroke-width="0.939948"/>
<path d="M81.3865 424.198C81.3865 432.028 87.7961 438.382 95.7122 438.382C103.628 438.382 110.038 432.028 110.038 424.198C110.038 416.368 103.628 410.013 95.7122 410.013C87.7961 410.013 81.3865 416.368 81.3865 424.198Z" fill="#959799" stroke="#96DCFF" stroke-width="0.939948"/>
<path d="M85.0797 424.48C85.0797 430.58 90.297 435.565 96.7853 435.565C103.274 435.565 108.491 430.58 108.491 424.48C108.491 418.381 103.274 413.396 96.7853 413.396C90.297 413.396 85.0797 418.381 85.0797 424.48Z" fill="#272727" stroke="#96DCFF" stroke-width="0.939948"/>
<path d="M197.904 382.581L197.861 382.582L108.946 384.696L108.907 384.697L108.868 384.704C107.892 384.892 105.365 384.497 104.193 380.66C102.952 376.6 93.9068 347.688 89.5385 333.738C89.3602 333.128 88.9695 332.227 88.3598 331.466C87.7503 330.706 86.8662 330.022 85.7069 330.022H82.8887H82.3634L82.4216 330.544L89.2936 392.252C88.3511 392.85 87.0239 393.734 85.8212 394.627C85.1647 395.115 84.5391 395.61 84.0315 396.065C83.6455 396.412 83.3002 396.759 83.0669 397.079L20.6366 393.01L20.5467 393.946L81.2193 401.67L84.2513 405.825L-81.9046 382.729C-81.9059 382.728 -81.9073 382.728 -81.9086 382.728C-83.4045 382.494 -85.7379 382.081 -87.877 381.6C-88.9479 381.359 -89.9635 381.104 -90.7982 380.847C-91.6509 380.584 -92.2598 380.337 -92.5598 380.129C-92.7571 379.993 -92.9364 379.887 -93.0988 379.815C-93.255 379.745 -93.4303 379.691 -93.6091 379.697C-93.8108 379.704 -94.0087 379.79 -94.1411 379.972C-94.2561 380.13 -94.2829 380.308 -94.287 380.437C-94.295 380.695 -94.2172 380.99 -94.1319 381.239C-94.0421 381.501 -93.9239 381.769 -93.8113 381.994L-93.7458 382.125L-93.6175 382.196C-91.7064 383.247 -86.624 385.509 -81.4756 386.195C-76.4209 386.869 20.9258 402.287 69.2736 409.96C69.5798 410.973 70.1857 412.446 71.1146 413.938C72.0618 415.459 73.3611 417.027 75.0476 418.142C74.0868 419.719 72.6961 423.065 73.1216 426.788C73.3643 428.911 74.9059 431.271 76.6406 433.309C78.3929 435.369 80.4176 437.187 81.7528 438.236M197.904 382.581L82.0432 437.866M197.904 382.581L197.946 382.588M197.904 382.581L197.946 382.588M81.7528 438.236L82.0432 437.866M81.7528 438.236C81.7525 438.236 81.7523 438.235 81.752 438.235L82.0432 437.866M81.7528 438.236C82.2726 438.646 83.4357 439.216 85.2825 439.725C87.144 440.239 89.7352 440.701 93.1424 440.872M82.0432 437.866C82.9356 438.571 86.4114 440.065 93.1752 440.403M93.1424 440.872C93.1391 440.871 93.1358 440.871 93.1326 440.871L93.1752 440.403M93.1424 440.872C93.1454 440.872 93.1486 440.872 93.1517 440.872L93.1752 440.403M93.1424 440.872L93.1752 440.403M197.946 382.588C203.877 383.537 217.993 387.983 227.11 398.24C227.791 399.006 228.4 399.783 228.941 400.565C252.427 395.755 299.333 386.168 301.364 385.829C302.247 385.682 302.932 385.201 303.438 384.637C303.947 384.069 304.253 383.438 304.375 383.051L304.479 382.723M197.946 382.588L304.479 382.723M304.479 382.723H304.823M304.479 382.723H304.823M304.823 382.723H307.36H307.639M304.823 382.723H307.639M307.639 382.723L307.772 382.968M307.639 382.723L307.772 382.968M307.772 382.968L308.615 384.512C308.615 384.513 308.616 384.514 308.616 384.515C309.174 385.508 309.24 386.366 309.036 387.051C308.837 387.72 308.394 388.171 308.019 388.39L307.968 388.42M307.772 382.968L307.968 388.42M307.968 388.42L307.91 388.436M307.968 388.42L307.91 388.436M307.91 388.436L235.947 408.68C236.312 408.815 236.775 408.959 237.346 409.097C238.733 409.432 240.719 409.722 243.396 409.778C246.293 409.838 248.639 411.559 250.371 413.597C252.103 415.635 253.277 418.053 253.833 419.67C255.967 425.328 255.025 429.757 252.936 432.982C250.863 436.184 247.685 438.163 245.381 439.012L245.353 439.022M307.91 388.436L245.353 439.022M245.353 439.022L245.324 439.029M245.353 439.022L245.324 439.029M245.324 439.029C243.434 439.465 237.941 440.114 230.793 439.32M245.324 439.029L230.793 439.32M230.793 439.32C223.808 438.544 219.536 433.822 218.067 431.23L230.793 439.32ZM110.976 424.716C110.817 424.684 110.661 424.652 110.507 424.621C110.507 424.761 110.501 424.92 110.487 425.096C110.639 425.127 110.794 425.159 110.951 425.191C110.966 425.018 110.974 424.859 110.976 424.716ZM216.352 431.687L216.312 431.698L216.19 431.244L216.393 431.668C216.38 431.674 216.366 431.681 216.352 431.687ZM75.4455 418.392C75.5359 418.243 75.6222 418.112 75.7022 417.998C75.567 417.918 75.4341 417.834 75.3036 417.748L75.4455 418.392Z" stroke="#96DCFF" stroke-width="0.939948"/>
<path d="M5.2231 479.359C2.38388 481.374 2.78314 483.403 3.33768 484.166C4.57979 483.068 7.10855 482.793 8.21766 482.793C8.8831 482.716 10.5467 482.816 11.8776 483.823C13.2085 484.83 14.1327 484.777 14.4285 484.624L15.7594 483.25C16.2917 482.701 17.386 482.716 17.8666 482.793C19.1975 483.022 22.0811 483.388 22.9683 483.022C23.8556 482.655 24.595 483.174 24.8538 483.479C25.2974 481.19 23.0423 480.389 21.8593 480.275C20.7502 480.16 18.4655 479.748 18.1993 479.016C17.9331 478.283 16.8315 477.566 16.3139 477.299C14.007 473.453 15.5006 473.254 16.5357 473.636C24.078 477.94 36.2405 475.887 41.379 474.323C41.8596 476.269 42.9982 480.389 43.708 481.305C44.4178 482.22 48.0704 482.449 49.8079 482.449C50.2885 482.831 51.405 483.548 52.0261 483.365C52.6471 483.182 52.2848 482.144 52.0261 481.648C54.6139 482.068 59.8783 482.816 60.2332 482.449C60.5881 482.083 60.0853 481.305 59.7896 480.961C60.6399 481.267 62.6953 481.763 64.115 481.305C65.5346 480.847 67.8119 481.114 68.7731 481.305C67.176 478.741 63.1538 478.024 61.3423 477.985C59.309 477.756 54.8875 477.161 53.4678 476.612C52.0482 476.062 52.137 473.102 52.3588 471.69C52.3218 470.851 52.8468 468.279 55.2424 464.708C57.638 461.137 58.5326 453.072 58.6805 449.485L59.1241 436.094C59.0872 435.75 60.1001 436.712 64.4477 443.304C69.8821 451.545 65.4458 459.214 71.6567 458.756C76.6253 458.39 78.0153 451.202 78.0893 447.654C77.7935 440.71 76.0929 425.037 71.6567 417.895C67.2204 410.753 62.5622 400.955 60.7877 396.949L56.5733 382.87C55.7969 378.407 53.3569 368.38 49.8079 363.985C46.2589 359.59 46.4807 356.812 47.0352 355.973C49.8449 350.135 56.8838 338.14 62.5622 336.858C68.2407 335.576 72.2482 336.324 73.5421 336.858C73.616 335.866 73.0984 333.333 70.4367 331.136C67.7749 328.938 57.7193 330.22 53.0242 331.136C49.9558 328.923 41.4233 325.825 31.8409 331.136C22.2585 336.446 18.7539 352.654 18.1993 360.094C15.715 362.657 9.91824 376.881 7.3304 383.672C4.33566 390.883 -2.0973 406.541 -3.87124 411.485C-5.64518 416.43 -7.49356 432.775 -8.196 440.329C-10.4142 448.074 -14.0963 463.06 -11.0796 461.046C-8.06292 459.031 -3.53879 441.741 -1.65381 433.347C-2.54107 441.863 2.26491 459.1 4.77881 466.654L7.10787 478.1L5.2231 479.359Z" fill="#1B1B1B"/>
<path fill-rule="evenodd" clip-rule="evenodd" d="M41.4252 474.534C44.4095 472.033 47.79 471.559 50.5258 471.176C51.2042 471.081 51.8429 470.992 52.4262 470.878C52.6428 469.654 53.3748 467.483 55.2361 464.708C57.6317 461.137 58.5263 453.072 58.6742 449.485L59.1019 436.573L57.6631 391.456V386.532L56.567 382.87C55.7906 378.407 53.3507 368.38 49.8016 363.985C46.2526 359.59 46.4744 356.812 47.0289 355.973C49.8386 350.135 56.8775 338.14 62.556 336.858C64.6473 336.386 66.512 336.189 68.0979 336.156C70.8182 336.098 72.7184 336.521 73.5358 336.858C73.6097 335.866 73.0922 333.333 70.4304 331.136C70.3426 331.063 70.2467 330.994 70.1433 330.929C67.111 329.022 57.5581 330.25 53.0179 331.136C49.9495 328.923 41.417 325.825 31.8346 331.136C26.9512 333.842 23.6462 339.379 21.5058 345.143C24.191 348.215 29.5256 353.088 35.149 355.745C42.5132 359.225 38.2174 361.926 35.149 362.842C32.5242 363.986 26.3651 367.099 22.7273 370.396C20.258 372.633 18.9988 377.099 17.742 381.556C16.6844 385.306 15.6285 389.05 13.8548 391.456C10.7787 395.628 2.33404 420.66 -1.66987 433.443C-2.04032 437.207 -1.32125 442.635 -0.186482 448.175C1.25617 455.218 3.3707 462.442 4.77252 466.654L5.07513 468.141C5.54525 468.353 6.06714 468.475 6.64578 468.487C10.7762 468.569 13.911 471.867 15.4774 473.57C15.7683 473.443 16.1756 473.506 16.5294 473.636C16.9318 473.866 17.3473 474.077 17.7742 474.272C18.4322 474.571 19.1172 474.83 19.8228 475.053C19.9161 475.082 20.0099 475.111 20.104 475.139C20.7394 475.33 21.3906 475.491 22.0529 475.626C22.0983 475.635 22.1439 475.645 22.1894 475.654L22.2713 475.67L22.2987 475.675C23.4805 475.904 24.6956 476.051 25.9181 476.131C30.6149 476.441 35.4206 475.77 38.8637 474.983C39.8142 474.766 40.6608 474.539 41.3727 474.323C41.3894 474.39 41.4069 474.461 41.4252 474.534ZM-1.79688 433.951C-1.76822 433.825 -1.74008 433.702 -1.71247 433.579C-1.7362 433.655 -1.75977 433.731 -1.78318 433.806L-1.79688 433.951ZM68.4534 336.887C68.4557 336.899 68.4549 336.898 68.4529 336.885L68.4534 336.887Z" fill="white"/>
<path d="M51.5998 347.833C54.861 342.735 58.9827 337.667 62.5635 336.858C64.6549 336.386 66.5195 336.189 68.1055 336.156C70.8257 336.098 72.726 336.521 73.5433 336.858C73.6173 335.866 73.0997 333.333 70.4379 331.136C70.3501 331.063 70.2543 330.994 70.1508 330.929C67.1186 329.022 57.5657 330.25 53.0255 331.136C49.9571 328.923 41.4246 325.825 31.8422 331.136C31.2983 331.437 30.7741 331.773 30.2688 332.142C28.9641 338.305 28.9605 347.766 36.9448 349.22C43.0121 350.325 48.1556 349.228 51.5998 347.833Z" fill="#1B1B1B"/>
<path d="M68.461 336.887C68.4633 336.899 68.4625 336.898 68.4605 336.885L68.461 336.887Z" fill="#1B1B1B"/>
<path fill-rule="evenodd" clip-rule="evenodd" d="M53.0234 331.138C55.4996 334.601 55.461 340.134 54.1308 344.148C56.846 340.506 59.8551 337.471 62.5563 336.862C64.6476 336.39 66.5123 336.193 68.0983 336.159C70.8185 336.102 72.7188 336.524 73.5361 336.862C73.6101 335.87 73.0925 333.336 70.4307 331.139C70.3429 331.067 70.2471 330.998 70.1436 330.933C67.1125 329.027 57.5657 330.253 53.0234 331.138ZM68.455 336.898C68.4554 336.9 68.4552 336.898 68.4538 336.891L68.4532 336.888C68.454 336.893 68.4547 336.897 68.455 336.898Z" fill="#FF7134"/>
<ellipse cx="40.6117" cy="335.252" rx="2.9945" ry="2.06025" fill="white"/>
<ellipse cx="41.059" cy="335.367" rx="1.4418" ry="1.48796" fill="#323232"/>
<path d="M17.4686 362.037C20.8524 359.781 23.1083 364.39 34.3877 365.33C43.7872 365.33 44.1631 359.78 47.547 362.036C50.9308 364.292 60.8629 367.988 65.406 369.555C67.4425 369.711 70.7637 373.784 67.7558 388.823C67.5992 391.643 68.1318 397.659 71.5156 399.163V439.581L33.9177 439.582H-3.6802V399.165C-0.296387 397.661 0.236252 391.645 0.0795898 388.825C-2.92824 373.786 0.392906 369.713 2.42947 369.556C6.97254 367.99 14.0848 364.293 17.4686 362.037Z" fill="#383838"/>
<path fill-rule="evenodd" clip-rule="evenodd" d="M-3.67969 419.847H71.5161V413.267H60.7072V406.687C61.9605 403.554 64.279 397.006 63.527 395.878C62.7751 394.75 63.5268 390.708 63.9967 388.828C65.6292 380.992 63.8356 372.826 62.3094 368.452C60.3028 367.72 57.9656 366.834 55.71 365.918C56.2212 367.963 56.9303 369.853 57.8875 370.969C60.1434 373.601 57.5742 399.951 56.0076 412.797H9.48019C9.01022 399.638 8.16426 372.849 8.54024 370.969C8.91621 369.089 10.2635 367.366 10.8901 366.74C10.5894 366.74 9.86561 366.855 8.79242 367.233C8.54699 367.327 8.30301 367.42 8.06104 367.512C7.63402 367.686 7.16601 367.897 6.6602 368.149C4.40421 369.277 2.58704 372.066 1.96046 373.319V383.189C1.96046 388.076 3.52704 392.431 4.31033 393.998L3.84035 413.267H-3.67969V419.847Z" fill="#F9F9F9"/>
<g opacity="0.7">
<g opacity="0.77">
<path d="M298.476 331.654C328.337 318.543 356.868 323.696 371.378 329.353C373.765 330.283 376.508 328.585 376.508 326.023V268.874C376.508 266.991 374.982 265.465 373.099 265.465H-148.121C-150.004 265.465 -151.53 266.991 -151.53 268.874V315.754C-151.53 318.338 -148.752 319.995 -146.409 318.905C-107.436 300.774 -63.3055 312.792 -45.4677 321.481C-26.0862 328.219 25.8211 337.652 78.3976 321.481C130.974 305.31 156.113 307.433 162.111 310.516C193.424 323.771 264.537 346.557 298.476 331.654Z" fill="white"/>
<path d="M-66.1092 331.654C-95.9697 318.543 -124.501 323.696 -139.011 329.353C-141.398 330.283 -144.141 328.585 -144.141 326.023V268.874C-144.141 266.991 -142.614 265.465 -140.732 265.465H380.488C382.371 265.465 383.897 266.991 383.897 268.874V315.754C383.897 318.338 381.119 319.995 378.776 318.905C339.804 300.774 295.673 312.792 277.835 321.481C258.453 328.219 206.546 337.652 153.97 321.481C101.393 305.31 76.2539 307.433 70.2563 310.516C38.9427 323.771 -32.1694 346.557 -66.1092 331.654Z" fill="#E2F9FF"/>
<path d="M-53.9842 319.764C-83.8447 306.652 -112.376 311.805 -126.886 317.462C-129.273 318.393 -132.016 316.694 -132.016 314.132V256.983C-132.016 255.101 -130.489 253.574 -128.607 253.574H392.613C394.496 253.574 396.022 255.101 396.022 256.983V303.864C396.022 306.448 393.244 308.104 390.901 307.014C351.929 288.883 307.798 300.901 289.96 309.59C270.578 316.328 218.671 325.761 166.095 309.59C113.518 293.42 88.3789 295.542 82.3813 298.625C51.0677 311.881 -20.0444 334.666 -53.9842 319.764Z" fill="white"/>
</g>
<path d="M-53.9842 307.787C-83.8447 294.676 -112.376 299.829 -126.886 305.486C-129.273 306.416 -132.016 304.718 -132.016 302.156V245.007C-132.016 243.124 -130.489 241.598 -128.607 241.598H392.613C394.496 241.598 396.022 243.124 396.022 245.007V291.887C396.022 294.471 393.244 296.128 390.901 295.038C351.929 276.907 307.798 288.925 289.96 297.614C270.578 304.352 218.671 313.785 166.095 297.614C113.518 281.443 88.3789 283.566 82.3813 286.648C51.0677 299.904 -20.0444 322.69 -53.9842 307.787Z" fill="white"/>
<path d="M310.601 307.787C340.462 294.676 368.993 299.829 383.503 305.486C385.89 306.416 388.633 304.718 388.633 302.156V245.007C388.633 243.124 387.107 241.598 385.224 241.598H-135.996C-137.879 241.598 -139.405 243.124 -139.405 245.007V291.887C-139.405 294.471 -136.627 296.128 -134.284 295.038C-95.3114 276.907 -51.1805 288.925 -33.3427 297.614C-13.9612 304.352 37.9461 313.785 90.5226 297.614C143.099 281.443 168.238 283.566 174.236 286.648C205.549 299.904 276.662 322.69 310.601 307.787Z" fill="#E2F9FF"/>
<path d="M298.476 295.896C328.337 282.785 356.868 287.938 371.378 293.595C373.765 294.525 376.508 292.827 376.508 290.265V233.116C376.508 231.233 374.982 229.707 373.099 229.707H-148.121C-150.004 229.707 -151.53 231.233 -151.53 233.116V279.997C-151.53 282.581 -148.752 284.237 -146.409 283.147C-107.436 265.016 -63.3055 277.034 -45.4677 285.723C-26.0862 292.461 25.8211 301.894 78.3976 285.723C130.974 269.552 156.113 271.675 162.111 274.758C193.424 288.013 264.537 310.799 298.476 295.896Z" fill="white"/>
</g>
</g>
<mask id="path-78-inside-1_1573_701" fill="white">
<rect x="574.391" y="16.1406" width="293.017" height="156.03" rx="2.45716"/>
</mask>
<rect x="574.391" y="16.1406" width="293.017" height="156.03" rx="2.45716" fill="#161616" stroke="#262626" stroke-width="18.4287" mask="url(#path-78-inside-1_1573_701)"/>
<rect x="582.367" y="135.312" width="275.817" height="30.1003" fill="#4FCA56"/>
<mask id="path-80-inside-2_1573_701" fill="white">
<rect x="1070.55" y="16.1406" width="293.017" height="156.03" rx="2.45716"/>
</mask>
<rect x="1070.55" y="16.1406" width="293.017" height="156.03" rx="2.45716" fill="#161616" stroke="#262626" stroke-width="18.4287" mask="url(#path-80-inside-2_1573_701)"/>
<rect x="1078.52" y="135.312" width="275.817" height="30.1003" fill="#19E3FF"/>
<mask id="path-82-inside-3_1573_701" fill="white">
<rect x="78.2422" y="16.1406" width="293.017" height="156.03" rx="2.45716"/>
</mask>
<rect x="78.2422" y="16.1406" width="293.017" height="156.03" rx="2.45716" fill="#161616" stroke="#262626" stroke-width="18.4287" mask="url(#path-82-inside-3_1573_701)"/>
<rect x="86.2188" y="135.312" width="275.817" height="30.1003" fill="#6C6C6C"/>
</g>
<defs>
<filter id="filter0_ii_1573_701" x="-38.6094" y="1.76172" width="1501.04" height="179.765" filterUnits="userSpaceOnUse" color-interpolation-filters="sRGB">
<feFlood flood-opacity="0" result="BackgroundImageFix"/>
<feBlend mode="normal" in="SourceGraphic" in2="BackgroundImageFix" result="shape"/>
<feColorMatrix in="SourceAlpha" type="matrix" values="0 0 0 0 0 0 0 0 0 0 0 0 0 0 0 0 0 0 127 0" result="hardAlpha"/>
<feOffset dy="7.1906"/>
<feGaussianBlur stdDeviation="3.5953"/>
<feComposite in2="hardAlpha" operator="arithmetic" k2="-1" k3="1"/>
<feColorMatrix type="matrix" values="0 0 0 0 0 0 0 0 0 0 0 0 0 0 0 0 0 0 0.25 0"/>
<feBlend mode="normal" in2="shape" result="effect1_innerShadow_1573_701"/>
<feColorMatrix in="SourceAlpha" type="matrix" values="0 0 0 0 0 0 0 0 0 0 0 0 0 0 0 0 0 0 127 0" result="hardAlpha"/>
<feOffset dy="35.718"/>
<feGaussianBlur stdDeviation="3.5953"/>
<feComposite in2="hardAlpha" operator="arithmetic" k2="-1" k3="1"/>
<feColorMatrix type="matrix" values="0 0 0 0 0 0 0 0 0 0 0 0 0 0 0 0 0 0 0.25 0"/>
<feBlend mode="normal" in2="effect1_innerShadow_1573_701" result="effect2_innerShadow_1573_701"/>
</filter>
<filter id="filter1_i_1573_701" x="569" y="285.789" width="291.219" height="149.203" filterUnits="userSpaceOnUse" color-interpolation-filters="sRGB">
<feFlood flood-opacity="0" result="BackgroundImageFix"/>
<feBlend mode="normal" in="SourceGraphic" in2="BackgroundImageFix" result="shape"/>
<feColorMatrix in="SourceAlpha" type="matrix" values="0 0 0 0 0 0 0 0 0 0 0 0 0 0 0 0 0 0 127 0" result="hardAlpha"/>
<feMorphology radius="8.45953" operator="erode" in="SourceAlpha" result="effect1_innerShadow_1573_701"/>
<feOffset/>
<feGaussianBlur stdDeviation="6.81462"/>
<feComposite in2="hardAlpha" operator="arithmetic" k2="-1" k3="1"/>
<feColorMatrix type="matrix" values="0 0 0 0 0 0 0 0 0 0 0 0 0 0 0 0 0 0 0.45 0"/>
<feBlend mode="normal" in2="shape" result="effect1_innerShadow_1573_701"/>
</filter>
<filter id="filter2_i_1573_701" x="1158.02" y="286.316" width="282.922" height="149.453" filterUnits="userSpaceOnUse" color-interpolation-filters="sRGB">
<feFlood flood-opacity="0" result="BackgroundImageFix"/>
<feBlend mode="normal" in="SourceGraphic" in2="BackgroundImageFix" result="shape"/>
<feColorMatrix in="SourceAlpha" type="matrix" values="0 0 0 0 0 0 0 0 0 0 0 0 0 0 0 0 0 0 127 0" result="hardAlpha"/>
<feMorphology radius="8.45953" operator="erode" in="SourceAlpha" result="effect1_innerShadow_1573_701"/>
<feOffset/>
<feGaussianBlur stdDeviation="6.81462"/>
<feComposite in2="hardAlpha" operator="arithmetic" k2="-1" k3="1"/>
<feColorMatrix type="matrix" values="0 0 0 0 0 0 0 0 0 0 0 0 0 0 0 0 0 0 0.45 0"/>
<feBlend mode="normal" in2="shape" result="effect1_innerShadow_1573_701"/>
</filter>
<filter id="filter3_i_1573_701" x="0.9375" y="286.316" width="262.242" height="149.453" filterUnits="userSpaceOnUse" color-interpolation-filters="sRGB">
<feFlood flood-opacity="0" result="BackgroundImageFix"/>
<feBlend mode="normal" in="SourceGraphic" in2="BackgroundImageFix" result="shape"/>
<feColorMatrix in="SourceAlpha" type="matrix" values="0 0 0 0 0 0 0 0 0 0 0 0 0 0 0 0 0 0 127 0" result="hardAlpha"/>
<feMorphology radius="8.45953" operator="erode" in="SourceAlpha" result="effect1_innerShadow_1573_701"/>
<feOffset/>
<feGaussianBlur stdDeviation="6.81462"/>
<feComposite in2="hardAlpha" operator="arithmetic" k2="-1" k3="1"/>
<feColorMatrix type="matrix" values="0 0 0 0 0 0 0 0 0 0 0 0 0 0 0 0 0 0 0.45 0"/>
<feBlend mode="normal" in2="shape" result="effect1_innerShadow_1573_701"/>
</filter>
<clipPath id="clip0_1573_701">
<rect width="1441.12" height="435.431" fill="white" transform="translate(-0.0546875 0.394531)"/>
</clipPath>
<clipPath id="clip1_1573_701">
<rect width="291.219" height="149.205" fill="white" transform="translate(569 285.789)"/>
</clipPath>
<clipPath id="clip2_1573_701">
<rect width="282.924" height="149.452" fill="white" transform="translate(1158.02 286.316)"/>
</clipPath>
<clipPath id="clip3_1573_701">
<rect width="262.245" height="149.452" fill="white" transform="translate(0.9375 286.316)"/>
</clipPath>
</defs>
</svg>
