<svg width="197" height="108" viewBox="0 0 197 108" fill="none" xmlns="http://www.w3.org/2000/svg">
<g clip-path="url(#clip0_1627_6)">
<path fill-rule="evenodd" clip-rule="evenodd" d="M206.19 108.052C206.19 167.797 157.758 216.23 98.0132 216.23C38.2685 216.23 -10.1641 167.797 -10.1641 108.052C-10.1641 48.3076 38.2685 -0.125 98.0132 -0.125C157.758 -0.125 206.19 48.3076 206.19 108.052ZM98.0132 206.823C152.563 206.823 196.784 162.602 196.784 108.052C196.784 53.5028 152.563 9.28172 98.0132 9.28172C43.4637 9.28172 -0.757345 53.5028 -0.757345 108.052C-0.757345 162.602 43.4637 206.823 98.0132 206.823Z" fill="white"/>
<path fill-rule="evenodd" clip-rule="evenodd" d="M180.435 131.585C180.435 177.105 143.534 214.006 98.0145 214.006C52.4948 214.006 15.5938 177.105 15.5938 131.585C15.5938 86.0651 52.4948 49.1641 98.0145 49.1641C143.534 49.1641 180.435 86.0651 180.435 131.585ZM98.0145 206.839C139.576 206.839 173.268 173.146 173.268 131.585C173.268 90.0233 139.576 56.3311 98.0145 56.3311C56.453 56.3311 22.7608 90.0233 22.7608 131.585C22.7608 173.146 56.453 206.839 98.0145 206.839Z" fill="white"/>
</g>
<defs>
<clipPath id="clip0_1627_6">
<rect width="197" height="118" fill="white"/>
</clipPath>
</defs>
</svg>
