<svg width="176" height="155" viewBox="0 0 176 155" fill="none" xmlns="http://www.w3.org/2000/svg">
<g clip-path="url(#clip0_1625_3)">
<circle cx="87.9507" cy="76.7749" r="56.7397" fill="#8480EF"/>
<rect x="0.289062" y="0.238281" width="21.0262" height="153.367" rx="2.47367" fill="#8480EF"/>
<rect x="0.289062" y="0.238281" width="21.0262" height="153.367" rx="2.47367" fill="#8480EF"/>
<rect x="154.898" y="0.238281" width="21.0262" height="153.367" rx="2.47367" fill="#8480EF"/>
<path d="M160.19 42.8983H161.684V53.582H159.981V44.7063L157.276 46.6488V44.9006L160.19 42.8983ZM168.118 53.8211C167.261 53.8211 166.519 53.602 165.892 53.1636C165.274 52.7253 164.801 52.0928 164.472 51.266C164.143 50.4292 163.979 49.4231 163.979 48.2476C163.979 46.4745 164.343 45.0998 165.07 44.1236C165.807 43.1473 166.823 42.6592 168.118 42.6592C169.403 42.6592 170.409 43.1473 171.136 44.1236C171.874 45.0998 172.242 46.4745 172.242 48.2476C172.242 49.4231 172.078 50.4292 171.749 51.266C171.42 52.0928 170.947 52.7253 170.33 53.1636C169.722 53.602 168.985 53.8211 168.118 53.8211ZM168.118 52.4165C168.875 52.4165 169.463 52.0629 169.881 51.3556C170.3 50.6384 170.509 49.6024 170.509 48.2476C170.509 46.8829 170.3 45.8469 169.881 45.1396C169.463 44.4224 168.875 44.0638 168.118 44.0638C167.361 44.0638 166.773 44.4224 166.355 45.1396C165.937 45.8469 165.727 46.8829 165.727 48.2476C165.727 49.6024 165.937 50.6384 166.355 51.3556C166.773 52.0629 167.361 52.4165 168.118 52.4165Z" fill="#ACA9FD"/>
<path d="M160.19 101.027H161.684V111.711H159.981V102.835L157.276 104.778V103.029L160.19 101.027ZM168.118 111.95C167.261 111.95 166.519 111.731 165.892 111.293C165.274 110.854 164.801 110.222 164.472 109.395C164.143 108.558 163.979 107.552 163.979 106.377C163.979 104.603 164.343 103.229 165.07 102.252C165.807 101.276 166.823 100.788 168.118 100.788C169.403 100.788 170.409 101.276 171.136 102.252C171.874 103.229 172.242 104.603 172.242 106.377C172.242 107.552 172.078 108.558 171.749 109.395C171.42 110.222 170.947 110.854 170.33 111.293C169.722 111.731 168.985 111.95 168.118 111.95ZM168.118 110.545C168.875 110.545 169.463 110.192 169.881 109.485C170.3 108.767 170.509 107.731 170.509 106.377C170.509 105.012 170.3 103.976 169.881 103.269C169.463 102.551 168.875 102.193 168.118 102.193C167.361 102.193 166.773 102.551 166.355 103.269C165.937 103.976 165.727 105.012 165.727 106.377C165.727 107.731 165.937 108.767 166.355 109.485C166.773 110.192 167.361 110.545 168.118 110.545Z" fill="#ACA9FD"/>
<path d="M5.58061 42.8983H7.07483V53.582H5.37141V44.7063L2.66686 46.6488V44.9006L5.58061 42.8983ZM13.5088 53.8211C12.6521 53.8211 11.9099 53.602 11.2824 53.1636C10.6648 52.7253 10.1916 52.0928 9.86285 51.266C9.53412 50.4292 9.36976 49.4231 9.36976 48.2476C9.36976 46.4745 9.73335 45.0998 10.4605 44.1236C11.1977 43.1473 12.2138 42.6592 13.5088 42.6592C14.7938 42.6592 15.7999 43.1473 16.5271 44.1236C17.2643 45.0998 17.6328 46.4745 17.6328 48.2476C17.6328 49.4231 17.4685 50.4292 17.1397 51.266C16.811 52.0928 16.3378 52.7253 15.7202 53.1636C15.1126 53.602 14.3754 53.8211 13.5088 53.8211ZM13.5088 52.4165C14.2658 52.4165 14.8536 52.0629 15.272 51.3556C15.6903 50.6384 15.8995 49.6024 15.8995 48.2476C15.8995 46.8829 15.6903 45.8469 15.272 45.1396C14.8536 44.4224 14.2658 44.0638 13.5088 44.0638C12.7517 44.0638 12.164 44.4224 11.7456 45.1396C11.3272 45.8469 11.118 46.8829 11.118 48.2476C11.118 49.6024 11.3272 50.6384 11.7456 51.3556C12.164 52.0629 12.7517 52.4165 13.5088 52.4165Z" fill="#ACA9FD"/>
<path d="M5.58061 101.027H7.07483V111.711H5.37141V102.835L2.66686 104.778V103.029L5.58061 101.027ZM13.5088 111.95C12.6521 111.95 11.9099 111.731 11.2824 111.293C10.6648 110.854 10.1916 110.222 9.86285 109.395C9.53412 108.558 9.36976 107.552 9.36976 106.377C9.36976 104.603 9.73335 103.229 10.4605 102.252C11.1977 101.276 12.2138 100.788 13.5088 100.788C14.7938 100.788 15.7999 101.276 16.5271 102.252C17.2643 103.229 17.6328 104.603 17.6328 106.377C17.6328 107.552 17.4685 108.558 17.1397 109.395C16.811 110.222 16.3378 110.854 15.7202 111.293C15.1126 111.731 14.3754 111.95 13.5088 111.95ZM13.5088 110.545C14.2658 110.545 14.8536 110.192 15.272 109.485C15.6903 108.767 15.8995 107.731 15.8995 106.377C15.8995 105.012 15.6903 103.976 15.272 103.269C14.8536 102.551 14.2658 102.193 13.5088 102.193C12.7517 102.193 12.164 102.551 11.7456 103.269C11.3272 103.976 11.118 105.012 11.118 106.377C11.118 107.731 11.3272 108.767 11.7456 109.485C12.164 110.192 12.7517 110.545 13.5088 110.545Z" fill="#ACA9FD"/>
<path d="M164.165 15.2422H156.858V13.8526L160.773 10.2814C161.321 9.77331 161.734 9.3101 162.013 8.89172C162.292 8.46338 162.431 8.02507 162.431 7.5768C162.431 7.23811 162.352 6.9293 162.192 6.65038C162.033 6.37146 161.809 6.1523 161.52 5.99292C161.231 5.83353 160.897 5.75384 160.519 5.75384C159.991 5.75384 159.498 5.90327 159.039 6.20211C158.591 6.491 158.188 6.91436 157.829 7.4722L156.708 6.38142C157.207 5.70404 157.779 5.19102 158.427 4.84236C159.074 4.49371 159.797 4.31939 160.593 4.31939C161.301 4.31939 161.918 4.46383 162.446 4.75271C162.974 5.03163 163.383 5.42013 163.672 5.91821C163.96 6.40632 164.105 6.95919 164.105 7.5768C164.105 8.03503 164.01 8.47832 163.821 8.90666C163.632 9.32505 163.348 9.75339 162.969 10.1917C162.591 10.63 162.108 11.1082 161.52 11.6262C161.271 11.8553 160.997 12.0993 160.698 12.3583C160.409 12.6173 160.12 12.8763 159.831 13.1353C159.552 13.3844 159.279 13.6234 159.01 13.8526H164.165V15.2422ZM169.942 15.4813C169.085 15.4813 168.343 15.2621 167.716 14.8238C167.098 14.3855 166.625 13.7529 166.296 12.9261C165.968 12.0894 165.803 11.0833 165.803 9.9078C165.803 8.13465 166.167 6.75996 166.894 5.78373C167.631 4.8075 168.647 4.31939 169.942 4.31939C171.227 4.31939 172.233 4.8075 172.96 5.78373C173.698 6.75996 174.066 8.13465 174.066 9.9078C174.066 11.0833 173.902 12.0894 173.573 12.9261C173.244 13.7529 172.771 14.3855 172.154 14.8238C171.546 15.2621 170.809 15.4813 169.942 15.4813ZM169.942 14.0767C170.699 14.0767 171.287 13.7231 171.705 13.0158C172.124 12.2986 172.333 11.2626 172.333 9.9078C172.333 8.54307 172.124 7.50707 171.705 6.7998C171.287 6.08257 170.699 5.72396 169.942 5.72396C169.185 5.72396 168.597 6.08257 168.179 6.7998C167.761 7.50707 167.551 8.54307 167.551 9.9078C167.551 11.2626 167.761 12.2986 168.179 13.0158C168.597 13.7231 169.185 14.0767 169.942 14.0767Z" fill="#ACA9FD"/>
<path d="M164.165 150.059H156.858V148.669L160.773 145.098C161.321 144.59 161.734 144.127 162.013 143.708C162.292 143.28 162.431 142.841 162.431 142.393C162.431 142.055 162.352 141.746 162.192 141.467C162.033 141.188 161.809 140.969 161.52 140.809C161.231 140.65 160.897 140.57 160.519 140.57C159.991 140.57 159.498 140.72 159.039 141.019C158.591 141.307 158.188 141.731 157.829 142.289L156.708 141.198C157.207 140.52 157.779 140.007 158.427 139.659C159.074 139.31 159.797 139.136 160.593 139.136C161.301 139.136 161.918 139.28 162.446 139.569C162.974 139.848 163.383 140.237 163.672 140.735C163.96 141.223 164.105 141.776 164.105 142.393C164.105 142.851 164.01 143.295 163.821 143.723C163.632 144.141 163.348 144.57 162.969 145.008C162.591 145.446 162.108 145.925 161.52 146.443C161.271 146.672 160.997 146.916 160.698 147.175C160.409 147.434 160.12 147.693 159.831 147.952C159.552 148.201 159.279 148.44 159.01 148.669H164.165V150.059ZM169.942 150.298C169.085 150.298 168.343 150.079 167.716 149.64C167.098 149.202 166.625 148.569 166.296 147.743C165.968 146.906 165.803 145.9 165.803 144.724C165.803 142.951 166.167 141.576 166.894 140.6C167.631 139.624 168.647 139.136 169.942 139.136C171.227 139.136 172.233 139.624 172.96 140.6C173.698 141.576 174.066 142.951 174.066 144.724C174.066 145.9 173.902 146.906 173.573 147.743C173.244 148.569 172.771 149.202 172.154 149.64C171.546 150.079 170.809 150.298 169.942 150.298ZM169.942 148.893C170.699 148.893 171.287 148.539 171.705 147.832C172.124 147.115 172.333 146.079 172.333 144.724C172.333 143.359 172.124 142.323 171.705 141.616C171.287 140.899 170.699 140.54 169.942 140.54C169.185 140.54 168.597 140.899 168.179 141.616C167.761 142.323 167.551 143.359 167.551 144.724C167.551 146.079 167.761 147.115 168.179 147.832C168.597 148.539 169.185 148.893 169.942 148.893Z" fill="#ACA9FD"/>
<path d="M9.55525 15.2422H2.24848V13.8526L6.16336 10.2814C6.71124 9.77331 7.12464 9.3101 7.40356 8.89172C7.68249 8.46338 7.82195 8.02507 7.82195 7.5768C7.82195 7.23811 7.74226 6.9293 7.58287 6.65038C7.42349 6.37146 7.19935 6.1523 6.91047 5.99292C6.62159 5.83353 6.28787 5.75384 5.90934 5.75384C5.38138 5.75384 4.88828 5.90327 4.43005 6.20211C3.98178 6.491 3.57834 6.91436 3.21973 7.4722L2.09906 6.38142C2.59713 5.70404 3.16992 5.19102 3.81742 4.84236C4.46492 4.49371 5.18713 4.31939 5.98405 4.31939C6.69132 4.31939 7.30893 4.46383 7.83689 4.75271C8.36485 5.03163 8.77327 5.42013 9.06216 5.91821C9.35104 6.40632 9.49548 6.95919 9.49548 7.5768C9.49548 8.03503 9.40085 8.47832 9.21158 8.90666C9.02231 9.32505 8.73841 9.75339 8.35987 10.1917C7.98133 10.63 7.4982 11.1082 6.91047 11.6262C6.66143 11.8553 6.38749 12.0993 6.08864 12.3583C5.79976 12.6173 5.51088 12.8763 5.22199 13.1353C4.94307 13.3844 4.66913 13.6234 4.40017 13.8526H9.55525V15.2422ZM15.3328 15.4813C14.4761 15.4813 13.734 15.2621 13.1064 14.8238C12.4888 14.3855 12.0156 13.7529 11.6869 12.9261C11.3581 12.0894 11.1938 11.0833 11.1938 9.9078C11.1938 8.13465 11.5574 6.75996 12.2846 5.78373C13.0217 4.8075 14.0378 4.31939 15.3328 4.31939C16.6178 4.31939 17.6239 4.8075 18.3511 5.78373C19.0883 6.75996 19.4568 8.13465 19.4568 9.9078C19.4568 11.0833 19.2925 12.0894 18.9637 12.9261C18.635 13.7529 18.1618 14.3855 17.5442 14.8238C16.9366 15.2621 16.1994 15.4813 15.3328 15.4813ZM15.3328 14.0767C16.0899 14.0767 16.6776 13.7231 17.096 13.0158C17.5143 12.2986 17.7235 11.2626 17.7235 9.9078C17.7235 8.54307 17.5143 7.50707 17.096 6.7998C16.6776 6.08257 16.0899 5.72396 15.3328 5.72396C14.5757 5.72396 13.988 6.08257 13.5696 6.7998C13.1512 7.50707 12.942 8.54307 12.942 9.9078C12.942 11.2626 13.1512 12.2986 13.5696 13.0158C13.988 13.7231 14.5757 14.0767 15.3328 14.0767Z" fill="#ACA9FD"/>
<path d="M9.55525 150.059H2.24848V148.669L6.16336 145.098C6.71124 144.59 7.12464 144.127 7.40356 143.708C7.68249 143.28 7.82195 142.841 7.82195 142.393C7.82195 142.055 7.74226 141.746 7.58287 141.467C7.42349 141.188 7.19935 140.969 6.91047 140.809C6.62159 140.65 6.28787 140.57 5.90934 140.57C5.38138 140.57 4.88828 140.72 4.43005 141.019C3.98178 141.307 3.57834 141.731 3.21973 142.289L2.09906 141.198C2.59713 140.52 3.16992 140.007 3.81742 139.659C4.46492 139.31 5.18713 139.136 5.98405 139.136C6.69132 139.136 7.30893 139.28 7.83689 139.569C8.36485 139.848 8.77327 140.237 9.06216 140.735C9.35104 141.223 9.49548 141.776 9.49548 142.393C9.49548 142.851 9.40085 143.295 9.21158 143.723C9.02231 144.141 8.73841 144.57 8.35987 145.008C7.98133 145.446 7.4982 145.925 6.91047 146.443C6.66143 146.672 6.38749 146.916 6.08864 147.175C5.79976 147.434 5.51088 147.693 5.22199 147.952C4.94307 148.201 4.66913 148.44 4.40017 148.669H9.55525V150.059ZM15.3328 150.298C14.4761 150.298 13.734 150.079 13.1064 149.64C12.4888 149.202 12.0156 148.569 11.6869 147.743C11.3581 146.906 11.1938 145.9 11.1938 144.724C11.1938 142.951 11.5574 141.576 12.2846 140.6C13.0217 139.624 14.0378 139.136 15.3328 139.136C16.6178 139.136 17.6239 139.624 18.3511 140.6C19.0883 141.576 19.4568 142.951 19.4568 144.724C19.4568 145.9 19.2925 146.906 18.9637 147.743C18.635 148.569 18.1618 149.202 17.5442 149.64C16.9366 150.079 16.1994 150.298 15.3328 150.298ZM15.3328 148.893C16.0899 148.893 16.6776 148.539 17.096 147.832C17.5143 147.115 17.7235 146.079 17.7235 144.724C17.7235 143.359 17.5143 142.323 17.096 141.616C16.6776 140.899 16.0899 140.54 15.3328 140.54C14.5757 140.54 13.988 140.899 13.5696 141.616C13.1512 142.323 12.942 143.359 12.942 144.724C12.942 146.079 13.1512 147.115 13.5696 147.832C13.988 148.539 14.5757 148.893 15.3328 148.893Z" fill="#ACA9FD"/>
</g>
<defs>
<clipPath id="clip0_1625_3">
<rect width="175.636" height="153.82" fill="white" transform="translate(0.289062 0.238281)"/>
</clipPath>
</defs>
</svg>
