<svg width="440" height="102" viewBox="0 0 440 102" fill="none" xmlns="http://www.w3.org/2000/svg">
<path d="M0.039063 10.9571C0.0390627 4.95314 4.90627 0.0859373 10.9103 0.085937L427.885 0.0859178L439.236 0.0859175L427.885 12.0443L427.885 90.4529C427.885 96.4569 423.018 101.324 417.014 101.324L10.9103 101.324C4.9063 101.324 0.0390665 96.4569 0.0390662 90.4529L0.039063 10.9571Z" fill="#4FCA56"/>
<path d="M18.0961 39V14.1267H22.0967V36.9823H19.5224L34.6899 14.1267H39.0036V39H35.003V16.1096H37.5078L22.3402 39H18.0961ZM28.6021 11.448C26.9554 11.448 25.5755 11.0305 24.4623 10.1956C23.3491 9.36072 22.6997 8.13155 22.5142 6.50812H25.7147C25.8306 7.4358 26.1437 8.10836 26.6539 8.52582C27.1874 8.94327 27.8367 9.152 28.6021 9.152C29.3906 9.152 30.0284 8.94327 30.5154 8.52582C31.0256 8.10836 31.3503 7.4358 31.4895 6.50812H34.6899C34.5276 8.13155 33.8898 9.36072 32.7766 10.1956C31.6634 11.0305 30.2719 11.448 28.6021 11.448ZM53.0335 39.5566C51.2013 39.5566 49.5663 39.1623 48.1284 38.3738C46.7137 37.5853 45.6005 36.4953 44.7888 35.1038C43.977 33.7122 43.5712 32.112 43.5712 30.303C43.5712 28.5173 43.977 26.9286 44.7888 25.5371C45.6005 24.1456 46.7137 23.0556 48.1284 22.267C49.5663 21.4785 51.2013 21.0842 53.0335 21.0842C54.8888 21.0842 56.5239 21.4785 57.9386 22.267C59.3765 23.0556 60.4897 24.1456 61.2782 25.5371C62.0899 26.9286 62.4958 28.5173 62.4958 30.303C62.4958 32.112 62.0899 33.7122 61.2782 35.1038C60.4897 36.4953 59.3765 37.5853 57.9386 38.3738C56.5239 39.1623 54.8888 39.5566 53.0335 39.5566ZM53.0335 36.2865C54.1235 36.2865 55.0744 36.0314 55.8861 35.5212C56.6978 35.011 57.324 34.3152 57.7646 33.4339C58.2285 32.5295 58.4604 31.4858 58.4604 30.303C58.4604 29.1434 58.2285 28.123 57.7646 27.2417C57.324 26.3372 56.6978 25.6299 55.8861 25.1196C55.0744 24.6094 54.1235 24.3543 53.0335 24.3543C51.9667 24.3543 51.0274 24.6094 50.2157 25.1196C49.4039 25.6299 48.7662 26.3372 48.3023 27.2417C47.8617 28.123 47.6414 29.1434 47.6414 30.303C47.6414 31.4858 47.8617 32.5295 48.3023 33.4339C48.7662 34.3152 49.4039 35.011 50.2157 35.5212C51.0274 36.0314 51.9667 36.2865 53.0335 36.2865ZM78.4805 21.6408H82.4116L73.9581 41.4004C73.3783 42.8151 72.6246 43.8935 71.6969 44.6356C70.7692 45.3778 69.5053 45.7488 67.905 45.7488H65.8178V42.5136H67.7311C68.45 42.5136 69.0414 42.3396 69.5053 41.9918C69.9923 41.6671 70.375 41.1684 70.6533 40.4959L71.2447 39.0348L63.7653 21.6408H67.8355L73.819 36.8432H72.4622L78.4805 21.6408ZM92.381 39V21.6408H96.486L102.991 33.8862L102.365 33.8514L108.766 21.6408H113.045V39H109.462V22.928L111.027 23.7977L103.931 37.2606H101.252L94.1552 23.7977L95.825 23.0671V39H92.381ZM132.639 33.747L134.865 36.1822C133.961 37.2258 132.836 38.0491 131.491 38.6521C130.146 39.2551 128.65 39.5566 127.003 39.5566C125.055 39.5566 123.327 39.1623 121.82 38.3738C120.335 37.5853 119.164 36.4953 118.306 35.1038C117.471 33.7122 117.054 32.1236 117.054 30.3378C117.054 28.5288 117.46 26.9286 118.271 25.5371C119.083 24.1456 120.196 23.0556 121.611 22.267C123.026 21.4785 124.614 21.0842 126.377 21.0842C128.093 21.0842 129.612 21.4785 130.934 22.267C132.256 23.0324 133.3 24.0992 134.065 25.4675C134.83 26.8126 135.213 28.3781 135.213 30.1639V30.3726H131.352V29.9899C131.352 28.8303 131.131 27.8215 130.691 26.9634C130.273 26.0821 129.693 25.4095 128.951 24.9457C128.209 24.4587 127.339 24.2152 126.342 24.2152C125.299 24.2152 124.371 24.4703 123.559 24.9805C122.771 25.4675 122.156 26.1633 121.715 27.0678C121.275 27.949 121.054 29.0159 121.054 30.2682C121.054 31.5206 121.309 32.6106 121.82 33.5383C122.353 34.466 123.072 35.1849 123.977 35.6952C124.904 36.1822 125.971 36.4257 127.177 36.4257C129.38 36.4257 131.201 35.5328 132.639 33.747ZM135.213 31.5554H119.767V28.9115H134.656L135.213 30.1987V31.5554ZM151.926 39V21.6408H155.822V39H151.926ZM139.263 39V21.6408H143.159V39H139.263ZM141.107 31.4858V28.2853H154.152V31.4858H141.107ZM162.469 43.4528H160.034C160.683 42.6411 161.205 41.7714 161.599 40.8438C161.994 39.9161 162.156 39.1276 162.086 38.4782L162.678 39.2783C161.959 39.2783 161.356 39.0464 160.869 38.5825C160.382 38.0955 160.138 37.5041 160.138 36.8084C160.138 36.1126 160.37 35.5328 160.834 35.069C161.321 34.5819 161.901 34.3384 162.573 34.3384C163.362 34.3384 164 34.6051 164.487 35.1385C164.997 35.672 165.252 36.3793 165.252 37.2606C165.252 37.8868 165.113 38.5709 164.835 39.3131C164.58 40.0784 164.243 40.809 163.826 41.5047C163.408 42.2237 162.956 42.8731 162.469 43.4528ZM188.99 39V21.6408H192.886V39H188.99ZM176.327 39V21.6408H180.223V39H176.327ZM178.171 31.4858V28.2853H191.216V31.4858H178.171ZM213.205 39H209.622V35.556L209.448 34.8255V28.3201C209.448 27.0214 209.03 26.0125 208.195 25.2936C207.36 24.5514 206.224 24.1804 204.786 24.1804C203.742 24.1804 202.768 24.3891 201.864 24.8065C200.983 25.224 200.217 25.8038 199.568 26.5459L197.341 24.1108C198.292 23.1599 199.406 22.4178 200.681 21.8844C201.957 21.3509 203.371 21.0842 204.925 21.0842C206.572 21.0842 208.01 21.3741 209.239 21.9539C210.491 22.5105 211.465 23.3223 212.161 24.3891C212.857 25.4559 213.205 26.7315 213.205 28.2158V39ZM203.464 39.5566C202.142 39.5566 200.971 39.3131 199.951 38.8261C198.93 38.339 198.142 37.6781 197.585 36.8432C197.028 36.0082 196.75 35.0342 196.75 33.921C196.75 32.715 197.098 31.6945 197.794 30.8596C198.489 30.0015 199.452 29.3522 200.681 28.9115C201.933 28.4477 203.371 28.2158 204.995 28.2158H209.865V30.8944H205.343C203.974 30.8944 202.861 31.1379 202.003 31.625C201.168 32.112 200.751 32.8309 200.751 33.7818C200.751 34.6399 201.075 35.3241 201.725 35.8343C202.374 36.3213 203.221 36.5648 204.264 36.5648C205.262 36.5648 206.178 36.3561 207.013 35.9387C207.847 35.5212 208.508 34.953 208.995 34.2341C209.506 33.4919 209.796 32.6454 209.865 31.6945L211.117 32.2859C211.117 33.7006 210.793 34.9646 210.143 36.0778C209.494 37.1678 208.59 38.0259 207.43 38.6521C206.27 39.2551 204.948 39.5566 203.464 39.5566ZM217.672 39V21.6408H233.709V39H229.813V22.267L232.596 24.8065H218.576L221.568 22.267V39H217.672ZM238.803 39V21.6408H242.56V33.9905L242.281 33.8862L251.883 21.6408H255.292V39H251.535V26.6503L251.779 26.7547L242.212 39H238.803ZM260.375 39V21.6408H264.202V38.2347L262.88 35.8343H272.203L270.846 38.2347V21.6408H274.673V38.2347L273.769 35.8343H283.161L281.318 38.2347V21.6408H285.144V39H260.375ZM290.237 39V21.6408H293.994V33.9905L293.716 33.8862L303.317 21.6408H306.727V39H302.969V26.6503L303.213 26.7547L293.646 39H290.237ZM318.604 39V21.6408H322.709L329.214 33.8862L328.588 33.8514L334.989 21.6408H339.268V39H335.685V22.928L337.25 23.7977L330.154 37.2606H327.475L320.378 23.7977L322.048 23.0671V39H318.604ZM352.739 39.5566C350.907 39.5566 349.272 39.1623 347.834 38.3738C346.419 37.5853 345.306 36.4953 344.494 35.1038C343.683 33.7122 343.277 32.112 343.277 30.303C343.277 28.5173 343.683 26.9286 344.494 25.5371C345.306 24.1456 346.419 23.0556 347.834 22.267C349.272 21.4785 350.907 21.0842 352.739 21.0842C354.595 21.0842 356.23 21.4785 357.644 22.267C359.082 23.0556 360.195 24.1456 360.984 25.5371C361.796 26.9286 362.202 28.5173 362.202 30.303C362.202 32.112 361.796 33.7122 360.984 35.1038C360.195 36.4953 359.082 37.5853 357.644 38.3738C356.23 39.1623 354.595 39.5566 352.739 39.5566ZM352.739 36.2865C353.829 36.2865 354.78 36.0314 355.592 35.5212C356.404 35.011 357.03 34.3152 357.47 33.4339C357.934 32.5295 358.166 31.4858 358.166 30.303C358.166 29.1434 357.934 28.123 357.47 27.2417C357.03 26.3372 356.404 25.6299 355.592 25.1196C354.78 24.6094 353.829 24.3543 352.739 24.3543C351.672 24.3543 350.733 24.6094 349.921 25.1196C349.11 25.6299 348.472 26.3372 348.008 27.2417C347.567 28.123 347.347 29.1434 347.347 30.303C347.347 31.4858 347.567 32.5295 348.008 33.4339C348.472 34.3152 349.11 35.011 349.921 35.5212C350.733 36.0314 351.672 36.2865 352.739 36.2865ZM366.2 39V21.6408H369.957V33.9905L369.678 33.8862L379.28 21.6408H382.689V39H378.932V26.6503L379.176 26.7547L369.609 39H366.2ZM387.772 39V21.6408H391.877L398.383 33.8862L397.756 33.8514L404.157 21.6408H408.436V39H404.853V22.928L406.419 23.7977L399.322 37.2606H396.643L389.546 23.7977L391.216 23.0671V39H387.772ZM25.7147 83.5566C22.7461 83.5566 20.4617 82.5014 18.8615 80.3909C17.2612 78.2804 16.4611 75.2539 16.4611 71.3113C16.4611 67.4382 17.1337 64.5276 18.4788 62.5795C19.8239 60.6314 21.9576 59.4602 24.8798 59.0659L32.4983 57.9527L32.9853 61.188L25.4712 62.336C24.1724 62.5447 23.1288 62.9506 22.3402 63.5536C21.5749 64.1566 21.0183 65.061 20.6704 66.267C20.3225 67.4498 20.1022 69.0269 20.0095 70.9982L19.4181 72.0418C19.65 70.859 20.1138 69.8502 20.8096 69.0153C21.5053 68.1572 22.375 67.5078 23.4187 67.0671C24.4623 66.6033 25.5755 66.3714 26.7583 66.3714C28.4281 66.3714 29.8428 66.7309 31.0024 67.4498C32.1852 68.1456 33.0897 69.1196 33.7159 70.372C34.3421 71.6012 34.6552 73.0159 34.6552 74.6161C34.6552 76.4019 34.2841 77.9674 33.5419 79.3125C32.7998 80.6576 31.7562 81.7013 30.411 82.4434C29.0891 83.1855 27.5236 83.5566 25.7147 83.5566ZM25.5755 80.2518C27.1526 80.2518 28.3817 79.7647 29.263 78.7907C30.1675 77.8166 30.6198 76.4831 30.6198 74.7901C30.6198 73.1434 30.2023 71.8679 29.3674 70.9634C28.5325 70.0357 27.3497 69.5719 25.819 69.5719C24.9145 69.5719 24.0912 69.7806 23.3491 70.1981C22.6069 70.5923 21.9692 71.1489 21.4358 71.8679C20.9255 72.5868 20.5777 73.4449 20.3921 74.4422L20.5313 72.4941C20.4849 75.1379 20.8676 77.0977 21.6793 78.3732C22.491 79.6256 23.7897 80.2518 25.5755 80.2518ZM42.5319 89.7488H38.6356V65.6408H42.4971V70.9982H41.6622C41.8245 69.8386 42.2304 68.8181 42.8798 67.9368C43.5291 67.0556 44.3641 66.3598 45.3845 65.8496C46.4049 65.3394 47.5413 65.0842 48.7937 65.0842C50.4171 65.0842 51.8782 65.4785 53.177 66.267C54.4989 67.0556 55.5426 68.1456 56.3079 69.5371C57.0732 70.9286 57.4559 72.5173 57.4559 74.303C57.4559 76.112 57.0616 77.7122 56.2731 79.1038C55.5078 80.4953 54.4641 81.5853 53.1422 82.3738C51.8203 83.1623 50.3244 83.5566 48.6546 83.5566C47.1239 83.5566 45.8019 83.2435 44.6887 82.6173C43.5755 81.968 42.729 81.0983 42.1492 80.0082C41.5926 78.895 41.3607 77.6543 41.4535 76.2859L42.2536 75.6598C42.3695 76.5642 42.6826 77.3644 43.1929 78.0601C43.7031 78.7559 44.3641 79.3009 45.1758 79.6952C45.9875 80.0894 46.8688 80.2865 47.8196 80.2865C48.9561 80.2865 49.9301 80.0314 50.7418 79.5212C51.5767 79.011 52.2261 78.3036 52.6899 77.3992C53.1538 76.4947 53.3857 75.4626 53.3857 74.303C53.3857 73.1666 53.1654 72.1462 52.7247 71.2417C52.2841 70.3372 51.6579 69.6299 50.8462 69.1196C50.0577 68.6094 49.1184 68.3543 48.0284 68.3543C46.9615 68.3543 46.0107 68.621 45.1758 69.1544C44.3641 69.6646 43.7147 70.3836 43.2276 71.3113C42.7638 72.2389 42.5319 73.329 42.5319 74.5813V89.7488ZM76.4313 83H72.8482V79.556L72.6742 78.8255V72.3201C72.6742 71.0214 72.2568 70.0125 71.4219 69.2936C70.587 68.5514 69.4506 68.1804 68.0127 68.1804C66.969 68.1804 65.995 68.3891 65.0905 68.8065C64.2092 69.224 63.4438 69.8038 62.7945 70.5459L60.568 68.1108C61.5189 67.1599 62.6321 66.4178 63.9077 65.8844C65.1832 65.3509 66.5979 65.0842 68.1518 65.0842C69.7984 65.0842 71.2363 65.3741 72.4655 65.9539C73.7179 66.5105 74.6919 67.3223 75.3877 68.3891C76.0834 69.4559 76.4313 70.7315 76.4313 72.2158V83ZM66.6907 83.5566C65.3688 83.5566 64.1976 83.3131 63.1771 82.8261C62.1567 82.339 61.3682 81.6781 60.8116 80.8432C60.255 80.0082 59.9767 79.0342 59.9767 77.921C59.9767 76.715 60.3245 75.6945 61.0203 74.8596C61.716 74.0015 62.6785 73.3522 63.9077 72.9115C65.16 72.4477 66.5979 72.2158 68.2214 72.2158H73.0917V74.8944H68.5693C67.2009 74.8944 66.0877 75.1379 65.2296 75.625C64.3947 76.112 63.9773 76.8309 63.9773 77.7818C63.9773 78.6399 64.3019 79.3241 64.9513 79.8343C65.6007 80.3213 66.4472 80.5648 67.4908 80.5648C68.4881 80.5648 69.4042 80.3561 70.2391 79.9387C71.074 79.5212 71.735 78.953 72.222 78.2341C72.7322 77.4919 73.0221 76.6454 73.0917 75.6945L74.344 76.2859C74.344 77.7006 74.0194 78.9646 73.37 80.0778C72.7206 81.1678 71.8161 82.0259 70.6565 82.6521C69.4969 83.2551 68.175 83.5566 66.6907 83.5566ZM85.2468 83V66.928H89.143V83H85.2468ZM79.1589 68.8065V65.6408H95.1961V68.8065H79.1589ZM110.323 83L101.417 73.9899H101.8L109.801 65.6408H114.602L105.522 75.1032L105.07 72.668L115.402 83H110.323ZM98.53 83V65.6408H102.426V83H98.53ZM132.928 83H129.345V79.556L129.171 78.8255V72.3201C129.171 71.0214 128.753 70.0125 127.918 69.2936C127.083 68.5514 125.947 68.1804 124.509 68.1804C123.465 68.1804 122.491 68.3891 121.587 68.8065C120.706 69.224 119.94 69.8038 119.291 70.5459L117.064 68.1108C118.015 67.1599 119.128 66.4178 120.404 65.8844C121.68 65.3509 123.094 65.0842 124.648 65.0842C126.295 65.0842 127.733 65.3741 128.962 65.9539C130.214 66.5105 131.188 67.3223 131.884 68.3891C132.58 69.4559 132.928 70.7315 132.928 72.2158V83ZM123.187 83.5566C121.865 83.5566 120.694 83.3131 119.673 82.8261C118.653 82.339 117.865 81.6781 117.308 80.8432C116.751 80.0082 116.473 79.0342 116.473 77.921C116.473 76.715 116.821 75.6945 117.517 74.8596C118.212 74.0015 119.175 73.3522 120.404 72.9115C121.656 72.4477 123.094 72.2158 124.718 72.2158H129.588V74.8944H125.066C123.697 74.8944 122.584 75.1379 121.726 75.625C120.891 76.112 120.474 76.8309 120.474 77.7818C120.474 78.6399 120.798 79.3241 121.448 79.8343C122.097 80.3213 122.944 80.5648 123.987 80.5648C124.984 80.5648 125.901 80.3561 126.735 79.9387C127.57 79.5212 128.231 78.953 128.718 78.2341C129.229 77.4919 129.518 76.6454 129.588 75.6945L130.84 76.2859C130.84 77.7006 130.516 78.9646 129.866 80.0778C129.217 81.1678 128.312 82.0259 127.153 82.6521C125.993 83.2551 124.671 83.5566 123.187 83.5566ZM137.395 83V65.6408H141.5L148.005 77.8862L147.379 77.8514L153.78 65.6408H158.059V83H154.475V66.928L156.041 67.7977L148.944 81.2606H146.266L139.169 67.7977L140.839 67.0671V83H137.395ZM169.94 83V65.6408H174.045L180.551 77.8862L179.924 77.8514L186.325 65.6408H190.604V83H187.021V66.928L188.587 67.7977L181.49 81.2606H178.811L171.715 67.7977L173.384 67.0671V83H169.94ZM210.198 77.747L212.424 80.1822C211.52 81.2258 210.395 82.0491 209.05 82.6521C207.705 83.2551 206.209 83.5566 204.562 83.5566C202.614 83.5566 200.886 83.1623 199.379 82.3738C197.895 81.5853 196.724 80.4953 195.865 79.1038C195.031 77.7122 194.613 76.1236 194.613 74.3378C194.613 72.5288 195.019 70.9286 195.831 69.5371C196.642 68.1456 197.756 67.0556 199.17 66.267C200.585 65.4785 202.174 65.0842 203.936 65.0842C205.652 65.0842 207.172 65.4785 208.493 66.267C209.815 67.0324 210.859 68.0992 211.624 69.4675C212.39 70.8126 212.772 72.3781 212.772 74.1639V74.3726H208.911V73.9899C208.911 72.8303 208.691 71.8215 208.25 70.9634C207.832 70.0821 207.253 69.4095 206.511 68.9457C205.768 68.4587 204.899 68.2152 203.901 68.2152C202.858 68.2152 201.93 68.4703 201.118 68.9805C200.33 69.4675 199.715 70.1633 199.275 71.0678C198.834 71.949 198.614 73.0159 198.614 74.2682C198.614 75.5206 198.869 76.6106 199.379 77.5383C199.912 78.466 200.631 79.1849 201.536 79.6952C202.464 80.1822 203.53 80.4257 204.736 80.4257C206.94 80.4257 208.76 79.5328 210.198 77.747ZM212.772 75.5554H197.327V72.9115H212.216L212.772 74.1987V75.5554ZM230.042 77.6775L232.547 80.1126C231.688 81.1794 230.633 82.0259 229.381 82.6521C228.128 83.2551 226.691 83.5566 225.067 83.5566C223.281 83.5566 221.681 83.1623 220.266 82.3738C218.875 81.5621 217.773 80.4721 216.962 79.1038C216.15 77.7122 215.744 76.112 215.744 74.303C215.744 72.5173 216.15 70.9402 216.962 69.5719C217.773 68.1804 218.887 67.0903 220.301 66.3018C221.739 65.4901 223.363 65.0842 225.172 65.0842C226.749 65.0842 228.152 65.3857 229.381 65.9887C230.633 66.5917 231.688 67.4382 232.547 68.5282L230.042 70.9634C229.532 70.1749 228.882 69.5487 228.094 69.0848C227.328 68.5978 226.401 68.3543 225.311 68.3543C224.244 68.3543 223.293 68.6094 222.458 69.1196C221.623 69.6299 220.974 70.3372 220.51 71.2417C220.046 72.123 219.814 73.1434 219.814 74.303C219.814 75.4626 220.046 76.4947 220.51 77.3992C220.974 78.3036 221.623 79.011 222.458 79.5212C223.293 80.0314 224.244 80.2865 225.311 80.2865C226.401 80.2865 227.328 80.043 228.094 79.556C228.882 79.069 229.532 78.4428 230.042 77.6775ZM248.795 77.6775L251.299 80.1126C250.441 81.1794 249.386 82.0259 248.134 82.6521C246.881 83.2551 245.443 83.5566 243.82 83.5566C242.034 83.5566 240.434 83.1623 239.019 82.3738C237.628 81.5621 236.526 80.4721 235.714 79.1038C234.903 77.7122 234.497 76.112 234.497 74.303C234.497 72.5173 234.903 70.9402 235.714 69.5719C236.526 68.1804 237.639 67.0903 239.054 66.3018C240.492 65.4901 242.115 65.0842 243.924 65.0842C245.501 65.0842 246.905 65.3857 248.134 65.9887C249.386 66.5917 250.441 67.4382 251.299 68.5282L248.795 70.9634C248.284 70.1749 247.635 69.5487 246.847 69.0848C246.081 68.5978 245.154 68.3543 244.064 68.3543C242.997 68.3543 242.046 68.6094 241.211 69.1196C240.376 69.6299 239.727 70.3372 239.263 71.2417C238.799 72.123 238.567 73.1434 238.567 74.303C238.567 75.4626 238.799 76.4947 239.263 77.3992C239.727 78.3036 240.376 79.011 241.211 79.5212C242.046 80.0314 242.997 80.2865 244.064 80.2865C245.154 80.2865 246.081 80.043 246.847 79.556C247.635 79.069 248.284 78.4428 248.795 77.6775ZM268.835 77.747L271.061 80.1822C270.157 81.2258 269.032 82.0491 267.687 82.6521C266.342 83.2551 264.846 83.5566 263.199 83.5566C261.251 83.5566 259.523 83.1623 258.016 82.3738C256.531 81.5853 255.36 80.4953 254.502 79.1038C253.667 77.7122 253.25 76.1236 253.25 74.3378C253.25 72.5288 253.656 70.9286 254.467 69.5371C255.279 68.1456 256.392 67.0556 257.807 66.267C259.222 65.4785 260.81 65.0842 262.573 65.0842C264.289 65.0842 265.808 65.4785 267.13 66.267C268.452 67.0324 269.496 68.0992 270.261 69.4675C271.026 70.8126 271.409 72.3781 271.409 74.1639V74.3726H267.548V73.9899C267.548 72.8303 267.327 71.8215 266.887 70.9634C266.469 70.0821 265.889 69.4095 265.147 68.9457C264.405 68.4587 263.535 68.2152 262.538 68.2152C261.494 68.2152 260.567 68.4703 259.755 68.9805C258.967 69.4675 258.352 70.1633 257.911 71.0678C257.471 71.949 257.25 73.0159 257.25 74.2682C257.25 75.5206 257.505 76.6106 258.016 77.5383C258.549 78.466 259.268 79.1849 260.172 79.6952C261.1 80.1822 262.167 80.4257 263.373 80.4257C265.576 80.4257 267.397 79.5328 268.835 77.747ZM271.409 75.5554H255.963V72.9115H270.852L271.409 74.1987V75.5554ZM274.52 81.365V79.8343H275.076C275.563 79.8343 275.946 79.7415 276.224 79.556C276.526 79.3473 276.746 78.9994 276.885 78.5124C277.048 78.0021 277.175 77.2948 277.268 76.3903L278.451 65.6408H291.427V80.8432H287.6V66.267L290.313 68.8065H279.112L282.173 66.267L280.921 76.7034C280.805 77.863 280.573 78.7791 280.225 79.4516C279.9 80.1242 279.402 80.6112 278.729 80.9127C278.08 81.2142 277.198 81.365 276.085 81.365H274.52ZM273.685 87.6616V79.8343H294.14V87.6616H290.487V80.7388L292.679 83H275.981L277.372 80.7388V87.6616H273.685ZM318.413 83L310.342 73.9899H310.69L318.274 65.6408H322.901L315.143 74.1639L323.249 83H318.413ZM295.453 83L303.559 74.1639L295.871 65.6408H300.463L308.012 73.9899H308.394L300.358 83H295.453ZM307.42 83V65.6408H311.282V83H307.42Z" fill="white"/>
</svg>
