<svg width="564" height="350" viewBox="0 0 564 350" fill="none" xmlns="http://www.w3.org/2000/svg">
<path d="M486.014 234.462L373.422 243.184V301.462C407.252 295.911 481.257 283.859 506.63 280.053C532.002 276.247 547.861 244.901 552.618 229.704C554.204 213.846 555.552 169.444 548.257 118.698C540.962 67.9534 528.038 50.5091 522.488 48.1301C507.819 35.1793 474.596 9.51566 459.055 10.4671C443.515 11.4186 437.515 33.0649 436.458 43.7691C437.779 61.213 443.039 100.62 453.505 118.698C463.971 136.777 491.432 147.904 503.854 151.208C504.78 166.008 506.63 198.782 506.63 211.468C506.63 224.155 492.886 232.084 486.014 234.462Z" fill="#565656"/>
<path fill-rule="evenodd" clip-rule="evenodd" d="M373.417 243.183L486.01 234.461C492.881 232.083 506.625 224.154 506.625 211.467C506.625 198.781 504.775 166.007 503.85 151.206C491.428 147.903 463.967 136.776 453.501 118.697C443.034 100.619 437.775 61.2119 436.453 43.7681C437.51 33.0639 443.51 11.4176 459.051 10.4661C474.592 9.51463 507.815 35.1783 522.483 48.129C528.034 50.5081 540.958 67.9524 548.253 118.697C555.547 169.442 554.199 213.845 552.614 229.703C547.856 244.9 531.998 276.246 506.625 280.052C483.552 283.513 420.261 293.794 383.538 299.803C379.879 300.401 376.483 300.958 373.417 301.461V243.183ZM528.259 39.7323C520.605 33.0476 508.725 23.5366 496.641 15.6189C490.358 11.5024 483.793 7.667 477.59 4.89073C471.693 2.2518 464.845 -0.02809 458.432 0.364538C445.407 1.16199 437.572 10.6614 433.343 18.7876C429.016 27.1029 426.999 36.5257 426.382 42.7733L426.295 43.6521L426.362 44.5326C427.048 53.5946 428.741 68.2034 431.614 82.9328C434.423 97.3289 438.597 113.154 444.742 123.768C451.31 135.113 462.638 143.513 472.992 149.32C480.405 153.477 487.937 156.646 494.172 158.803C495.144 175.201 496.505 200.841 496.505 211.467C496.505 213.874 495.236 216.507 492.124 219.307C489.447 221.716 486.182 223.501 483.792 224.482L363.297 233.816V313.377L375.056 311.448C408.917 305.892 482.839 293.854 508.126 290.061C524.586 287.592 536.976 276.411 545.419 265.258C553.968 253.966 559.607 241.241 562.272 232.726L562.581 231.739L562.684 230.71C564.348 214.067 565.686 168.842 558.27 117.257C554.535 91.2744 549.288 73.2805 543.978 61.2029C541.325 55.1669 538.581 50.4389 535.874 46.8875C533.765 44.121 531.225 41.4661 528.259 39.7323Z" fill="#7B7B7B"/>
<path d="M78.8006 234.462L191.393 243.184V301.462C157.562 295.911 83.5579 283.859 58.1851 280.053C32.8123 276.247 16.9542 244.901 12.1967 229.704C10.6109 213.846 9.26299 169.444 16.5577 118.698C23.8524 67.9534 36.7767 50.5091 42.3271 48.1301C56.9958 35.1793 90.2184 9.51566 105.759 10.4671C121.3 11.4186 127.3 33.0649 128.357 43.7691C127.036 61.213 121.776 100.62 111.31 118.698C100.843 136.777 73.3824 147.904 60.9603 151.208C60.0352 166.008 58.1851 198.782 58.1851 211.468C58.1851 224.155 71.9288 232.084 78.8006 234.462Z" fill="#565656"/>
<path fill-rule="evenodd" clip-rule="evenodd" d="M181.276 299.803C144.553 293.794 81.262 283.513 58.1884 280.052C32.8156 276.246 16.9574 244.9 12.2 229.703C10.6142 213.845 9.26624 169.442 16.561 118.697C23.8557 67.9524 36.78 50.5081 42.3303 48.129C56.999 35.1783 90.2217 9.51463 105.763 10.4661C121.303 11.4176 127.303 33.0639 128.36 43.7681C127.039 61.2119 121.779 100.619 111.313 118.697C100.847 136.776 73.3857 147.903 60.9635 151.206C60.0385 166.007 58.1884 198.781 58.1884 211.467C58.1884 224.154 71.932 232.083 78.8039 234.461L191.396 243.183V301.461C188.331 300.958 184.935 300.401 181.276 299.803ZM81.0216 224.482C78.6313 223.501 75.3664 221.716 72.6894 219.307C69.5779 216.507 68.3089 213.874 68.3089 211.467C68.3089 200.841 69.6698 175.201 70.6412 158.803C76.8767 156.646 84.4083 153.477 91.822 149.32C102.175 143.513 113.503 135.113 120.071 123.768C126.216 113.154 130.39 97.3289 133.199 82.9328C136.073 68.2034 137.765 53.5946 138.452 44.5326L138.519 43.6521L138.432 42.7733C137.815 36.5257 135.798 27.1029 131.47 18.7876C127.241 10.6614 119.406 1.16199 106.381 0.364538C99.9681 -0.02809 93.1203 2.2518 87.2236 4.89073C81.0201 7.667 74.4559 11.5024 68.173 15.6189C56.0882 23.5366 44.2086 33.0477 36.5546 39.7323C33.5884 41.4661 31.0485 44.121 28.9395 46.8875C26.2322 50.4389 23.4887 55.1669 20.8351 61.2029C15.5253 73.2805 10.2785 91.2744 6.54344 117.257C-0.871947 168.842 0.465389 214.067 2.12972 230.71L2.23265 231.739L2.54168 232.726C5.20699 241.241 10.8456 253.966 19.3944 265.258C27.8374 276.411 40.228 287.592 56.6871 290.061C81.9745 293.854 155.897 305.892 189.758 311.448L201.517 313.377V233.816L81.0216 224.482Z" fill="#7B7B7B"/>
<path d="M191.047 153.67C191.047 149.129 194.019 145.122 198.365 143.805L279.638 119.177C281.587 118.587 283.667 118.587 285.617 119.177L366.889 143.805C371.235 145.122 374.208 149.129 374.208 153.67V339.492C374.208 345.184 369.593 349.799 363.9 349.799H201.355C195.662 349.799 191.047 345.184 191.047 339.492V153.67Z" fill="#565656"/>
<path fill-rule="evenodd" clip-rule="evenodd" d="M206.688 157.627V334.159H358.567V157.627L282.627 134.615L206.688 157.627ZM198.365 143.805C194.019 145.122 191.047 149.129 191.047 153.67V339.492C191.047 345.184 195.662 349.799 201.355 349.799H363.9C369.593 349.799 374.208 345.184 374.208 339.492V153.67C374.208 149.129 371.235 145.122 366.889 143.805L285.617 119.177C283.667 118.587 281.587 118.587 279.638 119.177L198.365 143.805Z" fill="#7B7B7B"/>
</svg>
