<svg width="580" height="360" viewBox="0 0 580 360" fill="none" xmlns="http://www.w3.org/2000/svg">
<path d="M378.572 250.356V245.539L383.374 245.167L498.464 236.252C501.464 235.125 505.773 232.877 509.337 229.669C513.146 226.242 515.565 222.238 515.565 217.739C515.565 205.835 513.944 176.187 512.946 159.741C506.312 157.671 497.432 154.169 488.725 149.286C478.4 143.496 467.7 135.422 461.631 124.94C455.781 114.835 451.613 99.3073 448.735 84.5557C445.823 69.6326 444.107 54.8124 443.414 45.6677L443.38 45.215L443.424 44.7631C444.014 38.7985 445.958 29.7945 450.021 21.9869C454.034 14.2765 460.832 6.48686 471.525 5.83218C476.82 5.50797 482.908 7.41335 488.783 10.0427C494.816 12.7427 501.312 16.5267 507.649 20.6786C520.045 28.8005 532.279 38.6247 539.996 45.3951C542.329 46.6459 544.592 48.8594 546.71 51.6376C549.185 54.8844 551.812 59.367 554.42 65.2992C559.637 77.1667 564.934 95.1852 568.73 121.593C576.294 174.211 574.914 220.298 573.242 237.01L573.189 237.54L573.03 238.047C570.437 246.333 564.887 258.859 556.516 269.917C548.199 280.903 536.528 291.171 521.541 293.419C495.491 297.326 419.426 309.714 384.619 315.425L378.572 316.417V310.289V250.356Z" fill="#1AE4FF" stroke="white" stroke-width="10.408"/>
<path d="M201.779 250.356V245.539L196.977 245.167L81.8866 236.252C78.8875 235.125 74.5782 232.877 71.0138 229.669C67.2054 226.242 64.7861 222.238 64.7861 217.739C64.7861 205.835 66.4074 176.187 67.4053 159.741C74.0392 157.671 82.9191 154.169 91.6258 149.286C101.951 143.496 112.651 135.422 118.72 124.94C124.57 114.835 128.738 99.3073 131.616 84.5557C134.528 69.6326 136.244 54.8124 136.937 45.6677L136.971 45.215L136.927 44.7631C136.338 38.7985 134.393 29.7945 130.33 21.9869C126.317 14.2765 119.519 6.48686 108.826 5.83218C103.531 5.50797 97.4433 7.41335 91.5681 10.0427C85.535 12.7427 79.0394 16.5267 72.7024 20.6786C60.3059 28.8005 48.0723 38.6247 40.3556 45.3951C38.0224 46.6459 35.7586 48.8594 33.6408 51.6376C31.1657 54.8844 28.5394 59.367 25.9314 65.2992C20.714 77.1667 15.4169 95.1852 11.6208 121.593C4.05675 174.211 5.43754 220.298 7.10878 237.01L7.16171 237.54L7.32061 238.047C9.91429 246.333 15.4639 258.859 23.8349 269.917C32.1516 280.903 43.8233 291.171 58.8101 293.419C84.8599 297.326 160.925 309.714 195.732 315.425L201.779 316.417V310.289V250.356Z" fill="#1AE4FF" stroke="white" stroke-width="10.408"/>
<path d="M376.546 158.299V349.4C376.546 350.812 375.401 351.958 373.988 351.958H206.825C205.412 351.958 204.267 350.812 204.267 349.4V158.299C204.267 157.171 205.004 156.177 206.083 155.85L289.665 130.523C290.148 130.376 290.665 130.376 291.148 130.523L374.73 155.85C375.809 156.177 376.546 157.171 376.546 158.299Z" fill="#1AE4FF" stroke="white" stroke-width="16.0852" stroke-linejoin="round"/>
</svg>
